ply
format ascii 1.0
comment Generated by Slim Ghodhbane
element vertex 13
property float x
property float y
property float z
element edge 12
property int vertex1
property int vertex2
end_header
-1.95172 -5.40563 -0.570947
-2.74498 -7.06987 1.4822
-3.95175 -8.01928 1.92371
-4.69594 -8.22243 1.2574
-5.53128 -7.43248 1.39543
-8.56396 -2.96582 -0.946746
-6.38456 0.913491 -0.895587
-1.85018 0.215327 -0.777627
-1.099 -2.72182 -1.2976
-7.3826 -6.73673 4.09745
-6.75292 -2.37041 5.26491
-4.52932 0.53623 5.14538
-1.89132 -2.52059 4.91145
0 1
1 2
2 3
3 4
4 5
5 6
6 7
7 8
8 9
9 10
10 11
11 12
