ply
format ascii 1.0
comment Generated by Slim Ghodhbane
element vertex 176
property float x
property float y
property float z
element edge 175
property int vertex1
property int vertex2
end_header
12.8446 25.3144 15.9565
-29.3699 26.1092 23.053
-63.9118 29.0689 23.2478
23.7162 25.4701 -29.8414
22.7821 26.3757 -66.2593
-30.022 26.6078 -98.0187
-80.0245 30.4868 -80.8706
-98.172 30.2045 -28.741
-98.2 44.1516 -29.1772
-98.1947 60.0681 -29.7583
-81.972 45.4251 -78.3002
-79.811 60.4901 -80.9265
-29.5379 59.3499 -98.7963
-29.2508 44.3633 -98.7963
20.7689 44.8921 -70.7643
23.6999 62.1604 -67.3867
25.2 59.3302 -29.8692
25.2 44.8712 -30.1926
17.1496 43.9767 11.6203
13.6299 60.0087 15.7936
-28.6665 61.3163 24.6091
-30.1605 44.3143 24.6102
-70.5139 45.8098 21.1151
-70.4827 62.5044 21.5445
-65.1584 86.5263 22.6575
-70.0087 104.664 21.0193
-98.1988 104.81 -29.3284
-98.1993 84.7831 -29.2704
-80.3308 104.83 -79.8979
-80.1368 84.9637 -80.707
-29.4714 85.0776 -98.7962
-29.4179 104.95 -98.7963
-31.2419 85.8767 24.6104
-29.5427 105.398 24.6098
15.1194 85.0532 14.7132
19.5773 105.575 9.10311
25.2 105.22 -30.0926
25.1998 85.1013 -29.5412
23.2113 86.8581 -65.5428
21.9315 104.789 -68.8004
21.799 124.964 -69.5933
25.2 124.922 -29.8306
10.5144 125.02 18.004
-29.6262 125.517 24.6083
-64.1111 125.692 23.8733
-30.1607 125.104 -98.7958
-80.1212 125.161 -80.5392
-98.1988 125.241 -29.572
-98.1998 164.607 -29.8923
-98.2 145.343 -29.7149
-79.6321 165.203 -80.8482
-79.6552 144.592 -81.5255
-31.7428 144.691 -98.7963
-30.1272 165.094 -98.7963
19.5715 145.436 -72.1081
21.9205 164.492 -69.4591
25.2 165.099 -30.1332
25.2 145.529 -30.0214
11.6788 166.24 17.0241
11.7726 145.352 17.6275
-29.4467 165.188 24.6089
-29.8978 145.001 24.6096
-66.9576 144.736 22.2985
-66.684 165.12 22.6162
-67.7227 191.319 20.9034
-71.3554 207.222 20.4165
-97.1361 207.975 -28.3085
-98.1995 190.745 -29.6673
-100.759 211.026 -29.2917
-80.3367 190.019 -79.9067
-80.1928 207.585 -81.1398
-35.003 211.653 -101.495
-29.428 207.087 -97.7268
-29.9185 189.561 -98.7963
-30.2192 189.729 24.6091
-30.3689 206.956 23.4751
9.75625 193.13 14.9255
16.213 207.963 13.3079
23.4795 206.459 -28.9458
24.0842 191.063 -31.6045
21.8018 190.762 -69.34
19.6499 206.819 -72.199
30.9557 234.194 -68.8894
32.8453 234.883 -26.5149
19.3596 229.612 20.7419
-23.1201 233.167 31.4968
-66.9203 234.873 30.8396
-105.886 240.165 -24.1859
-106.48 239.792 -60.383
-92.6474 240.843 -98.4357
-58.7634 235.103 -105.584
-25.1928 240.336 -106.861
-24.8396 264.86 -106.877
-63.6926 263.874 -105.712
-94.7634 270.596 -96.9221
-106.497 267.693 -60.8405
-105.896 265.789 -25.343
30.9839 264.658 -69.8784
33.2627 264.981 -26.3733
21.4428 266.049 19.4604
-23.8684 265.131 32.297
-68.897 265.033 31.7373
-71.3433 286.271 30.2991
-68.3322 311.107 21.805
-27.4743 311.2 25.3182
-24.4072 285.328 32.3155
16.9053 288.7 27.6635
16.2817 312.987 11.6782
25.9784 310.832 -31.8388
33.2628 284.856 -23.8076
24.6462 311.801 -64.7919
30.2808 288.735 -74.7494
-97.5833 313.704 -26.0616
-101.646 307.277 -35.5148
-105.81 284.393 -19.9651
-101.95 306.706 -64.8335
-106.407 284.133 -55.1627
-79.9366 311.869 -81.2237
-64.6109 307.54 -101.059
-59.5648 284.379 -106.328
-92.1882 285.533 -99.337
-35.8994 307.924 -102.013
-25.9032 312.461 -98.6371
-25.1327 284.695 -106.874
-29.9997 335.439 -97.3728
-80.9072 332.688 -81.056
-97.1417 334.733 -29.777
-66.3504 332.819 20.3593
-56.2396 353.354 18.1711
-30.1466 332.203 23.0558
-13.6934 352.324 18.6393
11.6856 329.846 11.9895
22.9462 331.935 -27.5198
21.2272 330.939 -65.6435
11.9133 364.555 -61.6802
11.7108 368.515 -35.6282
-3.97339 375.676 -2.01237
2.39948 363.633 5.01622
-33.2687 369.414 10.6283
-62.9783 367.499 8.62898
-83.2075 371.713 -32.1987
-69.696 371.389 -75.6764
-31.4471 370.268 -84.4099
-31.6388 412.248 -80.5562
-31.9 395.377 -81.4224
-70.318 412.132 -74.8444
-76.02 394.723 -69.7949
-80.6992 393.963 -30.8793
-79.8031 415.236 -34.1578
-40.1427 394.123 7.85183
-33.0764 412.812 5.52028
-1.50803 420.612 -6.11215
-2.64378 393.051 -1.14703
7.68846 412.944 -38.3842
8.43587 394.542 -39.9982
4.98494 435.63 -37.7961
1.85437 458.075 -29.8191
-12.5731 451.566 -4.08969
-12.1055 442.603 -2.54305
-29.4806 437.927 1.6511
-58.4738 429.405 0.500769
-69.6811 437.546 -25.185
-71.2722 451.199 -23.7739
-67.8261 454.709 -61.853
-60.9937 434.39 -71.8743
-23.4369 435.89 -75.4452
-20.4525 454.612 -71.9899
-22.4952 476.43 -67.6989
0.684635 467.64 -48.2861
-20.3578 472.049 -12.7459
-67.5991 471.497 -22.8799
-68.7633 475.244 -52.4076
-53.1233 518.186 -59.9891
-26.9705 500.481 -71.7706
-30.8053 517.261 -21.5181
-29.2191 497.552 -11.8695
0 1
1 2
2 3
3 4
4 5
5 6
6 7
7 8
8 9
9 10
10 11
11 12
12 13
13 14
14 15
15 16
16 17
17 18
18 19
19 20
20 21
21 22
22 23
23 24
24 25
25 26
26 27
27 28
28 29
29 30
30 31
31 32
32 33
33 34
34 35
35 36
36 37
37 38
38 39
39 40
40 41
41 42
42 43
43 44
44 45
45 46
46 47
47 48
48 49
49 50
50 51
51 52
52 53
53 54
54 55
55 56
56 57
57 58
58 59
59 60
60 61
61 62
62 63
63 64
64 65
65 66
66 67
67 68
68 69
69 70
70 71
71 72
72 73
73 74
74 75
75 76
76 77
77 78
78 79
79 80
80 81
81 82
82 83
83 84
84 85
85 86
86 87
87 88
88 89
89 90
90 91
91 92
92 93
93 94
94 95
95 96
96 97
97 98
98 99
99 100
100 101
101 102
102 103
103 104
104 105
105 106
106 107
107 108
108 109
109 110
110 111
111 112
112 113
113 114
114 115
115 116
116 117
117 118
118 119
119 120
120 121
121 122
122 123
123 124
124 125
125 126
126 127
127 128
128 129
129 130
130 131
131 132
132 133
133 134
134 135
135 136
136 137
137 138
138 139
139 140
140 141
141 142
142 143
143 144
144 145
145 146
146 147
147 148
148 149
149 150
150 151
151 152
152 153
153 154
154 155
155 156
156 157
157 158
158 159
159 160
160 161
161 162
162 163
163 164
164 165
165 166
166 167
167 168
168 169
169 170
170 171
171 172
172 173
173 174
174 175
