ply
format ascii 1.0
comment Generated by Slim Ghodhbane
element vertex 16
property float x
property float y
property float z
element edge 15
property int vertex1
property int vertex2
end_header
3.81526 11.4315 2.06077
3.751 10.5947 4.56205
6.37898 12.6802 5.40591
8.61471 15.0935 5.1242
4.82723 20.8608 3.18784
2.58044 20.2605 3.09774
-0.450347 19.1892 2.92338
-0.468501 19.2581 5.17511
3.46477 18.4293 8.02161
6.71577 13.1117 2.85852
4.78028 11.286 3.70908
4.88675 11.3437 4.50186
1.0873 19.8651 4.98624
2.43968 20.4479 4.61578
3.94461 19.7537 1.72574
0.427554 14.6983 8.01796
0 1
1 2
2 3
3 4
4 5
5 6
6 7
7 8
8 9
9 10
10 11
11 12
12 13
13 14
14 15
