ply
format ascii 1.0
comment Generated by Slim Ghodhbane
element vertex 672
property float x
property float y
property float z
element edge 671
property int vertex1
property int vertex2
end_header
-11.6431 0.50634 -84.0928
-28.4956 11.1852 -94.3394
-30.7024 32.5638 -98.7963
-29.349 46.2656 -98.7963
-14.7437 32.7363 -98.7897
-13.0977 46.6823 -98.6748
6.30661 43.8984 -95.6431
10.8705 26.7641 -92.9489
20.4145 38.4708 -84.2741
20.1727 51.1171 -85.4155
24.5229 46.2775 -67.7888
25.1143 34.545 -65.3138
25.2 33.419 -49.3162
25.2 47.3164 -49.5266
25.2 46.9411 -30.6473
25.2 33.4307 -30.0943
25.1987 34.5555 -15.2761
25.2 45.2977 -14.8113
23.2214 49.5642 3.0882
19.2979 45.9802 10.7004
21.7519 35.2975 7.64828
8.21601 14.2651 18.5411
-11.7126 3.60228 13.7079
-30.2277 13.0997 21.3792
-29.1264 32.5662 24.6099
-30.6189 45.989 24.6103
-50.3512 47.3901 24.6152
-49.4653 32.2606 24.5932
-63.758 32.61 24.5543
-67.0207 46.0569 24.4785
-13.4343 35.4938 24.606
-13.3858 47.6282 24.5585
22.662 14.4374 -46.0881
20.7019 10.8376 -63.4058
17.1855 6.07981 -28.9475
20.8122 11.1503 -23.9438
20.5572 10.9325 -18.9618
19.2654 9.01111 -11.6658
-49.3535 32.4544 -98.7962
-63.1645 30.76 -98.7768
-87.432 29.6331 -90.5891
-88.6915 47.4115 -90.1125
-98.1185 47.2316 -65.8511
-98.1863 32.11 -63.4404
-98.2 32.1869 -50.0518
-98.2 45.7218 -48.0636
-98.2 46.2047 -28.8832
-98.2 46.5503 -15.9565
-96.3593 46.089 2.61348
-90.7588 33.44 12.4297
-80.4542 7.23785 13.7078
-98.2 31.4253 -28.6278
-98.2 31.2721 -13.425
-97.3091 18.837 -46.692
-48.98 46.8801 -98.7963
-63.423 46.0983 -98.7962
-64.5768 57.1659 -98.7647
-63.8283 69.7479 -98.7685
-51.5537 56.1652 -98.7963
-49.6439 70.0528 -98.7963
-50.2523 90.1228 -98.7963
-61.8508 90.9243 -98.7963
-61.5211 103.068 -98.7963
-48.4339 103.884 -98.7963
-28.8855 102.61 -98.7963
-29.6672 88.877 -98.7963
-12.9342 89.5791 -98.7687
-12.0734 103.408 -98.7813
-29.461 69.4551 -98.7963
-30.7523 56.725 -98.7963
-13.8748 69.2681 -98.7954
-10.7299 55.7218 -98.7958
8.63244 59.0464 -95.186
13.4765 71.7093 -91.3475
14.6381 89.503 -90.5465
17.7594 105.343 -88.4042
24.6636 89.683 -67.2129
25.2 102.004 -62.7475
25.2 102.937 -50.6085
25.2 89.7166 -49.7418
25.2 89.1162 -29.6724
25.2 102.343 -29.8848
25.1955 90.0353 -14.2486
25.1948 103.841 -11.1707
23.5695 92.5303 2.9676
18.1843 93.773 14.1131
10.521 83.8138 20.205
16.6372 71.9207 15.6512
23.2573 66.8708 3.28011
23.5883 57.5925 2.86527
25.1992 70.3442 -14.7578
25.2 69.5864 -29.2455
25.2 57.0301 -28.2426
25.2 69.3093 -49.1775
25.2 57.0971 -50.384
25.2 56.1559 -62.07
25.1139 67.825 -65.2284
-13.1581 89.3544 24.6055
-12.9855 102.6 24.6053
-29.9378 90.8637 24.6101
-31.9948 103.255 24.6106
-50.8102 102.89 24.6153
-61.5779 104.703 24.6179
-49.7332 88.4264 24.615
-63.0021 87.9818 24.6044
-50.0911 70.6971 24.6151
-49.7575 56.6308 24.615
-64.8645 68.5073 24.4591
-72.7341 56.1314 23.4492
-93.3319 56.4464 9.88408
-89.7303 72.1624 14.2062
-89.7803 91.7342 13.2197
-97.9765 56.4349 -12.4807
-98.1986 69.427 -14.6531
-98.2 69.7619 -29.3942
-98.2 56.7876 -29.6947
-98.2 89.4147 -28.5386
-98.2 101.759 -27.1263
-98.1865 102.924 -13.9133
-98.1781 89.5456 -13.9427
-98.2 71.4887 -50.5692
-98.2 68.4576 -64.0856
-98.2 57.2839 -62.8984
-98.2 56.9465 -51.7897
-98.2 89.7895 -50.0704
-98.2 101.903 -49.0244
-98.1872 102.113 -63.7686
-98.0538 89.0414 -65.2403
-13.827 69.7328 24.6035
-10.0793 56.9836 24.6029
-30.3766 69.6333 24.6102
-28.5074 57.2648 24.6098
-80.9717 101.585 -95.9118
-88.1254 88.6924 -88.8313
-90.3118 71.5125 -88.5307
-86.0847 55.9896 -91.0485
-90.7476 110.243 -88.5286
-92.0509 133.547 -85.3604
-89.9447 149.569 -88.0202
-65.4229 151.04 -98.6732
-50.5646 149.394 -98.7963
-31.5164 150.507 -98.7963
-13.9144 150.859 -98.7514
12.2706 149.49 -91.4754
18.1874 129.312 -87.2769
18.8974 113.298 -86.2636
25.2 110.756 -63.6986
25.2 113.029 -50.842
25.2 129.692 -51.0545
25.1982 128.489 -63.6249
25.2 148.975 -50.6305
24.585 149.513 -67.5695
25.2 150.963 -30.5752
25.1115 150.302 -14.4006
23.1113 151.27 3.5235
16.4093 140.237 15.8994
15.7426 130.815 16.3373
18.7937 118.751 11.951
21.9723 114.059 5.86984
2.23972 126.607 22.9773
-12.5305 130.982 24.4869
-29.6044 131.015 24.6097
-29.5622 113.577 24.6099
-12.0928 113.189 24.5033
-49.1434 113.945 24.6149
-63.1693 114.553 24.5974
-65.6072 128.232 24.1808
-49.3959 130.249 24.6149
-49.126 149.616 24.6148
-64.142 149.726 24.5063
-88.6599 147.537 14.6177
-90.3866 130.62 13.758
-90.432 113.198 14.1112
-28.8848 148.996 24.6093
-13.0637 150.727 24.6048
25.2 112.945 -30.2392
25.2 113.629 -14.9768
25.0999 129.769 -12.3303
25.2 130.085 -29.9113
-50.0127 129.858 -98.7963
-50.5905 112.983 -98.7963
-63.6559 114.773 -98.7948
-67.9484 129.777 -98.2007
-30.9461 130.677 -98.7963
-30.4008 113.576 -98.7963
-13.364 129.208 -98.7643
-11.1725 114.616 -98.7012
-98.1977 130.216 -63.3316
-98.2 130.003 -49.0788
-98.1979 113.107 -63.6445
-98.2 112.65 -50.4445
-98.2 113.094 -30.9746
-98.1949 112.209 -14.541
-98.2 129.887 -29.3173
-98.1727 129.447 -13.365
-98.2 149.18 -29.8317
-98.196 151.478 -15.3353
-98.1946 149.914 -62.9763
-98.2 150.51 -49.8948
-98.2 169.372 -50.5678
-98.2 168.124 -62.1997
-98.2 170.313 -29.6303
-98.2 169.202 -14.9921
-97.6337 191.413 -30.1036
-96.3947 205.588 -30.5012
-102.409 211.516 -37.1357
-101.822 210.534 -50.5127
-101.46 208.701 -62.0553
-96.2041 206.769 -63.4243
-95.5675 193.293 -63.8314
-97.6662 190.643 -50.2886
-90.9113 207.181 -87.3598
-88.2962 189.869 -88.7444
-88.8885 170.847 -87.5722
-67.736 204.087 -95.4168
-68.6168 208.172 -100.434
-63.6679 191.326 -97.0773
-49.4899 191.843 -97.6561
-51.4434 206.209 -97.7269
-30.4209 190.623 -97.5012
-29.7394 205.589 -97.193
-13.7138 205.283 -97.0749
-13.8215 189.338 -97.6044
4.01542 190.124 -96.5726
10.2525 205.827 -91.3792
8.0658 210.722 -102.117
14.8242 198.651 -79.3221
18.8257 201.596 -65.4142
24.9979 187.5 -66.7687
25.2 189.871 -49.538
15.1578 198.219 -48.0531
24.0597 206.147 -49.1105
24.7759 206.731 -66.3102
24.5255 206.353 -29.8215
18.6612 201.246 -26.3252
16.9942 199.016 -23.2799
17.5549 199.384 -18.402
18.5013 200.177 -8.56671
24.9957 206.594 -11.7933
24.3687 205.978 0.471654
22.2629 189.443 5.49432
15.4166 187.987 17.3366
9.66033 200.788 14.5549
2.83421 205.506 22.1786
-11.4486 201.539 18.671
-13.2717 208.096 24.2769
-30.9319 206.793 23.8747
-36.128 199.559 16.7055
-30.3812 202.301 19.3747
-30.0754 189.437 24.6091
-29.811 170.129 24.6092
-26.6109 159.623 24.6085
-11.1307 169.227 24.4181
-49.1977 170.176 24.6147
-66.7905 172.725 24.1697
-50.2037 202.243 19.2221
-50.5074 189.594 24.6149
-63.5764 192.24 24.6138
-65.1114 197.946 15.0999
-63.338 205.177 23.632
-50.3093 207.134 23.9015
-11.32 190.493 24.4992
16.7756 172.166 14.9612
23.9845 170.86 1.11134
25.1991 169.274 -14.9808
25.2 170.31 -29.4879
25.1 189.487 -12.7984
25.2 189.346 -29.5838
24.7396 169.185 -67.2534
25.2 159.244 -61.7508
25.2 170.094 -50.4528
15.6231 172.877 -90.4662
-13.3832 169.482 -98.7783
-30.6928 169.464 -98.7963
-49.2562 170.839 -98.7963
-58.8983 159.508 -98.7963
-65.7415 169.936 -98.484
-96.5405 205.841 -49.4354
-96.9822 192.165 -13.8623
-96.06 205.35 -11.6369
-101.521 210.291 -12.2875
-94.003 187.803 7.31459
-92.7689 204.367 10.0488
-93.9408 170.755 8.36705
-95.1749 212.099 4.9848
-103.027 213.818 -6.7836
-98.2 212.086 -17.0504
-98.1243 213.573 -30.0334
-105.7 234.088 -13.0081
-105.683 250.624 -11.3052
-105.689 263.929 -11.3548
-105.001 262.782 4.11762
-102.302 248.972 13.0454
-104.245 235.18 6.20573
-105.817 232.223 -29.5457
-105.988 249.621 -29.6081
-106.006 262.12 -30.7107
-106.152 232.444 -48.7604
-106.322 250.136 -50.0108
-106.341 263.21 -51.1396
-106.524 251.305 -67.0697
-106.245 263.847 -72.1736
-106.399 233.965 -66.8003
-105.594 238.566 -80.2724
-103.486 245.359 -86.3038
-95.7887 231.359 -96.9835
-86.2426 238.569 -103.091
-87.6492 248.304 -102.941
-90.3694 260.135 -102.118
-66.2528 234.286 -106.206
-67.0486 251.062 -106.182
-62.9983 261.639 -106.273
-51.3453 250.149 -106.464
-47.1871 262.779 -106.532
-29.8391 261.238 -106.816
-30.1476 248.962 -106.811
-29.7785 233.331 -106.705
-12.0503 232.707 -107.026
-13.7394 215.99 -104.95
-13.9654 213.928 -98.6746
-28.6626 215.325 -104.418
-35.013 212.472 -98.6643
-51.1721 214.103 -98.7963
-61.2945 212.456 -103.202
-62.3856 215.086 -98.7963
-81.5453 216.64 -102.458
-11.9654 250.875 -107.108
-10.9785 263.256 -107.117
9.48558 235.219 -105.334
10.3617 249.934 -104.437
12.821 263.93 -104.145
-49.3905 231.142 -106.317
-104.31 215.96 -71.4123
-98.1724 213.526 -63.8088
-97.9807 213.21 -51.9808
-86.4456 216.659 27.964
-83.0846 237.366 30.9585
-84.4501 253.174 30.1227
-83.8642 263.486 30.8377
-64.4134 231.342 32.9128
-48.7089 233.35 32.6179
-47.9557 218.017 29.2266
-63.0675 212.588 24.2823
-49.9748 251.422 32.7354
-49.8332 263.689 32.7331
-63.718 262.407 32.9597
-64.9171 249.52 32.9752
-29.269 250.503 32.396
-26.3963 261.076 32.3489
-13.4028 263.389 32.1359
-9.40398 249.633 32.0704
-27.4043 235.361 32.3653
-10.6309 232.573 31.9656
7.43427 235.114 30.427
14.9409 242.018 28.2663
21.6249 249.61 25.6537
8.9396 263.155 30.0436
30.0965 230.492 11.788
33.1649 247.789 3.43163
33.1237 263 2.52296
33.5203 250.945 -12.1189
33.476 262.065 -14.8173
33.2352 261.777 -29.506
33.2294 249.602 -29.8626
33.1668 233.329 -30.5042
32.9033 249.648 -49.7548
32.9016 262.925 -49.8558
32.6275 262.037 -66.5749
32.502 250.437 -67.1191
30.9403 248.01 -83.3319
32.4505 233.445 -68.0533
27.9075 215.016 -68.3962
29.0677 221.965 -87.3277
32.8563 233.631 -50.6805
27.5157 214.338 -48.1097
27.3331 213.475 -28.7429
28.4976 215.891 -16.2272
33.5212 236.259 -11.9613
2.28686 219.016 30.2127
10.4887 214.874 19.9511
-10.1074 213.114 24.4131
-26.5075 216.72 29.2792
-30.0657 272.51 32.4091
-29.6178 287.91 32.2788
-48.7399 287.582 32.6488
-49.4931 272.797 32.7276
-66.163 286.605 32.9532
-68.0838 272.459 32.9315
-85.4053 289.109 29.6334
-87.4035 271.118 28.9137
-10.504 274.043 32.0884
-9.86141 287.929 31.9317
4.05535 275.633 31.4714
21.0933 273.671 25.784
23.2844 284.197 24.3062
9.91661 293.129 29.9952
6.97295 310.54 23.5587
8.86068 317.083 16.8027
-13.9306 310.498 25.0147
-30.2727 310.97 24.8315
-50.4672 312.108 24.4919
-66.7806 310.607 25.543
-86.3046 312.038 15.6744
-101.413 305.039 8.969
-104.718 287.566 10.5278
-104.263 272.821 7.63536
-105.667 272.541 -10.7138
-105.622 284.416 -10.2126
-105.992 272.111 -29.8593
-105.773 288.876 -30.4491
-102.665 307.52 -30.8458
-97.1777 312.111 -30.7538
-97.1067 311.923 -12.2613
-103.195 304.41 -10.632
-97.3825 313.176 -49.9662
-96.3999 314.461 -65.1787
-105.06 301.016 -64.9594
-106.365 285.332 -69.2823
-106.54 271.966 -65.6183
-106.319 271.485 -49.7921
-106.161 288.101 -50.7613
-104.526 276.4 -83.9279
-97.2539 268.405 -95.563
-85.6098 274.075 -103.171
-91.7946 286.619 -100.865
-66.5132 271.399 -106.204
-65.4451 287.577 -106.131
-49.6434 287.319 -106.343
-50.3007 272.33 -106.481
-31.1056 287.305 -106.73
-31.1366 273.085 -106.795
-12.7302 285.681 -107.093
-12.2305 272.362 -107.101
2.98511 284.173 -106.76
8.70542 272.414 -105.823
19.7844 291.953 -99.6781
26.252 284.24 -92.8745
25.246 272.996 -92.805
-13.9974 305.542 -104.305
-13.1695 312.142 -97.6216
-29.2515 308.719 -102.04
-30.7215 310.805 -98.3329
-49.774 312.251 -97.5506
-50.0265 307.781 -102.878
-62.6011 312.577 -98.2467
-80.6081 306.587 -101.667
-90.5139 313.691 -86.5598
5.47903 307.508 -102.847
16.3227 313.272 -89.6618
29.0329 304.878 -82.7716
24.5978 312.302 -65.4812
25.2929 311.526 -50.796
25.8526 310.71 -30.369
25.1547 311.614 -12.3817
32.1789 289.9 7.70187
27.4617 303.885 14.0302
32.061 272.676 6.98327
33.5142 272.28 -12.4488
33.5233 284.762 -11.2838
33.2272 271.868 -29.9946
33.1883 285.605 -30.0565
32.9364 272.22 -47.7319
32.7605 287.812 -51.583
32.4726 286.68 -68.6832
32.533 271.711 -68.0701
25.2 317.929 -62.3729
19.7836 319.083 -63.1999
19.6995 318.982 -57.5931
22.6628 318.6 -45.5193
25.0794 328.175 -50.4392
21.9278 318.819 -32.7173
19.8978 318.999 -23.5838
19.7355 319.39 -15.5708
21.0318 318.458 -5.46522
21.4281 323.491 6.34848
17.5033 319.558 7.33386
13.5663 324.656 17.1268
7.52998 336.912 20.5774
10.6806 349.823 11.9987
2.37411 365.864 7.24811
-11.5984 328.541 24.3356
-10.6806 318.651 19.4888
-18.1264 317.898 24.6038
-27.0495 318.66 22.6224
-31.1789 319.11 19.0851
-47.0186 318.714 23.5174
-50.6729 319.061 19.6744
-60.7683 318.707 20.1578
-67.7318 319.427 19.0726
-62.763 324.647 24.5993
-88.5255 325.593 9.239
-93.1554 318.081 12.7325
-49.9638 328.502 24.5236
-48.1258 345.766 21.7342
-50.0836 354.571 17.5579
-48.3653 364.847 12.3877
-32.658 365.798 11.9862
-29.2668 356.063 16.8249
-28.6069 346.153 21.5063
-19.9789 364.645 12.4986
-16.4549 354.703 17.4668
-63.4311 355.227 17.0722
-62.445 362.638 12.8276
-80.3435 365.663 1.15463
-76.9273 370.433 -1.74399
-86.9352 354.407 5.74614
-88.2911 360.439 -17.2896
-92.5852 352.246 -15.8632
-92.516 352.02 -29.7426
-85.0664 366.201 -29.4321
-85.8294 364.792 -50.1343
-91.6373 353.416 -51.2124
-93.7614 349.217 -62.0913
-98.0756 327.976 -61.7896
-98.2 318.746 -52.8762
-98.0981 328.376 -48.9474
-98.1417 328.392 -28.6244
-96.774 318.894 -30.5465
-97.006 318.271 -16.788
-98.0436 329.95 -14.1237
-82.4914 361.65 -78.1329
-78.3772 368.297 -75.1975
-65.5895 367.279 -83.8028
-47.5515 365.282 -86.4356
-49.1776 353.161 -92.3639
-60.6264 346.899 -95.4012
-61.667 329.818 -98.745
-50.4621 327.012 -98.0502
-30.9967 327.28 -98.1826
-26.8887 318.495 -96.258
-9.7107 318.411 -95.7485
-11.4506 325.781 -98.7162
-64.365 318.149 -96.1339
-29.7513 365.315 -86.415
-18.0796 360.161 -88.9807
-13.415 349.776 -93.8247
-29.0888 352.186 -92.8704
2.55535 366.947 -75.4556
12.8212 358.661 -75.5337
13.2534 356 -80.7686
-83.5969 346.898 -88.7175
-86.0222 324.187 -90.7164
-64.904 344.044 22.3765
-29.3794 327.657 24.5149
24.97 328.903 -12.8178
21.7874 346.709 -15.5915
18.1339 354.623 -14.6974
14.7019 361.498 -17.2174
16.8041 357.303 -29.2219
12.6268 365.696 -30.7911
12.9644 364.98 -48.8463
17.4615 355.977 -50.1409
21.7965 346.86 -51.3339
21.4256 347.71 -29.6665
25.075 327.997 -30.0035
24.4276 328.34 -67.3447
13.5308 328.959 -88.4252
4.76712 374.15 -67.5508
2.07526 383.071 -70.5183
-3.00912 394.094 -74.8935
2.20278 418.747 -69.1098
-3.3485 420.376 -72.7839
-17.9644 370.938 -81.2055
-31.6675 374.527 -81.7584
-45.8661 373.72 -82.0407
-69.2883 376.322 -74.8294
-70.0469 387.165 -74.4067
-33.1418 389.484 -82.0462
-45.4607 390.966 -82.046
-43.4874 410.435 -81.5619
-43.6742 421.34 -80.5791
-33.3063 422.08 -80.5184
-32.0543 409.888 -81.601
-70.5739 410.059 -74.917
8.40812 374.119 -45.681
8.39353 373.951 -31.1654
8.4197 388.21 -31.8118
8.38489 390.412 -45.6364
4.36976 373.531 -11.6331
-0.112337 376.75 -1.14168
-5.08595 384.471 2.42433
-0.662889 396.768 -0.202623
-1.00148 402.309 -0.225512
-6.60942 413.504 3.95978
-5.01092 420.412 -0.276907
4.10363 418.277 -12.2558
6.79313 421.237 -31.7835
7.93213 410.542 -31.2218
7.73127 410.663 -43.4831
-9.0953 375.004 3.38847
-31.6963 374.716 7.78913
-45.8005 374.459 7.64438
-33.3211 389.402 7.85131
-46.0455 390.471 7.80856
-44.8559 410.307 7.14456
-32.0037 411.109 6.96316
-41.2825 423.176 5.09373
-68.1373 388.8 2.9373
-74.1269 385.703 -5.77308
-76.6442 374.483 -5.49995
-80.0417 392.337 -15.6219
-81.4499 389.049 -32.6584
-81.3538 388.999 -46.0721
-81.2151 405.555 -44.6885
-81.1545 407.025 -32.9644
-79.8312 416.352 -33.8576
-78.9422 421.996 -33.3572
-79.0015 422.252 -43.56
-79.7597 417.741 -45.0672
-81.2657 374.187 -32.2388
-81.2396 374.009 -46.368
-69.8901 407.715 2.17519
-77.2592 415.569 -8.18769
-71.0885 430.155 -8.16039
-64.7931 452.706 -7.99342
-65.1643 470.629 -15.3253
-49.2493 470.279 -4.95274
-33.6511 466.482 -3.01876
-34.8516 454.456 -0.665287
-36.0287 444.612 1.14704
-41.3556 441.13 1.7881
-46.7679 451.129 -0.872918
-45.6763 429.376 3.79161
-33.0012 430.287 3.78455
-11.6217 447.747 -4.75366
0.298155 435.374 -10.4397
-1.97957 429.749 -5.24181
-6.25464 468.385 -13.1688
1.18942 468.366 -37.2794
0.510403 467.617 -48.2493
2.77885 455.124 -42.6403
3.5131 447.143 -33.5023
5.83207 429.391 -34.5688
4.87007 433.073 -46.3127
-6.55733 469.582 -65.4396
-8.35467 450.386 -70.1682
-9.51685 434.218 -74.5137
2.55171 425.587 -66.7422
-33.0187 434.097 -79.2777
-33.362 426.156 -80.1223
-41.0083 426.588 -80.0791
-42.9814 431.909 -79.4833
-41.3402 442.844 -78.4486
-35.1763 447.833 -77.9497
-31.2539 466.361 -75.517
-71.1658 469.077 -36.8181
-71.2892 468.763 -42.0542
-74.3841 449.798 -43.3298
-74.7444 447.366 -35.4151
-77.2836 432.561 -42.0749
-77.5794 430.378 -35.3375
-71.058 431.19 -66.5011
-64.7194 451.202 -69.4896
-62.1215 466.154 -68.8541
-63.3107 479.071 -63.5536
-56.881 492.618 -66.2375
-53.1233 518.186 -59.9891
-66.1338 487.907 -50.2016
-67.6248 487.235 -33.5517
-61.0894 488.614 -17.4855
-50.5825 492.878 -12.8295
-50.5079 508.996 -15.2824
-35.9068 479.761 -5.32446
-14.7593 477.993 -9.60941
-14.6548 487.758 -12.3953
-10.4862 500.06 -18.4945
-3.67518 490.098 -27.5044
-2.08092 486.007 -47.9381
-8.64735 480.356 -66.0608
-26.0338 488.637 -72.5067
-8.5675 508.835 -57.3502
-20.619 529.194 -31.6898
0 1
1 2
2 3
3 4
4 5
5 6
6 7
7 8
8 9
9 10
10 11
11 12
12 13
13 14
14 15
15 16
16 17
17 18
18 19
19 20
20 21
21 22
22 23
23 24
24 25
25 26
26 27
27 28
28 29
29 30
30 31
31 32
32 33
33 34
34 35
35 36
36 37
37 38
38 39
39 40
40 41
41 42
42 43
43 44
44 45
45 46
46 47
47 48
48 49
49 50
50 51
51 52
52 53
53 54
54 55
55 56
56 57
57 58
58 59
59 60
60 61
61 62
62 63
63 64
64 65
65 66
66 67
67 68
68 69
69 70
70 71
71 72
72 73
73 74
74 75
75 76
76 77
77 78
78 79
79 80
80 81
81 82
82 83
83 84
84 85
85 86
86 87
87 88
88 89
89 90
90 91
91 92
92 93
93 94
94 95
95 96
96 97
97 98
98 99
99 100
100 101
101 102
102 103
103 104
104 105
105 106
106 107
107 108
108 109
109 110
110 111
111 112
112 113
113 114
114 115
115 116
116 117
117 118
118 119
119 120
120 121
121 122
122 123
123 124
124 125
125 126
126 127
127 128
128 129
129 130
130 131
131 132
132 133
133 134
134 135
135 136
136 137
137 138
138 139
139 140
140 141
141 142
142 143
143 144
144 145
145 146
146 147
147 148
148 149
149 150
150 151
151 152
152 153
153 154
154 155
155 156
156 157
157 158
158 159
159 160
160 161
161 162
162 163
163 164
164 165
165 166
166 167
167 168
168 169
169 170
170 171
171 172
172 173
173 174
174 175
175 176
176 177
177 178
178 179
179 180
180 181
181 182
182 183
183 184
184 185
185 186
186 187
187 188
188 189
189 190
190 191
191 192
192 193
193 194
194 195
195 196
196 197
197 198
198 199
199 200
200 201
201 202
202 203
203 204
204 205
205 206
206 207
207 208
208 209
209 210
210 211
211 212
212 213
213 214
214 215
215 216
216 217
217 218
218 219
219 220
220 221
221 222
222 223
223 224
224 225
225 226
226 227
227 228
228 229
229 230
230 231
231 232
232 233
233 234
234 235
235 236
236 237
237 238
238 239
239 240
240 241
241 242
242 243
243 244
244 245
245 246
246 247
247 248
248 249
249 250
250 251
251 252
252 253
253 254
254 255
255 256
256 257
257 258
258 259
259 260
260 261
261 262
262 263
263 264
264 265
265 266
266 267
267 268
268 269
269 270
270 271
271 272
272 273
273 274
274 275
275 276
276 277
277 278
278 279
279 280
280 281
281 282
282 283
283 284
284 285
285 286
286 287
287 288
288 289
289 290
290 291
291 292
292 293
293 294
294 295
295 296
296 297
297 298
298 299
299 300
300 301
301 302
302 303
303 304
304 305
305 306
306 307
307 308
308 309
309 310
310 311
311 312
312 313
313 314
314 315
315 316
316 317
317 318
318 319
319 320
320 321
321 322
322 323
323 324
324 325
325 326
326 327
327 328
328 329
329 330
330 331
331 332
332 333
333 334
334 335
335 336
336 337
337 338
338 339
339 340
340 341
341 342
342 343
343 344
344 345
345 346
346 347
347 348
348 349
349 350
350 351
351 352
352 353
353 354
354 355
355 356
356 357
357 358
358 359
359 360
360 361
361 362
362 363
363 364
364 365
365 366
366 367
367 368
368 369
369 370
370 371
371 372
372 373
373 374
374 375
375 376
376 377
377 378
378 379
379 380
380 381
381 382
382 383
383 384
384 385
385 386
386 387
387 388
388 389
389 390
390 391
391 392
392 393
393 394
394 395
395 396
396 397
397 398
398 399
399 400
400 401
401 402
402 403
403 404
404 405
405 406
406 407
407 408
408 409
409 410
410 411
411 412
412 413
413 414
414 415
415 416
416 417
417 418
418 419
419 420
420 421
421 422
422 423
423 424
424 425
425 426
426 427
427 428
428 429
429 430
430 431
431 432
432 433
433 434
434 435
435 436
436 437
437 438
438 439
439 440
440 441
441 442
442 443
443 444
444 445
445 446
446 447
447 448
448 449
449 450
450 451
451 452
452 453
453 454
454 455
455 456
456 457
457 458
458 459
459 460
460 461
461 462
462 463
463 464
464 465
465 466
466 467
467 468
468 469
469 470
470 471
471 472
472 473
473 474
474 475
475 476
476 477
477 478
478 479
479 480
480 481
481 482
482 483
483 484
484 485
485 486
486 487
487 488
488 489
489 490
490 491
491 492
492 493
493 494
494 495
495 496
496 497
497 498
498 499
499 500
500 501
501 502
502 503
503 504
504 505
505 506
506 507
507 508
508 509
509 510
510 511
511 512
512 513
513 514
514 515
515 516
516 517
517 518
518 519
519 520
520 521
521 522
522 523
523 524
524 525
525 526
526 527
527 528
528 529
529 530
530 531
531 532
532 533
533 534
534 535
535 536
536 537
537 538
538 539
539 540
540 541
541 542
542 543
543 544
544 545
545 546
546 547
547 548
548 549
549 550
550 551
551 552
552 553
553 554
554 555
555 556
556 557
557 558
558 559
559 560
560 561
561 562
562 563
563 564
564 565
565 566
566 567
567 568
568 569
569 570
570 571
571 572
572 573
573 574
574 575
575 576
576 577
577 578
578 579
579 580
580 581
581 582
582 583
583 584
584 585
585 586
586 587
587 588
588 589
589 590
590 591
591 592
592 593
593 594
594 595
595 596
596 597
597 598
598 599
599 600
600 601
601 602
602 603
603 604
604 605
605 606
606 607
607 608
608 609
609 610
610 611
611 612
612 613
613 614
614 615
615 616
616 617
617 618
618 619
619 620
620 621
621 622
622 623
623 624
624 625
625 626
626 627
627 628
628 629
629 630
630 631
631 632
632 633
633 634
634 635
635 636
636 637
637 638
638 639
639 640
640 641
641 642
642 643
643 644
644 645
645 646
646 647
647 648
648 649
649 650
650 651
651 652
652 653
653 654
654 655
655 656
656 657
657 658
658 659
659 660
660 661
661 662
662 663
663 664
664 665
665 666
666 667
667 668
668 669
669 670
670 671
