ply
format ascii 1.0
comment Generated by Slim Ghodhbane
element vertex 78
property float x
property float y
property float z
element edge 77
property int vertex1
property int vertex2
end_header
0.25 7.75 -6.75
-0.75 9.25 -6.75
1.25 10.75 -6.25
2.25 10.25 -6.25
2.25 11.25 -5.75
3.25 13.25 -5.25
6.75 11.25 -5.25
7.25 12.25 -2.75
6.75 12.25 0.25
7.75 11.75 0.25
6.75 10.75 1.75
5.75 7.75 1.75
4.25 6.75 2.75
6.25 7.25 -0.75
5.25 5.75 -0.75
5.25 3.75 -0.25
4.75 2.25 -0.25
3.25 2.25 3.75
1.75 3.25 4.25
8.25 10.25 -1.75
6.25 16.25 -0.25
0.25 12.25 -6.25
0.75 6.25 -5.25
0.25 5.75 -5.25
-1.25 5.25 -5.25
-0.25 5.25 -4.25
1.75 4.25 -4.25
3.25 1.75 -4.75
-2.75 7.75 -5.25
-4.75 10.25 -5.25
-4.75 12.25 -5.25
-5.75 12.25 -3.25
-6.75 9.75 -3.25
-7.25 9.75 -2.75
-8.25 9.75 -1.25
-8.25 7.75 -1.25
-7.75 11.25 1.25
-7.25 11.25 1.75
-6.25 11.75 1.75
-6.25 14.25 0.25
-5.75 15.25 -0.25
-4.75 16.25 -0.75
-4.25 16.25 -1.75
-1.75 15.75 -2.75
0.75 16.75 -3.25
0.75 17.25 -0.25
-1.75 17.25 0.25
-2.75 18.75 -0.25
-3.25 14.25 -4.25
-4.75 12.75 3.75
-3.75 10.25 3.75
-4.75 7.25 3.25
-5.75 7.75 2.75
-3.75 5.25 3.75
-2.25 6.25 4.25
1.25 7.25 5.25
-0.25 9.25 5.75
2.25 11.25 5.75
1.25 12.75 5.25
3.25 14.25 4.25
4.25 13.75 4.25
-4.75 5.25 1.25
-7.75 4.75 1.25
-7.25 4.25 -0.75
-6.25 3.75 -0.25
-5.25 0.25 -0.25
-4.75 -0.25 -0.25
-3.25 1.25 2.75
-1.25 -2.25 1.75
0.75 -1.75 -0.25
-3.25 15.75 3.25
-5.25 5.25 -4.25
-4.25 3.25 -4.25
-2.25 0.75 -4.75
-3.75 -1.25 -5.75
-1.25 -1.25 -6.75
-4.75 5.75 -2.25
3.75 7.25 -4.75
0 1
1 2
2 3
3 4
4 5
5 6
6 7
7 8
8 9
9 10
10 11
11 12
12 13
13 14
14 15
15 16
16 17
17 18
18 19
19 20
20 21
21 22
22 23
23 24
24 25
25 26
26 27
27 28
28 29
29 30
30 31
31 32
32 33
33 34
34 35
35 36
36 37
37 38
38 39
39 40
40 41
41 42
42 43
43 44
44 45
45 46
46 47
47 48
48 49
49 50
50 51
51 52
52 53
53 54
54 55
55 56
56 57
57 58
58 59
59 60
60 61
61 62
62 63
63 64
64 65
65 66
66 67
67 68
68 69
69 70
70 71
71 72
72 73
73 74
74 75
75 76
76 77
