ply
format ascii 1.0
comment Generated by Slim Ghodhbane
element vertex 19
property float x
property float y
property float z
element edge 18
property int vertex1
property int vertex2
end_header
6.50717 -0.15037 -1.83073
9.24096 -4.77669 1.83878
10.8242 -3.61213 2.06713
13.764 -1.39228 2.22615
12.9589 2.29784 2.04716
9.81243 5.04831 1.86614
8.93548 4.97683 -0.764515
7.22629 3.21793 -0.9609
5.63811 -1.29629 1.65162
7.43557 -4.68585 4.05007
9.45768 -0.496464 6.79927
9.43544 2.46109 5.85646
13.4316 0.543651 -0.140591
11.8576 -0.124581 -2.04947
9.34656 2.22479 -1.76308
12.5809 1.2727 4.88561
6.53399 -0.0434464 5.81475
7.11173 2.44113 5.32396
5.60246 2.45518 1.68281
0 1
1 2
2 3
3 4
4 5
5 6
6 7
7 8
8 9
9 10
10 11
11 12
12 13
13 14
14 15
15 16
16 17
17 18
