ply
format ascii 1.0
comment Generated by Slim Ghodhbane
element vertex 121
property float x
property float y
property float z
element edge 120
property int vertex1
property int vertex2
end_header
-2.1423 -1.18476 5.81097
5.32027 4.44869 1.72248
5.47175 4.47867 -1.30572
4.60776 4.51159 4.23445
-3.82591 4.73172 4.66814
-2.7491 4.45491 5.89561
-1.45908 4.46823 6.63456
1.12963 4.19642 7.03805
3.22567 5.05236 6.32935
1.2314 2.45905 6.9781
-1.75637 1.80113 6.50568
-4.74748 1.55244 1.42214
-3.85064 4.58759 -4.13477
-2.4587 4.95421 -5.55991
1.56019 1.83613 -6.70302
1.37042 4.06234 -6.60819
4.7355 4.59515 -4.19943
4.95931 1.98717 -4.29209
5.65924 1.53726 -1.37421
5.38314 1.28948 1.57704
4.61301 1.56604 4.0124
5.12654 -0.309793 1.54091
5.5337 -0.270453 -0.955243
-0.943918 1.77036 -6.51157
-0.811547 4.47555 -6.59663
-2.6842 1.48235 -5.60537
-4.74334 1.56477 -1.18332
-4.4149 -0.229621 -1.26316
-4.39461 -0.352837 1.42975
-5.08683 4.3335 1.30851
-5.0161 4.24234 -1.31264
-3.81927 1.2581 -4.21995
-4.12239 1.55162 4.0934
-3.82405 -0.528104 3.85252
3.99269 -0.550761 4.20569
0.757839 -1.08543 6.49681
-1.64087 7.18984 6.30939
-3.62825 10.2254 3.72384
-2.24463 10.8422 5.07122
-1.34611 13.4189 5.24406
1.54192 13.4131 5.22657
5.29423 7.65629 -1.67654
5.25828 7.58252 1.80256
5.22646 10.3584 1.74818
4.94835 13.2671 -1.27157
4.87866 13.3575 1.43826
5.28373 10.3018 -1.49372
1.30037 12.9782 -5.3308
-2.23468 10.7186 -4.9658
-3.64802 10.1259 -3.65105
-4.66072 7.65455 -1.20069
-4.68455 7.71922 1.39891
-4.58306 10.1361 1.62612
-4.57566 10.0192 -1.62782
-3.67412 7.29816 -3.91678
-2.21642 7.36233 -5.36567
-2.36897 7.79944 -2.81114
-2.39825 7.81389 2.76763
-3.5977 7.4076 4.48621
-2.45613 7.58422 5.43254
-1.26515 9.14336 6.4275
0.916034 11.4894 5.38402
4.35321 13.1495 3.61673
4.87289 7.2504 4.18678
4.51942 10.53 4.49338
4.98663 10.064 -3.39191
1.07255 11.2235 -5.25416
-1.21183 13.5079 -5.36655
-0.779119 12.2745 -6.08869
-4.69842 13.1436 -1.73954
-3.83573 13.0915 -3.76877
-4.74052 13.126 1.8302
-3.87224 13.2429 3.66933
1.18368 10.2623 7.09489
0.3209 7.73516 7.36524
3.14378 7.70044 6.71978
3.07588 9.37499 6.74998
4.0693 13.2443 -4.0465
4.82055 7.46065 -4.26863
-0.978161 7.00939 -6.29517
1.69072 7.21469 -6.78936
-0.781708 10.6767 -6.58232
0.0694901 9.23712 -7.00918
3.25256 8.33901 -6.32825
3.45025 10.0014 -6.16967
1.61025 14.3968 -6.03581
4.9379 16.1947 -1.39798
4.95202 16.0411 1.29928
2.76991 14.8993 2.9841
-2.79262 14.4321 1.7555
-3.75986 16.7296 2.06643
-2.40664 17.9698 2.99043
-1.5713 16.4398 4.66988
-3.57274 16.398 3.19013
-3.91052 16.7994 -1.93806
-2.97889 18.1261 -2.60062
-3.5208 16.3226 -3.25876
-1.72188 16.4671 -5.0205
1.21806 16.4281 -6.07649
4.39514 16.0538 -3.96258
1.7469 15.1741 -5.9671
-2.51098 19.613 1.42052
-3.45494 19.12 1.60231
-1.19396 18.7313 4.38498
1.08369 16.5815 5.65095
4.02429 15.9102 4.30706
4.41439 18.4145 3.19493
4.35882 19.4377 1.68873
1.71514 21.6266 0.774714
1.45985 21.6002 -1.25861
-1.39899 21.3925 -1.49038
-3.56988 19.3103 -1.01171
-3.3746 18.3715 -3.58938
-1.62698 18.9928 -4.63564
-0.501023 21.0649 -3.52637
1.83478 19.7167 -4.68994
3.99627 18.8018 -3.67989
4.2085 19.6692 -1.76464
3.08473 21.0787 1.6015
1.75432 20.2793 4.061
-0.445901 21.6754 1.81697
0 1
1 2
2 3
3 4
4 5
5 6
6 7
7 8
8 9
9 10
10 11
11 12
12 13
13 14
14 15
15 16
16 17
17 18
18 19
19 20
20 21
21 22
22 23
23 24
24 25
25 26
26 27
27 28
28 29
29 30
30 31
31 32
32 33
33 34
34 35
35 36
36 37
37 38
38 39
39 40
40 41
41 42
42 43
43 44
44 45
45 46
46 47
47 48
48 49
49 50
50 51
51 52
52 53
53 54
54 55
55 56
56 57
57 58
58 59
59 60
60 61
61 62
62 63
63 64
64 65
65 66
66 67
67 68
68 69
69 70
70 71
71 72
72 73
73 74
74 75
75 76
76 77
77 78
78 79
79 80
80 81
81 82
82 83
83 84
84 85
85 86
86 87
87 88
88 89
89 90
90 91
91 92
92 93
93 94
94 95
95 96
96 97
97 98
98 99
99 100
100 101
101 102
102 103
103 104
104 105
105 106
106 107
107 108
108 109
109 110
110 111
111 112
112 113
113 114
114 115
115 116
116 117
117 118
118 119
119 120
