ply
format ascii 1.0
comment Generated by Slim Ghodhbane
element vertex 31
property double x
property double y
property double z
end_header
-8.5 6.5 -2.5
-6.5 8.5 5.5
-5.5 8.5 -7.5
-2.5 10.5 -4.5
-4.5 10.5 3.5
-6.5 7.5 -5.5
2.5 11.5 -4.5
1.5 -1.5 -0.5
0.5 5.5 -5.5
2.5 7.5 5.5
-3.5 7.5 -7.5
0.5 5.5 -4.5
7.5 9.5 -2.5
-4.5 3.5 -0.5
-3.5 3.5 -1.5
3.5 9.5 -4.5
-1.5 18.5 4.5
3.5 11.5 -6.5
1.5 5.5 -5.5
-2.5 12.5 -7.5
-4.5 10.5 -7.5
2.5 12.5 -4.5
-2.5 16.5 -5.5
-2.5 20.5 -5.5
-3.5 3.5 1.5
7.5 13.5 -1.5
5.5 2.5 -7.5
-0.5 -3.5 -6.5
-3.5 14.5 -7.5
-5.5 -3.5 -7.5
-0.5 7.5 -7.5
