ply
format ascii 1.0
comment Generated by Slim Ghodhbane
element vertex 846
property float x
property float y
property float z
element edge 845
property int vertex1
property int vertex2
end_header
1.40189 -21.0607 1.97668
3.1182 -19.2692 0.742797
3.97856 -17.9892 1.24369
4.27436 -17.4115 1.73326
4.63035 -16.4621 2.94468
4.35737 -16.9879 3.61014
4.74869 -15.5658 3.4308
4.94728 -14.3461 2.26004
4.65143 -15.5566 1.11828
4.42188 -14.3222 0.149818
4.44862 -13.0842 0.122803
4.98687 -13.0842 2.25527
2.23676 -13.4022 0.87042
3.80013 -15.4131 -0.562157
3.55902 -14.2889 -1.03995
3.57149 -13.0842 -1.07066
2.58653 -14.264 -1.79527
2.37792 -13.0842 -1.9479
2.76231 -15.4587 -1.5522
1.83332 -16.9492 -1.71228
1.05366 -17.0014 -1.93062
1.15511 -18.4852 -1.36372
0.849514 -15.4504 -2.33094
0.633479 -14.2288 -2.47794
0.494397 -13.0842 -2.51927
-0.985303 -13.0842 -2.45302
-0.983871 -14.2368 -2.42591
-1.26492 -15.4646 -2.2404
-1.26291 -16.5475 -2.02705
-1.80439 -17.182 -1.64637
-1.87347 -18.03 -1.3021
-1.24831 -18.8818 -1.17244
-3.32909 -17.3095 -0.429854
-2.37792 -13.0842 -1.9479
-2.53253 -14.264 -1.82308
-3.51543 -14.2888 -1.08227
-3.57149 -13.0842 -1.07066
-3.80013 -15.4131 -0.562157
-4.39244 -14.3221 0.0966734
-4.44862 -13.0842 0.122803
-4.92509 -13.9278 1.40066
-4.98687 -13.0842 2.25527
-4.94947 -14.4855 2.46651
-4.74869 -15.5658 3.4308
-4.63035 -16.4621 2.94468
-4.35737 -16.9879 3.61014
-4.27436 -17.4115 1.73326
-3.97856 -17.9892 1.24369
-3.84773 -18.7132 2.12268
-3.43877 -18.6721 3.78133
-2.58741 -19.3327 4.21542
-2.32426 -18.6481 5.36069
-2.9395 -17.0026 5.70474
-3.30288 -16.758 5.70034
-3.81226 -15.4129 5.54644
-3.5557 -14.6877 6.00439
-4.1948 -14.1832 5.17812
-2.76266 -15.458 6.55357
-2.6404 -14.2676 6.76646
-2.37787 -13.0842 6.94937
-1.42312 -13.0058 7.2641
-1.16675 -13.6399 5.22965
-3.58357 -13.0842 6.05998
-4.19175 -13.0426 4.82616
-1.49959 -14.6272 7.27103
-1.35579 -15.2876 7.14453
-1.83905 -16.9327 6.71605
-1.18521 -17.2698 6.69199
-3.1182 -19.2692 0.742798
-1.56432 -21.0053 2.04988
-4.65143 -15.5566 1.11828
-2.76231 -15.4587 -1.5522
3.84773 -18.7132 2.12268
3.54667 -18.6852 3.5865
2.96311 -18.4379 4.88459
2.39493 -19.3852 4.43331
1.25402 -19.1184 5.72496
0.784643 -20.2477 4.98691
-1.04176 -20.2462 4.90287
2.92189 -16.9407 5.72478
3.30288 -16.758 5.70034
3.81226 -15.4129 5.54644
3.57058 -14.2936 6.02935
3.58357 -13.0842 6.05998
2.58734 -14.2677 6.79604
2.37787 -13.0842 6.94937
1.12487 -12.9242 7.36159
1.00677 -14.6228 7.38959
0.928078 -15.3094 7.2442
1.16675 -13.6399 5.22965
2.76266 -15.458 6.55357
4.42703 -14.3251 4.83977
4.4558 -13.0842 4.8652
1.83905 -16.9327 6.71605
0.967739 -17.289 6.73222
3.32909 -17.3095 -0.429853
3.57149 -12.4089 -1.07066
3.57149 -11.3333 -1.07066
3.5715 -9.6412 -1.07066
4.44862 -9.6412 0.122803
4.84282 -7.87669 0.899684
4.86544 -7.83347 1.757
4.74167 -7.0423 2.20494
5.15688 -7.74568 3.21124
4.79412 -6.77781 3.93696
4.18098 -5.68563 4.12209
4.4558 -5.71252 4.8652
3.58357 -5.71252 6.05998
2.37787 -5.71252 6.94937
0.494451 -5.71252 7.52071
-0.985408 -5.71252 7.45445
-2.37787 -5.71252 6.94937
-3.58357 -5.71252 6.05998
-4.4558 -5.71252 4.8652
-4.18095 -5.68563 4.12209
-4.79427 -6.77782 3.93694
-5.15687 -7.74568 3.21124
-4.7416 -7.0423 2.20492
-4.86545 -7.83348 1.75697
-4.84286 -7.87668 0.899705
-3.73611 -7.812 0.707034
-3.91758 -6.62981 0.884777
-4.44862 -5.71252 0.122805
-4.70342 -5.49386 0.604805
-4.56836 -6.08102 0.642943
-4.00765 -6.57396 -0.655648
-4.08651 -4.53997 -0.950126
-3.57235 -4.49906 -1.17001
-2.5006 -5.94703 -1.74295
-2.49767 -6.35421 -1.8227
-0.925612 -6.11182 -2.44849
0.463988 -6.07507 -2.50873
-2.07183 -4.38703 -2.5716
-3.5821 -4.8043 -3.07399
-5.16641 -4.85453 -3.14374
-5.30539 -5.7446 -2.38215
-6.48265 -7.78687 0.878759
-6.77911 -7.30926 -0.574326
-7.75816 -5.44387 -1.20882
-7.12285 -6.51949 2.49059
-7.36229 -6.62801 3.40948
-7.99982 -5.05367 3.57106
-9.44309 -4.90734 3.25814
-9.33679 -4.76226 1.74822
-8.89728 -5.02525 1.62805
-10.4528 -4.93969 0.817995
-7.04553 -4.40149 4.56744
-5.25284 -5.61559 2.18891
-3.25544 -7.63572 3.07425
-2.15765 -6.34188 3.44371
-0.90954 -5.64743 1.27049
-4.98687 -9.6412 2.25527
-4.4558 -9.6412 4.8652
-3.58357 -9.6412 6.05998
-2.27377 -9.55165 6.87138
-1.11716 -9.84215 7.10868
-0.985412 -11.4708 7.45445
-1.12166 -12.5009 7.36567
-2.37787 -12.4089 6.94937
-2.35387 -11.3278 6.90645
-3.58357 -11.3333 6.05998
-3.58357 -12.4089 6.05998
-4.00627 -12.4873 4.95215
-4.4558 -11.3333 4.8652
0.494454 -11.4708 7.52071
1.17127 -12.2444 7.50801
0.901129 -12.6094 7.40953
2.37787 -12.4089 6.94936
2.23973 -11.3796 6.96757
3.58357 -12.4089 6.05998
3.58357 -11.3333 6.05998
4.4558 -11.3333 4.8652
4.4558 -12.4089 4.8652
3.58357 -9.6412 6.05998
4.4558 -9.6412 4.8652
2.24324 -10.3307 4.11233
0.755738 -9.95634 6.85769
0.494451 -9.6412 7.52071
2.01835 -9.40352 6.97816
-4.96649 -4.43813 1.59015
-2.5918 -4.77572 5.37306
-2.60027 -4.52463 3.93316
-0.947019 -4.85136 3.59107
2.59194 -4.77571 5.37305
2.60037 -4.52464 3.93321
0.947059 -4.85151 3.59105
4.96649 -4.43813 1.59015
4.98687 -9.6412 2.25527
5.25287 -5.61558 2.1889
3.2554 -7.63566 3.07434
2.15744 -6.34167 3.44374
0.909391 -5.64708 1.27041
3.7361 -7.812 0.707067
3.91759 -6.6298 0.884772
4.56836 -6.08102 0.642943
4.70344 -5.49387 0.604807
4.44862 -5.71252 0.122805
4.0865 -4.53998 -0.950143
3.57235 -4.49906 -1.17002
2.5008 -5.94707 -1.74304
2.49767 -6.35421 -1.8227
2.07183 -4.38703 -2.5716
0.780349 -5.04508 -0.837194
-0.780304 -5.04507 -0.837163
3.5821 -4.8043 -3.07398
5.16648 -4.85455 -3.14373
5.30524 -5.74498 -2.38196
4.00769 -6.57391 -0.655738
6.48262 -7.78689 0.878815
6.77925 -7.30919 -0.574355
7.75872 -5.44334 -1.20854
7.12309 -6.5196 2.49012
7.36243 -6.6279 3.40947
8.00038 -5.05477 3.56956
9.44309 -4.90735 3.25813
9.33675 -4.76225 1.74822
8.89741 -5.02525 1.62803
10.4528 -4.9397 0.818005
7.0455 -4.40156 4.56746
2.37792 -9.6412 -1.9479
1.18865 -8.98154 -2.47612
4.44862 -12.4089 0.122802
4.44862 -11.3333 0.122803
4.98687 -11.3333 2.25528
4.98687 -12.4089 2.25527
2.37792 -12.4089 -1.9479
2.37792 -11.3333 -1.9479
0.494397 -11.3333 -2.51926
0.494397 -12.4089 -2.51927
-0.985303 -12.4089 -2.45302
-0.985303 -11.3333 -2.45302
-2.37792 -11.3333 -1.9479
-2.37792 -12.4089 -1.9479
-3.57149 -12.4089 -1.07066
-3.57149 -11.3333 -1.07066
-4.44862 -11.3333 0.122802
-4.44862 -12.4089 0.122802
-4.98687 -12.4089 2.25527
-4.98687 -11.3333 2.25527
-2.37792 -9.6412 -1.9479
-3.5504 -9.61632 -0.603266
-4.06914 -9.60463 0.246572
-3.57149 -4.03506 -1.07066
-3.46192 -3.38744 -1.78341
-3.28745 -2.3851 -1.93431
-2.52214 -2.15265 -2.04862
-2.50437 -0.637429 -2.13099
-2.49444 0.356404 -2.03784
-3.52452 1.18954 -2.02826
-2.41208 2.79449 -2.22247
-0.767515 2.72306 -2.64877
0.529147 2.71905 -2.67155
2.41208 2.79449 -2.22247
2.46515 3.73406 -0.436624
-2.46513 3.73406 -0.436624
-0.53282 0.303228 -2.68525
0.350658 0.303229 -2.70181
-3.70222 -0.464527 -1.81828
-4.12324 -0.523669 -1.24475
-3.7911 0.689474 -0.914412
-3.55393 1.4317 0.39844
-3.73561 2.74188 0.691959
-3.42134 3.59564 1.38544
-1.44348 3.18236 0.791965
-2.28505 1.58963 1.38878
-1.57288 0.420624 1.13452
-5.10117 2.44517 1.28086
-5.12429 2.57313 2.37648
-5.26775 3.59811 2.07817
-6.03879 3.56144 1.82034
-5.41045 1.20171 1.40386
-4.79566 -0.0110202 0.770409
-6.18811 1.96203 1.58322
-5.00536 0.606902 2.06939
-5.17953 -0.632413 -1.69849
-6.00979 -0.44358 -1.51807
-5.69268 0.458041 -1.57087
-5.66153 -0.19825 -0.816587
-5.43973 1.12075 -1.31632
-6.45836 2.09358 -0.976575
-5.14868 2.54072 -0.792208
-3.57149 2.75104 -1.07066
-5.53013 3.7484 -1.83764
-6.79416 0.533104 -1.37962
-6.97884 -0.709733 -1.35121
-7.7361 -0.256005 -1.04585
-7.99238 0.733371 -1.28442
-9.23413 1.05493 -1.05332
-8.33513 2.07689 -1.23531
-8.69688 3.14263 -1.48822
-9.6952 2.35321 -1.07548
-8.34976 3.10316 0.362231
-10.1064 3.97926 0.779114
-8.90688 -0.201431 -2.77306
-8.91452 0.595724 -2.69483
-9.19939 -0.935112 -0.721313
-8.51474 -2.32269 -0.672932
-9.14735 -2.29383 -2.09528
-8.99686 -2.60059 -2.48367
-8.02637 -3.18646 -1.62533
-10.9966 -1.91887 -2.39583
-11.0469 -0.206539 -2.47362
-11.0166 0.585311 -2.40064
-12.4843 -0.184137 -1.50001
-8.28067 -2.48657 1.23006
-8.93403 -2.39944 1.61603
-9.38756 -1.54027 1.45404
-10.6632 -1.29013 0.613263
-11.2439 -1.85332 1.99781
-12.2867 -0.637382 1.02902
-13.6015 -0.205539 0.349978
-13.9896 0.727528 0.676594
-13.7072 0.600762 1.64232
-13.0448 0.704263 1.50153
-13.7028 -0.223551 2.51027
-13.4169 -0.585056 2.48392
-13.3862 0.573848 3.31813
-12.4906 -0.179602 4.71238
-12.1048 0.613069 5.01035
-10.8581 1.02595 6.0154
-14.0748 1.62756 5.95482
-15.8691 1.0637 3.09132
-16.5766 1.68457 2.69238
-17.21 3.12524 4.46849
-17.205 3.25485 5.61836
-14.5436 1.74606 0.141552
-12.4759 0.694722 -0.547356
-11.9594 2.53282 -1.02946
-11.6933 3.66309 -0.672223
-13.5194 -1.90369 0.393703
-13.1303 -2.30996 1.94605
-13.5879 -2.14852 2.30443
-12.5319 -3.36116 0.40567
-11.9593 -3.17645 -0.556948
-8.44355 -0.658862 1.52754
-9.01368 -3.21637 1.6239
-7.97026 -3.944 2.06136
-7.0509 -3.6594 2.32881
-6.8962 -3.43601 1.27767
-6.6612 -3.58101 -0.363447
-7.15628 -3.78936 3.67076
-7.97473 -2.38417 3.9608
-8.2494 -3.49642 3.91991
-7.0722 -2.40814 4.73096
-8.21173 -2.12724 5.42693
-9.10974 -1.39206 5.93491
-9.26543 -0.183652 6.18564
-9.03598 0.643229 6.02627
-7.912 0.544671 6.37137
-7.60883 1.7869 6.39841
-6.71199 2.06957 6.27952
-5.89506 1.69058 6.20894
-5.42908 0.618458 6.21623
-5.12537 -0.363379 6.19999
-3.62528 -0.632105 6.07222
-3.28138 0.195751 5.77214
-2.02136 0.35223 5.85918
-1.12809 0.1711 5.77513
-1.34402 0.0636119 4.30612
-2.22064 -0.46947 4.15616
-1.02379 -1.45076 3.78308
-1.05449 -2.76785 3.41367
-2.02876 0.11379 6.79764
-2.37788 -6.56492e-07 6.94937
-0.985412 -6.6815e-07 7.45446
0.494453 -3.80966e-07 7.52072
1.54444 0.396496 6.96792
2.37788 -4.95183e-07 6.94937
2.02138 0.35223 5.85918
1.12813 0.1711 5.77513
1.34401 0.0636088 4.30607
2.22069 -0.46944 4.15616
1.02385 -1.45077 3.78315
1.05454 -2.76782 3.41376
1.54208 -2.42493 4.23577
1.07396 -3.3233 3.76491
1.99959 -0.848635 5.83667
1.28085 -1.07996 5.88517
1.11079 -1.95035 5.89825
2.15549 -2.30531 5.94592
1.43632 -3.22687 5.84716
1.85346 -3.59239 5.79049
2.37788 -4.03506 6.94937
3.58357 -4.03506 6.05998
3.80327 -4.04026 5.2287
4.08242 -4.33081 4.4751
5.01999 -4.03506 2.99512
5.11256 -3.53113 5.60341
5.692 -2.97999 5.59108
3.89647 -2.37906 5.98365
1.77107 -1.86262 7.06914
3.28173 0.195735 5.77217
3.6253 -0.632105 6.07222
5.12539 -0.363379 6.19999
5.42911 0.618458 6.21623
5.8951 1.69058 6.20894
6.712 2.06957 6.27952
7.60884 1.7869 6.39841
7.91202 0.544671 6.37137
9.03601 0.643235 6.02627
9.26541 -0.183658 6.18563
9.10978 -1.39216 5.93488
8.21175 -2.12723 5.42692
7.07227 -2.40814 4.73092
7.97476 -2.38417 3.96079
8.24928 -3.49653 3.91973
7.15625 -3.7894 3.67067
7.05102 -3.65949 2.32886
7.97029 -3.94402 2.06133
9.0137 -3.21633 1.6239
8.28074 -2.48655 1.23144
8.93406 -2.39947 1.61604
9.38753 -1.54054 1.45484
10.6632 -1.29013 0.613262
11.2439 -1.85336 1.99782
12.2868 -0.637477 1.02917
13.6016 -0.205561 0.3501
13.9896 0.727526 0.676601
13.7072 0.600766 1.64237
13.045 0.70401 1.50353
10.7173 1.39015 1.66785
13.7028 -0.223567 2.51019
13.417 -0.585063 2.48403
13.3862 0.573913 3.3181
12.4906 -0.179595 4.71241
12.1049 0.613084 5.0103
10.8581 1.02593 6.01542
15.8691 1.06368 3.09163
16.5766 1.68461 2.69241
17.2101 3.12578 4.46898
17.2049 3.25487 5.61857
14.5437 1.74594 0.141668
12.4759 0.694706 -0.547335
11.9595 2.53285 -1.02945
11.6991 3.66078 -0.668493
13.5194 -1.90403 0.393732
13.1305 -2.30943 1.94609
13.5879 -2.14865 2.3044
12.532 -3.36117 0.405841
11.9593 -3.17647 -0.556929
8.44355 -0.658839 1.52756
8.51477 -2.3227 -0.672927
9.19939 -0.935115 -0.721316
7.73611 -0.256012 -1.04588
6.97887 -0.709733 -1.35121
6.0098 -0.44358 -1.51807
5.17955 -0.632413 -1.69849
3.70227 -0.464518 -1.81828
4.12323 -0.523601 -1.24478
2.5044 -0.637429 -2.13098
2.49446 0.356404 -2.03784
3.5246 1.18956 -2.02826
2.43795 0.428254 -1.44226
0.725286 1.44885 -0.939452
-0.725217 1.44883 -0.9395
2.52216 -2.15263 -2.04863
3.28755 -2.38509 -1.93429
3.46196 -3.38744 -1.78341
3.57149 -4.03505 -1.07066
2.36894 -3.6917 -2.03579
3.30513 -3.20554 -3.07135
3.74351 -2.41508 -3.10367
5.02608 -2.41315 -3.16302
5.4648 -3.20384 -3.17129
6.65786 -2.40176 -2.66654
4.65385 -2.18682 -1.62431
3.79109 0.689489 -0.914395
3.55409 1.43171 0.398294
3.73566 2.74185 0.691821
3.42136 3.59561 1.38545
5.26406 3.60825 2.05594
6.03882 3.56143 1.82035
5.13031 2.60173 2.41291
5.10119 2.44517 1.28089
5.41049 1.2017 1.40397
2.28506 1.58962 1.3888
1.44349 3.18237 0.791896
4.79566 -0.0110202 0.770408
6.18818 1.96201 1.58325
5.00538 0.606895 2.0694
1.57293 0.420644 1.13452
5.69275 0.458023 -1.57087
5.66156 -0.198264 -0.816609
5.43975 1.12075 -1.31631
6.4584 2.09359 -0.976576
5.1693 2.53801 -0.78587
3.57149 2.75104 -1.07066
5.52977 3.74841 -1.83765
6.79807 0.531595 -1.37707
7.99237 0.733369 -1.28442
9.23419 1.05495 -1.05332
8.3351 2.07694 -1.2353
8.69689 3.14264 -1.48821
9.69523 2.3532 -1.07549
8.35007 3.10378 0.36311
10.1065 3.97933 0.779319
8.90688 -0.20143 -2.77306
8.91454 0.59573 -2.69483
9.14708 -2.294 -2.09519
8.99686 -2.60061 -2.48366
8.02639 -3.18647 -1.62534
10.9966 -1.91895 -2.39582
11.047 -0.20653 -2.4736
11.0167 0.585306 -2.40064
12.4843 -0.184125 -1.50004
10.4895 -4.30617 0.909323
6.89623 -3.43602 1.27769
6.66139 -3.58093 -0.363772
8.54863 -1.09622 4.56436
9.54908 -2.28763 4.54917
9.94959 -3.65801 4.51664
9.97221 -3.78598 3.76797
11.4403 -4.13665 3.85593
10.7382 -1.23573 4.93286
8.70132 2.31111 5.50164
8.99652 3.32863 6.27943
9.31916 3.63578 4.92039
10.8806 3.2204 5.63379
11.4153 2.45385 4.8474
12.7209 2.65668 4.62442
14.0747 1.62768 5.95493
12.4471 3.16633 2.32295
6.41307 1.95915 4.98091
5.45606 2.33351 4.95846
5.55332 3.25917 5.35946
4.16861 2.75345 5.2287
3.58357 2.75104 6.05998
6.9344 2.88883 4.2455
6.60991 0.655924 6.31861
6.8398 -0.672337 6.22413
6.77539 0.376435 4.8013
6.1676 -0.47841 4.78986
5.31529 -1.66512 4.47959
7.34444 -0.134391 3.44103
4.4558 -4.52181e-07 4.8652
4.98319 0.909209 4.16616
5.00755 -0.0681122 2.64152
-1.99956 -0.848635 5.83667
-1.28081 -1.07996 5.88516
-1.11076 -1.95035 5.89825
-2.15546 -2.30531 5.94592
-2.18555 -1.79104 6.81717
-1.4363 -3.22687 5.84716
-1.85344 -3.59239 5.79049
-2.37788 -4.03506 6.94937
-0.98541 -4.03506 7.45446
0.494451 -4.03506 7.52071
-3.58357 -4.03506 6.05998
-3.80326 -4.04026 5.2287
-4.08241 -4.33081 4.4751
-5.01999 -4.03506 2.99512
-5.11264 -3.5311 5.60338
-5.69197 -2.97998 5.59108
-3.89643 -2.37906 5.98365
-1.54207 -2.42495 4.23579
-1.07397 -3.32331 3.76494
-4.4558 -3.55331e-07 4.8652
-4.98314 0.909248 4.16613
-5.00753 -0.0681226 2.64151
-6.60989 0.655924 6.31861
-6.83978 -0.672337 6.22413
-6.7754 0.376435 4.80127
-6.16755 -0.478398 4.78986
-5.3157 -1.66507 4.47952
-7.34445 -0.13436 3.44097
-6.41297 1.95918 4.98082
-5.45519 2.33338 4.95903
-5.55385 3.25921 5.35907
-4.16869 2.75341 5.2287
-3.58357 2.75104 6.05998
-2.37788 2.75103 6.94937
-0.98541 2.75103 7.45446
0.494452 2.75103 7.52072
2.37788 2.75103 6.94937
1.35527 2.40475 5.10212
1.23907 2.77431 4.35809
1.85072 3.93302 4.14106
-1.35523 2.40475 5.10212
-1.23947 2.77446 4.35838
-1.85071 3.93302 4.14106
-6.93437 2.88876 4.24555
-8.7013 2.31108 5.50165
-8.99644 3.32868 6.27941
-9.31915 3.63577 4.9204
-10.8809 3.22034 5.63358
-11.4153 2.45386 4.84739
-12.7207 2.65652 4.62469
-12.4471 3.1663 2.32297
-10.7172 1.39019 1.66754
-8.54865 -1.09768 4.56207
-9.54908 -2.28763 4.54917
-9.95025 -3.65819 4.51635
-9.97219 -3.78603 3.76792
-11.4404 -4.13658 3.856
-10.7382 -1.2357 4.93283
-10.4895 -4.30615 0.907748
-2.43796 0.428233 -1.44231
-0.671084 -3.20553 -0.909959
0.671098 -3.20551 -0.909952
-4.65381 -2.18682 -1.62432
-0.554396 -2.40889 -0.485793
0.554454 -2.40886 -0.485842
-2.36895 -3.6917 -2.03578
-0.733845 -4.12952 -2.6506
0.506367 -4.12678 -2.67293
-3.30513 -3.20554 -3.07136
-3.74354 -2.41508 -3.10368
-5.02601 -2.41315 -3.16302
-5.46474 -3.20385 -3.17129
-6.65788 -2.40177 -2.66651
-4.44083 4.07636 -1.02336
-4.62921 4.07243 -0.0149817
-4.98914 4.91013 0.271203
-6.80515 4.12702 0.507223
-7.4826 4.34972 -0.643872
-8.6421 4.30551 -0.714407
-9.53406 4.96086 -0.668737
-8.89916 6.30649 -0.814409
-9.16089 6.4342 -0.204397
-8.2236 6.72949 0.466091
-9.3417 5.9967 1.64302
-8.70638 5.01356 2.3615
-9.31872 4.27365 1.91778
-11.4459 4.22474 2.40869
-8.25585 6.58642 2.36889
-11.3613 4.27878 -0.280483
-11.8167 6.61879 1.25499
-12.9726 9.09172 2.82322
-13.4815 8.92812 3.09264
-17.7393 6.11705 6.15059
-14.3053 4.03141 -0.67061
-3.88517 5.18474 -0.711728
-3.5917 5.69678 0.665458
-4.44679 6.82164 0.119668
-5.31537 6.22239 1.09331
-5.09682 6.64408 2.13442
-5.2598 5.24667 2.10912
-4.89763 4.35501 1.85138
-3.56854 6.8325 -1.07328
-2.3753 6.84146 -1.94889
-0.984514 6.8465 -2.45275
0.492838 6.84663 -2.51899
-2.0992 5.24815 -2.04729
-0.996131 4.91995 -2.41328
0.724941 4.89582 -2.44525
2.0992 5.24815 -2.04729
2.37452 6.83933 -1.94934
3.56852 6.82964 -1.07333
4.4472 6.81873 0.120391
5.31551 6.22235 1.09305
5.09694 6.64274 2.13542
5.25986 5.24666 2.10908
4.90575 4.35477 1.85562
3.67818 4.27618 1.93461
3.72086 4.9737 2.06701
2.43345 5.02357 1.84847
2.09415 5.20197 1.28007
1.36388 4.79421 0.350653
0.104159 4.04253 -0.677933
-0.104027 4.04235 -0.678249
2.79814 4.36048 3.61639
3.69536 4.23781 4.37866
4.4558 4.89073 4.8652
5.83808 5.05238 4.58914
6.61132 5.29657 4.28423
6.65532 5.39418 4.65351
8.24987 5.6486 5.25227
9.4206 7.06894 4.3482
3.58357 4.89073 6.05998
2.37788 4.89073 6.94937
0.832585 5.33965 7.51063
0.494454 6.79035 7.52072
-0.983191 6.79015 7.4549
-2.37466 6.79002 6.95109
-3.5808 6.79073 6.06277
-4.45448 6.7935 4.86769
-4.0062 5.17989 4.94843
-3.69533 4.2378 4.37866
-3.58357 4.89073 6.05998
-2.37788 4.89073 6.94937
-0.985414 4.89073 7.45446
-5.83807 5.05239 4.58914
-6.61129 5.29657 4.28423
-6.65529 5.39418 4.65351
-8.24998 5.6492 5.2517
-9.42084 7.0687 4.34857
-7.13923 6.51527 2.49096
0.490092 8.82195 7.52158
-0.976736 8.82512 7.45651
-2.3601 8.84181 6.95944
-3.56263 8.8684 6.08032
-4.43694 8.90356 4.8931
-3.58839 9.05285 3.59943
-5.00376 8.95763 3.02641
-4.80702 9.01285 1.07011
-3.85981 9.05977 -0.643706
-2.35584 9.09509 -1.88643
-0.975117 9.10801 -2.38162
0.488588 9.11075 -2.44646
2.35511 9.09496 -1.88682
3.85944 9.05837 -0.644267
4.80707 9.00907 1.06958
-3.31983 10.8372 3.74179
-2.72262 10.2601 3.75971
-2.92846 11.1261 3.57915
-3.54752 10.3745 2.35127
-4.85893 10.9913 3.12922
-4.6588 11.1223 1.2348
-3.5573 11.2397 -0.577273
-1.85213 11.3162 -1.82826
-0.943814 11.3321 -2.10051
0.472789 11.3366 -2.16359
1.85129 11.3125 -1.82932
3.5568 11.2333 -0.579382
1.05706 11.4702 0.167382
2.03909 10.0054 0.696235
-1.5713 11.4639 0.34378
-3.83997 12.2849 4.37251
-3.86092 11.2487 5.33254
-3.39835 11.2707 6.08358
-2.72109 10.7234 6.72673
2.36011 8.83649 6.95947
3.5627 8.86085 6.08038
4.43713 8.89599 4.89307
5.00402 8.95126 3.02617
3.47544 10.7678 6.10504
2.53391 11.034 6.85129
2.85289 12.0276 7.30701
4.32014 10.8542 4.94455
3.77421 12.2694 4.39417
2.92933 11.1262 3.57919
3.14302 10.9857 3.58646
2.72344 10.2601 3.75972
4.85973 10.9846 3.12724
4.65904 11.1148 1.23235
2.37541 6.79041 6.95069
3.58078 6.79094 6.0628
4.45409 6.79311 4.86842
3.59157 5.69669 0.665013
3.88525 5.18457 -0.711979
4.44073 4.07598 -1.0237
4.62923 4.07243 -0.0149817
4.98916 4.91013 0.271203
6.80511 4.12701 0.507357
7.48262 4.34973 -0.643872
8.64211 4.30551 -0.714394
9.55497 4.95998 -0.664929
8.89912 6.30617 -0.814711
9.16106 6.4343 -0.204268
8.22363 6.72932 0.466119
9.34149 5.9967 1.64305
8.70644 5.01357 2.36153
9.31871 4.27367 1.91743
11.446 4.22471 2.40862
8.25574 6.58647 2.36873
7.1393 6.51533 2.49098
11.3613 4.27875 -0.280494
11.8163 6.61914 1.25516
12.9729 9.09183 2.82317
13.4809 8.92801 3.0928
17.7384 6.11654 6.15182
14.3053 4.03147 -0.670616
-3.69192 4.99408 2.2855
-3.67814 4.27606 1.93438
-2.43343 5.02357 1.84848
-2.09415 5.20196 1.28008
-2.79805 4.36054 3.61633
-2.61075 12.5267 3.33137
-3.82167 12.8212 5.10897
-3.56764 12.9804 6.41821
-2.98128 12.4582 6.47522
-3.66802 14.1086 6.77114
-3.80172 14.2585 5.27363
-3.98561 14.3112 4.11772
-3.80161 15.5898 5.19655
-3.64822 15.8257 3.94722
-3.53539 17.2063 4.05693
-3.66522 17.1633 5.35105
-3.57121 18.1004 6.3903
-3.73711 17.1217 6.79441
-3.74824 17.0803 8.11563
-3.63258 18.3944 7.78027
-3.63397 15.4932 8.32529
-3.37823 14.2967 8.47793
-3.77647 15.7498 6.73926
-2.59292 17.9748 2.95301
-0.776563 18.4409 3.29697
0.777297 18.4409 3.29697
2.50029 18.6106 3.44875
2.59361 17.9748 2.95304
2.10715 18.0015 0.439294
3.28011 17.9726 4.49464
2.92789 18.8152 4.94774
2.63251 19.5401 5.74115
3.28858 18.9402 6.71145
2.99852 19.7555 7.43804
3.7617 16.5718 5.53662
3.80179 15.5834 5.20044
3.64847 15.8257 3.94726
3.75999 16.8488 6.68244
3.77647 15.7497 6.73936
3.7761 14.6254 6.25844
3.80177 14.2566 5.2727
3.98589 14.31 4.1179
3.87311 12.8695 4.92338
2.98139 12.4555 6.47525
3.22209 12.9001 7.39457
2.88226 13.0795 8.30815
2.0036 13.1585 9.57252
2.48543 14.1811 10.0386
0.760345 15.6529 11.6497
0.794483 16.9792 11.7115
-1.07988 15.7206 11.58
-1.25789 16.9787 11.5808
-1.43894 18.8794 11.2517
0.628456 19.0517 11.4336
2.14538 12.5257 5.72424
2.61157 12.5268 3.33138
4.62538 12.9015 2.40129
6.90421 12.9771 3.89738
7.89066 14.113 3.99703
8.66814 17.3201 3.92197
3.71979 15.7134 8.0189
3.74826 17.0904 8.11372
3.13266 20.4097 3.52815
0.470433 20.6103 4.03164
-0.420561 20.6314 3.97503
-0.760403 20.6391 2.55064
0.576258 20.647 2.47377
-2.4159 17.9582 0.645433
-1.37213 15.7435 0.279792
-1.62502 14.7897 0.357976
-1.21224 14.1391 0.198108
-1.54421 12.9972 0.319556
-1.32459 13.3214 -1.50491
-3.53987 13.1784 -0.0422482
0.937544 14.3483 0.135897
1.02528 12.9958 0.153141
0.886668 13.3355 -1.60243
3.53945 13.1757 -0.0437689
0.948255 15.7223 0.150236
-3.13202 20.4097 3.52814
-4.62485 12.9054 2.40201
-6.90356 12.9772 3.89739
-7.88998 14.113 3.99705
-8.66738 17.3202 3.92193
0 1
1 2
2 3
3 4
4 5
5 6
6 7
7 8
8 9
9 10
10 11
11 12
12 13
13 14
14 15
15 16
16 17
17 18
18 19
19 20
20 21
21 22
22 23
23 24
24 25
25 26
26 27
27 28
28 29
29 30
30 31
31 32
32 33
33 34
34 35
35 36
36 37
37 38
38 39
39 40
40 41
41 42
42 43
43 44
44 45
45 46
46 47
47 48
48 49
49 50
50 51
51 52
52 53
53 54
54 55
55 56
56 57
57 58
58 59
59 60
60 61
61 62
62 63
63 64
64 65
65 66
66 67
67 68
68 69
69 70
70 71
71 72
72 73
73 74
74 75
75 76
76 77
77 78
78 79
79 80
80 81
81 82
82 83
83 84
84 85
85 86
86 87
87 88
88 89
89 90
90 91
91 92
92 93
93 94
94 95
95 96
96 97
97 98
98 99
99 100
100 101
101 102
102 103
103 104
104 105
105 106
106 107
107 108
108 109
109 110
110 111
111 112
112 113
113 114
114 115
115 116
116 117
117 118
118 119
119 120
120 121
121 122
122 123
123 124
124 125
125 126
126 127
127 128
128 129
129 130
130 131
131 132
132 133
133 134
134 135
135 136
136 137
137 138
138 139
139 140
140 141
141 142
142 143
143 144
144 145
145 146
146 147
147 148
148 149
149 150
150 151
151 152
152 153
153 154
154 155
155 156
156 157
157 158
158 159
159 160
160 161
161 162
162 163
163 164
164 165
165 166
166 167
167 168
168 169
169 170
170 171
171 172
172 173
173 174
174 175
175 176
176 177
177 178
178 179
179 180
180 181
181 182
182 183
183 184
184 185
185 186
186 187
187 188
188 189
189 190
190 191
191 192
192 193
193 194
194 195
195 196
196 197
197 198
198 199
199 200
200 201
201 202
202 203
203 204
204 205
205 206
206 207
207 208
208 209
209 210
210 211
211 212
212 213
213 214
214 215
215 216
216 217
217 218
218 219
219 220
220 221
221 222
222 223
223 224
224 225
225 226
226 227
227 228
228 229
229 230
230 231
231 232
232 233
233 234
234 235
235 236
236 237
237 238
238 239
239 240
240 241
241 242
242 243
243 244
244 245
245 246
246 247
247 248
248 249
249 250
250 251
251 252
252 253
253 254
254 255
255 256
256 257
257 258
258 259
259 260
260 261
261 262
262 263
263 264
264 265
265 266
266 267
267 268
268 269
269 270
270 271
271 272
272 273
273 274
274 275
275 276
276 277
277 278
278 279
279 280
280 281
281 282
282 283
283 284
284 285
285 286
286 287
287 288
288 289
289 290
290 291
291 292
292 293
293 294
294 295
295 296
296 297
297 298
298 299
299 300
300 301
301 302
302 303
303 304
304 305
305 306
306 307
307 308
308 309
309 310
310 311
311 312
312 313
313 314
314 315
315 316
316 317
317 318
318 319
319 320
320 321
321 322
322 323
323 324
324 325
325 326
326 327
327 328
328 329
329 330
330 331
331 332
332 333
333 334
334 335
335 336
336 337
337 338
338 339
339 340
340 341
341 342
342 343
343 344
344 345
345 346
346 347
347 348
348 349
349 350
350 351
351 352
352 353
353 354
354 355
355 356
356 357
357 358
358 359
359 360
360 361
361 362
362 363
363 364
364 365
365 366
366 367
367 368
368 369
369 370
370 371
371 372
372 373
373 374
374 375
375 376
376 377
377 378
378 379
379 380
380 381
381 382
382 383
383 384
384 385
385 386
386 387
387 388
388 389
389 390
390 391
391 392
392 393
393 394
394 395
395 396
396 397
397 398
398 399
399 400
400 401
401 402
402 403
403 404
404 405
405 406
406 407
407 408
408 409
409 410
410 411
411 412
412 413
413 414
414 415
415 416
416 417
417 418
418 419
419 420
420 421
421 422
422 423
423 424
424 425
425 426
426 427
427 428
428 429
429 430
430 431
431 432
432 433
433 434
434 435
435 436
436 437
437 438
438 439
439 440
440 441
441 442
442 443
443 444
444 445
445 446
446 447
447 448
448 449
449 450
450 451
451 452
452 453
453 454
454 455
455 456
456 457
457 458
458 459
459 460
460 461
461 462
462 463
463 464
464 465
465 466
466 467
467 468
468 469
469 470
470 471
471 472
472 473
473 474
474 475
475 476
476 477
477 478
478 479
479 480
480 481
481 482
482 483
483 484
484 485
485 486
486 487
487 488
488 489
489 490
490 491
491 492
492 493
493 494
494 495
495 496
496 497
497 498
498 499
499 500
500 501
501 502
502 503
503 504
504 505
505 506
506 507
507 508
508 509
509 510
510 511
511 512
512 513
513 514
514 515
515 516
516 517
517 518
518 519
519 520
520 521
521 522
522 523
523 524
524 525
525 526
526 527
527 528
528 529
529 530
530 531
531 532
532 533
533 534
534 535
535 536
536 537
537 538
538 539
539 540
540 541
541 542
542 543
543 544
544 545
545 546
546 547
547 548
548 549
549 550
550 551
551 552
552 553
553 554
554 555
555 556
556 557
557 558
558 559
559 560
560 561
561 562
562 563
563 564
564 565
565 566
566 567
567 568
568 569
569 570
570 571
571 572
572 573
573 574
574 575
575 576
576 577
577 578
578 579
579 580
580 581
581 582
582 583
583 584
584 585
585 586
586 587
587 588
588 589
589 590
590 591
591 592
592 593
593 594
594 595
595 596
596 597
597 598
598 599
599 600
600 601
601 602
602 603
603 604
604 605
605 606
606 607
607 608
608 609
609 610
610 611
611 612
612 613
613 614
614 615
615 616
616 617
617 618
618 619
619 620
620 621
621 622
622 623
623 624
624 625
625 626
626 627
627 628
628 629
629 630
630 631
631 632
632 633
633 634
634 635
635 636
636 637
637 638
638 639
639 640
640 641
641 642
642 643
643 644
644 645
645 646
646 647
647 648
648 649
649 650
650 651
651 652
652 653
653 654
654 655
655 656
656 657
657 658
658 659
659 660
660 661
661 662
662 663
663 664
664 665
665 666
666 667
667 668
668 669
669 670
670 671
671 672
672 673
673 674
674 675
675 676
676 677
677 678
678 679
679 680
680 681
681 682
682 683
683 684
684 685
685 686
686 687
687 688
688 689
689 690
690 691
691 692
692 693
693 694
694 695
695 696
696 697
697 698
698 699
699 700
700 701
701 702
702 703
703 704
704 705
705 706
706 707
707 708
708 709
709 710
710 711
711 712
712 713
713 714
714 715
715 716
716 717
717 718
718 719
719 720
720 721
721 722
722 723
723 724
724 725
725 726
726 727
727 728
728 729
729 730
730 731
731 732
732 733
733 734
734 735
735 736
736 737
737 738
738 739
739 740
740 741
741 742
742 743
743 744
744 745
745 746
746 747
747 748
748 749
749 750
750 751
751 752
752 753
753 754
754 755
755 756
756 757
757 758
758 759
759 760
760 761
761 762
762 763
763 764
764 765
765 766
766 767
767 768
768 769
769 770
770 771
771 772
772 773
773 774
774 775
775 776
776 777
777 778
778 779
779 780
780 781
781 782
782 783
783 784
784 785
785 786
786 787
787 788
788 789
789 790
790 791
791 792
792 793
793 794
794 795
795 796
796 797
797 798
798 799
799 800
800 801
801 802
802 803
803 804
804 805
805 806
806 807
807 808
808 809
809 810
810 811
811 812
812 813
813 814
814 815
815 816
816 817
817 818
818 819
819 820
820 821
821 822
822 823
823 824
824 825
825 826
826 827
827 828
828 829
829 830
830 831
831 832
832 833
833 834
834 835
835 836
836 837
837 838
838 839
839 840
840 841
841 842
842 843
843 844
844 845
