ply
format ascii 1.0
comment Generated by Slim Ghodhbane
element vertex 153
property float x
property float y
property float z
element edge 152
property int vertex1
property int vertex2
end_header
-5.43945 -0.89597 -1.46441
-6.00617 3.56725 -0.417271
1.20671 3.50063 -5.69941
1.1395 1.53204 -5.74067
3.85087 3.35563 -4.25949
3.70598 1.55978 -4.27579
5.25959 3.23106 -1.36372
5.02936 1.47598 -1.39444
4.68179 -0.521422 -1.38902
3.50568 -0.460811 -4.19386
0.848283 -0.944176 -5.23954
-1.70984 -1.22969 -4.43692
-3.96953 -0.378543 -3.5879
-3.72557 1.62556 -3.50762
-1.70418 1.75725 -4.90572
-1.55671 3.56855 -4.87579
-3.44549 3.57438 -3.34789
-5.04604 3.60416 -2.14969
-5.27406 1.86175 -2.12142
-6.12468 1.87365 -0.600889
-5.37343 3.59837 1.58453
-1.75546 1.75725 4.88761
3.80606 3.35563 4.29958
3.661 1.55978 4.31437
5.19861 3.23548 1.77715
4.97463 1.53719 1.76443
4.5235 -0.682888 1.72431
3.94167 -0.236158 3.84939
1.52107 -0.858347 5.03591
1.07932 1.53204 5.7523
1.14695 3.50063 5.71173
-1.60768 3.56855 4.85922
-3.48036 3.57438 3.31162
-3.76209 1.62556 3.46842
-5.296 1.86175 2.06607
-6.14417 1.87186 0.425941
-6.09349 -0.494928 0.393491
-5.23594 -0.869697 1.90035
-3.8988 -0.843274 3.424
-1.70247 -1.35 4.33207
1.12925 4.77241 5.65216
1.46768 6.84765 5.72237
0.70122 8.40477 6.10164
-1.38493 7.27762 5.5493
-1.81951 4.92825 4.66283
-7.60522 7.86446 1.75099
-6.54658 7.38915 3.3083
-4.42931 7.34616 4.71251
-3.60229 4.61255 3.83361
-5.29246 3.85592 1.96527
-6.95473 4.57299 1.14636
-6.9552 4.56223 -1.16614
1.18837 4.77241 -5.64003
3.94747 4.66655 -4.31363
5.55724 4.97043 -1.43131
5.48177 4.91957 1.82297
3.90208 4.66655 4.35473
4.21904 6.78487 4.42717
6.01039 7.54962 3.21435
5.76153 6.27287 1.95394
6.80794 7.66924 1.14239
6.64853 7.39168 -1.20109
5.67879 6.3445 -2.19937
6.04372 7.54963 -3.15123
4.1305 6.79839 -4.54048
1.52753 6.84765 -5.70669
0.765079 8.40478 -6.09396
-1.32674 7.27761 -5.5635
-1.91523 4.88037 -4.60996
-7.63105 7.71746 -1.79249
-6.54746 7.37234 -3.32205
-4.32889 7.35542 -4.78771
-3.62579 4.68502 -3.90351
-5.31794 3.8265 -1.88818
-6.25784 9.92304 -3.29284
-4.28932 8.9167 -5.0428
-4.14851 10.6583 -5.17201
-4.7538 12.7327 -4.29137
-5.67747 12.9739 -2.19984
-6.8598 12.671 -1.73274
-7.33294 10.3001 -1.83795
-6.22932 9.7268 3.35913
-4.34189 8.9167 4.9976
-1.15217 12.8036 5.76706
6.65925 8.83557 3.49557
4.61468 10.2418 5.49321
6.7857 11.1951 4.24336
6.69549 8.83557 -3.42563
4.67195 10.2418 -5.44458
6.82976 11.1951 -4.17206
-1.11725 12.8001 -5.77436
-0.972686 10.51 -5.88012
1.66368 10.7842 -6.16474
1.63567 13.0928 -6.13332
2.83651 13.7253 -5.95701
4.57547 13.1276 -5.63808
6.83082 12.9523 -4.2117
8.0331 13.1978 -1.70641
8.07442 10.9309 -1.65112
8.11418 10.95 1.31021
8.07916 13.1934 1.36274
6.78634 12.9523 4.28301
4.51617 13.1276 5.68569
2.77398 13.7253 5.98638
1.57136 13.0928 6.15011
1.59904 10.7842 6.18183
-1.07523 10.5778 5.86934
-4.20244 10.6583 5.12828
-4.78376 12.7302 4.25667
-5.74732 12.9389 2.13154
-6.94523 12.6483 1.59261
-7.30668 10.2534 1.85991
-8.07649 8.80439 1.02018
-7.75846 8.80258 -1.50243
-1.09771 18.6417 1.57862
6.09437 14.7663 4.25602
2.01973 18.5051 1.71233
7.50142 14.7112 -1.71733
6.48605 16.1404 -1.77958
3.95486 14.816 -5.37344
6.1386 14.7663 -4.19198
4.23424 16.2902 -4.24388
4.59235 17.4123 -2.12822
2.02136 18.4249 -2.10857
3.51985 18.1998 -1.30227
3.47554 18.2739 0.82857
7.5565 14.6964 1.36648
6.57802 16.1142 1.41678
4.70298 17.4177 1.84491
4.18957 16.2902 4.28799
4.82245 14.7848 5.14654
2.9743 14.8471 5.68259
1.47727 16.0102 5.2346
-1.2087 16.4029 4.57078
-1.37234 14.3476 5.52584
-3.54985 14.5541 4.81228
-3.54541 16.3251 3.57291
-2.54429 17.7609 2.60591
-4.82319 16.4953 -1.25333
-5.6781 14.8687 -2.04827
-6.1793 14.3517 -0.89633
-6.17549 14.4096 0.706393
-5.69596 14.8731 1.99506
-4.63217 16.5889 1.37862
-3.19014 18.103 0.581006
-3.11587 18.0734 -1.15913
-1.28352 18.5777 -1.72088
-2.51528 17.7579 -2.63745
-3.8232 16.2114 -3.4149
-3.49926 14.5541 -4.84919
1.02445 15.8163 -5.22363
-1.32327 16.5248 -4.49695
-1.31307 14.3367 -5.54246
0 1
1 2
2 3
3 4
4 5
5 6
6 7
7 8
8 9
9 10
10 11
11 12
12 13
13 14
14 15
15 16
16 17
17 18
18 19
19 20
20 21
21 22
22 23
23 24
24 25
25 26
26 27
27 28
28 29
29 30
30 31
31 32
32 33
33 34
34 35
35 36
36 37
37 38
38 39
39 40
40 41
41 42
42 43
43 44
44 45
45 46
46 47
47 48
48 49
49 50
50 51
51 52
52 53
53 54
54 55
55 56
56 57
57 58
58 59
59 60
60 61
61 62
62 63
63 64
64 65
65 66
66 67
67 68
68 69
69 70
70 71
71 72
72 73
73 74
74 75
75 76
76 77
77 78
78 79
79 80
80 81
81 82
82 83
83 84
84 85
85 86
86 87
87 88
88 89
89 90
90 91
91 92
92 93
93 94
94 95
95 96
96 97
97 98
98 99
99 100
100 101
101 102
102 103
103 104
104 105
105 106
106 107
107 108
108 109
109 110
110 111
111 112
112 113
113 114
114 115
115 116
116 117
117 118
118 119
119 120
120 121
121 122
122 123
123 124
124 125
125 126
126 127
127 128
128 129
129 130
130 131
131 132
132 133
133 134
134 135
135 136
136 137
137 138
138 139
139 140
140 141
141 142
142 143
143 144
144 145
145 146
146 147
147 148
148 149
149 150
150 151
151 152
