ply
format ascii 1.0
comment Generated by Slim Ghodhbane
element vertex 1195
property float x
property float y
property float z
element edge 1194
property int vertex1
property int vertex2
end_header
54.7983 5.27734 100.403
59.1277 8.3767 91.1801
65.3711 20.1041 77.8804
69.8781 18.0937 68.2793
73.08 21.1094 61.4586
77.3983 21.1094 52.2028
81.5703 23.7923 34.8351
81.5353 12.5582 34.3434
77.3016 6.03123 21.0823
48.175 7.63956 5.04101
42.5147 9.04686 -0.732359
34.4405 9.04686 -4.45037
22.9058 8.61606 -9.7618
-2.63379 7.76154 -11.2149
-24.331 7.1621 8.94768
-27.5527 8.04165 15.8094
-30.8878 7.32365 22.9123
-36.9987 7.37151 35.9274
-40.7771 9.04686 43.9747
-44.3396 8.44374 51.5621
-44.0967 21.1094 51.0448
-41.182 23.1198 44.8369
-36.2026 20.8078 34.2318
-30.6058 21.4863 22.3118
-27.5528 20.1042 15.8094
-24.4491 21.1094 9.19916
-2.81577 19.6016 -37.4528
-0.73972 21.1094 -44.7911
1.40223 19.6016 -52.3624
4.20325 20.1042 -62.2634
7.31731 18.8477 -73.2709
24.9449 21.7107 -81.1915
34.2102 19.3966 -92.9954
34.13 18.0937 -99.1487
36.7007 6.03124 -99.4142
49.6514 8.27366 -97.0188
65.1667 9.64969 -101.472
74.4875 9.04584 -98.8337
95.108 9.4069 -84.5444
98.2103 6.34622 -60.3615
95.1861 8.29296 -49.5942
91.0773 6.68178 -35.1156
87.6511 7.70674 -22.9839
84.502 7.53905 -11.8432
83.9182 6.03125 -9.78036
83.9182 18.0937 -9.78036
84.8523 18.0937 -13.081
87.0708 20.6068 -20.92
91.4204 19.2246 -36.2885
95.4206 21.1094 -50.4361
97.2325 18.3562 -56.8815
98.1696 18.6185 -61.1397
93.2613 21.2894 -86.8422
74.531 19.8161 -98.8219
65.4158 20.1039 -101.402
51.4241 20.2869 -96.6426
24.5345 22.2213 -90.4768
22.7429 12.0625 -95.6201
32.7639 9.59443 -93.916
47.0065 24.4044 -102.686
97.6676 12.2875 -58.4038
71.5489 24.125 8.42946
73.6908 18.0937 16.5483
63.8877 9.04686 8.60081
49.3247 20.2478 4.95913
43.0193 21.1094 -0.500009
35.2255 20.1042 -4.08888
23.6268 19.817 -9.42982
0.00279427 24.125 -7.8407
-4.31048 20.1042 -11.5798
-2.66041 7.32366 -38.0019
-0.784542 7.05326 -44.6151
1.64821 7.10074 -52.7017
4.29112 8.71181 -62.574
7.51504 6.78515 -73.9698
7.71796 31.6641 -74.5366
7.39758 48.3187 -73.5177
24.0261 48.2601 -77.9578
35.7849 46.7695 -93.7525
38.72 48.2344 -99.2872
50.6721 48.25 -96.8547
57.7353 49.0039 -94.8585
73.4777 47.3884 -99.1201
74.1072 32.3494 -98.9419
65.0193 32.8613 -101.497
57.6389 33.1719 -94.8857
50.78 32.7895 -96.4991
46.2407 36.1875 -98.1035
36.4249 33.1731 -92.9774
24.2149 32.7308 -77.454
4.35153 32.418 -62.7876
1.3561 48.25 -52.1994
4.26915 48.25 -62.4963
16.3659 35.7785 -90.8303
31.0231 30.1562 -98.5656
65.1841 48.2404 -101.464
96.626 48.3788 -81.9586
98.19 35.7677 -60.7506
97.4435 32.9356 -57.617
94.6606 32.1667 -47.7376
90.9241 32.418 -34.5351
87.1876 32.1667 -21.3326
84.6188 33.1719 -12.2558
83.9182 30.1563 -9.78039
77.3015 30.1562 21.0822
76.8614 33.9258 53.4033
72.965 32.7949 61.7036
69.6757 34.6797 68.7105
65.5722 33.1719 77.4518
58.7859 33.1719 91.9083
54.4947 32.1666 101.049
54.3597 48.25 101.337
59.049 48.25 91.3478
77.0301 48.25 53.044
81.2907 48.25 32.1311
49.5465 48.2501 3.87836
43.1876 48.25 -0.422521
35.1842 48.25 -4.10791
23.5066 48.25 -9.48515
-3.38236 48.25 -11.3081
-24.2896 48.25 8.85951
-27.4988 48.25 15.6944
-30.7668 48.25 22.6548
-40.7771 48.25 43.9747
-46.4447 48.25 56.0455
-46.4447 30.1562 56.0455
-40.7771 31.6641 43.9747
-36.2431 33.1719 34.318
-30.7143 33.6027 22.5428
-27.5528 32.1667 15.8094
-24.237 33.6027 8.74753
21.8164 32.418 5.54898
34.32 32.476 9.0896
49.7117 32.4179 4.80035
62.83 32.8368 8.31336
77.3015 48.25 21.0822
81.6138 36.1875 35.8391
72.7698 48.25 62.1194
69.8781 48.25 68.2793
65.7346 48.25 77.1059
36.0053 48.25 119.917
7.59946 48.25 117.025
-7.18454 48.25 107.991
-19.034 48.25 102.504
-23.6736 48.25 95.4287
-29.8669 48.25 99.0029
-29.8669 32.1666 99.0029
-19.1452 31.9656 102.528
-7.91818 32.3783 107.594
-1.17441 36.1875 112.298
8.04617 32.5163 117.307
25.2232 30.1562 135.519
27.004 36.1875 150.792
20.3904 33.1718 165.853
16.9067 33.1718 170.867
11.9426 33.6744 178.012
4.40916 32.9205 188.855
-5.21438 33.4459 202.706
-10.4398 30.1562 210.227
-30.7715 33.1718 224.118
-55.1756 33.1718 217.845
-61.1995 31.3624 213.66
-67.2233 33.1718 209.476
-76.7762 32.3494 202.84
-91.0262 32.1667 192.914
-90.9006 48.2499 193.01
-85.2948 48.25 196.923
-76.9283 48.25 202.734
-68.339 48.2499 208.701
-61.1995 48.2499 213.66
-54.5062 48.25 218.31
-30.7712 48.2499 224.118
-10.4398 48.25 210.227
-5.345 48.25 202.894
-0.511465 48.25 195.937
4.42368 48.2499 188.834
11.8207 48.25 178.188
21.9415 48.3768 163.011
36.0053 33.1719 119.917
-23.6737 32.1667 95.4287
-50.7853 33.1719 87.2767
-74.694 32.1666 106.32
-82.0673 32.741 116.934
-86.4417 31.664 123.232
-93.8469 32.4759 133.892
-100.863 32.418 143.986
-108.208 33.0274 160.107
-108.578 48.6421 169.02
-108.628 48.25 162.679
-100.785 48.25 143.874
-44.1957 48.25 51.2555
-36.2228 48.25 34.2749
21.5438 48.25 5.47178
34.9432 48.25 9.26608
62.3442 48.7139 8.06922
83.9182 48.25 -9.78038
84.8523 48.25 -13.081
87.1876 48.25 -21.3326
91.0798 48.25 -35.0852
95.2055 48.25 -49.6629
95.0572 35.8275 -84.5587
93.9525 55.2885 -86.1216
93.494 64.3354 -86.2516
57.489 63.3281 -94.9282
50.2685 63.7997 -96.7211
33.9888 62.3308 -93.3198
21.6529 61.035 -94.6279
23.9592 51.6676 -96.1768
4.35153 64.082 -62.7875
34.9839 64.024 -4.20011
49.6586 64.082 4.77542
62.0176 63.8307 8.03651
73.6908 66.3437 16.5484
81.499 72.375 33.858
72.9144 64.8359 61.8114
65.772 63.7589 77.0262
58.8803 64.3333 91.7071
54.5959 65.5898 100.834
26.5799 72.1282 143.745
16.4713 63.8307 171.494
11.9551 63.7589 177.994
4.60198 64.4051 188.577
-0.511398 69.3593 195.937
-5.45555 64.024 203.053
-10.4398 66.3437 210.227
-30.7709 63.3281 224.118
-55.1755 63.3281 217.845
-61.1995 65.1376 213.66
-67.2235 63.3282 209.476
-76.7762 64.1506 202.84
-91.0262 64.3334 192.914
-106.694 72.375 176.087
-108.167 63.3281 159.683
-100.577 64.3333 143.574
-98.0129 72.375 139.886
-86.4417 64.8359 123.232
-46.4447 66.3437 56.0455
-40.7771 64.8359 43.9747
-36.5264 64.3333 34.9216
-30.8813 64.3333 22.8986
-27.5528 64.3333 15.8094
-24.4041 64.3333 9.10337
-2.75646 63.9313 -37.6624
-0.673819 64.3333 -45.0241
1.50109 64.3333 -52.7119
8.16261 65.2862 -75.5408
23.9846 64.0295 -77.845
29.9367 66.8458 -98.1852
45.7793 72.375 -102.37
65.463 63.9459 -101.378
73.4675 63.6023 -99.123
98.18 64.4915 -62.5798
97.5085 66.966 -58.1181
94.6606 64.3333 -47.7376
90.9241 64.082 -34.5351
87.1876 64.3333 -21.3326
84.6188 63.3281 -12.2558
83.9182 66.3437 -9.78037
81.5353 60.8082 34.3434
77.1897 63.9312 52.6585
69.8781 66.3437 68.2793
36.0053 63.3281 119.917
26.9621 61.5072 146.854
21.1267 64.9324 164.251
-19.1452 64.5343 102.528
-23.6737 64.3332 95.4287
-29.8669 64.3333 99.0029
-50.7853 63.3281 87.2767
-48.289 63.3281 80.7391
-44.2182 64.082 51.3034
-2.96791 63.3281 -11.481
23.05 64.6205 -9.6954
43.524 66.3437 -0.267603
71.5489 72.375 8.42947
98.6362 55.2146 -62.501
97.3533 75.0016 -57.6821
95.2678 89.8656 -49.883
91.0876 90.1672 -35.1127
87.3744 90.4688 -21.9927
83.9182 90.4687 -9.78035
75.5566 90.4687 18.8852
80.9201 90.3265 30.5852
72.7487 90.4687 62.1642
69.6757 88.9609 68.7105
65.5696 90.6841 77.4574
58.8232 90.2368 91.8287
54.3935 89.7148 101.265
54.3597 77.401 101.337
58.6644 76.8984 92.167
65.7624 76.8984 77.0467
69.8781 78.4062 68.2793
73.1618 76.7309 61.2844
77.3411 77.4011 52.3058
77.0278 89.2625 53.0035
75.5566 78.4062 18.8853
49.3597 76.2522 4.97553
43.0193 75.3906 -0.499999
35.2255 76.3958 -4.08888
23.6267 76.683 -9.42981
-2.81577 76.8984 -37.4528
-0.739721 75.3906 -44.7911
1.40223 76.8984 -52.3624
4.20325 76.3958 -62.2634
8.00305 77.3163 -74.9881
24.0074 76.3899 -77.9245
36.7726 76.4025 -93.4516
51.2433 76.2522 -96.6933
57.806 75.9938 -94.8385
73.5211 76.8984 -99.1079
90.237 77.9339 -89.7149
93.9525 89.4615 -86.1216
97.6537 96.5 -79.5274
98.6362 89.5354 -62.501
94.972 76.3958 -48.8378
91.4204 77.2754 -36.2885
87.0708 75.8932 -20.92
84.8523 78.4063 -13.081
83.9182 78.4063 -9.78036
84.502 88.9609 -11.8432
43.0194 93.4844 -0.499975
22.0112 89.4636 5.60414
22.4786 76.3958 5.7365
33.8006 77.066 8.94254
48.8935 89.1763 4.73382
61.7121 88.9609 7.73624
60.9688 77.0659 7.64871
33.7746 89.4635 8.93519
22.7616 90.4688 -9.82817
-2.66041 89.1763 -38.0019
-0.789162 89.7148 -44.6164
1.50933 90.8457 -52.741
4.34704 89.3722 -62.7717
7.63169 90.8933 -74.2923
20.7801 96.3785 -94.4199
35.6616 92.3681 -98.9006
51.3173 89.3379 -96.6725
57.0607 87.4531 -95.0493
66.3183 88.6423 -101.129
74.428 89.3721 -98.8511
66.1694 76.4148 -101.176
29.9368 77.9043 -98.1852
21.5651 77.9985 -94.0418
98.1441 80.3141 -62.3867
36.2177 88.9353 -92.2333
23.9991 88.6763 -77.8147
-24.3591 90.1337 9.00757
-27.6202 90.4687 15.9531
-30.8364 90.1337 22.8028
-36.324 90.2368 34.4905
-40.7771 90.4687 43.9747
-44.1676 90.0918 51.1956
-46.4447 90.4687 56.0455
-46.4447 78.4062 56.0455
-44.3396 77.2 51.5621
-41.02 76.5969 44.492
-36.2026 76.8984 34.2318
-30.6564 77.1138 22.4196
-27.5528 76.3958 15.8094
-24.2949 77.1138 8.87071
34.4405 89.5409 -4.45035
-2.96793 90.4688 -11.4809
-3.58959 75.3906 -11.2217
-49.0221 75.3906 77.8655
-52.3966 75.3906 87.6601
-74.3088 77.1138 105.765
-81.4987 76.3958 116.116
-85.9602 77.6523 122.539
-93.8735 76.213 133.93
-100.692 76.8984 143.739
-107.93 78.4063 158.227
-108.399 87.4531 161.097
-108.523 96.2359 169.404
-85.6294 91.9766 196.69
-77.1674 89.6072 202.568
-67.8926 90.4687 209.011
-60.8649 90.4687 213.893
-55.1756 87.4531 217.845
-54.5061 78.4062 218.31
-60.9319 75.9937 213.846
-68.8966 76.8983 208.314
-76.0916 76.8983 203.316
-91.2355 77.803 192.763
-91.8071 89.9662 192.371
-100.196 89.4635 143.025
-30.771 75.3906 224.118
-10.4398 78.4062 210.227
-5.30938 76.7613 202.843
4.4527 77.401 188.792
11.7684 75.8932 178.263
16.8732 77.2 170.906
20.9075 75.0291 164.505
20.8994 89.1821 165.079
16.7326 90.4687 171.118
11.7394 90.4687 178.305
4.22875 90.2533 189.115
-0.511433 93.4841 195.937
-5.32634 89.8225 202.867
-10.4399 90.4687 210.227
-30.771 90.4687 224.118
26.105 80.7741 139.358
36.0053 75.3906 119.917
36.0053 90.4687 119.917
7.64317 89.3249 117.027
-1.17435 84.4375 112.298
-7.03685 76.9871 108.092
-19.0562 76.213 102.276
-24.5574 76.8985 94.8148
-29.8668 78.4062 99.0029
-30.106 89.4635 98.8921
-19.0342 90.6572 102.511
-7.45251 90.2174 107.884
8.31335 76.3958 117.509
26.3455 89.8209 139.525
27.3115 96.5 146.333
-23.6001 89.3378 95.4798
-48.289 90.4687 80.7392
-50.7852 90.4687 87.2767
-74.6589 90.1946 106.269
-81.55 89.2625 116.19
-86.2491 90.4687 122.955
-93.2428 89.7148 133.022
-93.6915 104.685 133.668
-93.7736 116.787 133.786
-98.0129 120.625 139.886
-100.554 116.102 143.541
-100.113 104.685 142.906
-108.705 105.547 163.592
-105.202 120.625 179.243
-90.9839 116.102 192.971
-76.0916 116.102 203.316
-69.2313 120.625 208.081
-60.9319 117.006 213.846
-54.5061 114.594 218.31
-55.1756 105.547 217.845
-60.7533 104.542 213.97
-67.6695 107.557 209.166
-77.1514 104.542 202.579
-85.9641 105.547 196.458
-91.3186 105.547 192.738
-108.558 114.594 160.593
-85.9923 116.604 122.585
-81.7234 105.547 116.439
-86.3262 105.547 123.065
-81.4987 116.604 116.116
-74.5399 104.944 106.098
-46.4447 102.531 56.0455
-40.7771 104.039 43.9747
-36.5264 104.542 34.9216
-30.8813 104.542 22.8986
-24.4041 104.542 9.10337
-24.3816 118.363 9.05548
-27.5528 116.604 15.8094
-30.7576 118.363 22.6352
-36.3608 117.883 34.5689
-41.02 117.609 44.492
-44.3531 118.112 51.5908
-46.4447 114.594 56.0455
-44.2182 104.793 51.3034
-27.5528 104.542 15.8094
-2.68395 105.044 -37.9187
-0.739733 105.547 -44.7911
1.3787 105.116 -52.2792
4.29112 105.212 -62.574
7.36674 104.944 -73.4456
23.8808 105.547 -77.4902
35.2267 117.538 -90.4225
47.279 117.609 -100.535
66.5098 116.856 -101.092
73.3868 116.317 -99.1459
89.54 117.849 -89.3942
98.4072 116.115 -67.0805
94.972 116.604 -48.8378
91.191 116.317 -35.4781
87.3744 118.213 -21.9927
84.8523 114.594 -13.081
83.9182 114.594 -9.78036
73.6908 114.594 16.5484
81.5353 109.058 34.3434
76.8412 103.737 53.4464
72.7524 104.642 62.1564
69.6757 104.039 68.7105
65.5496 105.083 77.5001
58.8128 104.542 91.8508
54.3935 103.285 101.265
54.4947 117.609 101.05
58.9846 117.883 91.485
65.6949 118.112 77.1905
69.8781 114.594 68.2793
72.8739 118.212 61.8977
77.3983 117.609 52.2029
81.5703 120.292 34.8351
49.4464 116.748 5.0163
43.0193 117.609 -0.499979
35.2255 116.604 -4.08888
23.6267 116.317 -9.42982
22.1272 104.944 -10.1203
34.4405 105.547 -4.45035
43.524 102.531 -0.267601
48.5338 105.273 5.25569
61.2209 105.273 7.63397
77.3016 102.531 21.0823
83.9182 102.531 -9.78036
84.502 104.039 -11.8432
87.2168 105.924 -21.4357
91.1317 105.212 -35.2685
95.1861 104.793 -49.5942
98.321 106.347 -61.2117
90.4736 106.442 -89.549
73.8413 105.547 -99.0172
66.6068 105.547 -101.065
51.6064 104.933 -96.5743
33.9775 106.586 -91.6098
24.1264 104.623 -92.4769
22.4462 116.74 -90.836
7.49855 116.604 -73.9116
23.8925 117.006 -77.4838
51.4222 116.748 -96.6431
57.0325 117.009 -95.0411
57.1034 106.552 -95.0373
45.2459 102.446 -99.8768
40.1352 114.813 -99.8289
4.20325 116.604 -62.2634
4.2945 132.688 -62.5859
23.9673 132.346 -77.7688
33.384 133.853 -92.8024
36.8099 130.604 -99.358
46.2405 132.687 -98.1035
57.5339 133.35 -94.9107
73.3163 132.688 -99.1658
88.9943 132.447 -91.2227
96.885 132.256 -79.1071
98.1065 132.431 -63.9738
97.4469 132.925 -59.4135
94.7465 132.808 -48.1544
90.9241 132.688 -34.535
87.1876 132.688 -21.3325
84.6966 132.688 -12.5308
83.9182 132.688 -9.78035
77.3016 132.688 21.0823
81.6138 132.688 35.8391
76.9626 133.19 53.1877
72.9481 132.436 61.7396
69.7432 133.693 68.5668
65.6527 132.499 77.2803
58.9748 132.687 91.5059
54.4947 132.687 101.05
23.7501 132.226 132.848
26.9266 131.86 148.072
16.6019 133.441 171.306
12.0297 133.023 177.887
4.39461 132.52 188.876
-5.08373 132.687 202.518
-10.4398 132.687 210.227
-30.7709 132.687 224.118
-54.9524 132.687 218
-61.1995 132.687 213.66
-76.8168 132.687 202.812
-108.656 132.687 162.592
-100.819 132.257 143.922
-46.4447 132.687 56.0455
-44.117 132.687 51.0879
-40.7771 132.687 43.9747
-36.0272 132.688 33.8582
-30.5755 132.688 22.2472
-27.4988 132.688 15.6944
-24.0982 132.688 8.45194
-2.81577 132.688 -37.4527
-0.779266 132.688 -44.6513
7.56743 132.688 -74.069
16.3659 132.279 -90.8302
51.0058 132.688 -96.7604
65.6218 132.688 -101.343
1.43519 132.688 -52.4789
35.1133 132.688 -4.14051
43.524 132.688 -0.267575
49.7799 132.185 4.57894
62.0025 131.978 8.01097
34.5425 132.688 9.15264
21.6217 132.185 5.49385
-2.96791 132.688 -11.4809
-48.289 132.687 80.7391
-50.7853 132.687 87.2767
-74.694 132.687 106.32
-81.9772 132.687 116.805
-86.3592 132.687 123.113
-94.0308 132.139 134.156
-90.6493 132.687 193.203
-67.4466 132.687 209.321
-68.5619 147.766 208.546
-67.2233 159.828 209.476
-61.1995 161.638 213.66
-55.1755 159.828 217.845
-54.5061 150.781 218.31
-61.1995 148.771 213.66
-76.9655 149.441 202.709
-91.1016 149.575 192.856
-108.578 145.142 169.021
-108.395 150.781 161.055
-100.623 161.168 143.64
-93.6322 148.771 133.583
-82.0673 160.259 116.934
-74.694 149.273 106.32
-32.798 163.05 119.942
-19.9792 163.05 119.658
-6.2653 162.819 119.043
7.08911 160.788 117.196
7.64398 148.972 117.07
-6.95995 149.007 108.135
-19.1096 148.268 102.385
-23.6736 149.575 95.4288
-29.8669 150.781 99.0029
-29.8669 160.833 99.0029
-19.3913 162.09 104.349
-6.16703 162.179 106.132
5.23646 163.05 103.838
59.095 161.473 91.2498
65.7624 161.336 77.0468
69.8781 162.844 68.2793
72.9144 161.336 61.8115
77.4995 162.09 51.9873
81.5352 157.308 34.3433
81.2907 144.75 32.1312
49.71 148.972 3.74956
43.0194 147.766 -0.499946
35.0827 149.136 -4.15459
26.3263 163.05 -17.2809
-0.673819 160.833 -45.0241
1.50109 160.833 -52.7119
4.35153 160.582 -62.7875
8.16261 161.786 -75.5407
23.7512 160.163 -77.0313
48.2037 163.05 -76.5163
62.06 163.05 -76.2375
72.3462 163.05 -79.4013
94.7006 159.468 -84.6598
96.0296 144.55 -81.7185
97.121 148.421 -58.4658
94.7984 149.418 -48.4445
91.191 149.058 -35.4781
87.1876 148.196 -21.3325
84.8523 150.781 -13.0809
83.9182 150.781 -9.78034
77.3016 150.781 21.0823
76.7602 148.972 53.6189
72.7119 147.162 62.2427
65.4873 147.766 77.6327
58.7116 148.017 92.0664
54.2923 147.766 101.481
36.0053 159.828 119.917
26.9621 158.007 146.854
16.3145 161.638 171.72
12.291 161.336 177.511
4.91495 161.452 188.127
-0.511265 165.859 195.937
-5.25796 161.085 202.769
-10.44 150.781 210.227
-30.7711 147.766 224.118
-30.771 159.828 224.118
-10.4398 162.844 210.227
-5.78051 148.017 203.521
-0.511382 144.75 195.937
4.15125 148.23 189.226
11.4419 148.143 178.733
16.8072 148.627 171.011
22.2296 146.378 162.373
21.056 162.78 164.323
-8.9756 163.05 131.746
-19.918 162.027 93.6029
-40.7771 161.336 43.9747
-36.4712 161.473 34.804
-30.9095 161.713 22.9585
-27.5528 160.833 15.8094
-24.4322 161.713 9.16326
-24.4491 147.766 9.19918
-27.5528 148.771 15.8094
-30.9263 147.766 22.9944
-36.5602 148.017 34.9934
-40.7771 149.273 43.9747
-44.2688 147.389 51.4112
-46.4447 150.781 56.0456
-46.4447 162.844 56.0455
-44.1893 161.551 51.2419
-15.7858 163.05 83.683
-4.66717 163.05 91.5692
23.1391 163.294 132.154
23.1492 151.195 131.445
36.0053 147.766 119.917
54.5959 162.09 100.834
69.6757 152.289 68.7105
73.6908 162.844 16.5483
62.2725 160.452 7.98367
49.245 161.953 5.75431
35.167 162.084 7.74162
21.8684 162.486 7.43444
5.55535 164.335 13.4109
-2.96794 159.828 -11.481
-2.81577 149.273 -37.4528
-0.937445 148.771 -44.0922
1.36928 148.771 -52.2459
4.31623 149.058 -62.6627
7.42071 149.394 -73.5717
23.8236 149.058 -77.2875
35.833 147.743 -91.0229
41.0815 145.051 -100.611
50.8129 148.771 -96.815
57.2988 149.252 -94.9657
73.0358 149.058 -99.2452
86.7645 150.588 -93.1665
72.7746 163.05 -91.3836
61.6109 161.969 -92.3613
50.7063 161.73 -93.6847
35.2849 158.779 -92.4045
23.8001 160.266 -89.3276
24.7985 149.106 -92.5593
45.3398 150.696 -99.8503
65.3054 149.575 -101.433
73.4526 161.179 -101.288
63.0015 162.328 -104.584
53.4472 163.05 -103.08
35.0359 163.204 -99.007
-2.75646 160.431 -37.6624
24.413 162.463 -7.91242
34.9744 149.575 9.27492
46.6154 163.05 20.0197
62.8673 149.058 8.21138
84.6188 159.828 -12.2558
87.1876 160.833 -21.3325
90.9241 160.582 -34.535
94.7353 160.751 -48.0184
97.5667 160.309 -59.5278
63.6491 163.05 -114.507
71.5614 163.05 -65.1782
83.9182 162.844 -9.78036
58.1911 163.05 -5.72111
48.503 163.04 -6.1953
35.2727 162.138 -6.61696
9.62546 165.33 -5.30757
-3.58961 147.766 -11.2216
23.6267 149.058 -9.42981
43.0193 171.891 -0.499968
49.118 174.906 4.81273
64.9071 188.477 8.76578
75.5566 186.969 18.8852
79.3515 174.947 32.4968
76.0649 176.449 51.6822
72.9481 175.158 61.7396
69.8781 174.906 68.2793
65.7759 174.906 77.018
58.8232 175.138 91.8287
52.881 176.449 101.241
52.8681 190.334 101.027
58.5838 188.652 90.6988
63.9868 189.376 78.195
72.2878 188.692 61.8784
75.4762 190.054 52.3218
67.7354 171.822 42.508
67.875 169.984 37.1336
76.1963 173.309 19.1922
76.2666 169.591 5.74707
82.6554 171.603 -8.20131
87.48 174.62 -21.6838
91.0385 174.839 -35.8306
95.126 174.862 -49.8132
98.1696 174.382 -61.1396
100.91 175.03 -73.4716
94.9553 174.546 -84.5876
74.14 175.911 -98.9326
57.625 174.939 -94.8833
51.4594 174.896 -96.617
36.482 174.583 -99.2457
26.8481 175.03 -105.782
33.415 173.358 -120.434
50.5011 170.541 -136.118
66.4765 171.637 -142.001
77.5138 171.586 -139.056
87.0428 171.704 -131.96
93.6026 170.642 -117.824
96.5369 170.718 -104.554
99.313 171.774 -91.7228
95.1589 186.609 -84.53
98.2103 186.654 -60.3615
95.2611 188.692 -49.8594
91.1576 189.123 -35.3602
86.8762 188.979 -20.2323
84.6188 189.984 -12.2558
83.9182 186.969 -9.78033
84.6188 177.922 -12.2558
83.8287 168.08 -22.4782
96.0259 173.416 -60.9756
94.3788 168.08 -79.7519
64.8587 174.906 -101.559
48.3173 168.875 -102.966
33.5897 176.448 -90.7922
24.0581 188.149 -78.0089
8.38785 188.117 -73.6424
6.6573 189.787 -63.3628
-1.03631 185.461 -43.7427
-2.78054 189.668 -35.0871
21.9927 186.969 -10.1823
43.0194 189.984 -0.499964
49.1462 188.309 4.94401
63.4311 176.414 8.54332
80.9791 171.822 -30.3456
74.6861 187.974 -98.778
66.8012 188.477 -101.01
56.5091 187.011 -95.173
52.0354 187.974 -96.4699
44.3332 189.869 -101.716
29.5613 186.467 -98.2909
24.1425 174.081 -91.9532
8.27381 175.161 -75.732
2.269 189.892 -51.3827
-2.68866 176.629 -37.902
-2.96792 186.969 -11.4809
21.2321 186.969 5.38356
33.7357 188.477 8.92417
33.8166 175.834 8.94708
22.4007 174.906 5.71446
1.10719 168.08 1.86622
-5.62983 171.555 9.12227
-25.1084 175.846 15.8036
-30.7464 175.241 22.6112
-36.2618 175.138 34.3578
-44.2471 175.768 51.365
-46.4447 174.906 56.0456
-50.7846 186.969 87.2766
-62.6056 179.605 104.953
-81.5501 176.112 116.19
-86.1721 175.509 122.844
-93.7982 175.438 133.822
-101.19 174.529 144.455
-108.167 177.922 159.684
-108.395 186.969 161.055
-100.486 186.969 143.443
-91.5181 189.556 133.445
-86.2491 186.969 122.955
-79.8812 190.5 118.795
-74.6298 187.471 106.227
-74.4244 175.811 105.931
-18.9508 174.906 102.467
-7.44533 175.507 107.55
-1.17435 180.938 112.298
6.44049 187.665 116.231
7.67312 175.911 117.006
26.2244 169.992 121.282
34.4222 173.673 118.19
37.7306 171.816 106.279
-18.0764 187.974 102.909
-30.2255 188.477 98.8367
-49.8637 173.673 89.0277
-47.7722 174.751 80.0122
-44.2587 187.572 51.3897
-37.6804 190.081 45.4183
-35.6349 187.974 35.257
-30.7239 187.471 22.5633
-24.2467 187.471 8.76809
-24.3591 175.241 9.00759
-38.2847 175.704 45.5491
-6.7916 188.854 108.129
26.3455 186.321 139.525
26.2341 168.648 140.972
20.8281 174.967 164.774
11.9644 174.529 177.981
4.60945 175.308 188.567
-5.14472 175.308 202.606
-10.4398 174.906 210.227
-30.771 174.906 224.118
-40.6473 175.522 220.304
-55.1756 177.922 217.845
-61.2061 174.922 214.682
-68.1156 175.911 208.856
-76.5422 176.298 203.003
-91.8001 175.652 192.438
-104.874 170.98 173.947
-93.6154 179.606 147.276
-67.8926 186.969 209.011
-61.1995 186.969 213.66
-54.5061 186.969 218.31
-30.7708 186.969 224.117
-10.44 186.969 210.227
-5.67165 187.346 203.364
4.13338 187.304 189.252
8.55814 190.135 177.414
16.7326 186.969 171.118
16.6756 174.906 171.192
-33.6216 168.08 203.089
-76.0039 171.565 212.13
-86.59 170.05 199.686
-92.9649 187.974 191.54
-77.0717 187.83 202.635
-89.7268 168.08 158.707
-85.9641 183.953 196.458
-92.8085 200 209.867
-88.8993 200 213.374
-73.9241 200 222.457
-64.5266 200 225.522
-42.0088 200 226.867
-24.2493 202.188 212.739
-17.1623 201.312 203.773
-10.3158 203.282 199.238
-4.63667 201.507 188.79
5.00001 202.769 176.166
12.1594 201.05 165.252
17.0423 201.5 157.145
23.7266 202.048 145.271
32.2197 200.875 132.135
39.2574 201.05 120.624
43.6446 201.75 113.448
49.8832 200.875 102.084
54.1492 203.164 93.3329
57.33 201.75 86.8093
60.8504 201.339 79.995
67.1456 202.424 65.7527
70.5524 200 57.9682
73.9857 201.625 50.5912
80.5111 201.167 33.5738
83.2416 200 25.5903
85.6566 201.312 18.5215
89.7036 200 5.89274
93.4953 200 -7.31051
96.7329 200 -19.1091
98.1461 200 -24.5221
99.9969 200 -31.6467
103.429 200 -49.9347
105.904 200 -66.0071
107.398 200 -76.5713
108.035 200 -93.2655
106.481 200 -105.646
104.447 200 -117.127
101.099 200 -127.034
95.5626 200 -135.381
88.542 200 -142.411
77.7842 200 -148.419
63.4999 200 -150.76
48.1426 200 -146.744
39.1259 200 -140.906
31.9055 200 -132.552
25.0774 200 -120.316
22.7943 211.817 -87.6638
10.9126 203.061 -73.9477
8.90568 212.174 -53.3848
1.0224 202.477 -38.6242
0.206245 194.75 -37.1588
-2.22823 201.312 -29.442
5.69369 213.544 -14.1262
-12.9804 200 1.4758
-14.9982 200 6.52278
-20.5068 201.486 19.1413
-26.217 201.5 32.737
-29.7269 203.204 37.7901
-39.8058 201.312 60.4454
-43.852 201.75 67.9894
-47.6771 201.578 76.3427
-52.9617 201.154 86.4249
-59.9256 200 95.8229
-66.1261 201.858 104.304
-71.2852 200.14 111.675
-77.5031 203.934 120.038
-87.4454 204.079 134.078
-94.4616 200 143.27
-100.145 200 150.381
-107.225 204.766 170.876
-105.713 200 191.321
-101.895 200 198.567
-83.4909 206.394 194.326
-75.3898 206.042 199.805
-66.3616 209.613 203.95
-60.4593 210.97 206.881
-55.6525 209.613 211.389
-23.159 194.75 211.36
-16.963 192.168 203.155
-2.78814 193.141 188.231
16.0185 204.123 168.392
19.0642 191.493 160.978
24.9344 194.75 144.074
32.6767 194.75 131.388
37.083 190.859 121.167
43.6446 194.75 113.448
54.1398 193.583 93.3585
67.8157 191.346 66.7267
80.8266 194.75 32.659
85.6566 194.75 18.5215
95.5713 192.878 -83.975
100.91 224.97 -73.4716
93.5736 230.673 -63.4357
93.4211 228.445 -48.5198
91.0457 228.452 -35.6572
89.5578 226.574 -20.8503
86.0656 224.97 -3.13553
78.6413 230.051 4.35568
77.1933 226.944 19.577
72.2286 226.948 34.0774
64.3082 228.445 48.1248
59.0871 228.445 60.0723
53.1105 231.92 64.5751
22.9052 222.95 77.8322
25.4823 222.95 85.3339
32.2661 231.92 106.492
35.7921 224.97 114.809
32.955 216.336 119.724
4.3137 214.178 125.552
-39.1289 222.95 127.736
-46.8627 222.95 135.517
-51.4544 222.95 145.48
-64.6161 222.95 157.61
-72.0738 222.95 164.561
-73.2809 236.95 176.687
-70.3138 236.95 184.672
-62.1909 236.95 188.224
-51.8214 236.95 189.055
-35.803 222.95 186.292
-17.0246 214.624 189.297
-6.51005 216.284 188.275
-1.71049 217.801 173.916
5.89086 220.416 169.407
5.77174 228.178 158.856
12.3519 226.944 150.071
16.9958 228.178 140.219
20.3191 228.445 133.075
24.0401 231.92 119.946
16.5576 236.95 88.3192
19.7543 236.95 76.7801
21.3764 236.95 63.2676
21.249 236.95 49.0865
21.2294 236.95 35.6363
14.2385 222.95 23.4143
7.29108 222.95 23.5708
-7.20704 231.92 22.7492
-17.2532 224.97 27.4025
-22.3238 222.409 34.4863
-33.4663 217.063 51.3771
-37.7786 222.409 65.6959
-36.5693 229.603 77.4465
-41.5098 231.92 91.2427
-51.4543 230.165 103.139
-62.4213 229.603 117.996
-69.2624 231.92 131.808
-78.7525 231.41 143.729
-89.233 228.178 150.779
-89.7268 231.92 158.707
-103.055 226.915 171.806
-96.9247 228.178 189.284
-88.2245 228.272 201.82
-76.0039 228.435 212.13
-64.4697 228.178 216.382
-35.8592 216.743 219.413
-23.4969 224.97 202.128
-24.8991 231.92 192.055
-16.1766 231.92 181.02
-6.753 228.445 175.022
-20.0259 222.95 160.187
-17.3322 222.95 147.338
-20.5868 236.95 132.53
-21.0231 236.95 119.713
-20.6829 236.95 104.498
-16.4292 236.95 90.55
-5.78487 236.95 78.0782
6.86891 236.95 63.1769
8.11164 236.95 49.7448
11.2568 236.95 36.6231
21.4974 236.95 20.9954
23.6732 236.95 8.49056
26.4256 236.95 -4.89776
28.2682 222.95 -26.7719
27.0509 222.95 -30.1366
31.2511 222.95 -36.7131
35.8817 222.95 -49.7825
38.0118 222.95 -60.8547
51.1683 236.95 -76.4737
54.4441 236.95 -89.9961
62.27 236.95 -106.29
64.9269 236.95 -114.994
78.7647 225.228 -141.59
89.0908 225.099 -133.875
93.6947 229.352 -117.551
97.4581 228.178 -106.936
98.0624 228.178 -102.498
99.313 228.226 -91.7228
94.3788 231.92 -79.7519
71.4723 236.95 -66.7674
62.1848 236.95 -62.8182
48.6363 236.95 -63.6067
41.6465 236.95 -56.0686
39.735 236.95 -48.8188
37.6989 236.95 -35.5358
35.7271 236.95 -20.459
35.3581 236.95 -7.3077
35.2546 236.95 7.33301
34.5975 236.95 20.8934
34.9807 236.95 36.019
33.4991 236.95 49.8428
30.8367 236.95 61.7524
31.3085 222.95 73.3264
51.5789 222.409 88.8697
46.2026 224.97 95.9747
43.4697 222.422 105.457
5.82011 236.95 103.224
-6.59862 236.95 105.1
-32.9104 236.95 119.456
-45.2629 236.95 135.299
-48.8787 236.95 147.954
-48.5376 236.95 162.824
-48.7101 236.95 176.134
-44.592 222.95 184.042
-51.0455 222.95 181.903
-62.9271 236.95 175.009
-72.6447 236.95 167.391
-64.0154 236.95 161.469
-58.5154 236.95 153.883
-34.8403 236.95 133.421
-8.09875 236.95 119.6
1.47037 236.95 115.982
6.18525 236.95 89.6815
7.35429 236.95 77.075
-2.68917 236.95 64.8119
-7.22462 222.95 62.1868
-16.5825 222.95 68.022
-45.1902 224.974 83.1832
-50.7094 224.97 92.2258
-61.7554 222.41 105.665
-65.3071 214.338 116.091
-81.3555 214.178 131.286
-91.9094 214.178 146.474
-59.249 222.95 146.642
-34.4585 236.95 145.745
-20.8622 236.95 146.345
-13.6026 236.95 140.641
-8.69758 236.95 130.975
-7.06763 236.95 90.7937
-7.97475 222.95 72.0107
-5.33402 222.95 50.145
-1.93231 222.95 36.9404
5.54306 222.95 34.0909
45.4159 222.95 39.9571
46.733 222.95 42.6803
66.6414 222.409 56.2591
58.6974 218.295 72.8756
49.4559 229.603 78.1118
39.5978 231.92 92.7574
-8.78067 222.95 150.047
-12.2812 222.95 157.651
-23.8564 222.95 173.398
-34.8888 222.95 175.474
-38.7377 236.95 172.503
-34.5707 236.95 158.797
-24.3622 236.95 156.884
-33.6216 231.92 203.089
-78.1891 224.97 131.672
-73.701 222.409 122.413
-31.637 224.97 57.888
-19.7856 229.603 44.9889
-12.3018 231.92 34.3083
-5.90065 228.356 8.99882
-4.06203 224.97 -5.29442
3.16276 230.051 -10.1534
6.41624 229.603 -20.6542
10.1175 228.445 -36.4563
10.5105 225.713 -47.9848
14.3755 228.178 -54.026
16.1747 226.944 -65.1823
22.4702 228.819 -79.1391
30.5514 231.92 -92.2185
27.3546 226.579 -102.055
35.7649 229.343 -119.282
49.2614 233.076 -129.555
66.647 225.172 -144.812
52.295 214.442 -147.907
21.7174 224.97 -89.1411
15.7073 231.92 -41.9656
5.19445 218.294 -36.5847
18.66 214.178 -2.05936
1.10719 231.92 1.86622
-20.3089 217.061 22.6885
-25.1627 231.92 61.3604
34.6352 222.95 62.259
38.0828 222.95 48.7226
43.9538 236.95 31.9598
47.0139 236.95 21.6222
49.1716 236.95 6.67542
48.5031 236.95 -6.35619
48.9467 236.95 -21.243
49.424 236.95 -35.1893
49.993 236.95 -48.0268
63.477 236.95 -76.4866
72.7746 236.95 -91.3836
70.5443 236.95 -105.324
13.8304 214.178 -64.0687
63.0751 236.95 -48.0309
62.5519 236.95 -34.5063
60.0811 236.95 -23.5595
58.2959 236.95 -10.7297
80.6567 231.92 -10.9205
83.8287 231.92 -22.4782
72.3462 236.95 -79.4013
63.8261 236.95 -91.042
0 1
1 2
2 3
3 4
4 5
5 6
6 7
7 8
8 9
9 10
10 11
11 12
12 13
13 14
14 15
15 16
16 17
17 18
18 19
19 20
20 21
21 22
22 23
23 24
24 25
25 26
26 27
27 28
28 29
29 30
30 31
31 32
32 33
33 34
34 35
35 36
36 37
37 38
38 39
39 40
40 41
41 42
42 43
43 44
44 45
45 46
46 47
47 48
48 49
49 50
50 51
51 52
52 53
53 54
54 55
55 56
56 57
57 58
58 59
59 60
60 61
61 62
62 63
63 64
64 65
65 66
66 67
67 68
68 69
69 70
70 71
71 72
72 73
73 74
74 75
75 76
76 77
77 78
78 79
79 80
80 81
81 82
82 83
83 84
84 85
85 86
86 87
87 88
88 89
89 90
90 91
91 92
92 93
93 94
94 95
95 96
96 97
97 98
98 99
99 100
100 101
101 102
102 103
103 104
104 105
105 106
106 107
107 108
108 109
109 110
110 111
111 112
112 113
113 114
114 115
115 116
116 117
117 118
118 119
119 120
120 121
121 122
122 123
123 124
124 125
125 126
126 127
127 128
128 129
129 130
130 131
131 132
132 133
133 134
134 135
135 136
136 137
137 138
138 139
139 140
140 141
141 142
142 143
143 144
144 145
145 146
146 147
147 148
148 149
149 150
150 151
151 152
152 153
153 154
154 155
155 156
156 157
157 158
158 159
159 160
160 161
161 162
162 163
163 164
164 165
165 166
166 167
167 168
168 169
169 170
170 171
171 172
172 173
173 174
174 175
175 176
176 177
177 178
178 179
179 180
180 181
181 182
182 183
183 184
184 185
185 186
186 187
187 188
188 189
189 190
190 191
191 192
192 193
193 194
194 195
195 196
196 197
197 198
198 199
199 200
200 201
201 202
202 203
203 204
204 205
205 206
206 207
207 208
208 209
209 210
210 211
211 212
212 213
213 214
214 215
215 216
216 217
217 218
218 219
219 220
220 221
221 222
222 223
223 224
224 225
225 226
226 227
227 228
228 229
229 230
230 231
231 232
232 233
233 234
234 235
235 236
236 237
237 238
238 239
239 240
240 241
241 242
242 243
243 244
244 245
245 246
246 247
247 248
248 249
249 250
250 251
251 252
252 253
253 254
254 255
255 256
256 257
257 258
258 259
259 260
260 261
261 262
262 263
263 264
264 265
265 266
266 267
267 268
268 269
269 270
270 271
271 272
272 273
273 274
274 275
275 276
276 277
277 278
278 279
279 280
280 281
281 282
282 283
283 284
284 285
285 286
286 287
287 288
288 289
289 290
290 291
291 292
292 293
293 294
294 295
295 296
296 297
297 298
298 299
299 300
300 301
301 302
302 303
303 304
304 305
305 306
306 307
307 308
308 309
309 310
310 311
311 312
312 313
313 314
314 315
315 316
316 317
317 318
318 319
319 320
320 321
321 322
322 323
323 324
324 325
325 326
326 327
327 328
328 329
329 330
330 331
331 332
332 333
333 334
334 335
335 336
336 337
337 338
338 339
339 340
340 341
341 342
342 343
343 344
344 345
345 346
346 347
347 348
348 349
349 350
350 351
351 352
352 353
353 354
354 355
355 356
356 357
357 358
358 359
359 360
360 361
361 362
362 363
363 364
364 365
365 366
366 367
367 368
368 369
369 370
370 371
371 372
372 373
373 374
374 375
375 376
376 377
377 378
378 379
379 380
380 381
381 382
382 383
383 384
384 385
385 386
386 387
387 388
388 389
389 390
390 391
391 392
392 393
393 394
394 395
395 396
396 397
397 398
398 399
399 400
400 401
401 402
402 403
403 404
404 405
405 406
406 407
407 408
408 409
409 410
410 411
411 412
412 413
413 414
414 415
415 416
416 417
417 418
418 419
419 420
420 421
421 422
422 423
423 424
424 425
425 426
426 427
427 428
428 429
429 430
430 431
431 432
432 433
433 434
434 435
435 436
436 437
437 438
438 439
439 440
440 441
441 442
442 443
443 444
444 445
445 446
446 447
447 448
448 449
449 450
450 451
451 452
452 453
453 454
454 455
455 456
456 457
457 458
458 459
459 460
460 461
461 462
462 463
463 464
464 465
465 466
466 467
467 468
468 469
469 470
470 471
471 472
472 473
473 474
474 475
475 476
476 477
477 478
478 479
479 480
480 481
481 482
482 483
483 484
484 485
485 486
486 487
487 488
488 489
489 490
490 491
491 492
492 493
493 494
494 495
495 496
496 497
497 498
498 499
499 500
500 501
501 502
502 503
503 504
504 505
505 506
506 507
507 508
508 509
509 510
510 511
511 512
512 513
513 514
514 515
515 516
516 517
517 518
518 519
519 520
520 521
521 522
522 523
523 524
524 525
525 526
526 527
527 528
528 529
529 530
530 531
531 532
532 533
533 534
534 535
535 536
536 537
537 538
538 539
539 540
540 541
541 542
542 543
543 544
544 545
545 546
546 547
547 548
548 549
549 550
550 551
551 552
552 553
553 554
554 555
555 556
556 557
557 558
558 559
559 560
560 561
561 562
562 563
563 564
564 565
565 566
566 567
567 568
568 569
569 570
570 571
571 572
572 573
573 574
574 575
575 576
576 577
577 578
578 579
579 580
580 581
581 582
582 583
583 584
584 585
585 586
586 587
587 588
588 589
589 590
590 591
591 592
592 593
593 594
594 595
595 596
596 597
597 598
598 599
599 600
600 601
601 602
602 603
603 604
604 605
605 606
606 607
607 608
608 609
609 610
610 611
611 612
612 613
613 614
614 615
615 616
616 617
617 618
618 619
619 620
620 621
621 622
622 623
623 624
624 625
625 626
626 627
627 628
628 629
629 630
630 631
631 632
632 633
633 634
634 635
635 636
636 637
637 638
638 639
639 640
640 641
641 642
642 643
643 644
644 645
645 646
646 647
647 648
648 649
649 650
650 651
651 652
652 653
653 654
654 655
655 656
656 657
657 658
658 659
659 660
660 661
661 662
662 663
663 664
664 665
665 666
666 667
667 668
668 669
669 670
670 671
671 672
672 673
673 674
674 675
675 676
676 677
677 678
678 679
679 680
680 681
681 682
682 683
683 684
684 685
685 686
686 687
687 688
688 689
689 690
690 691
691 692
692 693
693 694
694 695
695 696
696 697
697 698
698 699
699 700
700 701
701 702
702 703
703 704
704 705
705 706
706 707
707 708
708 709
709 710
710 711
711 712
712 713
713 714
714 715
715 716
716 717
717 718
718 719
719 720
720 721
721 722
722 723
723 724
724 725
725 726
726 727
727 728
728 729
729 730
730 731
731 732
732 733
733 734
734 735
735 736
736 737
737 738
738 739
739 740
740 741
741 742
742 743
743 744
744 745
745 746
746 747
747 748
748 749
749 750
750 751
751 752
752 753
753 754
754 755
755 756
756 757
757 758
758 759
759 760
760 761
761 762
762 763
763 764
764 765
765 766
766 767
767 768
768 769
769 770
770 771
771 772
772 773
773 774
774 775
775 776
776 777
777 778
778 779
779 780
780 781
781 782
782 783
783 784
784 785
785 786
786 787
787 788
788 789
789 790
790 791
791 792
792 793
793 794
794 795
795 796
796 797
797 798
798 799
799 800
800 801
801 802
802 803
803 804
804 805
805 806
806 807
807 808
808 809
809 810
810 811
811 812
812 813
813 814
814 815
815 816
816 817
817 818
818 819
819 820
820 821
821 822
822 823
823 824
824 825
825 826
826 827
827 828
828 829
829 830
830 831
831 832
832 833
833 834
834 835
835 836
836 837
837 838
838 839
839 840
840 841
841 842
842 843
843 844
844 845
845 846
846 847
847 848
848 849
849 850
850 851
851 852
852 853
853 854
854 855
855 856
856 857
857 858
858 859
859 860
860 861
861 862
862 863
863 864
864 865
865 866
866 867
867 868
868 869
869 870
870 871
871 872
872 873
873 874
874 875
875 876
876 877
877 878
878 879
879 880
880 881
881 882
882 883
883 884
884 885
885 886
886 887
887 888
888 889
889 890
890 891
891 892
892 893
893 894
894 895
895 896
896 897
897 898
898 899
899 900
900 901
901 902
902 903
903 904
904 905
905 906
906 907
907 908
908 909
909 910
910 911
911 912
912 913
913 914
914 915
915 916
916 917
917 918
918 919
919 920
920 921
921 922
922 923
923 924
924 925
925 926
926 927
927 928
928 929
929 930
930 931
931 932
932 933
933 934
934 935
935 936
936 937
937 938
938 939
939 940
940 941
941 942
942 943
943 944
944 945
945 946
946 947
947 948
948 949
949 950
950 951
951 952
952 953
953 954
954 955
955 956
956 957
957 958
958 959
959 960
960 961
961 962
962 963
963 964
964 965
965 966
966 967
967 968
968 969
969 970
970 971
971 972
972 973
973 974
974 975
975 976
976 977
977 978
978 979
979 980
980 981
981 982
982 983
983 984
984 985
985 986
986 987
987 988
988 989
989 990
990 991
991 992
992 993
993 994
994 995
995 996
996 997
997 998
998 999
999 1000
1000 1001
1001 1002
1002 1003
1003 1004
1004 1005
1005 1006
1006 1007
1007 1008
1008 1009
1009 1010
1010 1011
1011 1012
1012 1013
1013 1014
1014 1015
1015 1016
1016 1017
1017 1018
1018 1019
1019 1020
1020 1021
1021 1022
1022 1023
1023 1024
1024 1025
1025 1026
1026 1027
1027 1028
1028 1029
1029 1030
1030 1031
1031 1032
1032 1033
1033 1034
1034 1035
1035 1036
1036 1037
1037 1038
1038 1039
1039 1040
1040 1041
1041 1042
1042 1043
1043 1044
1044 1045
1045 1046
1046 1047
1047 1048
1048 1049
1049 1050
1050 1051
1051 1052
1052 1053
1053 1054
1054 1055
1055 1056
1056 1057
1057 1058
1058 1059
1059 1060
1060 1061
1061 1062
1062 1063
1063 1064
1064 1065
1065 1066
1066 1067
1067 1068
1068 1069
1069 1070
1070 1071
1071 1072
1072 1073
1073 1074
1074 1075
1075 1076
1076 1077
1077 1078
1078 1079
1079 1080
1080 1081
1081 1082
1082 1083
1083 1084
1084 1085
1085 1086
1086 1087
1087 1088
1088 1089
1089 1090
1090 1091
1091 1092
1092 1093
1093 1094
1094 1095
1095 1096
1096 1097
1097 1098
1098 1099
1099 1100
1100 1101
1101 1102
1102 1103
1103 1104
1104 1105
1105 1106
1106 1107
1107 1108
1108 1109
1109 1110
1110 1111
1111 1112
1112 1113
1113 1114
1114 1115
1115 1116
1116 1117
1117 1118
1118 1119
1119 1120
1120 1121
1121 1122
1122 1123
1123 1124
1124 1125
1125 1126
1126 1127
1127 1128
1128 1129
1129 1130
1130 1131
1131 1132
1132 1133
1133 1134
1134 1135
1135 1136
1136 1137
1137 1138
1138 1139
1139 1140
1140 1141
1141 1142
1142 1143
1143 1144
1144 1145
1145 1146
1146 1147
1147 1148
1148 1149
1149 1150
1150 1151
1151 1152
1152 1153
1153 1154
1154 1155
1155 1156
1156 1157
1157 1158
1158 1159
1159 1160
1160 1161
1161 1162
1162 1163
1163 1164
1164 1165
1165 1166
1166 1167
1167 1168
1168 1169
1169 1170
1170 1171
1171 1172
1172 1173
1173 1174
1174 1175
1175 1176
1176 1177
1177 1178
1178 1179
1179 1180
1180 1181
1181 1182
1182 1183
1183 1184
1184 1185
1185 1186
1186 1187
1187 1188
1188 1189
1189 1190
1190 1191
1191 1192
1192 1193
1193 1194
