ply
format ascii 1.0
comment Generated by Slim Ghodhbane
element vertex 39
property float x
property float y
property float z
element edge 38
property int vertex1
property int vertex2
end_header
-2.1423 -1.18476 5.81097
4.98781 3.217 2.94382
5.60392 2.35942 0.539247
5.62437 2.16786 -1.30151
1.62227 3.06384 -6.58731
-1.25769 2.56998 -6.35315
-4.29462 2.5945 -2.72249
-4.59307 2.58184 2.32919
-1.82327 3.16345 6.44145
1.58832 3.43519 6.78513
4.47863 -0.447489 3.06365
5.5337 -0.270453 -0.955243
0.757839 -1.08543 6.49681
-4.10933 -0.44047 2.64113
-4.4149 -0.229621 -1.26316
-3.81639 8.34052 -3.04649
-3.96415 8.38512 2.92977
-1.8764 7.53842 6.0879
5.19914 8.16009 2.23031
5.50141 5.55226 -0.165764
5.17784 4.12256 -2.76367
5.18562 8.28118 -2.17294
-1.6828 7.17643 -5.91074
2.2994 7.80703 -6.52795
1.1999 13.4595 -5.88211
4.44231 13.4582 2.15503
-3.5322 13.3892 3.2733
1.13573 12.8088 5.92488
4.55784 13.5733 -2.13583
-0.907598 12.9497 -5.72999
-3.77995 13.5688 -3.02632
-3.0322 18.1598 -2.38313
-2.62815 18.1694 2.70952
-0.570487 14.341 5.68987
0.82792 17.026 5.64186
3.45461 19.2385 1.84655
3.17593 19.4986 -2.05577
-0.939458 17.4107 -5.68768
1.21186 17.2866 -6.02375
0 1
1 2
2 3
3 4
4 5
5 6
6 7
7 8
8 9
9 10
10 11
11 12
12 13
13 14
14 15
15 16
16 17
17 18
18 19
19 20
20 21
21 22
22 23
23 24
24 25
25 26
26 27
27 28
28 29
29 30
30 31
31 32
32 33
33 34
34 35
35 36
36 37
37 38
