ply
format ascii 1.0
comment Generated by Slim Ghodhbane
element vertex 75
property float x
property float y
property float z
element edge 74
property int vertex1
property int vertex2
end_header
-3.03897 2.9392 6.27974
-4.81693 3.18573 4.82676
-3.068 -2.2156 -5.52143
-6.71958 -1.07451 -2.75224
-3.57528 2.90223 -5.99339
-4.83039 3.24229 -4.86732
-7.52199 2.33721 -1.9823
-7.11628 2.49179 2.39138
-6.94975 -0.683051 2.6546
-4.39887 -2.35572 4.84404
1.30219 -0.0879101 -7.7391
1.90385 3.5773 -7.53144
5.87052 4.40861 -5.14938
6.78072 2.3219 -2.47312
7.1598 2.19614 1.75541
5.69177 2.40885 5.08513
2.75763 3.82873 7.38645
1.21899 -0.0884388 7.75243
-1.55122 -2.98779 5.70626
7.89688 10.7084 5.90716
1.88918 11.1387 8.03787
-6.97895 7.87002 5.42275
-9.17536 8.19725 3.02343
-8.2937 11.906 3.42173
-5.14418 12.0852 6.78489
-2.15465 11.0629 7.79866
-2.76375 7.48779 7.3259
-0.164114 4.86071 7.74736
2.51618 7.49744 7.64589
6.44918 6.73923 5.38739
8.18095 6.51929 1.97367
8.1661 6.49624 -2.16246
1.9184 11.1326 -8.00418
-5.07284 12.0851 -6.83839
-2.48196 11.5759 -7.74189
-8.22618 11.7423 -3.51209
-9.20914 8.30644 -3.02503
-6.98851 7.83158 -5.45219
-2.88243 7.35389 -7.27768
-0.0829916 4.86072 -7.74865
2.44197 7.57161 -7.62098
6.44698 6.74777 -5.38787
10.0881 10.6352 1.65092
10.0216 10.5982 -2.08466
7.9583 10.7084 -5.82413
7.66419 13.4963 -6.01594
3.72826 13.2136 -7.90306
-1.05048 13.4135 -7.76221
-2.02255 20.3485 -2.42311
-6.00342 13.18 -5.86675
-7.6367 13.548 -3.13345
-6.37919 16.7754 -2.8673
-3.18327 19.4455 -3.13081
-2.04076 17.0501 -6.47546
2.37645 16.7577 -6.85937
6.35643 16.8862 -5.2752
8.11298 16.8426 -2.69722
9.82624 14.1323 -2.04862
9.88588 14.1619 1.59719
7.63761 17.5744 1.7
6.50828 17.0003 5.03751
6.86195 13.6956 6.4793
3.6453 13.2136 7.94166
-1.09958 13.4232 7.75436
-1.77035 20.459 2.23138
-5.92885 13.1466 5.93874
-7.69683 13.661 2.96001
-6.43869 16.8102 2.54812
-3.27306 19.4785 2.76564
-1.85292 17.2065 6.42045
2.39469 16.7097 6.91305
3.2343 19.5962 3.84702
3.60481 19.6991 -3.24895
2.48086 20.4859 -2.12045
3.34234 20.2948 1.61506
0 1
1 2
2 3
3 4
4 5
5 6
6 7
7 8
8 9
9 10
10 11
11 12
12 13
13 14
14 15
15 16
16 17
17 18
18 19
19 20
20 21
21 22
22 23
23 24
24 25
25 26
26 27
27 28
28 29
29 30
30 31
31 32
32 33
33 34
34 35
35 36
36 37
37 38
38 39
39 40
40 41
41 42
42 43
43 44
44 45
45 46
46 47
47 48
48 49
49 50
50 51
51 52
52 53
53 54
54 55
55 56
56 57
57 58
58 59
59 60
60 61
61 62
62 63
63 64
64 65
65 66
66 67
67 68
68 69
69 70
70 71
71 72
72 73
73 74
