ply
format ascii 1.0
comment Generated by Slim Ghodhbane
element vertex 120
property float x
property float y
property float z
element edge 119
property int vertex1
property int vertex2
end_header
-2.50796 4.23889 -4.53296
-5.35418 2.18843 -2.04976
2.57079 -0.374008 5.23937
4.93158 -0.18357 1.93617
2.62709 -0.373367 -5.21178
1.02685 4.52963 -5.93
1.73921 1.9195 -5.70773
4.07895 4.79638 -4.50377
4.14922 1.86612 -4.19367
4.79018 -0.151257 -2.7844
5.27742 1.91593 -1.62911
5.63616 4.36474 -1.59403
5.77195 4.43413 1.37896
5.2759 2.09318 1.84001
4.2509 4.62122 4.29107
4.36604 1.85044 3.98176
1.87678 2.08055 5.64361
0.9647 4.52963 5.94043
-2.48434 4.32918 4.56138
-3.89194 4.05163 3.70543
-2.05344 1.79155 4.99726
-3.78261 1.92466 3.71362
-1.18046 -1.55596 4.71646
-3.51609 -1.26447 3.79887
-5.5464 -0.378834 1.87583
-5.26557 2.0012 2.11855
-5.64844 3.8913 2.06242
-7.36195 4.1889 0.729547
-7.37665 4.20339 -0.796805
-5.5444 3.96772 -2.28906
-3.85292 4.05163 -3.74598
-2.001 1.79155 -5.01849
-3.74351 1.92466 -3.75303
-5.41857 -0.58492 -1.95996
-3.64686 -0.781121 -4.06109
-1.11661 -1.55737 -4.72925
-1.75721 11.5907 -6.04094
1.38093 6.21946 -5.90786
4.4067 6.46313 -4.45394
7.44077 11.7164 -4.01464
6.01627 6.25474 -1.79715
6.6647 7.38186 -2.03584
8.47293 11.7425 -1.58746
6.06823 6.22911 1.78234
1.31899 6.21947 5.922
1.51684 8.44031 6.18423
1.9156 11.4236 6.45234
4.86024 11.3055 5.82463
8.48013 11.7601 1.3988
7.39832 11.7164 4.09233
7.28264 10.154 3.88082
5.1266 8.83585 5.04947
4.37895 6.46926 4.47615
6.48154 7.40619 2.66855
7.76223 8.88037 1.06662
7.93196 9.31976 -1.47159
7.32288 10.154 -3.80434
5.17919 8.83585 -4.9955
4.92096 11.3055 -5.77341
1.677 11.3082 -6.44244
1.50117 8.43928 -6.14489
-1.69899 9.04043 -5.98464
-7.74127 6.4443 2.2263
-7.71392 8.99403 2.02542
-6.72679 10.0897 3.00422
-1.61562 11.4125 6.05114
-2.02685 8.85841 5.92344
-2.12726 6.11853 5.40432
-4.64472 6.15326 4.72012
-5.2847 8.28216 4.60311
-5.08401 10.8901 4.92759
-6.57892 10.9837 2.9123
-8.89301 11.8949 0.744877
-8.73873 11.8791 -1.20581
-6.71856 10.8056 -2.93104
-8.11561 6.31309 -1.75631
-7.73634 8.82023 -2.05701
-5.03212 10.8901 -4.98056
-6.55337 10.0525 -3.27809
-5.23621 8.28216 -4.6582
-5.29922 6.15389 -4.37234
-2.06092 6.00335 -5.38416
2.07135 18.7376 1.77539
4.33696 17.9989 1.30737
5.6912 15.1092 -4.65975
1.91159 15.8967 -5.37775
1.94254 13.2817 -6.33517
5.30415 12.9732 -5.55824
7.22978 13.1924 -4.09006
2.07322 18.6541 -2.18428
4.23003 17.9217 -1.96791
6.07206 16.6911 -2.1159
7.85693 14.4216 -1.87363
8.4248 12.7396 -1.58253
8.43107 12.7334 1.41778
7.64757 14.8629 1.49665
5.94748 16.7068 2.46948
-7.53714 12.8942 1.5373
-6.09457 12.9475 2.35623
-4.98863 12.9184 4.47191
-1.73037 18.4848 -2.20157
-7.43862 12.768 -1.80122
-6.0487 12.9331 -2.4564
-4.95327 12.9136 -4.49776
-1.70528 13.0129 -5.91579
-1.55971 15.5478 -5.2303
-4.33338 15.0918 -4.48577
-5.23996 15.8181 -2.06743
-3.69152 17.981 -1.15246
-1.68344 18.5018 2.16349
-3.97068 17.878 0.42186
-5.38637 15.7022 1.79256
-4.38011 15.0918 4.44015
-1.55838 15.361 5.30401
-1.53316 13.1075 5.91897
1.8761 13.2817 6.35517
2.33272 15.9875 5.3819
5.6421 15.1092 4.71909
5.68203 13.1657 5.28348
7.38192 12.6417 4.0376
0 1
1 2
2 3
3 4
4 5
5 6
6 7
7 8
8 9
9 10
10 11
11 12
12 13
13 14
14 15
15 16
16 17
17 18
18 19
19 20
20 21
21 22
22 23
23 24
24 25
25 26
26 27
27 28
28 29
29 30
30 31
31 32
32 33
33 34
34 35
35 36
36 37
37 38
38 39
39 40
40 41
41 42
42 43
43 44
44 45
45 46
46 47
47 48
48 49
49 50
50 51
51 52
52 53
53 54
54 55
55 56
56 57
57 58
58 59
59 60
60 61
61 62
62 63
63 64
64 65
65 66
66 67
67 68
68 69
69 70
70 71
71 72
72 73
73 74
74 75
75 76
76 77
77 78
78 79
79 80
80 81
81 82
82 83
83 84
84 85
85 86
86 87
87 88
88 89
89 90
90 91
91 92
92 93
93 94
94 95
95 96
96 97
97 98
98 99
99 100
100 101
101 102
102 103
103 104
104 105
105 106
106 107
107 108
108 109
109 110
110 111
111 112
112 113
113 114
114 115
115 116
116 117
117 118
118 119
