ply
format ascii 1.0
comment Generated by Slim Ghodhbane
element vertex 41
property float x
property float y
property float z
element edge 40
property int vertex1
property int vertex2
end_header
-4.20105 -5.36703 -0.411618
-6.038 -5.17518 1.72504
-9.37858 2.24305 -0.718141
-8.69978 5.5926 -0.59093
-8.90978 7.17524 2.11637
-10.4667 8.23536 4.20363
-16.2491 8.24224 7.25765
-16.8064 2.16145 5.21606
-12.9242 -0.999256 2.38276
-9.75269 -2.5634 1.8123
-7.74452 -2.18119 0.139031
-5.73726 -1.47679 -0.788167
-2.92518 -1.05003 -1.46827
1.59512 1.74106 -0.174424
-3.16644 5.25067 1.97276
-8.80639 7.20483 4.99754
-12.3616 5.62567 7.06658
-14.9143 2.18219 6.78717
-14.0783 -0.0738961 4.86463
-8.02897 -4.10729 2.22175
-5.04531 -5.42279 4.62908
-3.29194 -5.45253 5.4745
-1.21007 -3.39965 6.42148
-1.49341 1.93635 6.15311
-5.4747 5.391 5.28645
-10.9265 8.46816 3.45165
-13.2449 9.26808 3.17002
-16.8506 2.37918 2.04883
-13.7588 1.27869 1.28774
-10.1704 0.965603 0.551371
-5.84107 1.1946 -1.09365
-2.54618 1.2644 -1.47966
-2.40135 4.53429 -0.682162
-5.70339 6.0132 1.67677
-12.6135 6.2757 2.92408
-13.7079 3.11767 -0.23683
-9.7463 -1.09484 -0.0683243
-5.79422 4.84685 -0.439522
-13.1661 5.13299 -0.123327
-9.43723 -2.20379 5.17478
-7.60205 -2.48497 6.16095
0 1
1 2
2 3
3 4
4 5
5 6
6 7
7 8
8 9
9 10
10 11
11 12
12 13
13 14
14 15
15 16
16 17
17 18
18 19
19 20
20 21
21 22
22 23
23 24
24 25
25 26
26 27
27 28
28 29
29 30
30 31
31 32
32 33
33 34
34 35
35 36
36 37
37 38
38 39
39 40
