ply
format ascii 1.0
comment Generated by Slim Ghodhbane
element vertex 173
property float x
property float y
property float z
element edge 172
property int vertex1
property int vertex2
end_header
-5.86997 1.86268 6.30726
-6.63992 1.76904 5.69771
-7.0347 -0.0682982 5.55428
-5.15554 -3.29108 5.73989
-1.86371 -4.19459 6.5405
-8.55271 1.34953 1.87543
-8.58496 1.33236 -1.70846
-9.36515 1.53622 1.53247
-9.34642 1.55553 -1.75606
-9.27054 -1.81932 1.08996
-8.69207 -2.9118 -1.23622
-6.97739 -0.0765201 -5.62645
-6.5799 1.76904 -5.76692
-5.8036 1.86268 -6.36838
-3.47573 1.59595 -7.97896
1.48232 -0.415509 -9.19176
6.77093 -0.140543 -5.81513
8.41943 -0.125351 -1.48081
8.68934 2.16037 -1.51427
8.30414 -0.331717 1.93426
8.61691 2.16991 2.00588
6.70966 -0.140562 5.88571
-5.55044 -2.00216 -6.39517
-1.75684 -4.20134 -6.56356
-3.5591 1.59595 7.94213
1.38304 -0.416252 9.20694
-4.58413 5.44454 8.12572
-3.48067 4.28559 7.73007
-4.11632 3.4685 7.36632
-5.77014 3.33566 6.05992
-5.51558 2.92588 6.01451
-4.99859 2.91853 6.57881
-1.88099 5.59074 8.69691
-0.446017 4.90701 9.2199
0.105378 6.30965 9.36386
1.84631 7.78808 9.40516
3.41733 6.32524 8.81359
4.65686 7.0441 8.57226
3.86471 8.77451 9.22901
6.87287 5.66932 6.4742
6.93612 4.24934 6.19575
6.89633 2.52671 5.96864
7.97527 5.03704 4.81135
9.08018 4.88511 2.24735
8.90846 3.8674 2.03731
9.96158 6.28305 2.09254
10.7952 7.27549 0.114385
10.6316 7.12501 -1.19672
9.86624 6.26371 -2.50063
9.17115 4.87027 -1.67213
9.14469 4.25356 -0.785314
8.92295 3.72692 -1.8052
8.12989 5.2154 -4.73967
7.00063 4.24934 -6.12277
6.80377 5.69879 -6.56193
8.08541 6.88496 -6.23457
4.74637 7.04411 -8.52302
3.50944 6.32522 -8.77732
3.31701 4.70026 -8.78277
3.48521 2.92513 -8.70754
3.96114 8.77451 -9.18803
1.04927 8.18171 -9.4058
0.20343 6.30964 -9.36224
-0.349461 4.90702 -9.22407
-1.76869 5.61807 -8.72676
-3.3719 4.26197 -7.77549
-4.03895 3.4685 -7.40903
-5.70637 3.33567 -6.12001
-5.45228 2.92588 -6.07195
-4.95186 2.87246 -6.59271
-4.54731 5.56271 -8.19221
-5.16613 8.49936 -8.56697
-7.37518 6.44477 -6.9964
-9.70736 7.78482 -4.99136
-11.2559 6.94994 -2.60077
-9.47622 3.48828 -1.54308
-9.49069 3.40289 1.46906
-0.162236 3.12796 -9.36505
-1.49785 8.67554 -9.29282
6.95844 2.52671 -5.8961
8.01968 6.88495 6.3189
3.22485 4.70026 8.81703
3.39385 2.92515 8.74356
-0.260319 3.12797 9.36284
-2.34098 7.8168 9.11809
-1.42756 8.805 9.29966
-5.25556 8.49937 8.5124
-7.30769 6.52535 7.01261
-9.52006 7.39965 5.21584
-11.3294 6.93322 2.33415
-8.57672 9.06655 6.09401
-9.83414 9.51942 4.68516
-11.0016 9.33671 3.02243
-11.0675 10.8537 3.08023
-8.78328 12.6603 4.92393
-9.10276 13.5435 3.66409
-8.9925 14.3453 3.35506
-8.49635 13.1581 4.79186
-6.94348 13.3262 7.02882
-5.89907 12.3636 8.05083
-3.3994 11.2145 9.18126
-1.33998 11.0284 9.37843
-0.121757 11.1813 9.5708
-0.214015 13.5239 9.40674
-1.16374 13.463 9.26501
-2.56558 13.7867 9.01229
3.9965 11.0174 9.45671
3.93637 13.3829 9.40338
6.0476 14.4373 8.68041
9.36382 13.5142 6.61282
8.92381 10.5023 6.9809
11.3049 14.5759 1.85209
11.5483 10.4024 1.90296
11.2312 14.5446 -2.37415
11.4658 10.3514 -2.4062
8.99643 10.5023 -6.88706
8.66182 13.7606 -7.10445
4.03462 13.3829 -9.36165
4.0953 11.0174 -9.41434
-0.134687 11.1833 -9.5441
-1.29862 11.0283 -9.38956
-3.3031 11.2144 -9.21635
-3.56042 12.8271 -9.03348
-2.47108 13.7867 -9.03866
-1.09091 13.4245 -9.2784
-0.226832 13.5215 -9.39312
-5.81442 12.3636 -8.11217
-7.04292 13.3578 -6.93344
-8.44571 13.158 -4.88057
-9.06573 13.5172 -3.77973
-8.89393 14.0701 -3.66259
-8.73125 12.6602 -5.01563
-9.79093 9.57507 -4.76205
-8.51243 9.06655 -6.18348
-10.9292 10.2166 -3.21023
-11.0957 9.42517 -2.86989
3.75357 16.0496 -8.85826
1.26568 16.4591 -8.99194
0.905919 18.6343 -7.61409
-2.38266 17.8261 -7.71277
4.29885 18.8108 -7.02521
7.12188 17.7669 -6.21778
4.71267 20.6084 -4.37116
4.81518 21.2589 -2.46016
2.80778 21.9153 -2.43657
7.39966 20.2977 0.198867
8.52961 19.0948 1.80209
8.31702 19.1279 -2.48034
10.0968 16.3356 -3.80841
4.74232 21.4065 1.83486
2.80027 22.0029 1.9089
4.66663 20.6084 4.42028
2.58658 21.1093 4.66813
4.22504 18.8108 7.06984
1.22834 18.4206 7.7539
1.17146 16.4591 9.00471
3.6606 16.0496 8.89709
-2.16597 18.0025 7.65267
-2.25558 20.7791 4.93809
-2.13273 21.8539 2.64714
-5.52101 20.575 1.69706
-7.5334 18.7652 1.74859
-9.06421 16.4387 1.4721
-9.01171 16.373 -1.96259
-7.43008 18.7037 -2.33028
-5.32234 20.5077 -2.53659
-2.43676 21.7168 -2.877
-2.24064 20.7621 -4.96894
-5.98933 17.5845 -5.92427
-6.05104 17.5845 5.86122
7.30898 17.9016 5.92996
10.0564 16.3356 3.91394
2.63531 21.1093 -4.64078
0 1
1 2
2 3
3 4
4 5
5 6
6 7
7 8
8 9
9 10
10 11
11 12
12 13
13 14
14 15
15 16
16 17
17 18
18 19
19 20
20 21
21 22
22 23
23 24
24 25
25 26
26 27
27 28
28 29
29 30
30 31
31 32
32 33
33 34
34 35
35 36
36 37
37 38
38 39
39 40
40 41
41 42
42 43
43 44
44 45
45 46
46 47
47 48
48 49
49 50
50 51
51 52
52 53
53 54
54 55
55 56
56 57
57 58
58 59
59 60
60 61
61 62
62 63
63 64
64 65
65 66
66 67
67 68
68 69
69 70
70 71
71 72
72 73
73 74
74 75
75 76
76 77
77 78
78 79
79 80
80 81
81 82
82 83
83 84
84 85
85 86
86 87
87 88
88 89
89 90
90 91
91 92
92 93
93 94
94 95
95 96
96 97
97 98
98 99
99 100
100 101
101 102
102 103
103 104
104 105
105 106
106 107
107 108
108 109
109 110
110 111
111 112
112 113
113 114
114 115
115 116
116 117
117 118
118 119
119 120
120 121
121 122
122 123
123 124
124 125
125 126
126 127
127 128
128 129
129 130
130 131
131 132
132 133
133 134
134 135
135 136
136 137
137 138
138 139
139 140
140 141
141 142
142 143
143 144
144 145
145 146
146 147
147 148
148 149
149 150
150 151
151 152
152 153
153 154
154 155
155 156
156 157
157 158
158 159
159 160
160 161
161 162
162 163
163 164
164 165
165 166
166 167
167 168
168 169
169 170
170 171
171 172
