ply
format ascii 1.0
comment Generated by Slim Ghodhbane
element vertex 42
property float x
property float y
property float z
element edge 41
property int vertex1
property int vertex2
end_header
4.22646 -5.477 -0.286901
6.05958 -5.09537 1.51984
8.02853 -4.10771 2.22216
9.4107 2.24353 -0.707468
8.69737 5.59207 -0.591485
8.875 7.15964 2.08814
8.99634 7.21446 5.02128
12.3212 5.85229 6.915
16.8284 2.18185 5.17936
16.8529 2.38238 2.04967
13.6998 3.12476 -0.239327
5.80752 1.29392 -1.06657
2.5495 1.2631 -1.4812
-1.59535 1.74103 -0.174006
3.15292 5.25236 1.96391
5.72372 6.05959 1.68958
10.694 8.39023 3.48145
13.2395 9.26564 3.16529
16.2428 8.24488 7.25844
14.2983 1.12901 6.1761
14.3319 -0.0479331 4.58612
12.9243 -0.999633 2.38409
9.07361 -0.586276 -0.469908
5.82991 -1.17363 -0.783443
2.85567 -1.04762 -1.4455
2.35346 4.56556 -0.621048
5.46221 5.39365 5.27536
10.9487 8.43272 4.16786
12.6131 6.27611 2.92467
13.7526 1.29129 1.25726
7.58527 -2.81845 0.132222
5.04569 -5.42343 4.62792
2.7784 -5.21027 5.64064
1.17521 -2.19793 6.54015
7.51802 -2.44358 6.2078
9.23995 -2.10791 5.50837
9.74767 -2.5598 1.8982
10.171 0.965659 0.552059
13.1663 5.13278 -0.123398
5.74366 4.55869 -0.446465
0.937024 1.25402 6.19501
5.22241 2.02105 1.47793
0 1
1 2
2 3
3 4
4 5
5 6
6 7
7 8
8 9
9 10
10 11
11 12
12 13
13 14
14 15
15 16
16 17
17 18
18 19
19 20
20 21
21 22
22 23
23 24
24 25
25 26
26 27
27 28
28 29
29 30
30 31
31 32
32 33
33 34
34 35
35 36
36 37
37 38
38 39
39 40
40 41
