ply
format ascii 1.0
comment Generated by Slim Ghodhbane
element vertex 266
property float x
property float y
property float z
element edge 265
property int vertex1
property int vertex2
end_header
8.54752 4.81198 9.24619
12.9203 11.701 1.95856
13.6239 11.0467 -4.69277
13.625 10.9838 -11.032
13.4396 11.346 -17.0069
9.91236 10.3914 -25.8743
2.41685 10.5976 -31.1897
-4.65425 11.0542 -32.0189
-11.0229 11.0093 -32.024
-16.7702 11.2279 -31.8613
-23.3984 11.1569 -30.1894
-29.7821 11.9225 -24.0232
-31.7356 11.2075 -16.8356
-31.875 11.018 -11.0155
-31.8665 11.1085 -4.63566
-30.9035 10.9211 2.63003
-29.1891 11.0274 5.9488
-25.6622 11.5583 9.79569
-16.9267 11.0271 13.2842
-11.0195 11.0314 13.4784
-4.49416 11.0478 13.4673
3.63715 11.45 12.0604
9.03573 11.1321 8.77075
13.0562 5.36011 1.73422
13.625 6.29906 -4.72066
13.625 6.32389 -11.0071
13.4258 6.45504 -17.0167
8.92997 6.0312 -27.0663
2.84528 5.71427 -31.082
-4.55598 6.21002 -32.0094
-11.0341 6.2376 -32.0189
-17.5177 5.69387 -31.6747
-16.4688 18.4547 -31.9221
-10.9908 18.4532 -32.024
-4.57208 18.4155 -32.0174
2.04746 17.994 -31.3718
9.35808 18.3448 -26.8553
13.5075 18.3923 -16.6403
13.6249 18.4866 -4.69391
13.0507 18.3218 1.96847
9.04009 19.3306 8.93263
2.78267 17.9956 12.4814
-4.62229 18.4467 13.4738
-11.016 18.396 13.4784
-16.9187 18.012 13.312
-24.6426 18.8779 10.5823
-30.7845 19.0775 2.62119
-31.8632 18.4377 -4.72341
-31.875 18.4475 -11.0565
-31.7166 18.4782 -16.8915
-30.1297 18.9783 -23.1286
-27.8662 17.906 -26.6339
-23.519 18.4129 -30.0971
-22.4941 26.9313 -30.6325
-11.0497 25.8582 -32.024
-4.65388 33.3314 -32.0209
2.99258 26.0356 -31.0581
9.57475 26.0321 -26.7596
13.5257 25.7442 -16.5628
13.6189 25.8607 -4.65658
12.3751 26.1434 3.19946
9.0263 26.1419 8.75758
2.61813 25.6454 12.4854
-4.58001 25.8071 13.466
-11.0383 25.8168 13.4784
-16.726 25.9073 13.322
-25.0234 25.5495 10.4672
-27.409 33.3554 5.67862
-31.866 33.2742 -4.61118
-31.875 25.8275 -11.0344
-31.7489 25.8426 -16.7849
-30.205 29.3473 -23.1334
-22.9182 32.6558 -30.3709
-16.9776 33.1876 -31.8445
-11.0169 33.2377 -32.024
-4.53282 25.807 -32.0114
2.02349 33.7114 -31.3395
-4.59474 40.8867 -31.8869
2.83604 41.4527 -31.0109
9.90977 41.2922 -25.907
13.2632 40.9766 -17.1773
13.4565 40.8406 -11.0622
13.4054 40.7368 -4.61921
11.5994 33.7782 3.44031
3.10646 34.2499 11.4361
-4.74815 40.6686 13.1414
-11.0551 33.7506 12.7393
-16.9446 33.5343 12.4672
-25.3747 41.136 10.0583
-31.0387 41.3598 2.63196
-31.7268 40.8594 -4.5842
-31.7337 40.816 -11.0699
-31.6829 41.0049 -16.824
-27.3997 40.2319 -26.8429
-17.0782 40.938 -31.7372
-11.0439 40.884 -31.9205
-6.60185 37.2754 -29.1768
-4.0352 35.9811 -27.7565
2.73041 35.3763 -26.6392
5.46778 34.0611 -20.4021
12.5378 33.693 -16.9404
12.9919 33.6153 -11.037
12.7144 33.7899 -4.55915
12.1569 40.7686 3.49634
8.76342 40.0068 8.97988
2.26245 40.1334 12.2535
-4.55126 33.7852 12.8155
-14.7591 34.4159 7.15465
-16.4697 34.367 6.91143
-16.8256 40.575 13.1234
-10.9893 40.7763 13.2679
-11.1272 44.6861 13.4759
-4.32297 44.6579 13.4664
3.50684 47.2283 13.0594
9.97666 49.5857 10.8705
13.8585 48.6863 4.65345
13.613 44.7732 -4.25282
13.6233 44.7714 -11.2908
13.4484 44.774 -16.912
15.4282 49.8442 -17.1255
15.5459 49.7822 -11.2835
15.6685 49.803 -4.36225
15.4454 50.1915 1.63489
15.0548 44.168 -6.78392
14.8208 43.9238 -13.9282
15.5725 55.6106 -11.1778
15.6845 55.5494 -4.24888
15.4545 56.8196 1.72079
14.274 56.7932 5.68608
10.8905 56.4563 10.2391
1.64423 55.7594 15.1197
-3.98407 55.5745 15.3702
-11.1835 55.5705 15.4884
-17.0161 55.4933 15.5106
-25.4646 55.9579 13.2613
-30.3973 55.2559 9.09802
-33.1898 55.2613 2.73427
-33.7688 55.5501 -4.08551
-33.8843 55.5995 -11.144
-33.9126 55.7661 -17.0658
-31.9298 56.051 -25.1371
-25.6924 56.1807 -31.5921
-17.2213 55.5151 -33.82
-11.2365 55.5783 -33.9681
-4.32822 55.645 -34.0792
2.80894 55.6594 -33.5314
9.24467 56.464 -30.6146
13.1399 55.2269 -25.8195
15.4244 55.5818 -17.2288
15.4841 61.4475 -11.0581
15.6204 61.2376 -4.19111
15.3876 61.221 1.49678
12.7112 64.6537 4.58875
12.8293 69.8583 -4.68871
13.6367 65.9109 -11.0602
12.4975 70.0924 -16.8433
9.64764 69.5112 -26.2516
5.61488 70.9473 -28.4106
-4.48774 69.1298 -31.7099
-11.1071 63.4077 -33.0075
-16.6689 63.1722 -33.1195
-23.3554 67.8793 -30.1563
-29.7206 69.4596 -23.2195
-31.4267 69.0905 -16.7379
-31.6147 69.1391 -11.2471
-33.0264 63.1642 -4.07743
-31.9767 63.8689 2.9959
-25.5857 63.529 11.4353
-16.7665 70.2 12.4481
-10.9554 69.8072 12.7148
-4.4459 70.0126 12.5298
3.94277 63.8617 13.2712
10.2512 62.7389 10.0461
11.8028 70.0335 3.52428
13.6002 65.8986 -4.52115
12.8534 69.7782 -11.1673
13.5145 65.9951 -16.7681
11.89 63.655 -25.9957
2.32631 62.8472 -32.9362
-4.57354 63.1829 -33.198
-11.0355 69.1287 -31.7234
-16.8179 69.2946 -31.5856
-26.7997 70.6681 -26.3566
-28.1847 65.0136 -27.7672
-24.4567 77.095 -25.5726
-27.2747 79.1241 -17.2328
-28.0854 79.8855 -10.6532
-28.68 73.3342 -4.38792
-28.8511 72.1189 2.21809
-20.6696 78.9296 6.65288
-10.5316 78.6743 10.0461
-5.02577 78.6031 10.3098
4.18929 79.1446 5.76237
9.19091 76.1034 2.38635
10.365 78.2609 -5.06309
10.3225 78.8874 -10.8674
9.89681 77.872 -16.4379
3.89155 77.9471 -25.0836
-4.55816 73.4662 -28.6838
-10.6128 79.5585 -28.2374
-17.4918 79.3281 -27.455
-16.524 73.0484 -28.8619
-11.3973 73.4606 -28.5658
-4.97739 79.3309 -28.3524
0.903322 75.2871 -30.8301
7.85342 75.9462 -27.1323
3.31557 83.2254 -24.2131
7.36125 85.0244 -13.7618
9.06516 83.6179 -10.2373
8.914 83.386 -5.3284
6.34983 85.19 -1.83294
4.13044 84.1098 4.06205
-5.54409 83.2365 8.82494
-10.1807 83.4765 8.88161
-19.2439 83.9608 5.86769
-24.335 83.7289 2.60018
-26.9808 83.075 -5.30132
-27.3298 83.3892 -10.1516
-25.3134 83.6629 -18.8093
-23.6213 82.8386 -23.155
-17.4327 83.4404 -26.0688
-10.0051 83.7973 -27.4641
-5.09886 83.6452 -27.1168
-4.63902 91.9038 -26.8229
-4.44146 99.7925 -25.5993
-9.73281 98.9965 -26.2763
-18.0231 98.556 -23.9809
-24.7622 92.9198 -18.2506
-26.6608 92.2881 -9.92272
-26.0184 92.7047 -4.22401
-19.0494 93.2215 5.48432
-9.77259 92.5568 8.14206
-5.86166 92.1391 8.14038
3.35914 93.0704 3.78987
8.35856 92.5138 -5.24278
8.68464 92.0961 -9.9982
8.08612 91.1368 -16.3959
2.88506 91.7797 -23.8137
5.24693 100.142 -18.1943
7.8083 98.3334 -10.1411
7.67212 97.785 -6.34264
6.61774 95.4137 -1.56547
2.49608 99.358 2.54375
-4.9182 99.7534 6.13953
-9.70178 99.2643 6.63976
-18.4163 99.7394 3.77492
-24.3594 99.8216 -4.2866
-25.2831 99.1676 -10.2845
-23.7901 99.2489 -17.4033
-22.1328 95.9791 -21.6446
-18.4479 92.7651 -24.9432
-9.79896 92.4057 -27.1277
-11.9084 105.439 -24.961
-19.6273 105.728 -20.5551
-23.7568 105.728 -11.6543
-23.3601 105.441 -5.63864
-21.0287 106.597 -1.42793
-17.378 105.975 2.36653
-10.3776 105.893 4.96636
-4.07659 105.96 4.25904
4.78928 105.921 -3.55471
7.15627 101.795 -10.9992
3.34908 105.802 -19.4017
1.3855 100.59 -22.8917
-4.34183 104.975 -24.9863
-5.88528 113.086 -23.0286
0 1
1 2
2 3
3 4
4 5
5 6
6 7
7 8
8 9
9 10
10 11
11 12
12 13
13 14
14 15
15 16
16 17
17 18
18 19
19 20
20 21
21 22
22 23
23 24
24 25
25 26
26 27
27 28
28 29
29 30
30 31
31 32
32 33
33 34
34 35
35 36
36 37
37 38
38 39
39 40
40 41
41 42
42 43
43 44
44 45
45 46
46 47
47 48
48 49
49 50
50 51
51 52
52 53
53 54
54 55
55 56
56 57
57 58
58 59
59 60
60 61
61 62
62 63
63 64
64 65
65 66
66 67
67 68
68 69
69 70
70 71
71 72
72 73
73 74
74 75
75 76
76 77
77 78
78 79
79 80
80 81
81 82
82 83
83 84
84 85
85 86
86 87
87 88
88 89
89 90
90 91
91 92
92 93
93 94
94 95
95 96
96 97
97 98
98 99
99 100
100 101
101 102
102 103
103 104
104 105
105 106
106 107
107 108
108 109
109 110
110 111
111 112
112 113
113 114
114 115
115 116
116 117
117 118
118 119
119 120
120 121
121 122
122 123
123 124
124 125
125 126
126 127
127 128
128 129
129 130
130 131
131 132
132 133
133 134
134 135
135 136
136 137
137 138
138 139
139 140
140 141
141 142
142 143
143 144
144 145
145 146
146 147
147 148
148 149
149 150
150 151
151 152
152 153
153 154
154 155
155 156
156 157
157 158
158 159
159 160
160 161
161 162
162 163
163 164
164 165
165 166
166 167
167 168
168 169
169 170
170 171
171 172
172 173
173 174
174 175
175 176
176 177
177 178
178 179
179 180
180 181
181 182
182 183
183 184
184 185
185 186
186 187
187 188
188 189
189 190
190 191
191 192
192 193
193 194
194 195
195 196
196 197
197 198
198 199
199 200
200 201
201 202
202 203
203 204
204 205
205 206
206 207
207 208
208 209
209 210
210 211
211 212
212 213
213 214
214 215
215 216
216 217
217 218
218 219
219 220
220 221
221 222
222 223
223 224
224 225
225 226
226 227
227 228
228 229
229 230
230 231
231 232
232 233
233 234
234 235
235 236
236 237
237 238
238 239
239 240
240 241
241 242
242 243
243 244
244 245
245 246
246 247
247 248
248 249
249 250
250 251
251 252
252 253
253 254
254 255
255 256
256 257
257 258
258 259
259 260
260 261
261 262
262 263
263 264
264 265
