ply
format ascii 1.0
comment Generated by Slim Ghodhbane
element vertex 20
property float x
property float y
property float z
element edge 19
property int vertex1
property int vertex2
end_header
1.60379 19.3148 3.77662
4.01094 13.7977 4.8875
2.44958 10.1342 7.4772
1.27857 10.9126 9.23736
-2.89356 13.3917 10.4174
-3.37943 18.3028 11.0764
-1.38961 20.5569 6.94681
-2.15842 19.2351 4.82538
-4.00516 15.1206 5.05134
-3.79919 12.4835 6.01708
-2.90721 10.7133 7.00234
-1.56984 10.7754 8.79145
1.88968 12.7759 11.0149
2.14774 14.0943 12.1164
3.09328 17.252 12.1838
1.98308 20.7875 10.8929
1.93504 20.2242 6.89729
2.82289 18.93 5.66874
3.37297 18.4774 9.54278
-2.72778 16.4647 12.5819
0 1
1 2
2 3
3 4
4 5
5 6
6 7
7 8
8 9
9 10
10 11
11 12
12 13
13 14
14 15
15 16
16 17
17 18
18 19
