ply
format ascii 1.0
comment Generated by Slim Ghodhbane
element vertex 93
property float x
property float y
property float z
element edge 92
property int vertex1
property int vertex2
end_header
-2.74961 -1.11593 5.15365
-4.75648 1.76479 1.59401
-4.73953 1.89656 -1.42003
-1.77866 1.71475 -6.05545
1.51401 2.2044 -6.65414
5.62732 1.89063 -1.51543
5.29659 1.68056 1.95776
4.50271 1.83932 4.37845
0.869055 2.95494 7.02375
-0.44995 1.94464 7.01365
-2.17961 1.92862 6.30646
-4.04692 2.29408 4.51885
-4.33833 -0.352065 1.80581
-4.4149 -0.229621 -1.26316
-3.89813 1.37661 -4.14382
4.70167 1.98109 -4.8543
5.5337 -0.270453 -0.955243
5.04587 -0.287632 1.82681
4.02317 -0.52267 4.24019
1.96925 -1.05571 5.82844
2.6685 0.971611 6.36252
-3.78218 -0.487723 4.05682
-3.97931 5.4414 4.42914
-4.45381 8.83657 1.78997
-4.40551 8.92442 -1.75944
-2.42257 8.44907 -5.01121
-3.0175 8.29646 -2.72682
-3.63404 9.80596 -3.78159
-2.29481 5.66054 -5.44428
5.38776 5.18191 -1.7321
5.24851 5.13128 2.02199
5.27141 8.6415 1.80446
5.29054 8.65379 -1.78147
4.53784 5.08433 -4.65646
2.47924 8.37145 -6.26479
-3.89271 5.40683 -4.0557
-2.89858 7.88708 2.34277
-3.79845 9.32263 3.78222
-2.43432 8.52996 5.33936
-2.56164 5.74632 5.73305
4.46386 4.83461 4.63792
2.4451 4.79145 6.65007
0.899367 4.978 7.19875
-0.416381 5.22017 7.15447
-5.06129 5.41604 1.37424
-4.86012 5.60201 -1.75432
1.69465 4.77867 -6.59065
0.459015 8.60655 -7.02863
4.70216 8.58816 -4.67724
4.257 12.1403 -4.2283
4.95513 12.4312 -1.58156
4.96271 12.4127 1.65076
-2.07225 12.0962 4.96915
1.62238 12.3457 5.5189
2.76991 14.8993 2.9841
4.87774 15.5333 1.40125
4.92669 15.4621 -1.31975
-1.8654 12.1456 -5.08837
1.53061 12.5163 -5.56043
-1.88649 15.477 -4.91904
-4.73927 12.403 -2.07966
-4.82915 12.4751 1.86856
-3.79354 12.8459 3.87358
-1.11867 15.6776 5.09311
-4.17039 15.6862 2.2037
-3.82612 14.4273 3.60103
-3.89947 12.2732 -3.89379
-4.00617 14.6433 -3.56827
1.39334 15.3165 -5.61631
4.39577 15.5399 -3.97033
4.22469 15.014 4.17993
4.34452 11.7125 4.70096
0.306335 11.0993 7.14655
1.36315 16.0747 5.18891
-2.88412 16.1302 2.72357
-3.34866 16.2582 -2.50381
-4.09585 16.1148 -2.06242
-3.86234 18.3446 -0.995266
-2.86926 18.7211 2.12816
-3.80892 18.268 1.25447
-3.09704 18.5908 -2.50836
-1.53922 18.3554 -4.98621
-0.501023 21.0649 -3.52637
1.45985 21.6002 -1.25861
1.9108 21.5484 0.892826
4.51978 18.8131 -1.64745
3.99627 18.8018 -3.67989
1.83478 19.7167 -4.68994
-1.39899 21.3925 -1.49038
-0.445901 21.6754 1.81697
-1.39865 18.1921 4.6667
1.75432 20.2793 4.061
4.36994 19.233 1.98997
0 1
1 2
2 3
3 4
4 5
5 6
6 7
7 8
8 9
9 10
10 11
11 12
12 13
13 14
14 15
15 16
16 17
17 18
18 19
19 20
20 21
21 22
22 23
23 24
24 25
25 26
26 27
27 28
28 29
29 30
30 31
31 32
32 33
33 34
34 35
35 36
36 37
37 38
38 39
39 40
40 41
41 42
42 43
43 44
44 45
45 46
46 47
47 48
48 49
49 50
50 51
51 52
52 53
53 54
54 55
55 56
56 57
57 58
58 59
59 60
60 61
61 62
62 63
63 64
64 65
65 66
66 67
67 68
68 69
69 70
70 71
71 72
72 73
73 74
74 75
75 76
76 77
77 78
78 79
79 80
80 81
81 82
82 83
83 84
84 85
85 86
86 87
87 88
88 89
89 90
90 91
91 92
