ply
format ascii 1.0
comment Generated by Slim Ghodhbane
element vertex 57
property float x
property float y
property float z
element edge 56
property int vertex1
property int vertex2
end_header
-2.1423 -1.18476 5.81097
5.32843 2.94652 1.80216
5.5464 2.78356 -1.58572
4.75834 3.61938 -4.56976
1.84484 2.92094 -6.46796
-1.76125 2.27108 -6.05811
-4.41156 2.24731 -2.52296
-5.10468 6.08065 0.899842
-5.09819 5.99682 -0.765599
-5.08809 3.88161 -0.744176
-5.11729 3.91493 0.905806
-4.63607 2.06175 2.22099
-2.14573 2.9958 6.23154
2.32843 3.37308 6.33284
4.77578 2.32514 3.73048
4.33157 -0.454731 3.59877
5.2299 -0.238968 1.20541
5.5337 -0.270453 -0.955243
-4.4149 -0.229621 -1.26316
-4.10933 -0.44047 2.64113
1.96925 -1.05571 5.82844
4.77475 6.9788 4.40895
4.39707 13.548 2.18976
4.38844 13.2893 -2.4265
5.3004 7.67967 -1.8581
5.26315 7.5961 1.84502
5.20397 11.419 1.54186
5.17559 11.5473 -1.46004
-3.654 12.3931 -3.46762
-3.98368 8.02743 -2.78581
-4.14903 8.24536 2.58052
-3.43827 12.3972 3.63385
-1.35368 12.5645 5.48371
1.65673 12.0395 5.77092
-2.22233 7.12522 5.85951
2.09236 7.65369 6.82582
-5.14569 12.5138 1.19488
-1.10694 12.7008 -5.63091
1.54078 12.6086 -5.7207
-1.9613 6.99014 -5.69947
2.28765 7.41618 -6.50692
4.81709 6.57483 -4.32584
5.08145 16.1994 -0.549243
5.06588 16.3517 0.619429
4.54279 16.8247 2.07386
-3.02166 17.1429 2.83207
-3.66995 17.0621 -2.22301
-1.36906 16.8247 -5.47236
4.63591 16.8318 -2.3246
1.47121 16.5089 5.54311
-0.38826 16.4098 5.57307
-1.63422 20.9946 1.79744
1.97638 21.4277 1.21957
1.75083 21.3923 -1.46581
-1.5218 21.1156 -1.95071
1.42406 17.1611 -5.78831
-5.18311 16.1508 1.20014
0 1
1 2
2 3
3 4
4 5
5 6
6 7
7 8
8 9
9 10
10 11
11 12
12 13
13 14
14 15
15 16
16 17
17 18
18 19
19 20
20 21
21 22
22 23
23 24
24 25
25 26
26 27
27 28
28 29
29 30
30 31
31 32
32 33
33 34
34 35
35 36
36 37
37 38
38 39
39 40
40 41
41 42
42 43
43 44
44 45
45 46
46 47
47 48
48 49
49 50
50 51
51 52
52 53
53 54
54 55
55 56
