ply
format ascii 1.0
comment Generated by Slim Ghodhbane
element vertex 61
property float x
property float y
property float z
element edge 60
property int vertex1
property int vertex2
end_header
2.5203 -0.976743 5.44789
5.206 2.5009 2.25442
5.56032 2.41454 -1.62122
1.61891 2.72359 -6.56949
-2.01739 2.16462 -5.88931
-4.00149 2.43075 -3.97132
-4.77641 2.0306 -1.33641
-4.78314 2.13329 1.68716
-4.53905 -0.0256374 0.826289
-4.51109 -0.0647028 -0.281886
-4.40116 -0.25318 -1.40334
-4.11887 -0.48558 2.62518
-4.19109 1.54494 3.90428
-2.31554 2.46246 6.10642
2.31665 3.06202 6.304
4.37978 0.160061 4.08582
5.04587 -0.287632 1.82681
4.15675 -0.423954 4.09132
5.5337 -0.270453 -0.955243
4.64947 2.73031 -4.88997
2.40852 6.62766 -6.40676
5.27704 6.73204 -2.03029
5.20997 6.74856 2.09683
5.13755 11.254 1.73387
-1.9663 11.5851 5.18452
-3.83594 10.8847 3.35691
-3.90691 10.5983 -3.1951
-3.66962 7.06799 -3.49804
-1.71815 11.5413 -5.29366
3.60901 12.1082 -3.75344
5.13151 11.1719 -1.77419
4.14895 12.3477 3.3977
1.78119 11.6754 5.89142
-2.47914 6.76045 5.63094
-3.71809 7.18809 3.33113
-4.86484 7.12001 1.45764
-4.87683 7.04841 -1.15837
-2.16644 6.60613 -5.53332
1.66991 11.6868 -5.80611
-4.88267 11.4135 -1.38145
-4.89379 11.3449 1.35413
-5.13269 14.7572 1.21825
-3.37847 16.1923 2.71177
2.59283 14.7167 3.69178
4.90281 15.3296 1.38851
4.92709 15.393 -1.30081
4.02239 15.0071 -4.0045
-3.63014 16.1757 -2.50636
-4.88619 14.6635 -1.70776
-1.05508 15.3592 5.29695
1.81585 16.3722 5.41132
-0.607626 18.4056 5.15403
-2.41641 19.7181 1.81605
-1.38295 15.2119 -5.49492
1.35691 15.2186 -5.89067
-1.00872 18.6441 -5.32535
-2.50557 19.8608 -1.96782
2.45801 20.7603 -1.79653
2.59339 20.7893 1.63339
4.56671 19.4522 0.869593
1.07318 19.9757 4.61519
0 1
1 2
2 3
3 4
4 5
5 6
6 7
7 8
8 9
9 10
10 11
11 12
12 13
13 14
14 15
15 16
16 17
17 18
18 19
19 20
20 21
21 22
22 23
23 24
24 25
25 26
26 27
27 28
28 29
29 30
30 31
31 32
32 33
33 34
34 35
35 36
36 37
37 38
38 39
39 40
40 41
41 42
42 43
43 44
44 45
45 46
46 47
47 48
48 49
49 50
50 51
51 52
52 53
53 54
54 55
55 56
56 57
57 58
58 59
59 60
