ply
format ascii 1.0
comment Generated by Slim Ghodhbane
element vertex 86
property float x
property float y
property float z
element edge 85
property int vertex1
property int vertex2
end_header
9.19269 -27.6682 7.43964
9.20386 -27.4762 -7.46946
28.353 -4.82607 -74.4206
60.8019 20.4113 -58.4385
78.0702 -9.3869 26.1928
60.2626 -9.20887 60.5457
29.7242 -8.65572 76.2476
-26.7025 -9.06852 72.9695
-56.4996 -8.3193 57.036
-70.2807 -8.83668 27.6418
-70.2645 -7.76199 -25.637
-56.304 -7.0872 -56.0994
-27.1438 -5.78675 -71.9204
60.324 -7.5283 -59.8033
77.768 -8.78846 -26.3416
59.8357 13.6451 58.2955
-56.1932 16.2948 57.6207
-55.7059 14.9931 -56.453
-9.92126 -25.224 -8.52486
-12.7246 -24.0499 9.9716
-57.2581 31.3984 13.9558
-51.8561 74.3838 6.00989
-30.8727 72.3283 -28.6842
-11.0022 70.8306 -53.4646
16.1044 71.2035 -54.1059
29.2923 68.144 -29.0337
57.3986 74.0802 -17.1359
56.9511 73.9307 19.0586
28.9303 69.7005 29.5056
18.1598 72.0182 54.9709
-11.5099 70.0351 54.7964
-30.7532 69.6928 28.7343
-51.7006 72.6122 -6.18838
-40.4782 38.5443 -33.9201
-15.9912 32.1186 -58.5857
20.2822 33.3841 -59.353
41.7834 38.3154 -41.0621
61.952 34.1813 -19.1332
62.7029 32.4139 19.9387
42.5637 41.0821 41.6448
20.3818 33.7816 60.2301
-16.6738 33.2807 59.8838
-39.935 38.4998 35.038
-57.806 30.3495 -15.2373
-51.3643 118.416 -6.09386
-37.1115 121.871 30.703
-11.0732 122.896 53.6501
14.9402 122.616 54.3828
37.1882 119.357 39.6604
56.2279 121.367 17.6914
56.4786 120.437 -15.6817
36.0672 120.957 -39.0619
13.0772 122.979 -53.4366
-9.43398 122.204 -52.6637
-35.7723 120.395 -31.2025
-51.1964 117.541 5.34936
-55.8365 158.288 14.9829
-36.2893 186.448 29.4051
-12.0132 174.273 55.1749
15.4385 176.79 54.9573
36.1733 185.865 40.0064
56.6869 177.233 19.0394
56.7846 177.499 -17.4293
34.3377 187.55 -40.1063
14.4378 174.82 -54.2582
-12.1179 170.357 -54.6669
-34.3794 184.922 -30.7019
-55.4653 158.349 -15.842
-25.3342 214.296 -26.6179
6.47705 210.651 -50.7977
54.2414 210.437 -11.446
53.5947 217.948 11.8233
26.4998 217.2 28.9729
9.58466 212.647 51.682
-5.70631 216.518 51.2251
-29.0644 216.143 22.8575
-3.38806 205.467 -50.709
24.13 218.448 -30.064
-3.58844 250.022 50.4353
21.4905 259.773 31.326
52.1089 257.161 13.4021
53.7771 256.575 -5.83993
18.6966 260.003 -30.8985
-22.1093 258.357 -29.2459
-29.2301 259.936 24.7345
15.1423 312.634 -8.9781
0 1
1 2
2 3
3 4
4 5
5 6
6 7
7 8
8 9
9 10
10 11
11 12
12 13
13 14
14 15
15 16
16 17
17 18
18 19
19 20
20 21
21 22
22 23
23 24
24 25
25 26
26 27
27 28
28 29
29 30
30 31
31 32
32 33
33 34
34 35
35 36
36 37
37 38
38 39
39 40
40 41
41 42
42 43
43 44
44 45
45 46
46 47
47 48
48 49
49 50
50 51
51 52
52 53
53 54
54 55
55 56
56 57
57 58
58 59
59 60
60 61
61 62
62 63
63 64
64 65
65 66
66 67
67 68
68 69
69 70
70 71
71 72
72 73
73 74
74 75
75 76
76 77
77 78
78 79
79 80
80 81
81 82
82 83
83 84
84 85
