ply
format ascii 1.0
comment Generated by Slim Ghodhbane
element vertex 27
property float x
property float y
property float z
element edge 26
property int vertex1
property int vertex2
end_header
-4.5 -3.5 -7.5
-1.5 -3.5 -7.5
0.5 -3.5 -3.5
-1.5 -3.5 -1.5
1.5 -0.5 -0.5
-0.5 4.5 -7.5
-0.5 9.5 -7.5
2.5 10.5 -7.5
3.5 8.5 -6.5
5.5 5.5 -5.5
6.5 10.5 -4.5
6.5 13.5 -4.5
3.5 15.5 -3.5
2.5 17.5 2.5
-3.5 16.5 -1.5
-5.5 12.5 1.5
-5.5 7.5 7.5
-4.5 2.5 7.5
-4.5 2.5 3.5
-5.5 2.5 3.5
-5.5 -3.5 2.5
0.5 6.5 5.5
2.5 5.5 4.5
7.5 9.5 -2.5
-6.5 9.5 -7.5
-7.5 5.5 -7.5
-3.5 12.5 -7.5
0 1
1 2
2 3
3 4
4 5
5 6
6 7
7 8
8 9
9 10
10 11
11 12
12 13
13 14
14 15
15 16
16 17
17 18
18 19
19 20
20 21
21 22
22 23
23 24
24 25
25 26
