ply
format ascii 1.0
comment Generated by Slim Ghodhbane
element vertex 68
property float x
property float y
property float z
element edge 67
property int vertex1
property int vertex2
end_header
-8.34513 7.56458 -3.04926
-5.70475 6.8099 -5.41705
-2.70692 6.58369 -6.378
-2.51227 3.38954 -5.81611
-4.19596 3.22017 -4.59395
-1.39497 -2.38438 5.28913
-4.02054 -1.88804 4.39611
-6.34832 -0.552672 2.32084
-8.35668 7.76012 2.88385
-5.47555 7.05206 5.57312
7.32667 6.78356 2.31606
5.64707 7.22979 5.42096
5.96013 2.79544 3.02877
6.13312 8.75296 -5.81651
7.33608 6.77176 -2.33162
5.96514 2.7508 -2.9985
2.29281 6.46918 -6.63627
2.41333 2.44298 -6.50132
3.93856 -0.341733 -5.65381
6.03447 -0.279295 -1.78914
5.94816 -0.41671 2.01606
3.87913 -0.341751 5.69474
2.34479 2.4429 6.52625
2.19756 6.55816 6.72319
-2.05606 6.19699 6.49063
-2.51251 3.35056 5.7803
-4.2033 2.92267 4.595
-6.87748 2.44441 1.7526
-6.69544 2.42559 -1.98403
-6.162 -0.864687 -2.41269
-4.23258 -1.15682 -4.77927
-1.31779 -2.38821 -5.30566
2.3941 12.6011 7.20929
3.10128 19.3489 2.32389
-1.23303 20.0204 1.36387
-5.93642 16.6381 2.01479
-3.08527 18.7298 2.83063
-2.76187 16.0453 5.75815
-1.46392 12.2109 7.00275
2.34559 9.31531 -7.12032
8.8677 11.9838 -2.96522
6.38539 12.5006 -6.03959
7.24173 16.5701 -2.6503
5.51691 15.8323 -5.7257
3.12891 19.3258 -2.46231
3.018 16.4111 -6.16375
2.04258 12.4822 -7.24888
-1.49701 12.1928 -7.00143
-1.76288 9.46665 -7.04552
-5.47064 9.2977 -5.9564
-5.42731 12.4476 -5.58558
-2.42967 16.2722 -5.7366
-2.74841 18.9414 -2.70121
-5.90914 16.5992 -2.34029
-7.17405 12.6202 -3.0096
-9.13871 9.89372 -1.70304
-9.0091 9.95322 1.92203
-7.23546 12.6744 2.85021
-5.48552 12.4476 5.52842
-5.53271 9.2977 5.89878
-1.8102 9.43945 7.02506
1.61987 9.56942 7.35066
8.85639 11.9879 2.89063
2.95328 16.4111 6.19502
7.29574 16.7506 2.16201
6.16685 15.5726 5.42307
7.00315 12.0938 5.73628
5.13726 8.9155 6.41506
0 1
1 2
2 3
3 4
4 5
5 6
6 7
7 8
8 9
9 10
10 11
11 12
12 13
13 14
14 15
15 16
16 17
17 18
18 19
19 20
20 21
21 22
22 23
23 24
24 25
25 26
26 27
27 28
28 29
29 30
30 31
31 32
32 33
33 34
34 35
35 36
36 37
37 38
38 39
39 40
40 41
41 42
42 43
43 44
44 45
45 46
46 47
47 48
48 49
49 50
50 51
51 52
52 53
53 54
54 55
55 56
56 57
57 58
58 59
59 60
60 61
61 62
62 63
63 64
64 65
65 66
66 67
