ply
format ascii 1.0
comment Generated by Slim Ghodhbane
element vertex 343
property float x
property float y
property float z
element edge 342
property int vertex1
property int vertex2
end_header
2.43717 -4.4513 12.1859
7.13989 -4.44368 12.0776
11.6445 -4.34891 11.638
15.7151 -1.05762 13.4755
13.4134 -0.940453 15.7924
7.94874 -2.4872 17.7672
2.63945 -3.20301 17.9858
-2.66583 -3.05807 18.0043
-7.44925 -1.91316 18.4274
-12.72 -0.749679 16.3973
-16.4395 -0.819689 12.6258
-18.3243 -2.12496 7.46137
-17.9788 -3.21195 2.64634
-18.0033 -3.06145 -2.67366
-18.4703 -1.90436 -7.46851
-16.3898 -0.752866 -12.7245
-12.6344 -0.809395 -16.4345
-7.50415 -2.10783 -18.3623
-2.63376 -3.10165 -18.0611
2.6819 -3.15843 -17.9373
7.46771 -1.90904 -18.4279
13.3885 -1.32567 -15.6963
15.7393 -1.24834 -13.3726
17.6877 -2.51469 -7.92415
18.0624 -3.09824 -2.62733
17.9418 -3.1543 2.67416
17.8215 -2.33459 7.91819
12.0467 -4.44694 7.151
7.31152 -4.4513 7.31152
2.43717 -4.4513 7.31152
-2.43717 -4.4513 7.31152
-7.31152 -4.4513 7.31152
-12.0824 -4.44398 7.141
-11.9288 -4.18031 2.12548
-11.915 -4.21394 -2.11596
-12.0507 -4.44666 -7.15303
-11.6433 -4.34936 -11.6366
-7.14237 -4.44357 -12.0781
-2.43717 -4.4513 -12.1859
2.43768 -4.4513 -12.1864
7.41875 -4.41915 -12.3733
11.5666 -4.3749 -11.5712
12.0768 -4.44427 -7.1388
11.8745 -4.18741 -2.17327
11.9361 -4.17085 2.13368
7.56327 -4.1569 2.16598
2.43717 -4.4513 2.43717
-2.43717 -4.4513 2.43717
-7.58819 -4.13347 2.17827
-7.6295 -4.16317 -2.21707
-7.31152 -4.4513 -7.31152
-2.43717 -4.4513 -7.31152
2.43717 -4.4513 -7.31152
7.31152 -4.4513 -7.31152
7.58789 -4.1757 -2.16137
2.43717 -4.4513 -2.43717
-2.43717 -4.4513 -2.43717
-11.5689 -4.37394 11.5741
-7.15052 -4.44713 12.0516
-2.43832 -4.4513 12.187
-3.62971 3.65569 19.2737
-7.01803 6.35775 15.998
-7.84251 7.87076 13.7189
-12.1189 6.61626 12.1054
-15.6088 3.52855 11.987
-17.9681 3.64956 8.09595
-19.3084 3.55996 3.66297
-19.2773 3.65411 -3.65026
-17.9551 3.69651 -8.18812
-15.542 3.64712 -11.9522
-13.7945 4.13427 -13.7434
-12.0002 3.52676 -15.6041
-8.09979 3.65995 -17.9692
-3.67963 3.58298 -19.2978
3.60591 3.57907 -19.323
8.16119 3.74398 -17.9291
11.9165 2.93031 -15.9205
13.8504 3.97537 -13.8595
16.0126 2.72294 -11.9149
17.949 3.68397 -8.07896
19.3291 3.53947 -3.64901
19.1823 3.82883 3.50864
17.9323 3.72938 8.17104
15.9337 2.96824 11.8813
13.8252 4.04725 13.8101
11.8909 2.66936 16.063
8.08276 3.66586 17.9562
3.64076 3.53237 19.3226
-2.72143 6.95073 16.5862
-8.17423 3.71253 17.9411
-11.9362 3.65325 15.5403
-13.7348 4.14313 13.7892
-15.8289 6.54225 6.96988
-16.9031 6.59172 2.94965
-16.9149 6.58356 -2.94389
-15.9941 6.36871 -7.02137
-12.0408 6.73559 -12.046
-8.19862 7.75365 -13.6307
-2.71462 6.95316 -16.5889
2.70184 6.97929 -16.5532
7.00578 6.34915 -16.0116
12.1063 6.64402 -12.0853
13.7589 7.71223 -8.09893
16.9076 6.5698 -2.95265
16.7249 6.74907 2.89309
16.004 6.35188 7.0137
12.1087 6.62742 12.0977
8.09596 7.7115 13.7538
2.68962 6.97448 16.5569
-13.6303 7.75491 8.1988
-12.0726 8.10858 1.51318
-12.2874 8.36441 -1.25654
-13.7677 7.69844 -8.09955
-6.97106 6.5482 -15.827
7.85136 7.86858 -13.7248
16.0486 6.33579 -6.95539
12.366 8.18223 -1.42285
12.2689 8.31697 1.45221
13.7688 7.70009 8.09496
6.95775 6.33584 16.0454
9.00451 7.95995 0.743206
11.2368 10.4733 -1.812
11.0759 10.3617 -7.16371
7.1322 10.3865 -11.072
2.65599 10.7205 -12.0196
-2.71798 10.7063 -12.0251
-7.22227 10.3123 -11.149
-11.1412 10.3365 -7.19091
-11.2276 10.8352 -3.30081
-11.2349 10.4813 1.80876
-11.1369 10.3158 7.21759
-7.16719 10.3406 11.1249
-2.65036 10.7208 12.0162
2.71518 10.707 12.0223
7.18447 10.3338 11.106
11.1097 10.3546 7.13749
11.2181 10.8434 3.36675
8.52912 12.6238 -2.85032
6.96142 12.3812 -6.85182
2.7136 12.8988 -8.38412
-2.77785 13.0082 -8.38241
-6.98156 12.3721 -6.96668
-8.68227 12.7633 -2.72057
-8.55645 12.6559 2.85972
-6.98492 12.3569 6.87935
-2.66835 13.0155 8.37874
2.67779 12.9023 8.38829
6.96582 12.3939 6.94917
8.67547 12.7567 2.73432
4.94346 9.78381 13.1769
7.40539 17.8696 11.4132
10.3059 19.0099 6.01624
10.1942 21.1081 3.04495
10.3169 19.1794 -6.20746
7.60552 18.5181 -12.0135
2.47875 20.5375 -14.3417
-2.46588 20.509 -14.3236
-7.41533 17.8727 -11.4145
-8.34973 16.1167 -7.11197
-9.46658 15.3654 -0.885819
-9.44393 15.549 2.34363
-8.3093 16.1777 8.24145
-7.60662 18.5216 12.0036
-2.45122 20.5227 14.3274
2.49108 20.533 14.3331
8.34737 16.1255 7.12296
10.14 16.8379 2.67585
10.1884 16.9691 -2.59317
8.34307 16.2086 -8.23778
2.5061 17.483 -11.7595
-2.4931 17.4897 -11.7649
-10.28 18.9017 -6.10603
-10.1778 16.9264 -2.65443
-10.2474 17.0558 1.65782
-10.337 19.2156 6.11755
-2.50842 17.4839 11.7486
2.49105 17.4909 11.7545
9.4659 15.3742 0.886518
9.19742 15.148 -1.34923
2.48355 15.6552 -9.03576
-2.15187 15.6897 -9.20582
-8.30464 22.2149 -14.1339
-8.21222 24.3231 -15.4397
-2.4921 27.4758 -16.9814
2.52042 27.4707 -16.9816
8.20742 27.6908 -15.9843
10.2289 27.515 -9.05808
9.85103 24.3871 -5.95929
10.1649 21.5551 -3.48287
9.68636 24.6244 5.78576
10.1598 22.3229 10.8008
8.10349 22.1369 14.2336
8.21597 24.3925 15.446
7.97918 27.6327 16.162
2.51479 27.4708 16.9738
-2.49443 27.4778 16.9737
-7.13902 24.4478 16.0677
-8.52451 22.2259 13.9186
-10.1394 22.338 10.8892
-10.4049 22.3353 8.10772
-10.1613 21.6556 -3.60601
-10.4047 22.351 -8.08949
-10.2112 22.3764 -10.7247
-2.53313 23.7245 -16.1076
2.49663 23.7071 -16.0952
7.15536 24.4486 -16.0661
8.40041 22.1643 -14.0298
10.1894 22.4197 -10.8261
10.4 22.354 -8.0852
8.48405 23.6346 2.32658
10.3997 22.373 8.069
2.53159 23.7142 16.0923
-2.50087 23.7351 16.0981
-10.2134 27.55 9.02902
-9.73256 24.5573 5.77931
-8.22313 23.7697 -1.9388
-9.84526 24.4422 -5.97486
-10.2321 27.6182 -9.11153
-2.47084 26.0968 -3.63448
2.54329 24.7597 -1.37507
8.27453 23.6054 -1.75343
7.31927 26.0283 4.25264
2.47719 26.0939 3.63054
-2.48476 26.0861 3.62179
-7.17491 25.7578 3.84351
-8.53946 23.5124 2.20239
-2.52954 24.7568 -1.36067
2.48782 26.0888 -3.62615
7.18527 25.7458 -3.84647
-2.53925 24.76 1.37061
-7.28214 26.0629 -4.23281
2.537 24.7564 1.35683
-2.56175 28.6934 5.29095
-7.05816 32.7939 4.99264
-8.58963 33.005 6.08804
-10.2737 31.9336 9.561
-10.1152 31.5033 13.6692
-8.1955 32.6866 15.9607
-2.51148 32.9798 16.8974
2.47878 32.9858 16.8976
8.43528 32.6329 15.7811
10.1996 33.2295 12.5739
10.2438 32.0604 9.42374
2.59543 31.1747 5.30235
-2.85182 31.3439 5.25198
-8.04391 28.1734 6.1461
-9.96386 27.8967 13.967
-8.17086 27.746 16.0324
10.1871 28.1507 12.4678
10.1601 27.9114 8.767
2.59112 28.6942 5.2923
-2.43482 33.8085 3.76236
-8.44202 32.7174 -6.12948
-10.2552 32.0738 -9.45769
-10.2027 33.175 -12.5437
-8.40394 32.6466 -15.8001
-2.51255 32.9765 -16.9086
2.48126 32.9887 -16.9074
8.17893 32.6791 -15.9982
10.2322 33.2047 -12.3906
10.2798 31.9692 -9.60105
2.84253 31.3273 -5.26491
-2.60168 31.177 -5.31135
-7.95165 28.1607 -6.09702
-10.1241 28.8175 -13.6567
-8.05627 27.7276 -16.1269
10.0849 28.7817 -13.7469
2.56672 28.6956 -5.29675
-2.58292 28.6859 -5.29923
8.37992 32.7663 6.07257
8.5615 32.7215 -6.21286
2.44256 33.8123 -3.77113
-2.51708 33.7375 -3.82829
2.52135 33.7361 3.82095
8.04045 28.2148 6.16337
8.12203 28.2358 -6.23897
7.57383 34.0628 -4.46635
8.4646 36.3458 -1.91258
8.64051 36.2977 2.20669
10.2833 37.7359 7.42544
10.1167 37.0033 11.8312
8.10667 37.7585 14.1236
2.48835 39.0722 14.5583
-2.54204 39.0762 14.5515
-7.80679 38.6904 13.9526
-10.2554 35.9628 11.4414
-10.2841 37.6556 7.5444
-8.60691 36.2656 -2.20234
-10.2941 37.7587 -7.4585
-10.0076 37.1725 -12.0845
-8.05984 37.7883 -14.1947
-2.5121 39.0666 -14.5685
2.52003 39.0924 -14.552
7.95694 37.8196 -14.2538
10.0545 37.0687 -11.9809
10.2908 37.7043 -7.5757
7.66399 34.2066 4.54604
7.22426 35.2057 16.077
2.50645 35.705 16.2504
-2.52763 35.7151 16.2511
-8.20474 35.7284 15.187
-8.35018 36.1393 2.2131
-7.65125 34.2156 -4.55304
-7.20958 35.3103 -16.0676
-2.48995 35.7475 -16.2448
2.54329 35.7317 -16.2537
8.39758 35.2609 -15.3562
7.9099 41.4073 -11.621
8.07045 43.9536 -8.25242
8.60109 45.3139 -2.87408
8.43491 45.4347 3.00872
8.0214 43.9935 8.33627
8.22738 41.2947 11.476
2.5549 42.0146 12.2723
-2.53329 42.0005 12.2868
-7.8938 41.4125 11.6294
-10.1935 40.6526 8.1506
-10.3138 41.9132 2.45378
-10.3415 41.7288 -2.38672
-10.1405 40.7846 -8.23314
-8.22363 41.3043 -11.482
-2.55334 42.0196 -12.2748
2.53519 42.0049 -12.2894
10.1917 40.6534 -8.13521
10.3062 41.9127 -2.4523
10.3383 41.739 2.39524
10.1365 40.7805 8.23557
2.51157 44.477 9.21226
-2.50033 44.4823 9.20426
-8.09476 43.9201 8.26562
-8.59007 45.3411 2.86603
-8.42856 45.4339 -3.0107
-7.97678 44.0351 -8.3484
-2.51025 44.4905 -9.19181
2.50564 44.4964 -9.18219
2.52503 45.9293 -6.50092
2.62861 46.9756 -2.14013
2.60658 46.9811 2.14787
2.57568 45.9372 6.48843
-2.51872 45.9365 6.49107
-2.62271 46.9812 2.14399
-2.60748 46.9762 -2.14746
-2.57341 45.9305 -6.49777
0 1
1 2
2 3
3 4
4 5
5 6
6 7
7 8
8 9
9 10
10 11
11 12
12 13
13 14
14 15
15 16
16 17
17 18
18 19
19 20
20 21
21 22
22 23
23 24
24 25
25 26
26 27
27 28
28 29
29 30
30 31
31 32
32 33
33 34
34 35
35 36
36 37
37 38
38 39
39 40
40 41
41 42
42 43
43 44
44 45
45 46
46 47
47 48
48 49
49 50
50 51
51 52
52 53
53 54
54 55
55 56
56 57
57 58
58 59
59 60
60 61
61 62
62 63
63 64
64 65
65 66
66 67
67 68
68 69
69 70
70 71
71 72
72 73
73 74
74 75
75 76
76 77
77 78
78 79
79 80
80 81
81 82
82 83
83 84
84 85
85 86
86 87
87 88
88 89
89 90
90 91
91 92
92 93
93 94
94 95
95 96
96 97
97 98
98 99
99 100
100 101
101 102
102 103
103 104
104 105
105 106
106 107
107 108
108 109
109 110
110 111
111 112
112 113
113 114
114 115
115 116
116 117
117 118
118 119
119 120
120 121
121 122
122 123
123 124
124 125
125 126
126 127
127 128
128 129
129 130
130 131
131 132
132 133
133 134
134 135
135 136
136 137
137 138
138 139
139 140
140 141
141 142
142 143
143 144
144 145
145 146
146 147
147 148
148 149
149 150
150 151
151 152
152 153
153 154
154 155
155 156
156 157
157 158
158 159
159 160
160 161
161 162
162 163
163 164
164 165
165 166
166 167
167 168
168 169
169 170
170 171
171 172
172 173
173 174
174 175
175 176
176 177
177 178
178 179
179 180
180 181
181 182
182 183
183 184
184 185
185 186
186 187
187 188
188 189
189 190
190 191
191 192
192 193
193 194
194 195
195 196
196 197
197 198
198 199
199 200
200 201
201 202
202 203
203 204
204 205
205 206
206 207
207 208
208 209
209 210
210 211
211 212
212 213
213 214
214 215
215 216
216 217
217 218
218 219
219 220
220 221
221 222
222 223
223 224
224 225
225 226
226 227
227 228
228 229
229 230
230 231
231 232
232 233
233 234
234 235
235 236
236 237
237 238
238 239
239 240
240 241
241 242
242 243
243 244
244 245
245 246
246 247
247 248
248 249
249 250
250 251
251 252
252 253
253 254
254 255
255 256
256 257
257 258
258 259
259 260
260 261
261 262
262 263
263 264
264 265
265 266
266 267
267 268
268 269
269 270
270 271
271 272
272 273
273 274
274 275
275 276
276 277
277 278
278 279
279 280
280 281
281 282
282 283
283 284
284 285
285 286
286 287
287 288
288 289
289 290
290 291
291 292
292 293
293 294
294 295
295 296
296 297
297 298
298 299
299 300
300 301
301 302
302 303
303 304
304 305
305 306
306 307
307 308
308 309
309 310
310 311
311 312
312 313
313 314
314 315
315 316
316 317
317 318
318 319
319 320
320 321
321 322
322 323
323 324
324 325
325 326
326 327
327 328
328 329
329 330
330 331
331 332
332 333
333 334
334 335
335 336
336 337
337 338
338 339
339 340
340 341
341 342
