ply
format ascii 1.0
comment Generated by Slim Ghodhbane
element vertex 236
property float x
property float y
property float z
element edge 235
property int vertex1
property int vertex2
end_header
9.02228 4.13404 8.74755
3.59936 12.6301 12.061
-4.87829 12.1758 13.4691
-11.8084 12.1111 13.4777
-19.6956 12.8347 12.7459
-30.0586 12.3036 4.24693
-31.8672 12.0979 -5.083
-31.8748 12.1655 -11.9601
-31.5256 11.8578 -18.7007
-27.4763 12.6455 -27.2014
-19.3059 12.3442 -31.4386
-11.8632 12.1286 -32.0233
-4.96974 12.1559 -32.0196
3.53608 11.8756 -30.6126
9.42208 12.2501 -26.8026
13.064 11.8278 -19.2681
13.6247 12.1778 -11.8847
13.6242 12.1789 -5.01728
12.7284 12.0102 2.42919
9.13296 10.7268 8.70444
4.71523 6.26086 11.6545
-5.02659 6.71438 13.4754
-12.0563 6.71748 13.4702
-19.363 6.76288 12.8832
-26.6312 7.27706 9.44195
-30.3494 6.84888 3.95603
-31.8672 6.89115 -4.90579
-31.8737 6.95377 -11.8729
-31.5369 6.35145 -18.6374
-28.3058 6.59022 -26.1418
-19.1134 6.18231 -31.4993
-11.8612 6.58238 -32.014
-4.88683 6.60988 -32.0123
4.87564 5.91856 -30.0034
8.9554 6.99593 -27.359
13.0569 6.65366 -19.3746
13.6246 6.68898 -11.9014
13.6253 6.69188 -5.16985
13.0562 5.36011 1.73422
12.6027 19.6397 2.83101
13.6241 20.2734 -5.02162
13.625 20.2299 -11.9776
13.3357 20.217 -18.4655
9.81257 21.6702 -26.5162
3.22455 20.2157 -30.8296
-4.92958 20.1854 -32.0165
-11.9339 20.2098 -32.0239
-19.6604 20.1087 -31.3138
-28.1996 20.4853 -26.2953
-31.4426 20.0126 -18.8737
-31.8642 20.2519 -5.03304
-30.2768 20.3955 3.6997
-19.7001 20.0501 12.7405
-11.7928 20.2297 13.478
-4.93056 20.2058 13.4743
2.74716 20.2879 12.4483
8.92176 19.6577 9.08739
9.30602 29.0218 8.62832
12.2878 28.0621 3.40475
13.6204 28.3646 -4.98372
13.6247 28.3875 -11.9052
13.3338 28.6901 -18.5192
9.87246 28.5382 -26.413
3.02897 28.8345 -30.9287
-4.98171 28.3374 -32.0163
-11.8986 28.2818 -32.0232
-19.3601 28.5576 -31.4428
-27.7062 28.6935 -26.8058
-31.4605 28.4676 -18.8669
-31.868 28.3065 -5.00308
-30.0745 28.6467 4.56172
-19.4423 28.9709 12.8415
-11.825 28.2724 13.478
-4.87485 28.352 13.4676
3.38772 27.4691 12.1135
3.02787 36.7055 11.4017
-4.99447 36.7629 12.6002
-14.5526 34.5428 7.35063
-19.5944 36.5298 12.0845
-29.8388 36.4956 3.73556
-30.8644 36.58 -4.89824
-30.9048 36.5005 -12.0558
-30.1443 36.8474 -19.276
-22.9629 34.81 -23.9284
-11.8467 36.545 -31.1256
-4.86572 36.5747 -31.2606
2.92015 36.8288 -29.8824
9.77413 36.6384 -26.4838
12.3014 37.0392 -18.4491
12.8242 36.6207 -4.88494
11.5326 36.9531 4.35693
8.33037 38.2284 9.3235
8.74483 41.7071 9.55141
6.69055 35.4224 4.08429
7.95715 34.8569 -5.37225
12.9844 36.5593 -11.9246
5.79694 34.2652 -19.7892
7.59676 34.6769 -11.5382
13.8071 43.3004 -11.912
13.841 43.3018 -4.80785
12.5956 43.6709 3.84834
2.92037 43.6592 12.7733
-4.92954 43.1687 13.6476
-18.9074 43.4862 13.3822
-27.145 43.97 10.0691
-30.8996 43.2207 3.55771
-31.8116 42.7722 -5.03165
-31.8309 42.9471 -11.9442
-31.5091 43.0089 -19.5186
-28.1004 43.7865 -27.5505
-19.312 43.064 -31.4537
-11.8779 43.1197 -31.9943
-4.89588 42.7967 -31.9851
3.52545 43.1575 -30.8579
10.2001 43.1211 -26.4262
13.6813 44.01 -18.9049
15.2834 53.0332 -18.6483
15.5309 59.5211 -12.1471
15.6611 59.4401 -4.62389
14.96 59.9237 2.69701
10.7678 59.855 10.1999
3.32274 60.0358 14.3568
-4.25846 59.5278 15.344
-12.036 59.4906 15.4829
-18.9251 59.6441 15.2971
-27.2038 59.8928 11.9295
-31.5038 60.4805 5.83374
-33.7501 59.6027 -4.32907
-33.8841 59.3637 -12.0973
-33.7233 58.9759 -18.936
-29.0414 58.8504 -28.7515
-18.1341 52.6221 -33.7495
-4.61666 52.9024 -34.0751
2.82435 52.8995 -33.5456
6.57824 54.1862 -32.3513
11.1602 59.6277 -28.4977
15.3201 59.3705 -18.3691
15.5566 52.8089 -12.1389
15.6784 52.788 -4.63367
14.8434 52.969 3.54823
8.66522 65.4576 9.31008
3.17965 68.1911 12.0945
-4.83662 68.2856 13.2091
-11.788 68.4427 13.1443
-18.8611 68.2999 12.9013
-26.0291 68.1611 10.0422
-29.9214 68.4891 3.48357
-31.5276 68.5234 -5.03316
-31.5413 68.4929 -12.1382
-31.2128 68.8353 -18.695
-27.5734 69.0867 -26.6636
-18.653 69.3676 -30.9953
-12.0111 68.1758 -31.7207
-4.94982 68.4242 -31.7261
2.87481 68.8239 -30.6708
10.1111 67.7823 -26.5174
13.1846 68.2078 -18.2778
13.4178 68.1907 -12.0216
13.4156 68.1937 -5.03054
12.0578 68.76 3.54889
9.84287 74.9012 3.19345
5.12434 78.8049 4.91369
-5.26938 77.4179 10.3561
-11.4449 77.616 10.1625
-21.8955 77.922 6.21613
-28.8937 77.3678 -5.37915
-28.6483 77.7402 -11.6511
-23.3984 80.0183 -22.6046
-11.505 77.7647 -28.7541
-5.36546 77.6156 -28.8192
5.22046 78.2898 -22.8411
10.4257 77.8341 -11.5778
10.3871 77.4183 -5.32696
9.83707 75.1282 -18.1043
8.23289 73.0315 -24.782
3.75689 75.2147 -27.5649
1.80419 82.8838 -25.8019
5.24796 83.5905 -21.5698
9.12856 83.4716 -10.8629
7.05956 84.6674 -3.12725
4.0829 83.9894 4.15049
-6.11714 82.9029 9.09066
-10.7946 84.0226 7.84473
-20.5696 83.7525 5.43432
-27.1869 83.0422 -5.9155
-27.3612 83.2434 -10.5474
-25.8443 83.2915 -18.7099
-22.6484 84.0491 -22.0545
-10.6894 83.6002 -27.4864
-5.89928 83.4798 -27.3622
-2.0692 86.6009 -23.8991
8.17821 89.7551 -17.0213
9.1075 83.2518 -6.11586
8.44741 82.0382 0.527376
7.81583 84.3049 -12.5854
8.54347 82.7948 -17.2018
5.90552 93.3067 -19.5894
8.03977 96.8619 -9.81671
7.28778 94.957 -3.25182
3.19718 93.3065 3.84771
-6.53774 91.0032 8.44794
-10.0098 91.1311 8.46277
-21.1227 93.0605 3.95317
-26.2123 92.7551 -5.30135
-26.531 92.8926 -10.1235
-25.2667 92.069 -18.1197
-21.6072 93.4021 -22.6477
-10.2752 92.9328 -27.0204
-5.40455 92.5392 -26.8433
1.8159 92.9767 -24.3962
-0.569031 101.347 -23.6653
-5.61241 100.216 -25.8501
-11.3971 106.115 -25.0091
-21.3807 100.854 -19.9932
-23.4644 106.866 -12.3474
-21.9966 106.249 -3.27515
-19.2668 100.639 2.91768
-10.3764 100.455 6.27151
-5.52316 100.812 5.97563
2.4126 100.553 2.25356
6.55846 100.938 -4.9038
7.37171 100.239 -11.1232
3.15736 101.627 -20.7367
-4.65201 105.731 -24.891
-15.3415 107.753 -23.3954
-19.1455 106.471 -20.7537
-23.8257 104.241 -13.265
-23.5768 101.798 -3.33253
-17.5975 106.884 1.97536
-10.6383 107.102 4.58445
-3.98954 107.495 3.70648
1.20339 107.404 1.01287
3.90139 106.77 -2.00732
6.10728 107.861 -10.1254
3.28778 107.122 -19.2139
-5.88528 113.086 -23.0286
0 1
1 2
2 3
3 4
4 5
5 6
6 7
7 8
8 9
9 10
10 11
11 12
12 13
13 14
14 15
15 16
16 17
17 18
18 19
19 20
20 21
21 22
22 23
23 24
24 25
25 26
26 27
27 28
28 29
29 30
30 31
31 32
32 33
33 34
34 35
35 36
36 37
37 38
38 39
39 40
40 41
41 42
42 43
43 44
44 45
45 46
46 47
47 48
48 49
49 50
50 51
51 52
52 53
53 54
54 55
55 56
56 57
57 58
58 59
59 60
60 61
61 62
62 63
63 64
64 65
65 66
66 67
67 68
68 69
69 70
70 71
71 72
72 73
73 74
74 75
75 76
76 77
77 78
78 79
79 80
80 81
81 82
82 83
83 84
84 85
85 86
86 87
87 88
88 89
89 90
90 91
91 92
92 93
93 94
94 95
95 96
96 97
97 98
98 99
99 100
100 101
101 102
102 103
103 104
104 105
105 106
106 107
107 108
108 109
109 110
110 111
111 112
112 113
113 114
114 115
115 116
116 117
117 118
118 119
119 120
120 121
121 122
122 123
123 124
124 125
125 126
126 127
127 128
128 129
129 130
130 131
131 132
132 133
133 134
134 135
135 136
136 137
137 138
138 139
139 140
140 141
141 142
142 143
143 144
144 145
145 146
146 147
147 148
148 149
149 150
150 151
151 152
152 153
153 154
154 155
155 156
156 157
157 158
158 159
159 160
160 161
161 162
162 163
163 164
164 165
165 166
166 167
167 168
168 169
169 170
170 171
171 172
172 173
173 174
174 175
175 176
176 177
177 178
178 179
179 180
180 181
181 182
182 183
183 184
184 185
185 186
186 187
187 188
188 189
189 190
190 191
191 192
192 193
193 194
194 195
195 196
196 197
197 198
198 199
199 200
200 201
201 202
202 203
203 204
204 205
205 206
206 207
207 208
208 209
209 210
210 211
211 212
212 213
213 214
214 215
215 216
216 217
217 218
218 219
219 220
220 221
221 222
222 223
223 224
224 225
225 226
226 227
227 228
228 229
229 230
230 231
231 232
232 233
233 234
234 235
