ply
format ascii 1.0
comment Generated by Slim Ghodhbane
element vertex 251
property float x
property float y
property float z
element edge 250
property int vertex1
property int vertex2
end_header
-11.0676 -12.4282 -91.6668
-23.302 -1.6511 -104.014
-49.1579 26.8657 -113.433
-87.9246 17.7878 -108.472
-100.871 40.947 -99.5168
-110.503 48.7624 -75.9219
-113.2 48.2053 -47.573
-113.163 46.8149 -19.8161
-108.218 31.5991 14.0122
-95.7833 34.7814 29.6002
-71.0822 29.0108 39.0953
-47.3996 47.7478 39.6138
-19.4278 48.2641 39.5907
29.3293 47.6403 23.4961
40.1973 47.2677 -19.3475
40.2 48.5127 -46.8019
36.5865 47.2667 -80.8137
11.4048 45.8426 -109.662
-20.9497 48.9796 -113.795
-47.7775 47.7857 -113.796
-76.7474 51.0193 -110.704
-22.3156 29.5435 -113.794
-19.1347 79.5237 -113.785
23.7136 80.7328 -102.092
39.3113 78.9079 -70.9691
40.2 80.0177 -46.6333
40.1969 79.8991 -20.2554
28.3054 77.4132 25.0421
18.369 84.1612 32.9834
-20.5362 80.941 39.607
-46.4701 79.4726 39.6142
-72.5831 82.1369 38.0459
-94.1972 96.4988 29.523
-113.182 79.9988 -20.4045
-113.2 79.6354 -48.5583
-111.138 81.5557 -75.5962
-98.872 78.5718 -101.327
-83.3989 81.6323 -108.119
-47.2914 80.7775 -113.796
-48.1078 111.381 -113.796
-46.586 144.342 -113.796
-18.337 144.324 -113.77
28.5864 118.296 -98.3182
30.7143 113.555 -95.4926
40.2 111.79 -49.6636
40.1963 112.081 -20.0854
34.4668 120.275 13.9247
26.2916 113.607 26.5744
-19.2751 111.989 39.5646
-47.8545 111.724 39.6145
-74.0155 117.429 37.9552
-102.97 111.282 21.7056
-113.184 112.773 -19.7656
-113.2 112.187 -47.4165
-111.372 108.907 -71.7819
-99.6998 107.76 -101.067
-75.551 115.772 -110.956
-69.2431 144.128 -113.446
-97.2237 143.524 -103.05
-110.377 141.94 -76.9346
-113.2 143.283 -47.7262
-113.196 143.924 -20.1557
-103.67 145.917 20.4674
-94.5276 144.054 30.8105
-67.1782 144.721 39.3571
-48.1636 143.877 39.6145
-20.7187 145.027 39.607
2.43889 144.963 38.3774
27.1626 142.679 26.0562
39.0297 143.279 1.35667
40.1997 144.583 -20.7307
40.2 143.615 -48.3152
37.8467 144.675 -75.0483
26.1876 149.439 -100.744
-18.4194 176.318 -112.654
-47.1504 177.593 -112.002
-73.0395 179.182 -110.923
-100.183 166.17 -100.156
-111.462 177.275 -48.7112
-111.474 177.704 -18.9991
-102.715 176.044 22.0349
-73.2169 177.298 38.6078
-46.9891 175.854 39.614
-18.7502 176.357 39.5863
2.6641 175.335 38.1401
24.4598 178.729 25.5342
36.2319 177.332 10.5049
40.1992 176.145 -20.906
40.2 176.144 -46.8849
39.9412 176.421 -68.2597
23.5222 175.512 -102.209
25.8511 189.541 -79.4367
30.1279 193.483 -72.3222
39.9807 204.068 -47.3213
39.885 204.063 -18.52
38.2758 204.648 12.9561
29.6476 194.228 23.6123
-18.8307 190.617 29.2354
-24.8088 193.251 31.1629
-41.8532 193.464 30.7085
-49.2364 188.84 27.4834
-94.1047 205.044 29.953
-100.053 200.892 24.7638
-112.791 204.622 -20.6487
-112.773 204.072 -47.797
-110.668 204.673 -76.0335
-98.8881 207.355 -101.451
-76.7098 203.132 -110.786
-47.7647 203.585 -113.015
-20.1757 203.833 -113.4
16.9601 204.23 -107.691
40.6327 208.256 -73.0523
31.6686 192.367 -39.7511
26.8608 187.831 -18.9453
9.65559 205.551 37.1461
-19.3356 204.718 39.4924
-48.8416 204.209 39.3363
-69.7587 207.917 40.5422
-76.5442 243.376 46.8621
-101.752 251.724 37.4882
-117.928 241.962 11.6773
-120.795 243.108 -18.0165
-121.312 243.164 -49.2267
-120.21 243.957 -78.0134
-102.393 240.215 -111.123
-74.3168 242.348 -120.373
-48.5529 241.328 -121.508
-17.1402 242.86 -122.021
18.8444 242.934 -117.434
46.6632 242.054 -75.7872
47.9191 242.677 -48.6806
48.4087 241.937 -18.8627
46.314 242.789 10.7461
16.6035 241.825 42.8483
-16.3046 243.202 47.1855
-47.9142 242.928 47.7036
-48.4475 272.589 47.7124
-17.2881 272.212 47.2016
17.6713 268.829 42.5177
33.276 284.277 35.4938
42.9282 300.083 16.7338
48.4166 271.934 -18.3982
47.9178 272.689 -48.9946
47.1039 271.772 -72.9277
39.4461 276.413 -99.935
16.032 270.038 -118.179
-17.2372 272.468 -122.022
-47.6802 271.831 -121.526
-72.8109 272.328 -120.671
-101.949 270.138 -111.545
-120.83 273.442 -74.1772
-121.289 272.502 -47.8674
-120.76 272.546 -16.6424
-116.874 265.018 13.6627
-105.266 267.869 34.5487
-74.0753 271.075 47.3626
-77.6373 305.292 41.6209
-90.0261 317.258 30.77
-99.653 334.651 15.7994
-110.858 330.284 -19.7735
-110.776 329.208 -48.4567
-107.771 336.689 -72.761
-100.206 333.675 -99.7054
-76.9099 327.855 -107.071
-47.8931 327.525 -110.799
-17.792 329.88 -110.968
24.917 333.071 -103.028
36.0826 325.491 -71.6203
31.0135 328.957 -50.7262
30.6525 329.65 -18.0013
33.8845 337.951 10.3258
14.53 339.717 33.5439
-18.0899 330.371 38.4782
-47.1888 330.469 37.518
-65.4111 337.221 38.1079
-80.7133 331.694 22.7099
-112.193 306.625 14.6085
-114.854 309.718 -19.1448
-114.586 310.577 -48.4614
-115.685 307.191 -76.2147
-99.7682 307.526 -106.505
-75.3249 311.295 -114.158
-48.3061 308.168 -115.581
-19.0074 309.839 -115.312
20.1377 306.323 -108.256
41.3783 310.546 -47.4613
41.4229 310.363 -18.7156
21.8132 326.497 22.6986
-16.5081 329.009 30.3186
-45.4697 329.924 29.8085
-47.4103 309.614 41.169
-19.2129 308.548 41.4067
13.1465 308.535 38.5692
-16.9105 355.086 33.8309
-24.4202 371.965 25.398
-42.6891 373.203 24.8019
-76.0661 373.14 16.8557
-97.368 362.287 13.0136
-100.147 369.86 -24.4143
-99.8701 370.444 -44.9943
-77.6548 377.83 -88.6775
-43.2912 368.979 -101.066
-22.3972 368.068 -101.63
16.0795 372.183 -82.3888
25.1274 373.676 -43.9391
25.9713 372.32 -25.2943
10.2418 374.446 13.3551
-46.3404 355.742 33.6553
-41.8243 397.558 22.4571
8.50321 392.941 10.5401
22.5124 398.6 -24.644
23.2845 398.341 -40.718
12.3849 390.826 -77.9589
-11.3718 389.512 -93.074
-28.5239 398.7 -96.9655
-40.0709 398.24 -96.913
-83.5308 395.853 -82.081
-96.4094 397.258 -40.7359
-96.4242 393.556 -28.9466
-80.4204 397.222 9.23383
-27.0105 395.426 21.9603
-25.4219 431.065 18.3265
-28.3491 459.025 13.4857
-40.408 462.142 12.7584
-74.5684 456.275 2.73779
-87.6277 429.984 -3.98402
-92.7137 430.884 -38.5794
-78.9956 433.874 -80.5949
-39.15 432.27 -94.5609
-25.3864 430.834 -94.1855
10.2695 431.253 -77.7459
20.7201 431.038 -39.9011
18.9604 431.48 -21.9562
3.52967 429.622 9.93559
-39.4633 430.774 18.8958
-78.0222 431.641 6.90951
-80.7784 466.795 -13.3758
-73.7276 494.69 -13.9284
-41.1231 486.036 8.21348
-9.77468 490.183 1.87108
1.50652 493.358 -6.94354
12.3918 489.803 -45.7705
2.54672 486.752 -74.4178
-35.6797 489.417 -88.6013
-69.2556 491.087 -75.7831
-79.8554 490.823 -54.6511
-87.3344 463.301 -39.7532
-72.4389 463.354 -80.238
-61.8573 526.722 -68.6983
-14.4706 542.235 -27.5511
3.49155 514.052 -64.5859
0 1
1 2
2 3
3 4
4 5
5 6
6 7
7 8
8 9
9 10
10 11
11 12
12 13
13 14
14 15
15 16
16 17
17 18
18 19
19 20
20 21
21 22
22 23
23 24
24 25
25 26
26 27
27 28
28 29
29 30
30 31
31 32
32 33
33 34
34 35
35 36
36 37
37 38
38 39
39 40
40 41
41 42
42 43
43 44
44 45
45 46
46 47
47 48
48 49
49 50
50 51
51 52
52 53
53 54
54 55
55 56
56 57
57 58
58 59
59 60
60 61
61 62
62 63
63 64
64 65
65 66
66 67
67 68
68 69
69 70
70 71
71 72
72 73
73 74
74 75
75 76
76 77
77 78
78 79
79 80
80 81
81 82
82 83
83 84
84 85
85 86
86 87
87 88
88 89
89 90
90 91
91 92
92 93
93 94
94 95
95 96
96 97
97 98
98 99
99 100
100 101
101 102
102 103
103 104
104 105
105 106
106 107
107 108
108 109
109 110
110 111
111 112
112 113
113 114
114 115
115 116
116 117
117 118
118 119
119 120
120 121
121 122
122 123
123 124
124 125
125 126
126 127
127 128
128 129
129 130
130 131
131 132
132 133
133 134
134 135
135 136
136 137
137 138
138 139
139 140
140 141
141 142
142 143
143 144
144 145
145 146
146 147
147 148
148 149
149 150
150 151
151 152
152 153
153 154
154 155
155 156
156 157
157 158
158 159
159 160
160 161
161 162
162 163
163 164
164 165
165 166
166 167
167 168
168 169
169 170
170 171
171 172
172 173
173 174
174 175
175 176
176 177
177 178
178 179
179 180
180 181
181 182
182 183
183 184
184 185
185 186
186 187
187 188
188 189
189 190
190 191
191 192
192 193
193 194
194 195
195 196
196 197
197 198
198 199
199 200
200 201
201 202
202 203
203 204
204 205
205 206
206 207
207 208
208 209
209 210
210 211
211 212
212 213
213 214
214 215
215 216
216 217
217 218
218 219
219 220
220 221
221 222
222 223
223 224
224 225
225 226
226 227
227 228
228 229
229 230
230 231
231 232
232 233
233 234
234 235
235 236
236 237
237 238
238 239
239 240
240 241
241 242
242 243
243 244
244 245
245 246
246 247
247 248
248 249
249 250
