ply
format ascii 1.0
comment Generated by Slim Ghodhbane
element vertex 548
property float x
property float y
property float z
element edge 547
property int vertex1
property int vertex2
end_header
3.24999 -4.7513 10.5619
3.39992 -4.60898 16.5127
3.39992 -4.60898 16.5127
8.33589 -0.499027 19.6393
10.1923 3.02432 17.1415
10.1923 3.02432 17.1415
13.6643 4.85874 13.6514
17.0924 3.12532 10.2025
17.0924 3.12532 10.2025
18.9957 -2.21822 8.33981
18.9957 -2.21822 8.33981
16.4323 -4.62514 3.36347
16.4323 -4.62514 3.36347
10.3605 -3.90495 2.87216
10.3214 -3.92652 -2.87286
10.3214 -3.92652 -2.87286
16.4546 -4.62887 -3.37722
16.4546 -4.62887 -3.37722
10.3214 -3.92652 -2.87286
3.24956 -4.7513 -3.24956
-3.24956 -4.7513 -3.24956
-3.24956 -4.7513 -3.24956
3.24956 -4.7513 -3.24956
3.24956 -4.7513 3.24956
-3.24956 -4.7513 3.24956
-3.24956 -4.7513 3.24956
-10.3339 -3.89076 2.86687
-10.3723 -3.93928 -2.8813
-10.3723 -3.93928 -2.8813
-16.4243 -4.62419 -3.36834
-18.9983 -2.22423 -8.29372
-17.2102 2.90749 -10.2225
-13.6425 4.93354 -13.6081
-13.6425 4.93354 -13.6081
-10.2135 2.84632 -17.2301
-8.40759 -0.490795 -19.6195
-8.40759 -0.490795 -19.6195
-3.72587 2.11333 -20.1269
-3.72587 2.11333 -20.1269
-8.40759 -0.490795 -19.6195
-3.39826 -4.61505 -16.4974
-3.2498 -4.7513 -10.5615
-3.2498 -4.7513 -10.5615
3.24976 -4.7513 -10.5618
3.34788 -4.64594 -16.3599
3.34788 -4.64594 -16.3599
8.35858 -2.23482 -18.993
10.2089 3.05199 -17.0944
13.6825 4.81377 -13.6887
13.6825 4.81377 -13.6887
17.1296 2.99384 -10.2103
19.6347 -0.478027 -8.39794
19.6347 -0.478027 -8.39794
20.1294 2.0902 -3.71466
20.1294 2.0902 -3.71466
19.6347 -0.478027 -8.39794
17.1296 2.99384 -10.2103
17.1296 2.99384 -10.2103
13.6825 4.81377 -13.6887
10.2089 3.05199 -17.0944
10.2089 3.05199 -17.0944
8.35858 -2.23482 -18.993
8.35858 -2.23482 -18.993
3.80597 2.2492 -20.0766
3.80597 2.2492 -20.0766
8.35858 -2.23482 -18.993
3.34788 -4.64594 -16.3599
3.24976 -4.7513 -10.5618
3.24976 -4.7513 -10.5618
10.4425 -4.70895 -10.4326
10.4425 -4.70895 -10.4326
3.24976 -4.7513 -10.5618
-3.2498 -4.7513 -10.5615
-10.339 -4.70871 -10.3501
-10.339 -4.70871 -10.3501
-3.2498 -4.7513 -10.5615
-3.39826 -4.61505 -16.4974
-3.39826 -4.61505 -16.4974
-8.40759 -0.490795 -19.6195
-10.2135 2.84632 -17.2301
-10.2135 2.84632 -17.2301
-13.6425 4.93354 -13.6081
-17.2102 2.90749 -10.2225
-17.2102 2.90749 -10.2225
-18.9983 -2.22423 -8.29372
-18.9983 -2.22423 -8.29372
-20.053 2.3308 -3.80855
-20.053 2.3308 -3.80855
-18.9983 -2.22423 -8.29372
-16.4243 -4.62419 -3.36834
-16.4243 -4.62419 -3.36834
-10.3723 -3.93928 -2.8813
-10.3339 -3.89076 2.86687
-16.4528 -4.62582 3.38233
-16.4528 -4.62582 3.38233
-10.3339 -3.89076 2.86687
-10.3339 -3.89076 2.86687
-3.24956 -4.7513 3.24956
3.24956 -4.7513 3.24956
3.24956 -4.7513 3.24956
3.24956 -4.7513 -3.24956
3.24956 -4.7513 -3.24956
10.3214 -3.92652 -2.87286
10.3605 -3.90495 2.87216
10.3605 -3.90495 2.87216
16.4323 -4.62514 3.36347
18.9957 -2.21822 8.33981
20.071 2.25439 3.79199
20.071 2.25439 3.79199
12.3423 5.32309 1.7235
12.3458 5.24031 -1.78548
12.3458 5.24031 -1.78548
12.3423 5.32309 1.7235
12.3423 5.32309 1.7235
20.071 2.25439 3.79199
18.9957 -2.21822 8.33981
17.0924 3.12532 10.2025
13.6643 4.85874 13.6514
13.6643 4.85874 13.6514
10.1923 3.02432 17.1415
8.33589 -0.499027 19.6393
3.72158 2.03017 20.1382
3.72158 2.03017 20.1382
8.33589 -0.499027 19.6393
8.33589 -0.499027 19.6393
3.39992 -4.60898 16.5127
3.24999 -4.7513 10.5619
-3.25002 -4.7513 10.5626
-3.35307 -4.63929 16.3767
-3.35307 -4.63929 16.3767
-8.27597 -2.2295 19.0109
-10.2176 2.91445 17.2086
-13.6022 4.93209 13.6427
-13.6022 4.93209 13.6427
-17.2347 2.84286 10.2076
-19.6422 -0.512347 8.32299
-19.6422 -0.512347 8.32299
-20.1406 2.04048 3.72888
-20.1406 2.04048 3.72888
-19.6422 -0.512347 8.32299
-17.2347 2.84286 10.2076
-17.2347 2.84286 10.2076
-12.2926 5.27115 1.82526
-12.2969 5.1659 -1.86229
-12.2969 5.1659 -1.86229
-12.2926 5.27115 1.82526
-12.2926 5.27115 1.82526
-17.2347 2.84286 10.2076
-13.6022 4.93209 13.6427
-10.2176 2.91445 17.2086
-10.2176 2.91445 17.2086
-8.27597 -2.2295 19.0109
-8.27597 -2.2295 19.0109
-3.79292 2.33212 20.049
-3.79292 2.33212 20.049
-8.27597 -2.2295 19.0109
-3.35307 -4.63929 16.3767
-3.25002 -4.7513 10.5626
-3.25002 -4.7513 10.5626
-10.3234 -4.71852 10.3111
-10.3234 -4.71852 10.3111
-3.25002 -4.7513 10.5626
3.24999 -4.7513 10.5619
10.4738 -4.69622 10.4828
10.4738 -4.69622 10.4828
3.24999 -4.7513 10.5619
9.03611 6.58304 14.9394
12.3466 6.80418 12.2959
14.9602 6.58455 9.00773
14.9602 6.58455 9.00773
15.3605 7.96121 4.51011
15.3605 7.96121 4.51011
14.9602 6.58455 9.00773
12.3466 6.80418 12.2959
12.3466 6.80418 12.2959
9.03611 6.58304 14.9394
4.69716 7.81369 15.5636
4.69716 7.81369 15.5636
3.67112 11.5037 10.2833
6.35401 12.4566 6.35147
3.90766 14.6403 8.58597
3.90766 14.6403 8.58597
6.35401 12.4566 6.35147
9.49355 11.89 3.93248
9.49355 11.89 3.93248
9.21006 6.9429 2.1433
9.21006 6.9429 2.1433
9.49355 11.89 3.93248
10.4962 10.5437 -2.64423
15.3275 8.00794 -4.47118
14.9439 6.58377 -9.04081
12.2764 6.86926 -12.2722
12.2764 6.86926 -12.2722
9.02273 6.58115 -14.9616
9.02273 6.58115 -14.9616
4.67865 7.8077 -15.5823
4.67865 7.8077 -15.5823
9.02273 6.58115 -14.9616
12.2764 6.86926 -12.2722
14.9439 6.58377 -9.04081
11.0323 8.542 -10.9816
11.0323 8.542 -10.9816
14.9439 6.58377 -9.04081
14.9439 6.58377 -9.04081
15.3275 8.00794 -4.47118
15.3275 8.00794 -4.47118
10.4962 10.5437 -2.64423
6.55324 13.1843 -6.03742
8.70807 14.3704 -3.68154
8.70807 14.3704 -3.68154
6.55324 13.1843 -6.03742
3.93006 14.7585 -8.6138
3.93006 14.7585 -8.6138
6.55324 13.1843 -6.03742
3.69038 11.5305 -10.2552
3.69038 11.5305 -10.2552
6.55324 13.1843 -6.03742
6.55324 13.1843 -6.03742
10.4962 10.5437 -2.64423
10.4962 10.5437 -2.64423
9.49355 11.89 3.93248
6.35401 12.4566 6.35147
8.78124 14.4761 3.63536
8.78124 14.4761 3.63536
6.35401 12.4566 6.35147
6.35401 12.4566 6.35147
3.67112 11.5037 10.2833
3.67112 11.5037 10.2833
-3.63584 11.5525 10.2588
-6.62913 13.1275 6.10011
-8.71939 14.3878 3.65739
-8.71939 14.3878 3.65739
-6.62913 13.1275 6.10011
-3.92521 14.7361 8.5982
-3.92521 14.7361 8.5982
-6.62913 13.1275 6.10011
-6.62913 13.1275 6.10011
-10.5901 11.0703 2.7227
-9.75907 6.98149 2.13974
-9.75907 6.98149 2.13974
-9.7787 6.82427 -2.27261
-9.7787 6.82427 -2.27261
-9.49455 11.9069 -3.89601
-6.43469 12.3644 -6.4558
-3.91838 14.636 -8.58423
-3.91838 14.636 -8.58423
-6.43469 12.3644 -6.4558
-6.43469 12.3644 -6.4558
-8.75463 14.442 -3.67503
-8.75463 14.442 -3.67503
-6.43469 12.3644 -6.4558
-3.65156 11.508 -10.3004
-3.65156 11.508 -10.3004
-6.43469 12.3644 -6.4558
-9.49455 11.9069 -3.89601
-9.49455 11.9069 -3.89601
-9.7787 6.82427 -2.27261
-15.3397 7.97614 -4.5121
-14.9381 6.58033 -9.01024
-12.4028 6.68146 -12.4277
-9.0476 6.58336 -14.9112
-9.0476 6.58336 -14.9112
-4.69691 7.82021 -15.5652
-4.69691 7.82021 -15.5652
-9.0476 6.58336 -14.9112
-10.9813 8.54921 -11.0289
-10.9813 8.54921 -11.0289
-9.0476 6.58336 -14.9112
-12.4028 6.68146 -12.4277
-12.4028 6.68146 -12.4277
-14.9381 6.58033 -9.01024
-14.9381 6.58033 -9.01024
-15.3397 7.97614 -4.5121
-15.3397 7.97614 -4.5121
-9.7787 6.82427 -2.27261
-9.75907 6.98149 2.13974
-15.3031 8.00028 4.49237
-14.9228 6.58966 9.04163
-12.4292 6.67807 12.4122
-12.4292 6.67807 12.4122
-9.00826 6.58535 14.949
-9.00826 6.58535 14.949
-4.68996 7.80722 15.5766
-4.68996 7.80722 15.5766
-9.00826 6.58535 14.949
-12.4292 6.67807 12.4122
-14.9228 6.58966 9.04163
-11.0258 8.54567 10.9827
-11.0258 8.54567 10.9827
-14.9228 6.58966 9.04163
-14.9228 6.58966 9.04163
-15.3031 8.00028 4.49237
-15.3031 8.00028 4.49237
-9.75907 6.98149 2.13974
-10.5901 11.0703 2.7227
-10.5901 11.0703 2.7227
-6.62913 13.1275 6.10011
-3.63584 11.5525 10.2588
-3.63584 11.5525 10.2588
3.67112 11.5037 10.2833
4.69716 7.81369 15.5636
9.03611 6.58304 14.9394
10.9881 8.54239 11.022
10.9881 8.54239 11.022
9.03611 6.58304 14.9394
4.20956 17.3923 11.05
1.62478 19.7558 14.1594
-1.62478 19.7558 14.1594
-1.62478 19.7558 14.1594
-4.18451 17.3388 11.0307
-4.18451 17.3388 11.0307
-1.62478 19.7558 14.1594
-4.17655 25.0218 16.6528
-4.17655 25.0218 16.6528
-1.62478 19.7558 14.1594
1.62478 19.7558 14.1594
1.62478 19.7558 14.1594
4.26436 24.9905 16.6079
4.26436 24.9905 16.6079
1.62478 19.7558 14.1594
4.20956 17.3923 11.05
9.96959 17.7985 4.32878
10.3141 24.3556 9.81663
7.80007 24.8294 2.89351
2.96078 25.5448 2.51948
2.96078 25.5448 2.51948
-2.9662 25.5361 2.50809
-7.41337 25.0088 2.77871
-7.41337 25.0088 2.77871
-7.46707 25.0117 -2.7897
-2.96707 25.5423 -2.52056
-2.96707 25.5423 -2.52056
1.62478 25.6769 -2.39907
1.62478 25.6769 -2.39907
-2.96707 25.5423 -2.52056
-7.46707 25.0117 -2.7897
-7.46707 25.0117 -2.7897
-7.41337 25.0088 2.77871
-10.3209 24.4141 9.70402
-10.3209 24.4141 9.70402
-10.0717 18.3478 4.32638
-10.0717 18.3478 4.32638
-10.0468 18.3381 -4.40545
-10.0468 18.3381 -4.40545
-4.22913 17.3363 -11.0099
-1.62478 19.7529 -14.1648
1.62478 19.7529 -14.1648
1.62478 19.7529 -14.1648
4.21842 17.4128 -11.0698
4.21842 17.4128 -11.0698
1.62478 19.7529 -14.1648
4.24225 25.0297 -16.6328
4.24225 25.0297 -16.6328
10.3165 24.3612 -9.83121
10.3165 24.3612 -9.83121
4.24225 25.0297 -16.6328
1.62478 19.7529 -14.1648
-1.62478 19.7529 -14.1648
-1.62478 19.7529 -14.1648
-4.26684 24.9762 -16.6107
-4.26684 24.9762 -16.6107
-10.323 24.4147 -9.71912
-10.323 24.4147 -9.71912
-4.26684 24.9762 -16.6107
-1.62478 19.7529 -14.1648
-4.22913 17.3363 -11.0099
-4.22913 17.3363 -11.0099
-10.0468 18.3381 -4.40545
-10.0717 18.3478 4.32638
-10.3209 24.4141 9.70402
-7.41337 25.0088 2.77871
-2.9662 25.5361 2.50809
-2.9662 25.5361 2.50809
2.96078 25.5448 2.51948
7.80007 24.8294 2.89351
7.55289 24.9046 -2.88481
7.55289 24.9046 -2.88481
7.80007 24.8294 2.89351
7.80007 24.8294 2.89351
10.3141 24.3556 9.81663
10.3141 24.3556 9.81663
9.96959 17.7985 4.32878
10.0408 17.9453 -4.24783
10.0408 17.9453 -4.24783
9.96959 17.7985 4.32878
9.96959 17.7985 4.32878
4.20956 17.3923 11.05
7.13189 27.5386 5.23436
7.40482 32.2283 5.2037
2.93567 32.1957 4.33494
2.93567 32.1957 4.33494
4.26272 35.2942 0.727339
4.26272 35.2942 0.727339
2.93567 32.1957 4.33494
7.40482 32.2283 5.2037
7.40482 32.2283 5.2037
10.3514 31.4519 10.6077
10.3514 31.4519 10.6077
7.40482 32.2283 5.2037
4.21693 35.2661 -0.739667
2.75516 32.1311 -4.40071
7.41278 32.1613 -5.24447
7.11118 27.4997 -5.19917
7.11118 27.4997 -5.19917
1.62478 27.7894 -4.64829
-1.62478 27.7894 -4.64829
-1.62478 27.7894 -4.64829
-7.1598 27.5365 -5.25189
-7.64742 32.0285 -5.33814
-3.22573 32.1658 -4.47465
-3.22573 32.1658 -4.47465
-10.2601 31.1747 -10.1242
-7.48477 30.1136 -16.5889
-3.24373 31.7769 -17.1069
-1.62478 35.2086 -16.7187
1.62478 35.2086 -16.7187
1.62478 35.2086 -16.7187
3.27027 31.7775 -17.0945
3.27027 31.7775 -17.0945
7.4926 30.0807 -16.5798
7.4926 30.0807 -16.5798
10.1903 31.1301 -10.0306
10.1903 31.1301 -10.0306
7.4926 30.0807 -16.5798
3.27027 31.7775 -17.0945
1.62478 35.2086 -16.7187
-1.62478 35.2086 -16.7187
-1.62478 35.2086 -16.7187
-3.24373 31.7769 -17.1069
-3.24373 31.7769 -17.1069
-7.48477 30.1136 -16.5889
-7.48477 30.1136 -16.5889
-10.2601 31.1747 -10.1242
-10.2601 31.1747 -10.1242
-3.22573 32.1658 -4.47465
-7.64742 32.0285 -5.33814
-7.64742 32.0285 -5.33814
-7.1598 27.5365 -5.25189
-7.1598 27.5365 -5.25189
-1.62478 27.7894 -4.64829
1.62478 27.7894 -4.64829
1.62478 27.7894 -4.64829
7.11118 27.4997 -5.19917
7.41278 32.1613 -5.24447
7.41278 32.1613 -5.24447
2.75516 32.1311 -4.40071
2.75516 32.1311 -4.40071
4.21693 35.2661 -0.739667
4.21693 35.2661 -0.739667
7.40482 32.2283 5.2037
7.13189 27.5386 5.23436
1.62478 27.7916 4.6405
-1.62478 27.7916 4.6405
-1.62478 27.7916 4.6405
-7.07334 27.5185 5.18268
-7.44153 32.1378 5.25648
-2.91613 32.1964 4.31912
-2.91613 32.1964 4.31912
-4.23288 35.2738 0.764004
-4.23288 35.2738 0.764004
-2.91613 32.1964 4.31912
-7.44153 32.1378 5.25648
-7.44153 32.1378 5.25648
-10.3522 31.4514 10.6947
-10.3522 31.4514 10.6947
-7.34067 31.5797 16.5164
-1.62478 31.6955 17.2304
2.93446 32.3766 17.0446
2.93446 32.3766 17.0446
7.47941 30.0711 16.5841
7.47941 30.0711 16.5841
2.93446 32.3766 17.0446
-1.62478 31.6955 17.2304
-1.62478 31.6955 17.2304
-7.34067 31.5797 16.5164
-7.34067 31.5797 16.5164
-10.3522 31.4514 10.6947
-7.44153 32.1378 5.25648
-4.24681 35.2839 -0.730426
-4.24681 35.2839 -0.730426
-7.44153 32.1378 5.25648
-7.07334 27.5185 5.18268
-7.07334 27.5185 5.18268
-1.62478 27.7916 4.6405
1.62478 27.7916 4.6405
1.62478 27.7916 4.6405
7.13189 27.5386 5.23436
10.5545 39.0615 8.21112
10.3883 41.3313 3.85778
10.3883 41.3313 3.85778
10.4007 41.3137 -3.95015
10.5872 39.0007 -8.23048
10.5872 39.0007 -8.23048
10.4007 41.3137 -3.95015
10.4007 41.3137 -3.95015
10.3883 41.3313 3.85778
10.5545 39.0615 8.21112
3.80642 43.8383 10.4429
4.30367 39.5352 14.2659
4.30367 39.5352 14.2659
3.80642 43.8383 10.4429
3.68348 46.8372 3.77469
3.68348 46.8372 3.77469
-3.65137 46.8456 3.73101
-3.65137 46.8456 3.73101
-3.71353 43.8572 10.4578
-4.25538 39.5658 14.272
-4.25538 39.5658 14.272
-3.71353 43.8572 10.4578
-3.71353 43.8572 10.4578
-3.65137 46.8456 3.73101
-3.68109 46.833 -3.78065
-3.80444 43.848 -10.4346
-1.62478 39.7484 -14.4813
-7.02022 39.3124 -14.0556
-7.02022 39.3124 -14.0556
-10.5594 39.0729 -8.21671
-10.3844 41.3509 -3.88323
-10.3844 41.3509 -3.88323
-10.4115 41.2825 3.90806
-10.5898 38.9847 8.23559
-10.5898 38.9847 8.23559
-10.4115 41.2825 3.90806
-10.4115 41.2825 3.90806
-10.3844 41.3509 -3.88323
-10.5594 39.0729 -8.21671
-10.5594 39.0729 -8.21671
-7.02022 39.3124 -14.0556
-1.62478 39.7484 -14.4813
4.22415 39.5805 -14.2845
3.72253 43.867 -10.4404
3.72253 43.867 -10.4404
3.65885 46.8369 -3.73825
3.65885 46.8369 -3.73825
3.72253 43.867 -10.4404
4.22415 39.5805 -14.2845
4.22415 39.5805 -14.2845
-1.62478 39.7484 -14.4813
-1.62478 39.7484 -14.4813
-3.80444 43.848 -10.4346
-3.80444 43.848 -10.4346
-3.68109 46.833 -3.78065
-3.68109 46.833 -3.78065
-3.65137 46.8456 3.73101
3.68348 46.8372 3.77469
3.80642 43.8383 10.4429
3.80642 43.8383 10.4429
10.5545 39.0615 8.21112
0 1
1 2
2 3
3 4
4 5
5 6
6 7
7 8
8 9
9 10
10 11
11 12
12 13
13 14
14 15
15 16
16 17
17 18
18 19
19 20
20 21
21 22
22 23
23 24
24 25
25 26
26 27
27 28
28 29
29 30
30 31
31 32
32 33
33 34
34 35
35 36
36 37
37 38
38 39
39 40
40 41
41 42
42 43
43 44
44 45
45 46
46 47
47 48
48 49
49 50
50 51
51 52
52 53
53 54
54 55
55 56
56 57
57 58
58 59
59 60
60 61
61 62
62 63
63 64
64 65
65 66
66 67
67 68
68 69
69 70
70 71
71 72
72 73
73 74
74 75
75 76
76 77
77 78
78 79
79 80
80 81
81 82
82 83
83 84
84 85
85 86
86 87
87 88
88 89
89 90
90 91
91 92
92 93
93 94
94 95
95 96
96 97
97 98
98 99
99 100
100 101
101 102
102 103
103 104
104 105
105 106
106 107
107 108
108 109
109 110
110 111
111 112
112 113
113 114
114 115
115 116
116 117
117 118
118 119
119 120
120 121
121 122
122 123
123 124
124 125
125 126
126 127
127 128
128 129
129 130
130 131
131 132
132 133
133 134
134 135
135 136
136 137
137 138
138 139
139 140
140 141
141 142
142 143
143 144
144 145
145 146
146 147
147 148
148 149
149 150
150 151
151 152
152 153
153 154
154 155
155 156
156 157
157 158
158 159
159 160
160 161
161 162
162 163
163 164
164 165
165 166
166 167
167 168
168 169
169 170
170 171
171 172
172 173
173 174
174 175
175 176
176 177
177 178
178 179
179 180
180 181
181 182
182 183
183 184
184 185
185 186
186 187
187 188
188 189
189 190
190 191
191 192
192 193
193 194
194 195
195 196
196 197
197 198
198 199
199 200
200 201
201 202
202 203
203 204
204 205
205 206
206 207
207 208
208 209
209 210
210 211
211 212
212 213
213 214
214 215
215 216
216 217
217 218
218 219
219 220
220 221
221 222
222 223
223 224
224 225
225 226
226 227
227 228
228 229
229 230
230 231
231 232
232 233
233 234
234 235
235 236
236 237
237 238
238 239
239 240
240 241
241 242
242 243
243 244
244 245
245 246
246 247
247 248
248 249
249 250
250 251
251 252
252 253
253 254
254 255
255 256
256 257
257 258
258 259
259 260
260 261
261 262
262 263
263 264
264 265
265 266
266 267
267 268
268 269
269 270
270 271
271 272
272 273
273 274
274 275
275 276
276 277
277 278
278 279
279 280
280 281
281 282
282 283
283 284
284 285
285 286
286 287
287 288
288 289
289 290
290 291
291 292
292 293
293 294
294 295
295 296
296 297
297 298
298 299
299 300
300 301
301 302
302 303
303 304
304 305
305 306
306 307
307 308
308 309
309 310
310 311
311 312
312 313
313 314
314 315
315 316
316 317
317 318
318 319
319 320
320 321
321 322
322 323
323 324
324 325
325 326
326 327
327 328
328 329
329 330
330 331
331 332
332 333
333 334
334 335
335 336
336 337
337 338
338 339
339 340
340 341
341 342
342 343
343 344
344 345
345 346
346 347
347 348
348 349
349 350
350 351
351 352
352 353
353 354
354 355
355 356
356 357
357 358
358 359
359 360
360 361
361 362
362 363
363 364
364 365
365 366
366 367
367 368
368 369
369 370
370 371
371 372
372 373
373 374
374 375
375 376
376 377
377 378
378 379
379 380
380 381
381 382
382 383
383 384
384 385
385 386
386 387
387 388
388 389
389 390
390 391
391 392
392 393
393 394
394 395
395 396
396 397
397 398
398 399
399 400
400 401
401 402
402 403
403 404
404 405
405 406
406 407
407 408
408 409
409 410
410 411
411 412
412 413
413 414
414 415
415 416
416 417
417 418
418 419
419 420
420 421
421 422
422 423
423 424
424 425
425 426
426 427
427 428
428 429
429 430
430 431
431 432
432 433
433 434
434 435
435 436
436 437
437 438
438 439
439 440
440 441
441 442
442 443
443 444
444 445
445 446
446 447
447 448
448 449
449 450
450 451
451 452
452 453
453 454
454 455
455 456
456 457
457 458
458 459
459 460
460 461
461 462
462 463
463 464
464 465
465 466
466 467
467 468
468 469
469 470
470 471
471 472
472 473
473 474
474 475
475 476
476 477
477 478
478 479
479 480
480 481
481 482
482 483
483 484
484 485
485 486
486 487
487 488
488 489
489 490
490 491
491 492
492 493
493 494
494 495
495 496
496 497
497 498
498 499
499 500
500 501
501 502
502 503
503 504
504 505
505 506
506 507
507 508
508 509
509 510
510 511
511 512
512 513
513 514
514 515
515 516
516 517
517 518
518 519
519 520
520 521
521 522
522 523
523 524
524 525
525 526
526 527
527 528
528 529
529 530
530 531
531 532
532 533
533 534
534 535
535 536
536 537
537 538
538 539
539 540
540 541
541 542
542 543
543 544
544 545
545 546
546 547
