ply
format ascii 1.0
comment Generated by Slim Ghodhbane
element vertex 16
property float x
property float y
property float z
element edge 15
property int vertex1
property int vertex2
end_header
-4.77916 11.2858 3.70746
-3.50224 10.5529 4.84263
-2.53425 9.93464 3.15669
-1.55817 13.5434 0.105469
-3.90723 19.8227 1.80348
-5.70425 20.4939 2.52913
-8.62944 15.1308 5.11389
-6.41153 12.6359 5.2837
-6.64262 13.2537 2.85302
-2.55276 20.3256 3.27061
-2.49247 20.4664 4.73852
-3.46526 18.4418 8.0167
-4.90443 11.3528 4.43603
0.457731 19.1911 2.94274
0.502764 19.3971 4.77532
-1.13099 19.8367 5.01076
0 1
1 2
2 3
3 4
4 5
5 6
6 7
7 8
8 9
9 10
10 11
11 12
12 13
13 14
14 15
