ply
format ascii 1.0
comment Generated by Slim Ghodhbane
element vertex 862
property float x
property float y
property float z
element edge 861
property int vertex1
property int vertex2
end_header
13.4881 -4.99571 13.4805
8.91566 -4.79897 13.6721
8.91566 -4.79897 13.6721
8.28457 -4.30799 18.6192
8.28457 -4.30799 18.6192
4.00829 -0.720824 18.9046
3.42634 -0.964262 13.6918
4.64808 -0.533306 9.20776
7.74636 -2.53912 7.7866
7.74636 -2.53912 7.7866
9.44606 -0.404502 4.47155
9.44606 -0.404502 4.47155
13.9393 -1.05058 3.44052
13.9393 -1.05058 3.44052
19.1715 -0.667574 4.07578
19.1715 -0.667574 4.07578
13.9393 -1.05058 3.44052
9.44606 -0.404502 4.47155
7.74636 -2.53912 7.7866
4.64808 -0.533306 9.20776
4.64808 -0.533306 9.20776
3.42634 -0.964262 13.6918
3.42634 -0.964262 13.6918
4.00829 -0.720824 18.9046
4.00829 -0.720824 18.9046
8.28457 -4.30799 18.6192
8.27444 -1.25287 24.0585
13.9891 -2.71462 24.8821
18.6287 -2.38441 24.747
18.6287 -2.38441 24.747
23.357 -0.589163 23.3318
23.357 -0.589163 23.3318
24.7208 -2.35055 18.5734
24.9078 -2.73595 13.8607
24.9078 -2.73595 13.8607
24.0837 -1.21123 8.26325
24.0837 -1.21123 8.26325
24.9078 -2.73595 13.8607
24.7208 -2.35055 18.5734
24.7208 -2.35055 18.5734
23.357 -0.589163 23.3318
18.6287 -2.38441 24.747
13.9891 -2.71462 24.8821
13.9891 -2.71462 24.8821
8.27444 -1.25287 24.0585
8.27444 -1.25287 24.0585
8.28457 -4.30799 18.6192
8.91566 -4.79897 13.6721
13.4881 -4.99571 13.4805
13.4668 -4.99297 18.0869
13.4668 -4.99297 18.0869
13.4881 -4.99571 13.4805
18.0962 -4.99267 13.4574
18.0962 -4.99267 13.4574
18.3526 -4.89789 18.3302
18.3526 -4.89789 18.3302
18.0962 -4.99267 13.4574
13.4881 -4.99571 13.4805
13.625 -4.77505 8.86132
13.625 -4.77505 8.86132
18.556 -4.32331 8.26471
18.556 -4.32331 8.26471
13.625 -4.77505 8.86132
13.4881 -4.99571 13.4805
4.60748 3.591 8.45418
5.53313 5.26048 7.23125
5.53313 5.26048 7.23125
8.29955 3.8333 4.72796
8.29955 3.8333 4.72796
13.871 4.17754 2.75964
19.5246 3.80902 3.67157
22.6637 3.45693 5.3116
24.545 5.51615 7.31594
25.0148 3.78748 8.04411
25.0148 3.78748 8.04411
24.545 5.51615 7.31594
24.545 5.51615 7.31594
22.6637 3.45693 5.3116
22.6637 3.45693 5.3116
19.5246 3.80902 3.67157
19.5246 3.80902 3.67157
13.871 4.17754 2.75964
13.871 4.17754 2.75964
8.29955 3.8333 4.72796
5.53313 5.26048 7.23125
4.60748 3.591 8.45418
2.75237 4.17769 13.9269
2.75237 4.17769 13.9269
3.75868 3.94025 19.6974
5.34796 4.2778 22.662
5.34796 4.2778 22.662
8.28425 3.80161 25.2596
8.28425 3.80161 25.2596
13.9007 4.1963 27.2449
19.5214 3.81743 26.3366
23.6619 4.0559 23.6522
26.3331 3.82283 19.5182
26.3331 3.82283 19.5182
27.2285 4.04357 13.7085
27.2285 4.04357 13.7085
26.3331 3.82283 19.5182
23.6619 4.0559 23.6522
23.6619 4.0559 23.6522
19.5214 3.81743 26.3366
19.5214 3.81743 26.3366
13.9007 4.1963 27.2449
13.9007 4.1963 27.2449
8.28425 3.80161 25.2596
5.34796 4.2778 22.662
3.75868 3.94025 19.6974
3.75868 3.94025 19.6974
2.75237 4.17769 13.9269
4.60748 3.591 8.45418
4.54977 8.39985 8.53414
6.43984 8.83919 6.44057
6.43984 8.83919 6.44057
8.54369 8.36048 4.54822
8.54369 8.36048 4.54822
13.8891 8.55045 2.7646
19.3899 8.57377 3.64796
22.4896 8.07051 5.12283
22.4896 8.07051 5.12283
24.7415 8.50282 7.75846
24.7415 8.50282 7.75846
22.4896 8.07051 5.12283
19.3899 8.57377 3.64796
19.3899 8.57377 3.64796
13.8891 8.55045 2.7646
13.8891 8.55045 2.7646
8.54369 8.36048 4.54822
6.43984 8.83919 6.44057
4.54977 8.39985 8.53414
2.76631 8.55542 13.9325
3.61062 8.52668 19.3076
5.10974 8.7456 22.6288
7.81292 8.61427 24.7947
7.81292 8.61427 24.7947
13.7376 8.62839 27.2011
15.4539 7.92643 27.5284
15.4539 7.92643 27.5284
19.3765 8.45422 26.369
19.3765 8.45422 26.369
23.6729 8.41651 23.6207
26.3697 8.57791 19.3531
26.3697 8.57791 19.3531
27.2075 8.60201 13.9091
27.2075 8.60201 13.9091
26.3697 8.57791 19.3531
23.6729 8.41651 23.6207
23.6729 8.41651 23.6207
19.3765 8.45422 26.369
15.4539 7.92643 27.5284
13.7376 8.62839 27.2011
13.7376 8.62839 27.2011
7.81292 8.61427 24.7947
5.10974 8.7456 22.6288
5.10974 8.7456 22.6288
3.61062 8.52668 19.3076
3.61062 8.52668 19.3076
2.76631 8.55542 13.9325
2.76631 8.55542 13.9325
4.54977 8.39985 8.53414
3.76997 14.4787 9.1238
6.65726 14.0075 6.93327
6.65726 14.0075 6.93327
9.06702 14.4103 3.89213
9.06702 14.4103 3.89213
4.91458 16.0262 4.90454
4.91458 16.0262 4.90454
9.06702 14.4103 3.89213
13.7364 13.987 2.92032
13.7364 13.987 2.92032
19.0579 14.2929 3.36925
21.4697 13.6687 5.62766
21.4697 13.6687 5.62766
24.6435 14.1606 7.94281
23.4923 15.039 4.40017
23.4923 15.039 4.40017
24.6435 14.1606 7.94281
24.6435 14.1606 7.94281
29.0289 16.4384 10.7546
28.3894 15.2956 13.9289
26.6769 13.5945 13.6626
26.6769 13.5945 13.6626
28.3894 15.2956 13.9289
28.3894 15.2956 13.9289
28.5866 15.6899 17.71
26.1255 13.994 19.4535
26.1255 13.994 19.4535
23.712 14.3782 23.671
23.712 14.3782 23.671
19.463 13.9194 26.1104
17.8202 15.6974 28.574
17.8202 15.6974 28.574
14.0282 15.2803 28.3853
13.6665 13.6283 26.7151
13.6665 13.6283 26.7151
14.0282 15.2803 28.3853
10.9142 16.3871 29.0393
10.9142 16.3871 29.0393
14.0282 15.2803 28.3853
14.0282 15.2803 28.3853
17.8202 15.6974 28.574
19.463 13.9194 26.1104
19.463 13.9194 26.1104
23.712 14.3782 23.671
26.1255 13.994 19.4535
28.5866 15.6899 17.71
28.5866 15.6899 17.71
28.3894 15.2956 13.9289
29.0289 16.4384 10.7546
29.0289 16.4384 10.7546
24.6435 14.1606 7.94281
21.4697 13.6687 5.62766
19.0579 14.2929 3.36925
19.0579 14.2929 3.36925
13.7364 13.987 2.92032
9.06702 14.4103 3.89213
6.65726 14.0075 6.93327
3.76997 14.4787 9.1238
2.89965 14.0234 13.7434
2.89965 14.0234 13.7434
3.5051 14.2063 19.1946
4.41474 14.959 23.5108
7.96821 14.1741 24.6736
7.96821 14.1741 24.6736
4.41474 14.959 23.5108
4.41474 14.959 23.5108
3.5051 14.2063 19.1946
3.5051 14.2063 19.1946
2.89965 14.0234 13.7434
3.76997 14.4787 9.1238
1.14876 17.5087 8.24214
-1.23084 20.4015 8.67398
-1.23084 20.4015 8.67398
-1.49088 19.0301 14.0128
-1.39094 19.621 19.094
0.671822 17.0943 19.9977
0.671822 17.0943 19.9977
-1.39094 19.621 19.094
-1.02284 21.1319 22.9006
-1.02284 21.1319 22.9006
2.51684 18.7809 25.5659
4.27911 20.3454 28.7331
4.27911 20.3454 28.7331
8.53258 19.4397 30.4469
8.53258 19.4397 30.4469
14.0349 19.0292 31.4956
19.2772 19.1217 30.9842
24.079 20.0326 29.5639
27.5533 20.8676 27.5502
26.346 18.2003 26.3334
26.346 18.2003 26.3334
27.5533 20.8676 27.5502
27.5533 20.8676 27.5502
29.5612 20.0211 24.0723
29.5612 20.0211 24.0723
30.9797 19.1341 19.2986
30.9797 19.1341 19.2986
31.6227 19.3195 13.605
30.2731 19.3067 8.32157
28.7406 20.3541 4.28872
25.5691 18.7848 2.52086
25.5691 18.7848 2.52086
22.885 21.1419 -1.02801
19.1305 19.6445 -1.38886
20.0109 17.0653 0.708711
20.0109 17.0653 0.708711
19.1305 19.6445 -1.38886
19.1305 19.6445 -1.38886
14.0508 19.0374 -1.49436
14.0508 19.0374 -1.49436
8.69387 20.4017 -1.237
8.29563 17.5129 1.12284
8.29563 17.5129 1.12284
8.69387 20.4017 -1.237
8.69387 20.4017 -1.237
14.0508 19.0374 -1.49436
19.1305 19.6445 -1.38886
22.885 21.1419 -1.02801
22.885 21.1419 -1.02801
25.5691 18.7848 2.52086
28.7406 20.3541 4.28872
28.7406 20.3541 4.28872
30.2731 19.3067 8.32157
30.2731 19.3067 8.32157
31.6227 19.3195 13.605
31.6227 19.3195 13.605
30.9797 19.1341 19.2986
29.5612 20.0211 24.0723
27.5533 20.8676 27.5502
24.079 20.0326 29.5639
24.079 20.0326 29.5639
19.2772 19.1217 30.9842
19.2772 19.1217 30.9842
14.0349 19.0292 31.4956
14.0349 19.0292 31.4956
8.53258 19.4397 30.4469
4.27911 20.3454 28.7331
2.51684 18.7809 25.5659
2.51684 18.7809 25.5659
-1.02284 21.1319 22.9006
-1.39094 19.621 19.094
-1.39094 19.621 19.094
-1.49088 19.0301 14.0128
-1.49088 19.0301 14.0128
-1.23084 20.4015 8.67398
1.14876 17.5087 8.24214
3.19381 19.3792 3.17729
3.19381 19.3792 3.17729
1.14876 17.5087 8.24214
-2.8956 25.0073 8.11575
-0.98135 25.3544 4.11882
1.48633 24.4907 1.47955
4.13746 25.3166 -0.98529
4.13746 25.3166 -0.98529
6.78674 27.5527 -3.0256
8.25007 24.7791 -2.8857
8.25007 24.7791 -2.8857
13.6276 24.9414 -4.16029
13.6276 24.9414 -4.16029
19.3313 24.8068 -3.64235
24.6587 25.3316 -1.64798
27.181 22.7196 0.825816
27.181 22.7196 0.825816
30.2119 25.2008 3.22554
32.3336 24.6251 7.0033
33.4373 25.3576 9.21867
33.4373 25.3576 9.21867
34.1585 24.9333 13.5783
34.1585 24.9333 13.5783
33.7697 25.0403 19.0979
32.6054 22.8895 21.192
32.6054 22.8895 21.192
33.7697 25.0403 19.0979
33.1604 26.7552 22.5206
33.0894 27.573 23.0914
33.0894 27.573 23.0914
33.1604 26.7552 22.5206
31.2127 24.8216 25.1639
31.2127 24.8216 25.1639
28.7647 25.6864 28.7582
28.7647 25.6864 28.7582
25.164 24.7878 31.2028
23.2373 27.5177 33.0171
22.5511 26.7514 33.1559
22.5511 26.7514 33.1559
19.3542 25.016 33.7128
21.1325 22.8115 32.6023
21.1325 22.8115 32.6023
19.3542 25.016 33.7128
19.3542 25.016 33.7128
13.6084 24.9375 34.1672
8.90504 25.6569 33.3933
7.02668 24.0748 32.2058
7.02668 24.0748 32.2058
3.22216 25.212 30.2219
3.22216 25.212 30.2219
0.818841 22.7466 27.1702
-1.64221 25.2844 24.6623
-1.64221 25.2844 24.6623
-3.61683 24.8319 19.4941
-3.61683 24.8319 19.4941
-1.64221 25.2844 24.6623
0.818841 22.7466 27.1702
0.818841 22.7466 27.1702
3.22216 25.212 30.2219
7.02668 24.0748 32.2058
8.90504 25.6569 33.3933
8.90504 25.6569 33.3933
13.6084 24.9375 34.1672
13.6084 24.9375 34.1672
19.3542 25.016 33.7128
22.5511 26.7514 33.1559
23.2373 27.5177 33.0171
23.2373 27.5177 33.0171
25.164 24.7878 31.2028
25.164 24.7878 31.2028
28.7647 25.6864 28.7582
31.2127 24.8216 25.1639
33.1604 26.7552 22.5206
33.1604 26.7552 22.5206
33.7697 25.0403 19.0979
33.7697 25.0403 19.0979
34.1585 24.9333 13.5783
33.4373 25.3576 9.21867
32.3336 24.6251 7.0033
32.3336 24.6251 7.0033
30.2119 25.2008 3.22554
30.2119 25.2008 3.22554
27.181 22.7196 0.825816
24.6587 25.3316 -1.64798
24.6587 25.3316 -1.64798
19.3313 24.8068 -3.64235
19.3313 24.8068 -3.64235
13.6276 24.9414 -4.16029
8.25007 24.7791 -2.8857
6.78674 27.5527 -3.0256
6.78674 27.5527 -3.0256
4.13746 25.3166 -0.98529
1.48633 24.4907 1.47955
1.48633 24.4907 1.47955
-0.98135 25.3544 4.11882
-0.98135 25.3544 4.11882
-2.8956 25.0073 8.11575
-4.15521 24.927 13.5605
-4.15521 24.927 13.5605
-2.8956 25.0073 8.11575
-3.70787 31.1074 8.55492
-1.34287 30.7835 3.72795
0.942707 31.129 0.941291
0.942707 31.129 0.941291
3.75096 30.7664 -1.36042
3.75096 30.7664 -1.36042
8.57834 31.123 -3.71605
8.57834 31.123 -3.71605
14.0272 30.7695 -4.83171
19.0067 30.7727 -4.40917
19.0067 30.7727 -4.40917
25.1825 31.0556 -1.94048
25.1825 31.0556 -1.94048
30.7417 30.7443 3.02855
32.8914 32.8508 6.78323
33.7911 30.9368 8.74675
33.7911 30.9368 8.74675
34.8348 30.7727 13.9977
34.4118 30.7882 19.0104
33.1343 31.1679 23.1352
31.5 30.997 25.9635
31.5 30.997 25.9635
29.0183 30.7458 29.0247
25.9964 30.9577 31.4816
23.1114 31.1771 33.1542
23.1114 31.1771 33.1542
19.0143 30.7732 34.4154
19.0143 30.7732 34.4154
14.0272 30.7685 34.8403
14.0272 30.7685 34.8403
8.95171 30.8196 33.8749
6.81718 32.5549 32.9705
6.81718 32.5549 32.9705
3.02829 30.7819 30.7514
3.02829 30.7819 30.7514
6.81718 32.5549 32.9705
8.95171 30.8196 33.8749
8.95171 30.8196 33.8749
14.0272 30.7685 34.8403
19.0143 30.7732 34.4154
23.1114 31.1771 33.1542
25.9964 30.9577 31.4816
25.9964 30.9577 31.4816
29.0183 30.7458 29.0247
29.0183 30.7458 29.0247
31.5 30.997 25.9635
33.1343 31.1679 23.1352
33.1343 31.1679 23.1352
34.4118 30.7882 19.0104
34.4118 30.7882 19.0104
34.8348 30.7727 13.9977
34.8348 30.7727 13.9977
33.7911 30.9368 8.74675
32.8914 32.8508 6.78323
32.8914 32.8508 6.78323
30.7417 30.7443 3.02855
30.7417 30.7443 3.02855
25.1825 31.0556 -1.94048
19.0067 30.7727 -4.40917
14.0272 30.7695 -4.83171
14.0272 30.7695 -4.83171
8.57834 31.123 -3.71605
3.75096 30.7664 -1.36042
0.942707 31.129 0.941291
-1.34287 30.7835 3.72795
-1.34287 30.7835 3.72795
-3.70787 31.1074 8.55492
-4.83263 30.7724 14.0102
-4.41651 30.7919 18.9985
-4.41651 30.7919 18.9985
-1.94882 31.0349 25.1815
-1.94882 31.0349 25.1815
-4.41651 30.7919 18.9985
-4.83263 30.7724 14.0102
-4.83263 30.7724 14.0102
-3.70787 31.1074 8.55492
-2.65945 36.1007 8.24415
-1.61678 38.6755 8.49276
-1.61678 38.6755 8.49276
-0.0084672 38.628 5.04381
-0.992095 35.6537 4.5606
-0.992095 35.6537 4.5606
-0.0084672 38.628 5.04381
2.36166 38.7041 2.34733
1.53458 35.7835 1.52054
1.53458 35.7835 1.52054
2.36166 38.7041 2.34733
4.98816 38.5639 -0.0102398
4.5688 35.6443 -1.00214
4.5688 35.6443 -1.00214
4.98816 38.5639 -0.0102398
4.98816 38.5639 -0.0102398
8.45893 38.6808 -1.60598
8.25139 36.071 -2.67387
8.25139 36.071 -2.67387
8.45893 38.6808 -1.60598
8.45893 38.6808 -1.60598
13.0626 38.6644 -2.8655
13.5924 36.2812 -3.7828
13.5924 36.2812 -3.7828
19.0677 36.0316 -3.46785
19.042 38.6626 -2.43842
19.042 38.6626 -2.43842
23.607 38.6637 -0.674328
26.153 38.7452 0.941806
27.2189 36.9365 0.787073
27.2189 36.9365 0.787073
28.9393 38.6515 3.71806
30.2037 35.37 3.41265
30.2037 35.37 3.41265
31.9076 36.6693 6.98789
31.6058 38.6625 8.43301
31.6058 38.6625 8.43301
31.9076 36.6693 6.98789
33.2397 35.5091 9.13557
33.2397 35.5091 9.13557
33.7913 36.2693 13.5928
32.8502 38.6825 12.9552
32.8502 38.6825 12.9552
33.7913 36.2693 13.5928
33.7913 36.2693 13.5928
33.2397 35.5091 9.13557
31.9076 36.6693 6.98789
31.9076 36.6693 6.98789
30.2037 35.37 3.41265
28.9393 38.6515 3.71806
28.9393 38.6515 3.71806
27.2189 36.9365 0.787073
26.153 38.7452 0.941806
26.153 38.7452 0.941806
23.607 38.6637 -0.674328
24.4058 35.8348 -1.46506
24.4058 35.8348 -1.46506
23.607 38.6637 -0.674328
23.607 38.6637 -0.674328
19.042 38.6626 -2.43842
19.0677 36.0316 -3.46785
19.0677 36.0316 -3.46785
13.5924 36.2812 -3.7828
13.0626 38.6644 -2.8655
13.0626 38.6644 -2.8655
8.45893 38.6808 -1.60598
4.98816 38.5639 -0.0102398
2.36166 38.7041 2.34733
2.36166 38.7041 2.34733
-0.0084672 38.628 5.04381
-0.0084672 38.628 5.04381
-1.61678 38.6755 8.49276
-2.65945 36.1007 8.24415
-3.76114 36.3301 13.6045
-3.76114 36.3301 13.6045
-3.45209 36.0743 19.0829
-2.20915 38.6605 20.1733
-2.20915 38.6605 20.1733
-0.653894 38.6579 23.6354
-1.46484 35.8447 24.412
-1.46484 35.8447 24.412
-0.653894 38.6579 23.6354
1.3181 38.7118 26.6341
0.788154 36.9139 27.2422
0.788154 36.9139 27.2422
1.3181 38.7118 26.6341
1.3181 38.7118 26.6341
3.94864 38.7087 29.1315
3.63377 35.5878 30.2898
3.63377 35.5878 30.2898
3.94864 38.7087 29.1315
3.94864 38.7087 29.1315
7.67175 38.696 31.2967
7.38836 36.6847 32.0943
7.38836 36.6847 32.0943
9.48063 35.3486 33.387
9.48063 35.3486 33.387
7.38836 36.6847 32.0943
7.67175 38.696 31.2967
11.0196 38.6403 32.5736
11.0196 38.6403 32.5736
14.0289 36.6102 33.7256
14.0289 36.6102 33.7256
19.1617 35.7647 33.5257
21.1487 36.7009 32.7811
21.1487 36.7009 32.7811
19.1351 38.6509 32.4317
19.1351 38.6509 32.4317
21.1487 36.7009 32.7811
24.9262 36.04 31.0932
24.8488 38.6652 29.8742
24.8488 38.6652 29.8742
24.9262 36.04 31.0932
24.9262 36.04 31.0932
28.7218 34.6617 28.735
28.7218 34.6617 28.735
31.0898 36.072 24.9165
29.8868 38.6797 24.8197
29.8868 38.6797 24.8197
31.0898 36.072 24.9165
32.7813 36.7615 21.0756
33.5181 35.7605 19.1983
33.5181 35.7605 19.1983
32.7813 36.7615 21.0756
32.4536 38.6647 18.9948
32.4536 38.6647 18.9948
32.7813 36.7615 21.0756
32.7813 36.7615 21.0756
31.0898 36.072 24.9165
31.0898 36.072 24.9165
28.7218 34.6617 28.735
24.9262 36.04 31.0932
21.1487 36.7009 32.7811
19.1617 35.7647 33.5257
19.1617 35.7647 33.5257
14.0289 36.6102 33.7256
11.0196 38.6403 32.5736
7.67175 38.696 31.2967
7.67175 38.696 31.2967
3.94864 38.7087 29.1315
1.3181 38.7118 26.6341
-0.653894 38.6579 23.6354
-0.653894 38.6579 23.6354
-2.20915 38.6605 20.1733
-3.45209 36.0743 19.0829
-3.45209 36.0743 19.0829
-3.76114 36.3301 13.6045
-2.65945 36.1007 8.24415
-1.06022 40.5629 9.71129
1.19132 42.156 7.52328
3.7701 44.4631 7.1839
3.7701 44.4631 7.1839
3.61505 41.5677 3.60333
6.96503 41.9018 1.21657
7.69161 44.4461 3.31636
7.69161 44.4461 3.31636
6.96503 41.9018 1.21657
9.7225 40.8864 -0.813676
11.1095 43.5569 0.854563
14.008 44.2794 1.11178
14.008 44.2794 1.11178
13.5663 41.5393 -1.15058
13.5663 41.5393 -1.15058
14.008 44.2794 1.11178
19.1859 44.3302 1.899
20.1694 43.089 0.84679
20.1694 43.089 0.84679
18.8879 41.1754 -0.959453
18.8879 41.1754 -0.959453
20.1694 43.089 0.84679
19.1859 44.3302 1.899
19.1859 44.3302 1.899
14.008 44.2794 1.11178
11.1095 43.5569 0.854563
11.1095 43.5569 0.854563
9.7225 40.8864 -0.813676
9.7225 40.8864 -0.813676
6.96503 41.9018 1.21657
6.96503 41.9018 1.21657
3.61505 41.5677 3.60333
3.61505 41.5677 3.60333
3.7701 44.4631 7.1839
1.19132 42.156 7.52328
1.19132 42.156 7.52328
-1.06022 40.5629 9.71129
-1.01035 41.7286 13.5929
1.11525 44.2842 14.0016
1.11525 44.2842 14.0016
1.93942 44.3487 19.229
0.835825 43.0937 20.1215
0.835825 43.0937 20.1215
-0.954111 41.1885 18.9114
-0.954111 41.1885 18.9114
0.835825 43.0937 20.1215
1.93942 44.3487 19.229
3.91192 44.4626 23.1878
2.83998 41.8222 25.2008
2.83998 41.8222 25.2008
4.79105 40.2659 28.7517
8.47477 41.371 29.888
6.82575 43.6335 27.1027
7.19072 44.463 26.2437
7.19072 44.463 26.2437
6.82575 43.6335 27.1027
6.82575 43.6335 27.1027
8.47477 41.371 29.888
8.47477 41.371 29.888
13.5865 41.7308 31.0131
14.0087 44.282 28.8935
17.0138 44.2524 28.8568
17.0138 44.2524 28.8568
19.1341 41.5593 30.6113
19.1341 41.5593 30.6113
17.0138 44.2524 28.8568
21.4738 44.4063 27.2908
24.8509 44.4453 24.5063
26.0313 42.2589 26.0183
26.0313 42.2589 26.0183
29.0434 41.1044 23.7541
29.0434 41.1044 23.7541
26.0313 42.2589 26.0183
23.7562 41.0869 29.0565
23.7562 41.0869 29.0565
26.0313 42.2589 26.0183
24.8509 44.4453 24.5063
27.3483 44.4007 21.3867
27.3483 44.4007 21.3867
28.8616 44.2389 17.0177
28.8967 44.2784 13.9888
28.8967 44.2784 13.9888
30.9066 41.7858 13.2629
30.9066 41.7858 13.2629
29.8809 41.2552 8.21199
28.8201 40.2417 4.86464
28.8201 40.2417 4.86464
29.8809 41.2552 8.21199
27.1185 43.598 6.80704
26.6886 44.4148 7.64075
26.6886 44.4148 7.64075
27.1185 43.598 6.80704
24.2734 44.4423 4.79262
25.1488 41.736 2.70239
25.1488 41.736 2.70239
24.2734 44.4423 4.79262
24.2734 44.4423 4.79262
27.1185 43.598 6.80704
27.1185 43.598 6.80704
29.8809 41.2552 8.21199
29.8809 41.2552 8.21199
30.9066 41.7858 13.2629
28.8967 44.2784 13.9888
28.8616 44.2389 17.0177
30.6053 41.5654 19.1354
30.6053 41.5654 19.1354
28.8616 44.2389 17.0177
28.8616 44.2389 17.0177
27.3483 44.4007 21.3867
24.8509 44.4453 24.5063
24.8509 44.4453 24.5063
21.4738 44.4063 27.2908
21.4738 44.4063 27.2908
17.0138 44.2524 28.8568
14.0087 44.282 28.8935
14.0087 44.282 28.8935
13.5865 41.7308 31.0131
13.5865 41.7308 31.0131
8.47477 41.371 29.888
4.79105 40.2659 28.7517
4.79105 40.2659 28.7517
2.83998 41.8222 25.2008
3.91192 44.4626 23.1878
3.91192 44.4626 23.1878
1.93942 44.3487 19.229
1.93942 44.3487 19.229
1.11525 44.2842 14.0016
-1.01035 41.7286 13.5929
-1.01035 41.7286 13.5929
-1.06022 40.5629 9.71129
4.1849 45.511 8.83884
8.33879 47.5084 8.48666
11.07 49.1975 11.0586
13.536 48.675 8.33243
15.013 49.5753 10.9526
15.013 49.5753 10.9526
13.9969 49.8906 13.9846
10.9649 49.5793 15.0014
8.24455 48.6729 13.8817
8.24455 48.6729 13.8817
10.9649 49.5793 15.0014
10.9649 49.5793 15.0014
13.9969 49.8906 13.9846
13.9969 49.8906 13.9846
17.7105 49.7483 14.3222
17.0367 49.782 17.0247
17.0367 49.782 17.0247
14.3338 49.7513 17.6995
12.9849 49.1578 20.0478
12.9849 49.1578 20.0478
8.73127 48.3777 19.097
8.73127 48.3777 19.097
12.9849 49.1578 20.0478
14.0226 47.2344 24.7811
18.697 46.7468 24.9059
19.0492 44.511 28.1265
19.0492 44.511 28.1265
18.697 46.7468 24.9059
18.697 46.7468 24.9059
23.5461 45.7133 23.6992
23.5461 45.7133 23.6992
18.697 46.7468 24.9059
14.0226 47.2344 24.7811
11.1044 44.5324 28.1496
8.52619 46.1019 24.561
4.9923 44.956 23.6466
4.9923 44.956 23.6466
3.70162 45.8912 18.8278
3.70162 45.8912 18.8278
4.9923 44.956 23.6466
8.52619 46.1019 24.561
8.52619 46.1019 24.561
11.1044 44.5324 28.1496
11.1044 44.5324 28.1496
14.0226 47.2344 24.7811
14.0226 47.2344 24.7811
12.9849 49.1578 20.0478
14.3338 49.7513 17.6995
14.3338 49.7513 17.6995
17.0367 49.782 17.0247
19.5064 48.8149 19.5154
19.5064 48.8149 19.5154
17.0367 49.782 17.0247
17.7105 49.7483 14.3222
20.2529 49.0586 12.611
20.2529 49.0586 12.611
18.9092 48.3163 8.47565
18.9092 48.3163 8.47565
20.2529 49.0586 12.611
24.8348 47.1303 13.5101
28.1236 44.5142 10.9764
28.1236 44.5142 10.9764
24.3553 45.9923 7.89582
23.1031 44.9213 4.50152
23.1031 44.9213 4.50152
18.8553 45.8843 3.70513
18.8553 45.8843 3.70513
23.1031 44.9213 4.50152
24.3553 45.9923 7.89582
24.3553 45.9923 7.89582
28.1236 44.5142 10.9764
24.8348 47.1303 13.5101
24.8348 47.1303 13.5101
24.9014 46.74 18.7271
28.1437 44.5291 18.9062
28.1437 44.5291 18.9062
24.9014 46.74 18.7271
24.9014 46.74 18.7271
24.8348 47.1303 13.5101
20.2529 49.0586 12.611
17.7105 49.7483 14.3222
17.7105 49.7483 14.3222
13.9969 49.8906 13.9846
15.013 49.5753 10.9526
13.536 48.675 8.33243
13.536 48.675 8.33243
11.07 49.1975 11.0586
11.07 49.1975 11.0586
8.33879 47.5084 8.48666
8.33879 47.5084 8.48666
8.69531 45.3602 4.13825
8.69531 45.3602 4.13825
13.604 46.354 3.74966
13.604 46.354 3.74966
8.69531 45.3602 4.13825
8.33879 47.5084 8.48666
4.1849 45.511 8.83884
3.60474 46.2338 13.5791
3.60474 46.2338 13.5791
4.1849 45.511 8.83884
0 1
1 2
2 3
3 4
4 5
5 6
6 7
7 8
8 9
9 10
10 11
11 12
12 13
13 14
14 15
15 16
16 17
17 18
18 19
19 20
20 21
21 22
22 23
23 24
24 25
25 26
26 27
27 28
28 29
29 30
30 31
31 32
32 33
33 34
34 35
35 36
36 37
37 38
38 39
39 40
40 41
41 42
42 43
43 44
44 45
45 46
46 47
47 48
48 49
49 50
50 51
51 52
52 53
53 54
54 55
55 56
56 57
57 58
58 59
59 60
60 61
61 62
62 63
63 64
64 65
65 66
66 67
67 68
68 69
69 70
70 71
71 72
72 73
73 74
74 75
75 76
76 77
77 78
78 79
79 80
80 81
81 82
82 83
83 84
84 85
85 86
86 87
87 88
88 89
89 90
90 91
91 92
92 93
93 94
94 95
95 96
96 97
97 98
98 99
99 100
100 101
101 102
102 103
103 104
104 105
105 106
106 107
107 108
108 109
109 110
110 111
111 112
112 113
113 114
114 115
115 116
116 117
117 118
118 119
119 120
120 121
121 122
122 123
123 124
124 125
125 126
126 127
127 128
128 129
129 130
130 131
131 132
132 133
133 134
134 135
135 136
136 137
137 138
138 139
139 140
140 141
141 142
142 143
143 144
144 145
145 146
146 147
147 148
148 149
149 150
150 151
151 152
152 153
153 154
154 155
155 156
156 157
157 158
158 159
159 160
160 161
161 162
162 163
163 164
164 165
165 166
166 167
167 168
168 169
169 170
170 171
171 172
172 173
173 174
174 175
175 176
176 177
177 178
178 179
179 180
180 181
181 182
182 183
183 184
184 185
185 186
186 187
187 188
188 189
189 190
190 191
191 192
192 193
193 194
194 195
195 196
196 197
197 198
198 199
199 200
200 201
201 202
202 203
203 204
204 205
205 206
206 207
207 208
208 209
209 210
210 211
211 212
212 213
213 214
214 215
215 216
216 217
217 218
218 219
219 220
220 221
221 222
222 223
223 224
224 225
225 226
226 227
227 228
228 229
229 230
230 231
231 232
232 233
233 234
234 235
235 236
236 237
237 238
238 239
239 240
240 241
241 242
242 243
243 244
244 245
245 246
246 247
247 248
248 249
249 250
250 251
251 252
252 253
253 254
254 255
255 256
256 257
257 258
258 259
259 260
260 261
261 262
262 263
263 264
264 265
265 266
266 267
267 268
268 269
269 270
270 271
271 272
272 273
273 274
274 275
275 276
276 277
277 278
278 279
279 280
280 281
281 282
282 283
283 284
284 285
285 286
286 287
287 288
288 289
289 290
290 291
291 292
292 293
293 294
294 295
295 296
296 297
297 298
298 299
299 300
300 301
301 302
302 303
303 304
304 305
305 306
306 307
307 308
308 309
309 310
310 311
311 312
312 313
313 314
314 315
315 316
316 317
317 318
318 319
319 320
320 321
321 322
322 323
323 324
324 325
325 326
326 327
327 328
328 329
329 330
330 331
331 332
332 333
333 334
334 335
335 336
336 337
337 338
338 339
339 340
340 341
341 342
342 343
343 344
344 345
345 346
346 347
347 348
348 349
349 350
350 351
351 352
352 353
353 354
354 355
355 356
356 357
357 358
358 359
359 360
360 361
361 362
362 363
363 364
364 365
365 366
366 367
367 368
368 369
369 370
370 371
371 372
372 373
373 374
374 375
375 376
376 377
377 378
378 379
379 380
380 381
381 382
382 383
383 384
384 385
385 386
386 387
387 388
388 389
389 390
390 391
391 392
392 393
393 394
394 395
395 396
396 397
397 398
398 399
399 400
400 401
401 402
402 403
403 404
404 405
405 406
406 407
407 408
408 409
409 410
410 411
411 412
412 413
413 414
414 415
415 416
416 417
417 418
418 419
419 420
420 421
421 422
422 423
423 424
424 425
425 426
426 427
427 428
428 429
429 430
430 431
431 432
432 433
433 434
434 435
435 436
436 437
437 438
438 439
439 440
440 441
441 442
442 443
443 444
444 445
445 446
446 447
447 448
448 449
449 450
450 451
451 452
452 453
453 454
454 455
455 456
456 457
457 458
458 459
459 460
460 461
461 462
462 463
463 464
464 465
465 466
466 467
467 468
468 469
469 470
470 471
471 472
472 473
473 474
474 475
475 476
476 477
477 478
478 479
479 480
480 481
481 482
482 483
483 484
484 485
485 486
486 487
487 488
488 489
489 490
490 491
491 492
492 493
493 494
494 495
495 496
496 497
497 498
498 499
499 500
500 501
501 502
502 503
503 504
504 505
505 506
506 507
507 508
508 509
509 510
510 511
511 512
512 513
513 514
514 515
515 516
516 517
517 518
518 519
519 520
520 521
521 522
522 523
523 524
524 525
525 526
526 527
527 528
528 529
529 530
530 531
531 532
532 533
533 534
534 535
535 536
536 537
537 538
538 539
539 540
540 541
541 542
542 543
543 544
544 545
545 546
546 547
547 548
548 549
549 550
550 551
551 552
552 553
553 554
554 555
555 556
556 557
557 558
558 559
559 560
560 561
561 562
562 563
563 564
564 565
565 566
566 567
567 568
568 569
569 570
570 571
571 572
572 573
573 574
574 575
575 576
576 577
577 578
578 579
579 580
580 581
581 582
582 583
583 584
584 585
585 586
586 587
587 588
588 589
589 590
590 591
591 592
592 593
593 594
594 595
595 596
596 597
597 598
598 599
599 600
600 601
601 602
602 603
603 604
604 605
605 606
606 607
607 608
608 609
609 610
610 611
611 612
612 613
613 614
614 615
615 616
616 617
617 618
618 619
619 620
620 621
621 622
622 623
623 624
624 625
625 626
626 627
627 628
628 629
629 630
630 631
631 632
632 633
633 634
634 635
635 636
636 637
637 638
638 639
639 640
640 641
641 642
642 643
643 644
644 645
645 646
646 647
647 648
648 649
649 650
650 651
651 652
652 653
653 654
654 655
655 656
656 657
657 658
658 659
659 660
660 661
661 662
662 663
663 664
664 665
665 666
666 667
667 668
668 669
669 670
670 671
671 672
672 673
673 674
674 675
675 676
676 677
677 678
678 679
679 680
680 681
681 682
682 683
683 684
684 685
685 686
686 687
687 688
688 689
689 690
690 691
691 692
692 693
693 694
694 695
695 696
696 697
697 698
698 699
699 700
700 701
701 702
702 703
703 704
704 705
705 706
706 707
707 708
708 709
709 710
710 711
711 712
712 713
713 714
714 715
715 716
716 717
717 718
718 719
719 720
720 721
721 722
722 723
723 724
724 725
725 726
726 727
727 728
728 729
729 730
730 731
731 732
732 733
733 734
734 735
735 736
736 737
737 738
738 739
739 740
740 741
741 742
742 743
743 744
744 745
745 746
746 747
747 748
748 749
749 750
750 751
751 752
752 753
753 754
754 755
755 756
756 757
757 758
758 759
759 760
760 761
761 762
762 763
763 764
764 765
765 766
766 767
767 768
768 769
769 770
770 771
771 772
772 773
773 774
774 775
775 776
776 777
777 778
778 779
779 780
780 781
781 782
782 783
783 784
784 785
785 786
786 787
787 788
788 789
789 790
790 791
791 792
792 793
793 794
794 795
795 796
796 797
797 798
798 799
799 800
800 801
801 802
802 803
803 804
804 805
805 806
806 807
807 808
808 809
809 810
810 811
811 812
812 813
813 814
814 815
815 816
816 817
817 818
818 819
819 820
820 821
821 822
822 823
823 824
824 825
825 826
826 827
827 828
828 829
829 830
830 831
831 832
832 833
833 834
834 835
835 836
836 837
837 838
838 839
839 840
840 841
841 842
842 843
843 844
844 845
845 846
846 847
847 848
848 849
849 850
850 851
851 852
852 853
853 854
854 855
855 856
856 857
857 858
858 859
859 860
860 861
