ply
format ascii 1.0
comment Generated by Slim Ghodhbane
element vertex 299
property float x
property float y
property float z
element edge 298
property int vertex1
property int vertex2
end_header
8.25072 4.98088 9.52265
12.9032 11.4729 1.9762
13.6239 11.021 -4.71053
13.625 10.9647 -11.0393
13.4657 11.1283 -16.844
9.85532 10.1238 -25.9192
2.5041 10.3832 -31.1639
-4.65424 11.0542 -32.0189
-11.0048 10.9905 -32.024
-16.6862 11.1983 -31.8776
-23.1151 10.7659 -30.3282
-27.3811 11.9886 -27.3029
-30.2494 11.3531 -23.0276
-31.7605 10.9966 -16.6873
-31.875 11.0035 -10.9959
-31.8674 11.0542 -4.6406
-30.6804 10.944 3.06271
-28.884 10.9194 6.52877
-25.4366 11.7191 9.93675
-16.6521 10.7009 13.3349
-11.0005 11.0129 13.4784
-4.51489 11.023 13.4674
3.42768 11.2445 12.1485
9.03573 11.1321 8.77075
13.0562 5.36011 1.73422
13.625 6.29906 -4.72066
13.625 6.32389 -11.0071
13.4827 6.35653 -16.6878
9.51791 6.18642 -26.2148
2.55184 5.15831 -31.1751
-4.55598 6.21002 -32.0094
-10.9679 6.28616 -32.0217
-17.3403 5.56094 -31.6865
-16.4552 18.3744 -31.9239
-11.0427 18.3212 -32.024
-4.55421 18.3901 -32.0173
2.33777 17.9131 -31.2507
9.55575 17.5834 -26.5276
13.5001 18.2518 -16.7232
13.625 18.3247 -11.0103
13.6248 18.3818 -4.70338
13.0577 18.0406 1.95007
9.04009 19.3306 8.93263
3.04553 17.792 12.3671
-4.5629 18.4108 13.4736
-11.0116 18.3268 13.4784
-16.9764 17.7639 13.3014
-24.4521 18.707 10.7033
-30.664 18.5131 2.90381
-31.8625 18.3047 -4.72892
-31.875 18.3676 -11.0361
-31.7317 18.3996 -16.8193
-30.2526 18.8879 -22.8532
-27.8662 17.906 -26.6339
-23.519 18.4129 -30.0971
-22.2978 27.4187 -30.6929
-16.7958 32.9062 -31.8793
-11.0285 32.835 -32.0241
-4.55078 25.6479 -32.0112
3.0025 25.7908 -31.0485
9.73659 24.862 -26.5549
13.5263 25.5734 -16.5205
13.625 25.6432 -11.0274
12.769 33.392 -4.53309
11.7103 33.1724 3.08475
9.35442 31.2815 8.60252
2.61813 25.6454 12.4854
-4.6298 25.648 13.4657
-11.0319 25.5894 13.4784
-16.6425 25.6823 13.3446
-24.9304 25.2662 10.5158
-30.5604 24.3339 3.55573
-31.8652 25.6305 -4.60393
-31.875 32.878 -11.0056
-31.7283 33.0058 -16.735
-26.6766 33.1188 -26.2986
-22.7725 32.5086 -30.4431
-16.6872 25.6725 -31.8807
-10.9928 25.6117 -32.024
-4.62407 32.913 -32.0207
2.3346 33.3615 -31.2105
9.70914 32.2599 -26.5598
12.6614 33.2531 -16.9109
13.0208 33.2645 -10.9835
13.6189 25.6189 -4.65327
12.3144 25.8912 3.3284
8.93211 25.6764 8.83752
3.23874 33.709 11.6064
-4.64746 39.9722 13.0328
-10.8841 40.0856 13.144
-16.6503 40.0469 12.9923
-25.0725 40.648 10.2705
-30.8044 40.2828 2.98675
-31.6765 40.2706 -4.54375
-31.7262 40.2457 -10.9794
-31.6618 40.2281 -16.6725
-27.1801 39.739 -26.3141
-16.9378 36.7995 -28.4645
-11.0747 40.1688 -31.8663
-4.66504 40.2406 -31.8533
2.79147 40.9166 -31.0265
10.1184 41.3539 -25.5735
13.0903 40.246 -16.8777
13.3718 40.1665 -11.0403
13.3138 40.1975 -4.56873
12.0974 40.0639 3.41279
8.76342 40.0068 8.97988
2.28766 39.3733 11.9442
5.84698 35.3325 5.00482
3.07892 45.0803 12.6704
-4.59975 44.4454 13.4693
-10.8327 49.136 15.4343
-16.4221 44.5161 13.3885
-17.0172 43.2918 14.6916
-10.9218 44.3682 13.4732
-3.97752 49.1739 15.3346
1.86321 49.5774 15.0232
9.97666 49.5857 10.8705
13.151 46.7957 5.01386
13.611 44.5175 -4.60712
13.6184 44.4452 -11.0933
13.4192 44.576 -16.8391
12.7949 48.7904 -25.6086
9.92548 49.8237 -30.0995
2.89716 48.9923 -33.1637
-4.31982 47.1525 -33.2111
-11.1107 47.0654 -33.0801
-16.652 47.3872 -33.112
-25.1715 47.819 -31.0822
-27.7215 44.3109 -26.851
-31.527 46.9848 -24.773
-33.1439 47.5312 -16.9667
-32.9045 46.9702 -10.8813
-33.0346 47.1995 -4.17193
-32.8256 48.6217 2.96126
-30.1642 49.3067 9.24108
-25.884 47.2948 12.1639
-16.5113 48.9674 15.4654
-11.8804 43.4383 14.6523
-10.8445 54.6437 15.4828
-10.8139 60.5189 15.4443
-3.70447 60.4615 15.3284
1.36214 60.6048 15.1106
10.465 61.8613 10.0921
15.3759 60.274 1.75922
15.6859 54.6954 -4.17601
15.5783 54.6664 -10.8245
15.4445 54.6664 -16.877
14.7492 53.5026 -22.3317
13.3116 54.8044 -25.6029
9.45865 55.5751 -30.4163
2.8615 54.8566 -33.5194
-4.31611 61.2628 -33.7544
-10.9608 61.5565 -33.5186
-16.4921 61.1347 -33.6621
-26.4111 60.1649 -31.3396
-32.0099 55.7384 -24.9735
-33.9242 54.8077 -16.6874
-33.8795 54.7548 -10.8486
-33.7661 54.6568 -3.94247
-33.216 54.8401 2.61242
-30.3376 54.8106 9.14528
-25.6453 55.0053 13.2379
-16.6679 54.6671 15.516
-16.7808 60.8288 15.4466
-26.1143 61.692 11.9719
-32.5655 61.2164 3.59456
-33.5235 61.3187 -4.00366
-33.6342 61.1132 -10.8429
-33.7797 60.7871 -16.4585
-31.9258 61.6385 -24.9736
-29.1219 54.7369 -29.1366
-25.1754 55.0678 -31.8089
-16.8655 54.7767 -33.8406
-10.7875 54.6375 -33.9755
-4.16815 54.6796 -34.0824
2.44371 60.9102 -33.4266
9.4451 60.5503 -30.4471
13.0566 60.9382 -25.9822
15.39 60.5264 -17.0432
15.5138 60.7186 -11.0241
15.6482 60.5125 -4.08915
15.4468 55.0425 1.74755
14.162 55.0685 5.97377
10.8444 56.1229 10.2371
5.35 56.2217 14.0598
-3.84414 54.614 15.368
1.7165 54.7348 15.094
5.05008 62.387 13.2785
-4.89051 65.4069 13.4701
-10.9263 68.765 13.1122
-16.1384 65.532 13.4367
-25.3928 68.0885 10.2122
-31.1189 67.7652 2.39963
-31.6037 68.5745 -4.72294
-31.6443 68.4889 -11.1003
-31.4539 68.6776 -16.4724
-29.7206 69.4596 -23.2195
-27.5353 69.0251 -26.5943
-22.9991 69.5268 -30.2342
-16.4858 68.6803 -31.5655
-10.9514 68.5765 -31.7448
-4.53195 68.5945 -31.7501
2.25576 68.2752 -31.2356
4.46846 71.1547 -28.8409
9.84392 68.1258 -26.4211
13.1369 68.628 -16.7263
13.3144 68.6771 -11.0293
13.3657 68.532 -4.7009
13.0816 64.3082 4.23623
7.97392 68.3211 9.83823
2.6291 68.6027 12.178
-4.41428 68.6292 13.1128
-10.1277 65.4656 13.4729
-16.6085 68.8782 12.954
-8.28015 65.7229 14.7983
-4.21764 66.2014 14.6728
-4.79262 76.8167 10.5143
-10.6194 77.2191 10.2692
-20.7989 77.7779 6.65894
-25.194 76.4384 3.24915
-29.1041 72.9007 -4.21761
-29.1083 72.9253 -11.0047
-27.8883 75.6638 -16.8504
-24.4017 76.0931 -25.4282
-15.342 72.841 -29.0819
-10.656 77.6166 -28.2233
-4.84192 76.7167 -28.4238
4.08052 75.8206 -25.5184
8.1197 74.38 -24.6862
10.027 75.4599 -16.2585
10.5322 77.5848 -10.8473
10.6154 76.6102 -4.91682
9.09908 75.8698 2.6612
5.07246 78.0219 5.38241
4.64873 80.6882 7.43864
2.59284 75.1152 10.3214
3.82446 83.7176 4.50028
6.18481 85.2596 -1.47343
9.18611 82.7496 -10.2764
5.26516 85.1046 -19.6352
3.55547 82.8694 -24.1042
-5.04793 82.7085 -27.3723
-10.1007 82.7397 -27.6115
-17.313 83.0882 -26.1687
-23.6284 82.6164 -22.9419
-25.7633 82.9288 -18.1709
-27.4744 82.5824 -10.2836
-27.2064 82.485 -5.29989
-24.2824 83.02 3.02675
-16.9704 82.018 8.5255
-10.048 82.7273 9.0396
-5.4017 82.3039 9.06072
-2.35674 85.167 6.61526
-5.64371 91.5867 8.24778
-9.39425 95.58 7.50312
-18.3377 98.5511 4.21983
-24.5954 98.5334 -4.04765
-25.5105 98.0664 -10.1066
-23.5719 97.9185 -18.2521
-18.4508 92.5301 -24.96
-9.7807 91.1329 -27.2846
-4.62048 91.3452 -26.9062
3.44033 91.2634 -23.4518
4.92884 93.1001 -20.2723
5.95146 98.5768 -17.7337
7.85774 97.9482 -10.1709
6.90282 93.7986 -1.56051
3.34734 92.7071 3.88541
-1.28533 93.0741 6.66825
-6.83414 95.7504 7.44149
-9.62405 98.9456 6.723
-15.5847 91.9164 7.64576
-18.8894 92.7461 5.82041
-23.0653 91.9689 2.78578
-26.2199 92.0065 -4.20634
-26.8087 91.5279 -9.85552
-25.1849 92.0575 -18.0944
-22.6834 91.3072 -22.0719
-17.5909 97.8638 -24.3543
-9.40957 97.7656 -26.4751
-4.37787 98.7875 -25.8094
1.46067 99.2724 -23.0485
1.29965 103.663 -22.3902
3.986 105.294 -18.6646
7.07855 101.836 -11.0531
5.08942 104.969 -3.56652
1.654 104.634 1.58615
-4.33251 105.143 4.58526
-10.5444 104.268 5.35361
-17.7731 104.797 2.47522
-23.456 104.299 -5.04323
-24.0143 104.721 -11.5213
-22.9486 104.163 -16.5813
-19.8369 105.174 -20.598
-16.6938 106.011 -22.9436
-11.4156 104.551 -25.2458
-4.07526 104.278 -24.8144
-5.88528 113.086 -23.0286
0 1
1 2
2 3
3 4
4 5
5 6
6 7
7 8
8 9
9 10
10 11
11 12
12 13
13 14
14 15
15 16
16 17
17 18
18 19
19 20
20 21
21 22
22 23
23 24
24 25
25 26
26 27
27 28
28 29
29 30
30 31
31 32
32 33
33 34
34 35
35 36
36 37
37 38
38 39
39 40
40 41
41 42
42 43
43 44
44 45
45 46
46 47
47 48
48 49
49 50
50 51
51 52
52 53
53 54
54 55
55 56
56 57
57 58
58 59
59 60
60 61
61 62
62 63
63 64
64 65
65 66
66 67
67 68
68 69
69 70
70 71
71 72
72 73
73 74
74 75
75 76
76 77
77 78
78 79
79 80
80 81
81 82
82 83
83 84
84 85
85 86
86 87
87 88
88 89
89 90
90 91
91 92
92 93
93 94
94 95
95 96
96 97
97 98
98 99
99 100
100 101
101 102
102 103
103 104
104 105
105 106
106 107
107 108
108 109
109 110
110 111
111 112
112 113
113 114
114 115
115 116
116 117
117 118
118 119
119 120
120 121
121 122
122 123
123 124
124 125
125 126
126 127
127 128
128 129
129 130
130 131
131 132
132 133
133 134
134 135
135 136
136 137
137 138
138 139
139 140
140 141
141 142
142 143
143 144
144 145
145 146
146 147
147 148
148 149
149 150
150 151
151 152
152 153
153 154
154 155
155 156
156 157
157 158
158 159
159 160
160 161
161 162
162 163
163 164
164 165
165 166
166 167
167 168
168 169
169 170
170 171
171 172
172 173
173 174
174 175
175 176
176 177
177 178
178 179
179 180
180 181
181 182
182 183
183 184
184 185
185 186
186 187
187 188
188 189
189 190
190 191
191 192
192 193
193 194
194 195
195 196
196 197
197 198
198 199
199 200
200 201
201 202
202 203
203 204
204 205
205 206
206 207
207 208
208 209
209 210
210 211
211 212
212 213
213 214
214 215
215 216
216 217
217 218
218 219
219 220
220 221
221 222
222 223
223 224
224 225
225 226
226 227
227 228
228 229
229 230
230 231
231 232
232 233
233 234
234 235
235 236
236 237
237 238
238 239
239 240
240 241
241 242
242 243
243 244
244 245
245 246
246 247
247 248
248 249
249 250
250 251
251 252
252 253
253 254
254 255
255 256
256 257
257 258
258 259
259 260
260 261
261 262
262 263
263 264
264 265
265 266
266 267
267 268
268 269
269 270
270 271
271 272
272 273
273 274
274 275
275 276
276 277
277 278
278 279
279 280
280 281
281 282
282 283
283 284
284 285
285 286
286 287
287 288
288 289
289 290
290 291
291 292
292 293
293 294
294 295
295 296
296 297
297 298
