ply
format ascii 1.0
comment Generated by Slim Ghodhbane
element vertex 259
property float x
property float y
property float z
element edge 258
property int vertex1
property int vertex2
end_header
-14.4764 3.67891 -31.8372
-11.8334 11.9441 -32.0236
-5.16218 11.9906 -32.0234
-1.12894 11.2297 -31.9459
3.32155 12.038 -30.7367
9.38782 11.1972 -26.8038
13.064 11.8278 -19.2681
13.6247 11.9523 -11.837
13.6241 11.885 -4.98845
12.7284 12.0102 2.42919
9.13296 10.7268 8.70444
3.59076 12.2387 12.0728
-4.8144 11.9293 13.4689
-11.7175 11.9141 13.478
-19.3099 12.5436 12.858
-26.3289 11.8924 9.41162
-30.1508 12.4017 4.06737
-31.8667 11.9019 -4.96607
-31.8749 11.9267 -11.8572
-31.6014 11.8217 -18.3709
-27.3985 12.5405 -27.1478
-19.5247 13.0661 -31.4139
-16.4897 9.99164 -32.0108
-11.7032 6.64234 -32.0232
-5.35779 6.63984 -32.0229
-1.52782 5.77851 -31.9341
4.87564 5.91856 -30.0034
8.9554 6.99593 -27.359
13.0569 6.65366 -19.3746
13.6246 6.61117 -11.7859
13.6253 6.57284 -4.99111
13.0562 5.36011 1.73422
9.02228 4.13404 8.74755
4.71523 6.26086 11.6545
-4.86706 6.60708 13.4752
-11.6262 6.68567 13.4723
-18.692 6.46194 12.9744
-26.6312 7.27706 9.44195
-30.3494 6.84888 3.95603
-31.8666 6.83671 -4.85872
-31.8747 6.86781 -11.6294
-31.5983 6.31052 -18.1284
-28.3058 6.59022 -26.1418
-19.1134 6.18231 -31.4993
-20.19 20.0425 -31.2647
-11.791 20.0653 -32.024
-5.17326 20.0498 -32.0232
-1.10492 20.1872 -31.944
2.85378 20.0756 -31.0164
9.47143 20.0761 -26.8551
13.3843 20.118 -18.0448
13.625 20.0537 -11.7909
13.6242 20.0054 -4.93253
12.9012 19.3093 2.23602
9.07634 19.6829 8.93266
2.94689 19.6087 12.3567
-4.88923 20.0156 13.4743
-11.7274 20.0492 13.4782
-19.2832 19.9099 12.8579
-25.6187 20.3647 10.1129
-30.2768 20.3955 3.6997
-31.8642 19.9905 -4.94321
-31.8747 20.0516 -11.811
-31.5053 19.8566 -18.6286
-27.6962 20.1783 -26.6606
-27.7062 28.6935 -26.8058
-31.471 28.2234 -18.8132
-31.8747 28.0638 -11.8093
-31.8679 27.9932 -4.94189
-30.0745 28.6467 4.56172
-26.4104 29.0909 9.52526
-19.1778 28.6926 12.8947
-11.7389 28.0024 13.4782
-4.82406 28.0757 13.467
3.08627 27.0647 12.2515
9.33671 27.9794 8.52369
12.3737 27.5237 3.28866
13.6201 28.0515 -4.93382
13.6248 28.1144 -11.8174
13.373 28.1921 -18.2528
9.77923 27.8177 -26.4975
2.71674 27.696 -31.1545
-5.1949 28.114 -32.0234
-11.7469 28.0465 -32.0237
-16.3119 25.4478 -32.0096
-19.3133 28.6431 -31.4444
-18.9238 36.3242 -29.9037
-11.7457 35.9872 -32.0236
-5.08753 35.9006 -32.0234
3.00498 35.9485 -29.9385
9.83545 36.2973 -26.4149
12.2596 36.4288 -18.2905
13.0052 36.15 -11.7931
12.7413 36.1713 -4.77753
6.69055 35.4224 4.08429
3.1656 36.4513 11.3294
-4.8837 36.2709 12.5862
-14.5262 34.4915 7.27037
-19.1998 36.4482 12.2597
-26.2078 35.8205 9.3987
-29.4942 36.2555 3.9183
-30.836 36.2189 -4.81096
-30.9035 36.1331 -11.9065
-30.2296 36.3375 -18.8889
-27.5299 36.6999 -26.5377
-27.8536 43.8041 -27.6864
-31.4025 42.5846 -19.2451
-31.8201 42.7103 -11.8231
-31.782 42.5748 -4.9335
-30.9322 42.7015 3.06076
-27.1828 43.8551 9.99666
-18.4024 43.1058 13.3417
-11.8064 42.8554 13.5908
-4.94963 42.8492 13.5908
2.66366 43.0539 12.6625
8.9853 42.8418 9.17652
12.5908 43.0594 3.71707
13.7959 42.9968 -4.89706
13.742 42.9478 -11.8761
13.5137 43.3332 -18.843
10.1309 42.9163 -26.4761
3.3345 42.7999 -30.7375
-4.19111 42.6675 -31.7591
-11.8291 43.1379 -32.213
-19.0459 42.6341 -31.4336
-18.135 44.1223 -32.7915
-11.8094 43.2043 -31.7326
-4.9861 42.9179 -32.2579
2.7905 45.7607 -33.1385
3.07387 52.3991 -33.4718
-4.5466 58.9553 -34.0684
-12.0174 58.9152 -33.9492
-18.0987 58.8213 -33.7604
-24.9706 58.7211 -32.1746
-29.5463 58.5754 -28.3277
-33.7296 58.5708 -18.889
-33.8917 58.9146 -12.0213
-33.7591 59.1233 -4.31781
-33.205 58.0185 2.83622
-31.3405 56.5901 7.73709
-27.7549 52.3438 11.3691
-18.1286 52.3853 15.4514
-11.9695 58.9673 15.493
-4.28545 58.9476 15.3692
3.10041 58.7015 14.5975
10.5461 58.8988 10.4708
14.9838 58.6832 2.78437
15.6706 58.9853 -4.62618
15.5486 58.9846 -12.092
15.3144 58.8563 -18.4601
11.2374 58.5888 -28.3846
2.48556 58.7364 -33.622
-4.63789 52.5025 -34.0745
-12.0353 52.3292 -33.9548
-17.9736 52.3903 -33.7704
-24.5563 53.5335 -32.403
-32.1222 57.7716 -24.9568
-33.8175 52.2589 -18.2587
-33.899 52.4332 -12.0624
-33.7723 52.4693 -4.40627
-33.2063 52.2684 2.62533
-31.9082 53.7425 6.70746
-27.226 58.3806 12.0955
-18.8931 59.052 15.3186
-12.0875 52.3939 15.5026
-4.28114 52.4097 15.3748
2.77221 51.9246 14.7358
3.12502 67.5564 12.3915
-4.80962 67.6451 13.4197
-11.7956 67.9337 13.341
-18.9746 67.493 13.2441
-26.2684 67.3655 10.094
-30.2871 67.7509 3.4384
-31.6786 68.2146 -5.0319
-31.6444 68.215 -11.9898
-31.3501 68.5646 -18.4137
-27.9677 68.2487 -26.5292
-18.9589 68.8923 -31.2202
-12.1961 69.1339 -31.5146
-4.86593 69.3846 -31.3869
2.93433 68.2688 -30.8476
10.1111 67.7823 -26.5174
13.3948 67.8213 -18.0783
13.5445 67.7395 -11.8775
13.4686 67.8676 -4.87488
12.2937 68.5905 3.38459
8.90162 65.9386 9.81596
2.81452 74.8597 10.1879
5.7376 77.6862 4.56902
10.8127 76.0019 -5.22742
10.7958 76.5429 -11.6732
5.74147 77.1007 -22.3324
3.71085 74.9447 -27.468
-5.01336 75.9954 -29.2694
-11.4778 76.1544 -29.1135
-18.9162 74.9425 -28.4263
-22.5941 79.9092 -23.5542
-28.3995 75.1198 -19.1171
-29.03 76.0766 -11.8561
-29.2407 75.7554 -5.21205
-27.1814 75.2457 2.91661
-21.4366 76.6475 6.18637
-11.4737 76.0999 10.5055
-4.91444 75.8872 10.7624
-5.96001 82.2176 9.21014
-10.9658 84.1343 7.76624
-20.2603 83.2088 5.64482
-24.9652 83.0399 2.47502
-27.396 82.3615 -5.77607
-27.5303 82.383 -10.718
-25.9121 82.8997 -18.6228
-18.227 82.6632 -26.17
-10.7202 82.6428 -27.6535
-5.60904 82.6253 -27.5187
2.11798 82.8762 -25.5654
5.21237 83.4747 -21.6273
9.25098 82.6119 -10.8052
9.27523 82.2816 -5.72147
4.09293 83.4237 4.36961
-3.83576 84.5774 7.24919
-10.589 82.4396 9.15117
-17.6008 81.8838 8.69022
-23.045 86.5678 -0.498415
-20.9726 92.4632 4.27496
-10.4344 94.5247 7.63972
-5.30209 94.4444 7.49464
3.35914 93.0704 3.78987
8.63574 91.6202 -6.22947
8.70811 91.8822 -10.3178
5.81803 92.9285 -19.8144
1.8159 92.9767 -24.3962
-5.14251 91.8216 -26.9039
-10.1191 91.9849 -27.1528
-18.2148 92.672 -25.2828
-21.8357 93.4338 -22.4611
-25.2667 92.069 -18.1197
-26.6723 92.1627 -10.1517
-26.1779 92.4077 -4.84389
-24.9116 99.2519 -5.54787
-25.2874 99.0992 -10.3385
-24.1362 98.1434 -17.1373
-21.2348 99.7994 -20.6876
-17.236 97.8456 -24.7909
-10.1278 98.9074 -26.2462
-5.27589 99.4289 -25.8911
-4.44618 105.414 -24.9153
-11.6012 105.333 -25.0788
-19.6996 105.8 -20.1693
-23.5187 106.629 -12.4002
-22.3351 105.982 -3.88703
-19.3287 100.259 2.96352
-11.0177 105.988 4.81238
-4.24134 106.927 3.99217
4.78928 105.921 -3.55471
6.22541 106.771 -10.6131
4.16961 100.27 -19.6667
-0.492921 103.221 -23.0811
3.11328 106.186 -19.6293
-5.88528 113.086 -23.0286
0 1
1 2
2 3
3 4
4 5
5 6
6 7
7 8
8 9
9 10
10 11
11 12
12 13
13 14
14 15
15 16
16 17
17 18
18 19
19 20
20 21
21 22
22 23
23 24
24 25
25 26
26 27
27 28
28 29
29 30
30 31
31 32
32 33
33 34
34 35
35 36
36 37
37 38
38 39
39 40
40 41
41 42
42 43
43 44
44 45
45 46
46 47
47 48
48 49
49 50
50 51
51 52
52 53
53 54
54 55
55 56
56 57
57 58
58 59
59 60
60 61
61 62
62 63
63 64
64 65
65 66
66 67
67 68
68 69
69 70
70 71
71 72
72 73
73 74
74 75
75 76
76 77
77 78
78 79
79 80
80 81
81 82
82 83
83 84
84 85
85 86
86 87
87 88
88 89
89 90
90 91
91 92
92 93
93 94
94 95
95 96
96 97
97 98
98 99
99 100
100 101
101 102
102 103
103 104
104 105
105 106
106 107
107 108
108 109
109 110
110 111
111 112
112 113
113 114
114 115
115 116
116 117
117 118
118 119
119 120
120 121
121 122
122 123
123 124
124 125
125 126
126 127
127 128
128 129
129 130
130 131
131 132
132 133
133 134
134 135
135 136
136 137
137 138
138 139
139 140
140 141
141 142
142 143
143 144
144 145
145 146
146 147
147 148
148 149
149 150
150 151
151 152
152 153
153 154
154 155
155 156
156 157
157 158
158 159
159 160
160 161
161 162
162 163
163 164
164 165
165 166
166 167
167 168
168 169
169 170
170 171
171 172
172 173
173 174
174 175
175 176
176 177
177 178
178 179
179 180
180 181
181 182
182 183
183 184
184 185
185 186
186 187
187 188
188 189
189 190
190 191
191 192
192 193
193 194
194 195
195 196
196 197
197 198
198 199
199 200
200 201
201 202
202 203
203 204
204 205
205 206
206 207
207 208
208 209
209 210
210 211
211 212
212 213
213 214
214 215
215 216
216 217
217 218
218 219
219 220
220 221
221 222
222 223
223 224
224 225
225 226
226 227
227 228
228 229
229 230
230 231
231 232
232 233
233 234
234 235
235 236
236 237
237 238
238 239
239 240
240 241
241 242
242 243
243 244
244 245
245 246
246 247
247 248
248 249
249 250
250 251
251 252
252 253
253 254
254 255
255 256
256 257
257 258
