ply
format ascii 1.0
comment Generated by Slim Ghodhbane
element vertex 19
property float x
property float y
property float z
element edge 18
property int vertex1
property int vertex2
end_header
-10.5514 -0.0582956 -2.37414
-10.8195 -3.6212 2.06123
-7.43571 -4.68603 4.04984
-6.53401 -0.0434522 5.8148
-7.1759 2.45202 5.3533
-9.83132 5.03186 1.86995
-8.92285 4.98543 -0.753806
-7.30694 3.20999 -0.999426
-6.50715 -0.150365 -1.83075
-7.84667 -4.1309 2.04086
-9.3014 -4.80544 1.82383
-13.7746 -1.38667 2.13582
-13.1117 1.98354 1.98767
-9.98106 2.3747 -1.75711
-13.4317 0.543293 -0.140348
-12.5846 1.25528 4.89395
-9.46066 -0.501759 6.79892
-5.66387 -1.34633 1.6446
-5.614 2.46347 1.69209
0 1
1 2
2 3
3 4
4 5
5 6
6 7
7 8
8 9
9 10
10 11
11 12
12 13
13 14
14 15
15 16
16 17
17 18
