ply
format ascii 1.0
comment Generated by Slim Ghodhbane
element vertex 98
property float x
property float y
property float z
element edge 97
property int vertex1
property int vertex2
end_header
-2.36754 -17.5216 -0.915676
-1.81199 -21.1097 2.54439
-0.826789 -20.682 5.29478
2.54157 -18.1252 6.3864
4.92606 -14.4657 4.64832
4.49478 -5.08583 -0.369347
3.2579 -1.7008 -1.84286
2.77024 2.80035 -1.85732
2.67232 5.40774 -1.70996
2.79412 10.116 -1.2135
1.67277 13.4252 -1.12862
-2.67651 16.9392 1.00654
-4.05054 16.8999 5.08405
-2.56573 16.5311 7.25969
1.57595 10.5279 8.18718
1.69446 5.13733 8.25801
0.494272 -1.20229 8.52506
-1.26842 -10.7667 8.31643
-1.4462 -15.1916 8.18415
-2.02092 -18.6309 6.34208
1.03249 -20.6151 5.30773
1.82884 -21.045 2.15262
1.96374 -18.0256 -0.974165
2.46652 -15.0215 -1.63132
1.74787 -9.90078 -2.17246
2.86384 -5.77193 -1.50847
4.53948 -1.72512 -0.712558
5.07184 2.12479 1.43425
5.05499 7.79067 4.44395
4.56359 10.3706 5.53113
3.23332 14.1562 6.95415
3.04896 16.8791 6.36447
0.950867 20.644 4.87784
-0.654647 20.741 4.99735
-1.59175 20.2327 3.42655
-3.73203 15.2966 1.57831
-4.31571 13.4255 1.89356
-4.92195 10.0096 2.33577
-5.02131 5.27938 1.83867
-5.07134 2.05455 1.37657
-4.78524 -3.96534 0.00856912
-4.49507 -5.08651 -0.368603
-2.25802 -9.40592 -1.83753
-2.40799 -15.0035 -1.58846
-3.78772 -18.4766 1.39352
-4.49563 -16.7979 4.68159
-3.76223 -15.2513 6.65837
-2.81942 -11.8543 7.2647
-0.739341 -1.22491 8.49377
-1.80362 5.27896 8.16389
-2.83101 11.4234 7.23594
-2.55354 14.1655 7.52796
-1.18749 16.2286 8.04275
2.92102 17.1843 1.35589
3.63147 14.4043 0.946381
4.85461 10.0777 1.91755
4.47807 0.312235 4.85585
4.39726 -2.07163 5.05908
4.56708 -5.00236 4.24551
4.82027 -15.0371 1.53022
3.79163 -18.468 1.38481
-4.46254 -17.1785 2.07168
-4.82102 -15.0343 1.52665
-4.59785 -1.75473 -0.648793
-4.56362 1.45125 -0.763843
-4.61073 4.20239 -0.188694
-4.2125 9.22354 -0.154933
-1.94009 13.682 -0.810456
4.4299 13.1888 2.23923
4.38086 12.8891 5.62291
3.21518 10.7943 6.54088
-0.15783 9.77444 8.48919
-4.64931 9.98304 5.34485
-5.15244 7.79403 4.05125
-3.16892 -1.26248 -1.92165
-2.56188 -5.74038 -1.68362
4.46262 -17.1785 2.07084
4.33082 -17.2292 4.67076
3.01048 -14.4234 7.35723
1.11113 -10.4408 8.34251
-2.62126 -4.47103 6.02675
-4.32398 -2.05972 5.14765
-4.41117 0.635216 5.49773
-4.66056 12.6817 4.94316
-2.93438 10.1272 -1.12065
-2.5758 5.20924 -1.79167
-2.89409 2.82804 -1.90468
-4.41748 -5.11203 4.40416
-4.91564 -14.4494 4.69338
0.923508 -14.9081 8.38413
2.75206 -4.49917 5.97227
2.6443 1.88787 5.73539
3.27648 5.10065 2.37716
4.91976 5.44448 1.57693
4.5186 4.2371 -0.327924
4.01892 1.96099 -1.51992
4.93752 -2.30658 0.0969613
-4.73518 -5.65869 1.42944
0 1
1 2
2 3
3 4
4 5
5 6
6 7
7 8
8 9
9 10
10 11
11 12
12 13
13 14
14 15
15 16
16 17
17 18
18 19
19 20
20 21
21 22
22 23
23 24
24 25
25 26
26 27
27 28
28 29
29 30
30 31
31 32
32 33
33 34
34 35
35 36
36 37
37 38
38 39
39 40
40 41
41 42
42 43
43 44
44 45
45 46
46 47
47 48
48 49
49 50
50 51
51 52
52 53
53 54
54 55
55 56
56 57
57 58
58 59
59 60
60 61
61 62
62 63
63 64
64 65
65 66
66 67
67 68
68 69
69 70
70 71
71 72
72 73
73 74
74 75
75 76
76 77
77 78
78 79
79 80
80 81
81 82
82 83
83 84
84 85
85 86
86 87
87 88
88 89
89 90
90 91
91 92
92 93
93 94
94 95
95 96
96 97
