ply
format ascii 1.0
comment Generated by Slim Ghodhbane
element vertex 20
property float x
property float y
property float z
element edge 19
property int vertex1
property int vertex2
end_header
-1.12266 -1.58238 -4.7466
-3.64686 -0.781121 -4.06109
-3.58812 2.01665 -3.89955
-1.61384 1.61976 -5.28962
-1.22465 3.5491 -5.36919
-5.74775 -0.828745 -1.58992
-5.89362 1.83231 -1.59311
-6.00782 1.83797 1.31853
-5.9469 -0.547272 1.35908
-3.62876 2.01665 3.86176
-1.66915 1.61976 5.27243
-1.28081 3.5491 5.35606
-1.18665 -1.57985 4.73297
-3.51609 -1.26447 3.79887
1.85245 0.870429 5.75453
4.29733 1.0758 3.99533
5.16661 0.908521 1.81955
5.24203 0.956744 -1.46145
4.33893 1.0758 -3.95011
1.91311 0.870583 -5.73467
0 1
1 2
2 3
3 4
4 5
5 6
6 7
7 8
8 9
9 10
10 11
11 12
12 13
13 14
14 15
15 16
16 17
17 18
18 19
