ply
format ascii 1.0
comment Generated by Slim Ghodhbane
element vertex 72
property float x
property float y
property float z
element edge 71
property int vertex1
property int vertex2
end_header
2.87658 -0.914827 5.14957
5.23427 2.15888 2.16318
5.60808 2.14295 -1.51975
1.49391 2.498 -6.63983
-2.39555 1.83604 -5.55718
-4.73529 2.04799 -1.51809
-4.77857 2.04266 1.66748
-4.4149 -0.229621 -1.26316
-4.33833 -0.352065 1.80581
-2.32203 2.00842 6.09105
1.17178 2.79025 6.89102
4.39209 2.41575 4.70494
4.93938 -0.296098 2.12436
4.1711 -0.200121 4.25845
5.5337 -0.270453 -0.955243
4.72447 2.5022 -4.75522
4.54143 5.83273 -4.75579
5.34339 6.02448 -1.79596
5.23385 6.03376 2.03723
5.27217 9.71676 1.7424
-2.38963 10.1718 5.09392
-3.62424 9.99234 3.53044
-4.57187 9.59696 1.5209
-3.60836 9.73848 -3.52516
-2.38776 10.2574 -4.97074
-4.53991 9.63028 -1.63099
-3.40224 7.17375 -3.24087
-2.44594 6.09006 -5.28173
-3.12045 7.84673 1.80104
-2.60562 6.21001 5.58101
-4.00996 8.76283 4.06376
-4.89044 6.4255 1.80049
-4.75519 6.07031 -1.95885
1.87692 9.78298 -6.10567
5.26011 9.6988 -1.88217
4.5732 5.40333 4.5778
2.04904 5.8375 6.84375
1.64497 10.2644 6.40197
4.6392 9.31123 4.98914
3.76281 11.1645 2.78681
4.88346 13.7847 1.48917
4.89009 13.8148 -1.52
3.36165 13.8578 -3.6116
1.57398 13.42 -5.63028
-1.61396 13.5878 -5.23152
-3.48888 14.9368 -2.41811
-1.47828 13.7954 5.16599
1.59058 13.6363 5.35885
2.90307 14.6185 3.27394
-3.57363 14.22 3.0189
-4.6301 13.3754 2.1857
-4.58134 13.3081 -2.28493
3.75324 11.0812 -3.25259
4.32898 14.1436 -4.1943
4.15203 14.235 4.17719
1.61225 17.2963 5.32349
-1.22875 17.1078 5.02262
-3.08676 17.6931 2.46885
-4.21807 16.8735 -1.51347
-3.44763 17.5009 -2.38283
-4.42966 16.8125 1.11886
-1.63422 20.9946 1.79744
1.97638 21.4277 1.21957
4.79735 17.5066 1.68678
4.68543 17.611 -2.07887
4.05037 20.063 -1.46697
1.54178 21.5131 -1.4657
-1.5218 21.1156 -1.95071
-1.34261 17.3871 -5.42571
1.35256 18.0632 -5.67117
3.86232 19.0061 -3.73165
3.86823 19.8528 2.60897
0 1
1 2
2 3
3 4
4 5
5 6
6 7
7 8
8 9
9 10
10 11
11 12
12 13
13 14
14 15
15 16
16 17
17 18
18 19
19 20
20 21
21 22
22 23
23 24
24 25
25 26
26 27
27 28
28 29
29 30
30 31
31 32
32 33
33 34
34 35
35 36
36 37
37 38
38 39
39 40
40 41
41 42
42 43
43 44
44 45
45 46
46 47
47 48
48 49
49 50
50 51
51 52
52 53
53 54
54 55
55 56
56 57
57 58
58 59
59 60
60 61
61 62
62 63
63 64
64 65
65 66
66 67
67 68
68 69
69 70
70 71
