ply
format ascii 1.0
comment Generated by Slim Ghodhbane
element vertex 232
property float x
property float y
property float z
element edge 231
property int vertex1
property int vertex2
end_header
-11.4513 -3.80519 -86.6175
-28.5081 8.63715 -98.5891
-48.5583 29.7086 -103.796
-50.3531 52.1886 -103.791
-49.6104 87.1932 -103.796
-49.9999 120.428 -103.795
-49.4255 155.27 -103.79
-49.7099 188.703 -103.785
-47.2518 208.691 -102.446
-51.1818 224.012 -108.358
-50.9331 259.076 -111.471
-51.631 292.447 -109.332
-47.8109 309.711 -103.143
-49.9498 321.147 -103.867
-52.6573 322.402 -100.219
-89.9607 322.751 -91.7131
-106.649 311.632 -71.1543
-106.343 311.863 -61.6707
-103.147 309.269 -46.5704
-103.085 308.523 -20.2701
-102.14 321.972 -21.827
-101.997 320.944 -51.1398
-111.111 287.861 -52.4537
-111.34 259.115 -51.06
-110.48 230.229 -49.228
-105.628 205.939 -62.0629
-101.612 192.229 -49.8764
-101.632 192.992 -20.6846
-103.051 210.918 -20.5561
-110.262 230.854 -19.1466
-110.791 258.69 -17.8259
-110.088 289.167 -18.5857
-107.697 290.257 12.8155
-90.6318 295.219 32.4076
-76.9834 284.099 37.1905
-77.6925 261.638 37.1668
-84.9103 237.504 35.5985
-89.3887 210.973 24.9884
-89.3482 189.153 19.26
-87.9389 154.927 20.7407
-91.9615 119.669 18.2233
-89.884 84.3062 19.9588
-90.7378 50.2648 18.4339
-83.7868 21.5866 18.5378
-49.7096 29.3336 29.5756
-21.6187 22.0652 27.3851
-14.2564 -2.3504 14.3752
17.2699 21.8266 18.7943
21.5109 53.8744 17.4281
19.6991 86.0357 19.3824
16.9361 122.246 19.4318
18.3851 156.129 17.8918
13.9299 190.678 20.5521
20.8226 224.233 24.8711
8.10322 239.451 35.8963
8.88687 265.621 35.495
9.52687 286.63 35.4062
17.6745 301.914 25.8729
16.3202 324.249 18.1371
10.6361 363.691 7.7139
2.11321 391.493 3.64784
-25.298 391.552 11.7347
-44.8542 394.213 12.3511
-73.375 401.574 5.72431
-84.7167 393.457 -25.3077
-86.2813 393.514 -43.9961
-76.5467 394.708 -75.5621
-79.7493 368.676 -81.8039
-46.4795 366.913 -90.8022
-23.1046 364.783 -91.9308
11.6202 365.849 -77.1291
18.1601 365.284 -46.0695
17.8536 365.393 -24.3436
13.3257 396.333 -28.929
12.8602 394.773 -43.8549
4.95126 390.101 -73.6141
-26.7032 393.205 -86.4365
-42.9147 394.97 -86.7623
-43.3179 431.067 -83.9508
-48.167 462.512 -78.0262
-48.3139 492.223 -74.1631
-56.0346 521.031 -62.8922
-69.8305 492.242 -54.6262
-68.2445 492.109 -57.7607
-67.1409 480.178 -66.5712
-77.0637 464.195 -40.3809
-74.6887 464.897 -25.2796
-57.6846 467.307 -4.04798
-37.6023 462.66 2.90713
-29.7131 463.018 2.6407
-4.72101 467.902 -7.74667
7.80375 452.796 -31.269
10.6087 429.962 -41.2139
6.38516 423.18 -70.729
-23.4281 430.758 -82.7799
-19.7578 466.155 -77.0305
-2.60435 469.903 -68.1248
6.52255 464.567 -41.1168
8.57384 430.125 -21.2051
-5.12029 443.979 -0.890821
-24.8349 429.567 8.0328
-42.81 431.542 8.21573
-80.5673 428.119 -21.2324
-82.2484 431.563 -41.8415
-73.7103 431.031 -73.3671
0.161982 450.849 -71.3735
1.91061 491.311 -46.5508
-4.39571 499.492 -62.9303
-10.6005 498.108 -70.5403
-18.5695 533.541 -30.3102
-9.29412 496.303 -12.8319
-57.6423 495.746 -11.5363
-72.3955 488.44 -32.6643
-90.5493 366.428 -45.8591
-90.1024 366.607 -22.2507
-83.0851 365.821 5.65963
-46.7242 364.537 18.042
-24.442 364.925 17.5846
-20.1795 321.283 27.9991
-19.7495 308.599 30.2798
-18.1901 287.055 37.0177
-17.0785 258.065 37.1968
-18.3135 230.887 36.8139
-50.3104 210.692 29.6717
-49.8994 192.581 27.9742
-49.9064 155.974 29.6015
-49.7477 121.403 29.6133
-49.9875 84.8341 29.5971
-49.8543 51.4791 29.6047
-19.9472 51.1597 29.5959
-21.6711 87.3063 29.6079
-20.4295 121.074 29.5753
-20.7817 155.508 29.6069
-20.1267 192.763 28.0978
-19.9529 210.558 29.7164
-52.7499 232.271 37.6188
-50.944 258.232 37.7513
-50.9018 286.615 37.4315
-50.5724 308.774 29.5177
-49.5634 321.35 28.1621
-88.2097 318.466 17.9866
-108.618 258.417 8.54593
-109.03 235.338 7.53671
-98.2779 258.779 27.2743
-102.926 211.111 -50.2598
-110.046 227.007 -76.2341
-96.0859 216.88 -93.9234
-81.9214 225.675 -107.774
-69.1035 205.349 -104.532
-52.2607 198.313 -96.8372
-31.6468 208.419 -102.439
-18.9863 224.519 -109.303
12.0746 230.087 -108.545
22.4544 217.183 -91.2313
19.3348 193.127 -85.9501
20.5479 156.256 -91.427
22.2 119.987 -90.306
20.1253 82.6366 -89.3462
16.6782 50.2799 -92.6494
13.6253 26.2764 -96.9978
-21.2132 30.0772 -103.795
-21.4369 51.4162 -103.795
-20.5634 85.5781 -103.788
-20.484 121.099 -103.778
-20.8687 155.974 -103.793
-20.575 189.947 -103.794
-16.3083 200.866 -98.7649
-18.7844 258.351 -111.997
-19.3783 292.453 -109.815
-21.3414 320.445 -103.924
-18.1321 323.616 -100.367
20.7184 322.175 -87.8206
31.345 291.799 -91.9133
28.2622 267.862 -97.4773
13.1444 259.439 -109.038
9.30055 292.561 -108.533
37.1928 283.761 -75.8866
37.7907 285.513 -52.1186
38.1201 286.897 -18.1654
36.5542 284.379 10.4181
37.4147 257.662 6.3813
37.1566 232.945 9.07147
30.4879 210.329 -18.6264
28.5374 192.171 -20.7346
30.1723 154.623 -21.1529
30.1715 120.723 -20.0196
30.197 85.5069 -21.1331
30.1984 51.715 -20.9044
27.5146 21.4722 -23.0188
29.1649 25.3566 -50.8994
30.1887 52.0779 -49.6618
30.1979 87.2602 -50.0469
30.2 121.817 -49.9793
30.1969 156.216 -50.1653
28.8629 192.654 -50.0113
30.3851 211.547 -51.3303
37.684 232.026 -51.1328
37.8587 258.239 -52.5175
36.4301 257.315 -79.3202
36.7197 231.498 -74.5892
38.0595 231.967 -19.6754
38.3922 258.451 -19.9695
29.9794 309.195 -19.7608
28.8791 321.749 -20.3146
29.2044 319.823 -50.737
30.1809 308.477 -52.3442
22.8531 256.472 30.1561
-2.57381 153.209 -103.324
-2.59602 118.875 -103.34
-68.419 137.187 -103.462
-68.289 138.707 -103.476
-90.5212 155.385 -91.1854
-89.7465 192.685 -90.7691
-110.123 256.639 -79.6649
-110.532 286.051 -80.922
-100.921 268.867 -98.9305
-82.4034 258.915 -108.872
-86.6294 283.497 -107.447
-103.199 155.044 -50.5218
-103.2 121.158 -51.0823
-103.196 86.5343 -49.6703
-103.19 52.0661 -51.4089
-103.109 29.039 -49.544
-103.2 29.1548 -21.6418
-103.176 51.591 -21.569
-103.148 86.931 -20.2748
-103.192 122.559 -22.3794
-103.184 156.206 -21.7391
-89.6829 122.058 -94.0688
-93.2322 86.0186 -88.8372
-91.1797 52.3035 -94.2087
-91.4448 28.3354 -92.9035
0 1
1 2
2 3
3 4
4 5
5 6
6 7
7 8
8 9
9 10
10 11
11 12
12 13
13 14
14 15
15 16
16 17
17 18
18 19
19 20
20 21
21 22
22 23
23 24
24 25
25 26
26 27
27 28
28 29
29 30
30 31
31 32
32 33
33 34
34 35
35 36
36 37
37 38
38 39
39 40
40 41
41 42
42 43
43 44
44 45
45 46
46 47
47 48
48 49
49 50
50 51
51 52
52 53
53 54
54 55
55 56
56 57
57 58
58 59
59 60
60 61
61 62
62 63
63 64
64 65
65 66
66 67
67 68
68 69
69 70
70 71
71 72
72 73
73 74
74 75
75 76
76 77
77 78
78 79
79 80
80 81
81 82
82 83
83 84
84 85
85 86
86 87
87 88
88 89
89 90
90 91
91 92
92 93
93 94
94 95
95 96
96 97
97 98
98 99
99 100
100 101
101 102
102 103
103 104
104 105
105 106
106 107
107 108
108 109
109 110
110 111
111 112
112 113
113 114
114 115
115 116
116 117
117 118
118 119
119 120
120 121
121 122
122 123
123 124
124 125
125 126
126 127
127 128
128 129
129 130
130 131
131 132
132 133
133 134
134 135
135 136
136 137
137 138
138 139
139 140
140 141
141 142
142 143
143 144
144 145
145 146
146 147
147 148
148 149
149 150
150 151
151 152
152 153
153 154
154 155
155 156
156 157
157 158
158 159
159 160
160 161
161 162
162 163
163 164
164 165
165 166
166 167
167 168
168 169
169 170
170 171
171 172
172 173
173 174
174 175
175 176
176 177
177 178
178 179
179 180
180 181
181 182
182 183
183 184
184 185
185 186
186 187
187 188
188 189
189 190
190 191
191 192
192 193
193 194
194 195
195 196
196 197
197 198
198 199
199 200
200 201
201 202
202 203
203 204
204 205
205 206
206 207
207 208
208 209
209 210
210 211
211 212
212 213
213 214
214 215
215 216
216 217
217 218
218 219
219 220
220 221
221 222
222 223
223 224
224 225
225 226
226 227
227 228
228 229
229 230
230 231
