ply
format ascii 1.0
comment Generated by Slim Ghodhbane
element vertex 13
property float x
property float y
property float z
element edge 12
property int vertex1
property int vertex2
end_header
1.95159 -5.40552 -0.570937
2.77841 -7.11492 1.47484
3.94473 -8.01805 1.92249
4.69538 -8.2225 1.25817
5.5224 -7.43794 1.40299
8.56392 -2.96577 -0.946836
6.56806 -0.930921 -1.84492
1.81699 0.225503 -0.721517
1.09913 -2.72171 -1.29758
7.38236 -6.73719 4.09723
6.68728 -2.38552 5.32213
4.767 0.470971 5.16611
1.91349 -2.49283 4.91346
0 1
1 2
2 3
3 4
4 5
5 6
6 7
7 8
8 9
9 10
10 11
11 12
