ply
format ascii 1.0
comment Generated by Slim Ghodhbane
element vertex 586
property double x
property double y
property double z
property uchar red
property uchar green
property uchar blue
property uchar alpha
element face 1116
property list uchar int vertex_index
end_header
-0.016312 -3.37741 -0.04374 0 250 0 250
-0.088506 -3.41042 -0.054945 0 250 0 250
-0.133614 -3.43531 -0.04797 0 250 0 250
-0.15854 -3.4527 -0.054945 0 250 0 250
-0.204552 -3.48242 -0.047385 0 250 0 250
-0.216356 -3.50568 -0.037665 0 250 0 250
-0.257288 -3.50023 -0.054945 0 250 0 250
-0.317939 -3.52451 -0.054945 0 250 0 250
-0.437922 -3.5703 -0.054945 0 250 0 250
-0.45247 -3.57957 -0.046035 0 250 0 250
-0.536247 -3.60338 -0.049185 0 250 0 250
-0.60012 -3.63596 -0.035685 0 250 0 250
-0.718002 -3.62256 -0.0549 0 250 0 250
-0.682736 -3.64455 -0.036225 0 250 0 250
-0.653009 -3.63299 -0.04158 0 250 0 250
-0.606848 -3.61436 -0.054945 0 250 0 250
-0.860404 -3.65424 -0.038925 0 250 0 250
-0.922126 -3.6442 -0.04644 0 250 0 250
-0.924215 -3.63924 -0.054945 0 250 0 250
-0.94613 -3.65053 -0.04761 0 250 0 250
-0.992574 -3.6427 -0.054945 0 250 0 250
-1.04508 -3.67065 -0.034875 0 250 0 250
-1.04354 -3.648 -0.055035 0 250 0 250
-1.11712 -3.6545 -0.04644 0 250 0 250
-1.13325 -3.6491 -0.05535 0 250 0 250
-1.16032 -3.64703 -0.054945 0 250 0 250
-1.21089 -3.65413 -0.048105 0 250 0 250
-1.24958 -3.64945 -0.0549 0 250 0 250
-1.30979 -3.65804 -0.040455 0 250 0 250
-1.57545 -3.64693 -0.037215 0 250 0 250
-1.81537 -3.60189 -0.03924 0 250 0 250
-1.78112 -3.62832 -0.030645 0 250 0 250
-1.76994 -3.59245 -0.054945 0 250 0 250
-1.9764 -3.48523 -0.0549 0 250 0 250
-1.1774 -3.6769 0.99828 0 250 0 250
-0.754178 -3.67249 0.868995 0 250 0 250
-1.07953 -3.67471 0.941805 0 250 0 250
-1.08953 -3.67503 0.884475 0 250 0 250
-0.972743 -3.67524 0.90711 0 250 0 250
-0.794858 -3.67923 0.866925 0 250 0 250
-1.23764 -3.67462 0.947475 0 250 0 250
-0.875529 -3.67208 0.90549 0 250 0 250
-0.70186 -3.6712 0.800865 0 250 0 250
-1.13455 -3.68293 0.939645 0 250 0 250
-0.365125 -3.63151 0.72432 0 250 0 250
-0.957888 -3.67009 0.861255 0 250 0 250
-0.851206 -3.67622 0.85725 0 250 0 250
-0.660618 -3.68678 0.709785 0 250 0 250
-0.483129 -3.66688 0.724905 0 250 0 250
-0.590886 -3.66895 0.7704 0 250 0 250
-1.21602 -3.69078 0.90621 0 250 0 250
-1.05221 -3.70176 0.78516 0 250 0 250
-1.04194 -3.68812 0.85491 0 250 0 250
-0.416353 -3.65259 0.689895 0 250 0 250
-0.358052 -3.63551 0.65052 0 250 0 250
-0.997898 -3.68137 0.859995 0 250 0 250
-1.28506 -3.69054 0.869175 0 250 0 250
-0.915498 -3.68409 0.80082 0 250 0 250
-0.758515 -3.68083 0.79668 0 250 0 250
-0.827892 -3.68057 0.792045 0 250 0 250
-1.42355 -3.67772 0.88047 0 250 0 250
-0.26338 -3.61995 0.61803 0 250 0 250
-0.277704 -3.62947 0.562905 0 250 0 250
-1.33812 -3.69645 0.9126 0 250 0 250
-0.49694 -3.66884 0.66645 0 250 0 250
-0.732195 -3.69112 0.72414 0 250 0 250
-0.542763 -3.67077 0.70569 0 250 0 250
-1.36969 -3.69764 0.84627 0 250 0 250
-1.12711 -3.68952 0.85716 0 250 0 250
-0.602406 -3.6866 0.71748 0 250 0 250
-1.2304 -3.69212 0.87147 0 250 0 250
-0.539806 -3.68054 0.627165 0 250 0 250
-1.44988 -3.69521 0.82404 0 250 0 250
-0.213336 -3.61041 0.53811 0 250 0 250
-0.339079 -3.65132 0.58986 0 250 0 250
-1.01218 -3.69641 0.77814 0 250 0 250
-1.5017 -3.68703 0.878175 0 250 0 250
-1.39186 -3.70387 0.78489 0 250 0 250
-1.1346 -3.70179 0.7839 0 250 0 250
-0.831177 -3.69993 0.727605 0 250 0 250
-0.91507 -3.69597 0.759465 0 250 0 250
-1.22937 -3.70328 0.82377 0 250 0 250
-0.748958 -3.70022 0.67869 0 250 0 250
-0.892044 -3.69742 0.69606 0 250 0 250
-0.699003 -3.69162 0.653175 0 250 0 250
-0.603873 -3.68763 0.659115 0 250 0 250
-0.305393 -3.65397 0.477315 0 250 0 250
-0.383697 -3.66138 0.588555 0 250 0 250
-0.467761 -3.66502 0.63558 0 250 0 250
-0.23319 -3.61733 0.42372 0 250 0 250
-0.426551 -3.66826 0.559125 0 250 0 250
-0.36103 -3.6645 0.51984 0 250 0 250
-1.58648 -3.67879 0.83601 0 250 0 250
-1.54033 -3.69924 0.79254 0 250 0 250
-1.49558 -3.70257 0.76266 0 250 0 250
-1.2877 -3.70777 0.82755 0 250 0 250
-1.17556 -3.70848 0.771525 0 250 0 250
-1.24912 -3.71262 0.74241 0 250 0 250
-1.03109 -3.70307 0.709695 0 250 0 250
-0.95567 -3.70356 0.712755 0 250 0 250
-0.807039 -3.69901 0.662985 0 250 0 250
-0.542592 -3.69804 0.57933 0 250 0 250
-1.21654 -3.70626 0.69705 0 250 0 250
-1.10908 -3.71213 0.71649 0 250 0 250
-0.653157 -3.70546 0.612045 0 250 0 250
-1.04872 -3.71954 0.66852 0 250 0 250
-0.141948 -3.59426 0.331965 0 250 0 250
-0.378945 -3.66894 0.453195 0 250 0 250
-0.773905 -3.72081 0.60255 0 250 0 250
-0.715945 -3.71352 0.58329 0 250 0 250
-0.293292 -3.64473 0.40158 0 250 0 250
-0.197721 -3.61605 0.344475 0 250 0 250
-0.475177 -3.68811 0.480465 0 250 0 250
-1.43598 -3.71129 0.749745 0 250 0 250
-1.10999 -3.71689 0.66852 0 250 0 250
-0.857462 -3.71055 0.670995 0 250 0 250
-0.965556 -3.7137 0.664245 0 250 0 250
-0.322601 -3.65389 0.360585 0 250 0 250
-0.102888 -3.58158 0.24165 0 250 0 250
-0.060048 -3.55067 0.291105 0 250 0 250
-0.817691 -3.70913 0.621945 0 250 0 250
-0.53703 -3.7011 0.522855 0 250 0 250
-1.34119 -3.71969 0.73431 0 250 0 250
-0.155516 -3.59535 0.27558 0 250 0 250
-1.02884 -3.71693 0.6273 0 250 0 250
-1.64925 -3.68615 0.71775 0 250 0 250
-1.6574 -3.67532 0.76365 0 250 0 250
-0.241312 -3.63875 0.25524 0 250 0 250
-0.782622 -3.73185 0.537885 0 250 0 250
-1.82498 -3.64855 0.75492 0 250 0 250
-1.27721 -3.72661 0.66519 0 250 0 250
-1.18552 -3.71696 0.645075 0 250 0 250
-1.12111 -3.72767 0.622845 0 250 0 250
-0.888048 -3.72242 0.60345 0 250 0 250
-0.828932 -3.75267 0.42795 0 250 0 250
-0.67167 -3.70716 0.55017 0 250 0 250
-0.586805 -3.7246 0.445545 0 250 0 250
-1.74748 -3.65755 0.753345 0 250 0 250
-1.73389 -3.67768 0.720405 0 250 0 250
-1.33276 -3.72512 0.659655 0 250 0 250
-0.44105 -3.69003 0.40032 0 250 0 250
-0.820926 -3.72499 0.54666 0 250 0 250
-0.646083 -3.72035 0.500445 0 250 0 250
-1.98877 -3.59894 0.80712 0 250 0 250
-1.51102 -3.69693 0.702765 0 250 0 250
-0.929025 -3.73066 0.609165 0 250 0 250
-0.740538 -3.73519 0.46269 0 250 0 250
-0.679613 -3.73955 0.390105 0 250 0 250
-1.42739 -3.71515 0.660195 0 250 0 250
-1.47401 -3.70761 0.65304 0 250 0 250
-0.308565 -3.6662 0.280575 0 250 0 250
-1.16777 -3.72294 0.58518 0 250 0 250
-0.713453 -3.72871 0.507465 0 250 0 250
-2.02044 -3.59487 0.743625 0 250 0 250
-1.92048 -3.62233 0.756405 0 250 0 250
-0.375075 -3.68234 0.30807 0 250 0 250
-0.282456 -3.65442 0.206865 0 250 0 250
-0.485523 -3.692 0.42813 0 250 0 250
-0.987458 -3.72652 0.60345 0 250 0 250
-1.58267 -3.6885 0.67977 0 250 0 250
-1.69935 -3.67648 0.61731 0 250 0 250
-1.80563 -3.6589 0.717705 0 250 0 250
-0.350424 -3.69527 0.216315 0 250 0 250
-0.015714 -3.54086 0.218205 0 250 0 250
-1.07292 -3.73631 0.583065 0 250 0 250
-0.887067 -3.75118 0.43893 0 250 0 250
-1.55106 -3.70765 0.642645 0 250 0 250
-0.058028 -3.56743 0.142335 0 250 0 250
-0.556479 -3.7271 0.37368 0 250 0 250
-1.36359 -3.71422 0.587835 0 250 0 250
-0.231898 -3.63808 0.17901 0 250 0 250
-0.155628 -3.60473 0.18657 0 250 0 250
-1.97557 -3.61657 0.7407 0 250 0 250
-1.23802 -3.73066 0.601695 0 250 0 250
-0.968049 -3.74195 0.53766 0 250 0 250
-0.907663 -3.73691 0.53163 0 250 0 250
-0.748881 -3.74952 0.407025 0 250 0 250
-1.45915 -3.72564 0.58554 0 250 0 250
-0.484227 -3.71222 0.30996 0 250 0 250
-1.71776 -3.67545 0.66465 0 250 0 250
-1.7723 -3.68062 0.574965 0 250 0 250
-1.91964 -3.63391 0.7182 0 250 0 250
0.046355 -3.49322 0.108495 0 250 0 250
-0.545238 -3.73261 0.29439 0 250 0 250
-0.956129 -3.73903 0.48744 0 250 0 250
-1.29825 -3.72786 0.57978 0 250 0 250
-1.96291 -3.62479 0.68562 0 250 0 250
-0.419387 -3.70756 0.27801 0 250 0 250
-0.352948 -3.68918 0.14697 0 250 0 250
-0.020016 -3.54315 0.13815 0 250 0 250
-1.23934 -3.75367 0.52452 0 250 0 250
-1.14412 -3.74381 0.541755 0 250 0 250
-2.06847 -3.59207 0.658125 0 250 0 250
-1.91658 -3.63092 0.65475 0 250 0 250
-0.273033 -3.65262 0.13941 0 250 0 250
-0.084487 -3.5779 0.113535 0 250 0 250
0.076005 -3.48927 0.031365 0 250 0 250
-1.31587 -3.73562 0.51372 0 250 0 250
-1.51583 -3.71646 0.581355 0 250 0 250
-1.80065 -3.666 0.652905 0 250 0 250
-0.146754 -3.59917 0.12546 0 250 0 250
-1.01781 -3.75285 0.499905 0 250 0 250
-0.854145 -3.76582 0.36954 0 250 0 250
-0.655542 -3.73529 0.356805 0 250 0 250
-1.581 -3.70966 0.561015 0 250 0 250
-1.39627 -3.73026 0.53442 0 250 0 250
-0.212674 -3.64108 0.120105 0 250 0 250
-0.020965 -3.54551 0.032625 0 250 0 250
0.042282 -3.49184 0.012825 0 250 0 250
-1.07858 -3.75406 0.50436 0 250 0 250
-0.944662 -3.75456 0.3969 0 250 0 250
-0.759839 -3.7519 0.342315 0 250 0 250
-2.15867 -3.55994 0.622845 0 250 0 250
-1.62262 -3.70161 0.59868 0 250 0 250
-0.957807 -3.7528 0.4455 0 250 0 250
-2.08071 -3.59167 0.62037 0 250 0 250
-1.66426 -3.70341 0.56889 0 250 0 250
-1.36954 -3.75223 0.473445 0 250 0 250
-2.01815 -3.61165 0.653625 0 250 0 250
-0.326934 -3.68929 0.087435 0 250 0 250
-0.191007 -3.63916 0.044775 0 250 0 250
-0.17991 -3.63126 0.081765 0 250 0 250
-0.027121 -3.54175 0.017775 0 250 0 250
-0.602302 -3.74479 0.259065 0 250 0 250
-0.480406 -3.72153 0.2457 0 250 0 250
-1.14073 -3.74384 0.474345 0 250 0 250
-0.891401 -3.76653 0.26685 0 250 0 250
-1.54218 -3.71049 0.51228 0 250 0 250
-0.155164 -3.62332 0.027225 0 250 0 250
-0.252468 -3.67447 0.034515 0 250 0 250
-0.106821 -3.59255 0.05625 0 250 0 250
-0.053401 -3.46981 -0.017325 0 250 0 250
-0.550903 -3.73207 0.18378 0 250 0 250
-1.66889 -3.70423 0.517455 0 250 0 250
-0.427815 -3.71386 0.164475 0 250 0 250
-0.403303 -3.70085 0.12438 0 250 0 250
-0.141687 -3.61381 0.041265 0 250 0 250
-0.284427 -3.68783 0.02322 0 250 0 250
-0.084213 -3.57646 0.02025 0 250 0 250
0.004657 -3.41508 -0.023445 0 250 0 250
-0.044663 -3.40983 -0.034605 0 250 0 250
-1.01116 -3.7676 0.395865 0 250 0 250
-0.685116 -3.76483 0.275445 0 250 0 250
-0.798088 -3.7626 0.29097 0 250 0 250
-2.09259 -3.59803 0.581985 0 250 0 250
-2.25604 -3.39053 0.49212 0 250 0 250
-1.48308 -3.72706 0.49023 0 250 0 250
-0.207185 -3.62969 0.00981 0 250 0 250
-0.222466 -3.57725 -0.016065 0 250 0 250
-0.093821 -3.56773 0.01044 0 250 0 250
-1.20268 -3.75296 0.495855 0 250 0 250
-0.933903 -3.76927 0.32202 0 250 0 250
-0.828189 -3.75991 0.263295 0 250 0 250
-1.01929 -3.76837 0.330795 0 250 0 250
-1.53687 -3.73342 0.45882 0 250 0 250
-2.01123 -3.62207 0.60525 0 250 0 250
-1.92906 -3.64018 0.61623 0 250 0 250
-0.382243 -3.71833 0.0297 0 250 0 250
-0.338265 -3.71014 0.03456 0 250 0 250
-0.160628 -3.60311 0.00864 0 250 0 250
-0.084712 -3.48391 -0.0189 0 250 0 250
-0.639922 -3.76152 0.22203 0 250 0 250
-2.31124 -3.0957 0.345465 0 250 0 250
-2.27137 -3.30993 0.44721 0 250 0 250
-1.69355 -3.71294 0.443205 0 250 0 250
-1.64382 -3.7295 0.44946 0 250 0 250
-0.418064 -3.71908 0.05148 0 250 0 250
-0.325696 -3.69115 0.01323 0 250 0 250
-0.292869 -3.64925 0.0009 0 250 0 250
-0.254601 -3.62961 0.000585 0 250 0 250
-0.234725 -3.58358 -0.014715 0 250 0 250
-0.055021 -3.38653 -0.054945 0 250 0 250
-1.24214 -3.75892 0.454095 0 250 0 250
-2.16776 -3.53869 0.567135 0 250 0 250
-1.81397 -3.66396 0.582795 0 250 0 250
-1.73509 -3.69212 0.525465 0 250 0 250
-1.86459 -3.65807 0.588555 0 250 0 250
-0.37512 -3.69804 0.00837 0 250 0 250
-0.348066 -3.71332 0.02583 0 250 0 250
-0.346774 -3.6694 -0.00072 0 250 0 250
-0.249831 -3.52466 -0.03546 0 250 0 250
-0.284292 -3.53124 -0.03942 0 250 0 250
-0.095823 -3.51621 -0.00945 0 250 0 250
-0.714546 -3.77164 0.20412 0 250 0 250
-2.20132 -3.46784 0.529155 0 250 0 250
-2.29444 -3.14922 0.41391 0 250 0 250
-1.32783 -3.74942 0.442035 0 250 0 250
-1.98233 -3.62332 0.5661 0 250 0 250
-0.472261 -3.73 0.110745 0 250 0 250
-0.411021 -3.70845 0.0099 0 250 0 250
-0.362394 -3.58943 -0.031275 0 250 0 250
-0.336735 -3.56154 -0.036855 0 250 0 250
-1.0931 -3.76353 0.35118 0 250 0 250
-0.989199 -3.7633 0.28836 0 250 0 250
-1.34948 -3.74741 0.40851 0 250 0 250
-1.4201 -3.74899 0.44307 0 250 0 250
-0.505849 -3.71614 0.16974 0 250 0 250
-0.447309 -3.73088 0.01944 0 250 0 250
-0.388553 -3.60324 -0.027495 0 250 0 250
-0.168431 -3.50514 -0.02853 0 250 0 250
-1.13363 -3.75911 0.405765 0 250 0 250
-1.76867 -3.68106 0.51066 0 250 0 250
-1.20062 -3.75691 0.347175 0 250 0 250
-1.23241 -3.76479 0.384885 0 250 0 250
-0.79762 -3.76403 0.20718 0 250 0 250
-2.0355 -3.62263 0.53415 0 250 0 250
-2.28335 -3.22619 0.42516 0 250 0 250
-2.29946 -3.18347 0.349155 0 250 0 250
-2.24385 -3.37971 0.40356 0 250 0 250
-0.60228 -3.7586 0.15102 0 250 0 250
-0.378117 -3.55768 -0.05409 0 250 0 250
-0.952236 -3.77599 0.236295 0 250 0 250
-0.894064 -3.78324 0.20979 0 250 0 250
-2.08855 -3.58669 0.518445 0 250 0 250
-1.47983 -3.75118 0.39672 0 250 0 250
-1.44234 -3.76234 0.36477 0 250 0 250
-0.495986 -3.74397 0.04716 0 250 0 250
-0.499999 -3.73506 0.01305 0 250 0 250
-0.6601 -3.75648 0.187965 0 250 0 250
-2.2626 -3.31729 0.387855 0 250 0 250
-1.38128 -3.75937 0.368685 0 250 0 250
-1.87328 -3.66987 0.524025 0 250 0 250
-1.93456 -3.67122 0.491085 0 250 0 250
-1.07196 -3.77195 0.289755 0 250 0 250
-2.17006 -3.50134 0.49446 0 250 0 250
-2.18365 -3.48191 0.42966 0 250 0 250
-2.30654 -3.13604 0.28413 0 250 0 250
-1.76365 -3.6982 0.463725 0 250 0 250
-1.5772 -3.74058 0.42543 0 250 0 250
-1.93188 -3.64914 0.54819 0 250 0 250
-0.509899 -3.75102 0.098145 0 250 0 250
-0.578956 -3.77157 0.084195 0 250 0 250
-0.435852 -3.60783 -0.030825 0 250 0 250
-0.917469 -3.78251 0.15705 0 250 0 250
-2.27634 -3.27881 0.33093 0 250 0 250
-1.6812 -3.7369 0.39069 0 250 0 250
-1.49844 -3.75646 0.353835 0 250 0 250
-0.479254 -3.70901 0.00288 0 250 0 250
-0.507199 -3.60489 -0.04608 0 250 0 250
-0.771178 -3.77806 0.14175 0 250 0 250
-2.12642 -3.54271 0.44829 0 250 0 250
-2.21545 -3.42923 0.423585 0 250 0 250
-2.3082 -3.09479 0.24174 0 250 0 250
-2.26193 -3.31361 0.30483 0 250 0 250
-2.22399 -3.41344 0.34074 0 250 0 250
-0.690084 -3.77875 0.111015 0 250 0 250
-2.28328 -3.21552 0.246375 0 250 0 250
-0.549261 -3.74558 0.00936 0 250 0 250
-0.997317 -3.78438 0.199215 0 250 0 250
-0.829598 -3.78262 0.16029 0 250 0 250
-1.99946 -3.65052 0.40356 0 250 0 250
-1.80819 -3.6949 0.431325 0 250 0 250
-1.62123 -3.75635 0.3366 0 250 0 250
-0.539559 -3.75937 0.033075 0 250 0 250
-1.1467 -3.76817 0.27621 0 250 0 250
-2.0426 -3.61792 0.453375 0 250 0 250
-1.88484 -3.68254 0.461835 0 250 0 250
-0.590189 -3.77117 0.020025 0 250 0 250
-0.704318 -3.78206 0.057735 0 250 0 250
-2.10312 -3.57799 0.402615 0 250 0 250
-2.29869 -3.16617 0.21537 0 250 0 250
-1.97579 -3.6561 0.48366 0 250 0 250
-0.629033 -3.77558 0.05985 0 250 0 250
-0.52884 -3.65617 -0.023265 0 250 0 250
-1.24191 -3.77147 0.28494 0 250 0 250
-0.795177 -3.78206 0.050895 0 250 0 250
-2.25722 -3.32358 0.24975 0 250 0 250
-2.22824 -3.39984 0.226485 0 250 0 250
-1.72975 -3.73967 0.317295 0 250 0 250
-1.28044 -3.76706 0.34362 0 250 0 250
-0.610277 -3.74705 0.00459 0 250 0 250
-1.35485 -3.76303 0.28116 0 250 0 250
-1.5417 -3.74935 0.270495 0 250 0 250
-1.43109 -3.75527 0.28323 0 250 0 250
-1.10256 -3.78506 0.234225 0 250 0 250
-0.692415 -3.78529 0.026865 0 250 0 250
-0.757526 -3.78524 0.019845 0 250 0 250
-2.17569 -3.50573 0.37188 0 250 0 250
-2.25353 -3.27969 0.15759 0 250 0 250
-1.8068 -3.69798 0.383895 0 250 0 250
-1.86417 -3.70796 0.309375 0 250 0 250
-1.49591 -3.76267 0.2349 0 250 0 250
-1.40022 -3.76652 0.23175 0 250 0 250
-0.635139 -3.78331 0.02466 0 250 0 250
-0.615195 -3.68446 -0.019035 0 250 0 250
-0.948497 -3.80322 0.098955 0 250 0 250
-0.852601 -3.79182 0.076545 0 250 0 250
-2.23782 -3.21197 0.049005 0 250 0 250
-1.91098 -3.69045 0.385155 0 250 0 250
-1.05919 -3.78843 0.152145 0 250 0 250
-1.1006 -3.78458 0.16263 0 250 0 250
-0.663516 -3.77062 0.0126 0 250 0 250
-1.7294 -3.74174 0.257355 0 250 0 250
-0.640809 -3.72484 -0.00585 0 250 0 250
-2.28341 -3.14928 0.145305 0 250 0 250
-1.20687 -3.78762 0.217665 0 250 0 250
-1.29415 -3.76974 0.24345 0 250 0 250
-1.13827 -3.79643 0.117225 0 250 0 250
-0.726741 -3.75514 0.003015 0 250 0 250
-0.833773 -3.79837 0.030735 0 250 0 250
-0.795911 -3.75789 0.00468 0 250 0 250
-1.98161 -3.67398 0.32607 0 250 0 250
-2.227 -3.2643 0.05355 0 250 0 250
-1.75568 -3.7378 0.209835 0 250 0 250
-1.6657 -3.74923 0.24633 0 250 0 250
-1.61911 -3.76333 0.171405 0 250 0 250
-1.56941 -3.75674 0.20196 0 250 0 250
-0.882378 -3.80886 0.025875 0 250 0 250
-0.77116 -3.6884 -0.019665 0 250 0 250
-0.847075 -3.75346 -0.001845 0 250 0 250
-2.22551 -3.37542 0.130815 0 250 0 250
-2.20832 -3.43991 0.215595 0 250 0 250
-2.2178 -3.40864 0.15588 0 250 0 250
-1.03202 -3.80102 0.08118 0 250 0 250
-1.1136 -3.79763 0.07371 0 250 0 250
-0.8073 -3.64562 -0.03924 0 250 0 250
-2.11126 -3.58644 0.308205 0 250 0 250
-2.06902 -3.62917 0.34416 0 250 0 250
-1.79829 -3.72103 0.284985 0 250 0 250
-1.50361 -3.76739 0.16767 0 250 0 250
-1.42938 -3.77561 0.20736 0 250 0 250
-0.99576 -3.81184 0.02745 0 250 0 250
-0.914161 -3.81005 0.02088 0 250 0 250
-0.767979 -3.62321 -0.054945 0 250 0 250
-0.734747 -3.6286 -0.043245 0 250 0 250
-2.17448 -3.50826 0.274905 0 250 0 250
-2.16359 -3.50399 0.195885 0 250 0 250
-2.05826 -3.62833 0.27693 0 250 0 250
-2.21035 -3.20189 0.005985 0 250 0 250
-2.21017 -3.24005 0.01251 0 250 0 250
-2.14336 -3.06288 -0.035595 0 250 0 250
-2.22544 -3.18841 0.013455 0 250 0 250
-2.17393 -3.47935 0.134415 0 250 0 250
-1.8522 -3.72261 0.20412 0 250 0 250
-1.26363 -3.78199 0.170415 0 250 0 250
-1.05972 -3.79517 0.01692 0 250 0 250
-0.916052 -3.71769 -0.01674 0 250 0 250
-2.2123 -3.3017 0.033975 0 250 0 250
-1.88955 -3.70502 0.282555 0 250 0 250
-1.34821 -3.77503 0.212355 0 250 0 250
-1.69868 -3.75994 0.165285 0 250 0 250
-1.53382 -3.77167 0.135675 0 250 0 250
-1.00298 -3.76912 0.00171 0 250 0 250
-0.946953 -3.78068 0.00531 0 250 0 250
-2.20386 -3.31801 0.02457 0 250 0 250
-2.19718 -3.35893 0.056295 0 250 0 250
-1.12071 -3.80624 0.022455 0 250 0 250
-2.14334 -3.13671 -0.02853 0 250 0 250
-2.12417 -3.11989 -0.041625 0 250 0 250
-2.18898 -3.33087 0.01539 0 250 0 250
-2.18035 -3.44036 0.080505 0 250 0 250
-0.952214 -3.70715 -0.020565 0 250 0 250
-1.06125 -3.72153 -0.01737 0 250 0 250
-1.09802 -3.78565 0.005625 0 250 0 250
-2.11068 -3.59565 0.24246 0 250 0 250
-2.1743 -3.2537 -0.001755 0 250 0 250
-1.49397 -3.78025 0.12825 0 250 0 250
-1.43323 -3.78257 0.15327 0 250 0 250
-1.29014 -3.7937 0.12861 0 250 0 250
-0.997407 -3.67042 -0.03411 0 250 0 250
-2.07582 -3.61322 0.165375 0 250 0 250
-2.17996 -3.38469 0.031185 0 250 0 250
-1.34951 -3.78703 0.14553 0 250 0 250
-1.07828 -3.65379 -0.047025 0 250 0 250
-1.99158 -3.66082 0.265635 0 250 0 250
-2.1424 -3.27192 -0.01224 0 250 0 250
-2.16581 -3.45862 0.03663 0 250 0 250
-2.13989 -3.5344 0.051885 0 250 0 250
-1.18552 -3.81346 0.02277 0 250 0 250
-1.11371 -3.68854 -0.031365 0 250 0 250
-2.03177 -3.6477 0.18675 0 250 0 250
-2.14337 -3.42059 0.0027 0 250 0 250
-1.90167 -3.70748 0.20097 0 250 0 250
-1.80759 -3.74245 0.167265 0 250 0 250
-1.38857 -3.79478 0.096075 0 250 0 250
-1.23217 -3.79883 0.072 0 250 0 250
-1.24907 -3.80795 0.03942 0 250 0 250
-1.13018 -3.78141 0.00333 0 250 0 250
-2.11888 -3.57232 0.181485 0 250 0 250
-2.1347 -3.54858 0.11574 0 250 0 250
-2.16972 -3.42032 0.02214 0 250 0 250
-2.15691 -3.35045 0.0036 0 250 0 250
-2.10604 -3.37463 -0.0198 0 250 0 250
-2.15275 -3.48692 0.02133 0 250 0 250
-1.90706 -3.71625 0.122625 0 250 0 250
-1.73839 -3.75097 0.1071 0 250 0 250
-1.61577 -3.7642 0.069255 0 250 0 250
-1.20244 -3.77541 0.003645 0 250 0 250
-2.06344 -3.62511 0.10944 0 250 0 250
-2.12464 -3.37141 -0.0117 0 250 0 250
-2.08682 -3.33764 -0.03438 0 250 0 250
-2.12847 -3.5149 0.009315 0 250 0 250
-1.55632 -3.77506 0.077355 0 250 0 250
-2.11657 -3.26096 -0.02484 0 250 0 250
-1.67639 -3.76695 0.05688 0 250 0 250
-1.64034 -3.77781 0.02475 0 250 0 250
-1.29947 -3.80539 0.020745 0 250 0 250
-1.22932 -3.80885 0.020565 0 250 0 250
-1.23872 -3.75128 -0.007965 0 250 0 250
-2.10233 -3.20537 -0.03717 0 250 0 250
-2.08304 -3.28268 -0.05499 0 250 0 250
-2.09185 -3.2942 -0.03951 0 250 0 250
-2.1182 -3.56784 0.018315 0 250 0 250
-1.81916 -3.72914 0.09324 0 250 0 250
-1.55052 -3.77614 0.009135 0 250 0 250
-1.21556 -3.69944 -0.02547 0 250 0 250
-1.15004 -3.66441 -0.03924 0 250 0 250
-2.08917 -3.20079 -0.054945 0 250 0 250
-2.06966 -3.6288 0.036765 0 250 0 250
-2.09509 -3.60383 0.036585 0 250 0 250
-1.94588 -3.69019 0.154755 0 250 0 250
-1.53095 -3.78665 0.031545 0 250 0 250
-1.66492 -3.77325 0.018675 0 250 0 250
-1.42693 -3.8047 0.068985 0 250 0 250
-1.35766 -3.80509 0.065565 0 250 0 250
-2.0491 -3.5465 -0.009405 0 250 0 250
-1.74077 -3.76538 0.023355 0 250 0 250
-1.58665 -3.78356 0.022815 0 250 0 250
-1.46197 -3.79533 0.046845 0 250 0 250
-1.39244 -3.80601 0.01899 0 250 0 250
-1.31092 -3.8019 0.04428 0 250 0 250
-1.34999 -3.8061 0.023715 0 250 0 250
-2.01235 -3.45366 -0.041985 0 250 0 250
-2.07401 -3.53222 -0.005445 0 250 0 250
-2.0507 -3.48057 -0.022275 0 250 0 250
-1.87952 -3.72539 0.093915 0 250 0 250
-1.59723 -3.76987 0.00909 0 250 0 250
-1.64064 -3.73544 -0.0009 0 250 0 250
-1.47033 -3.79182 0.022815 0 250 0 250
-1.41259 -3.80366 0.03501 0 250 0 250
-1.32721 -3.784 0.00738 0 250 0 250
-1.25995 -3.77805 0.002745 0 250 0 250
-2.05914 -3.38025 -0.03969 0 250 0 250
-2.06683 -3.60594 0.011565 0 250 0 250
-2.03914 -3.65127 0.111915 0 250 0 250
-1.5023 -3.76136 0.002925 0 250 0 250
-1.70499 -3.73808 0.001755 0 250 0 250
-1.67523 -3.65618 -0.02709 0 250 0 250
-1.41931 -3.79996 0.024435 0 250 0 250
-1.45901 -3.75573 0.001035 0 250 0 250
-1.36686 -3.78446 0.007785 0 250 0 250
-1.27052 -3.69473 -0.028035 0 250 0 250
-2.01583 -3.42675 -0.054945 0 250 0 250
-2.01799 -3.58448 -0.008055 0 250 0 250
-1.76583 -3.74378 0.00927 0 250 0 250
-1.79767 -3.75813 0.023985 0 250 0 250
-1.84908 -3.72457 0.008685 0 250 0 250
-1.74829 -3.69501 -0.01062 0 250 0 250
-1.53644 -3.66313 -0.032265 0 250 0 250
-1.41214 -3.73582 -0.00702 0 250 0 250
-1.3811 -3.69088 -0.02448 0 250 0 250
-2.03664 -3.65594 0.04878 0 250 0 250
-2.02333 -3.66512 0.04995 0 250 0 250
-1.99136 -3.52169 -0.03033 0 250 0 250
-1.72687 -3.65797 -0.023445 0 250 0 250
-1.49355 -3.64433 -0.041805 0 250 0 250
-1.35938 -3.64631 -0.04878 0 250 0 250
-1.34762 -3.66158 -0.037035 0 250 0 250
-1.92714 -3.71638 0.084465 0 250 0 250
-1.50506 -3.63455 -0.054945 0 250 0 250
-1.45267 -3.66085 -0.033795 0 250 0 250
-1.40762 -3.62991 -0.050535 0 250 0 250
-1.40034 -3.65656 -0.035325 0 250 0 250
-1.97592 -3.52922 -0.03141 0 250 0 250
-1.96717 -3.69537 0.04122 0 250 0 250
-1.88332 -3.73575 0.026955 0 250 0 250
-1.73401 -3.60251 -0.049905 0 250 0 250
-1.45689 -3.64452 -0.042975 0 250 0 250
-1.39333 -3.62986 -0.054945 0 250 0 250
-2.00524 -3.63318 0.00252 0 250 0 250
-1.94683 -3.51967 -0.045045 0 250 0 250
-1.90974 -3.72524 0.02241 0 250 0 250
-2.01399 -3.67207 0.03384 0 250 0 250
-1.6666 -3.61477 -0.048285 0 250 0 250
-1.77975 -3.68395 -0.013815 0 250 0 250
-1.60786 -3.61722 -0.054945 0 250 0 250
-1.94883 -3.69985 0.017415 0 250 0 250
-1.9652 -3.64836 -0.00279 0 250 0 250
-1.93367 -3.50978 -0.05571 0 250 0 250
-1.90177 -3.67446 -0.002745 0 250 0 250
-1.86738 -3.69164 -0.00081 0 250 0 250
-1.83934 -3.61607 -0.029205 0 250 0 250
-1.88561 -3.54534 -0.054945 0 250 0 250
-1.90404 -3.59851 -0.02475 0 250 0 250
-1.84275 -3.56306 -0.054945 0 250 0 250
-1.87322 -3.55128 -0.05148 0 250 0 250
3 423 271 1 
3 3 1 2 
3 7 1 3 
3 4 3 299 
3 7 3 6 
3 6 4 5 
3 3 4 6 
3 7 6 281 
3 423 1 7 
3 7 310 8 
3 10 8 9 
3 7 8 423 
3 15 10 11 
3 8 10 15 
3 8 12 423 
3 15 13 12 
3 15 14 13 
3 15 12 8 
3 18 423 415 
3 18 16 17 
3 18 415 16 
3 507 423 18 
3 20 18 19 
3 22 20 21 
3 507 18 20 
3 507 20 25 
3 24 22 23 
3 20 24 25 
3 20 22 24 
3 27 25 26 
3 507 25 568 
3 556 27 28 
3 556 568 27 
3 25 27 568 
3 567 568 560 
3 575 559 29 
3 559 568 567 
3 568 559 575 
3 568 575 507 
3 575 566 32 
3 584 575 32 
3 584 32 30 
3 32 31 30 
3 575 584 507 
3 542 584 582 
3 542 582 578 
3 33 578 553 
3 542 33 522 
3 507 584 500 
3 578 33 542 
3 500 542 532 
3 584 542 500 
3 36 34 43 
3 36 52 38 
3 43 34 40 
3 38 52 55 
3 41 39 35 
3 37 52 36 
3 38 45 41 
3 59 35 39 
3 36 43 37 
3 40 50 43 
3 41 46 39 
3 47 49 42 
3 43 68 37 
3 45 38 55 
3 50 40 63 
3 58 35 59 
3 42 35 58 
3 45 46 41 
3 59 39 46 
3 49 47 69 
3 49 66 48 
3 68 52 37 
3 50 68 43 
3 42 58 65 
3 47 42 65 
3 66 64 48 
3 70 68 50 
3 52 51 75 
3 63 56 50 
3 48 64 53 
3 87 44 53 
3 61 54 74 
3 52 75 55 
3 55 57 45 
3 45 57 46 
3 56 70 50 
3 46 57 59 
3 58 79 65 
3 58 59 79 
3 69 66 49 
3 67 63 60 
3 73 61 62 
3 87 54 44 
3 68 51 52 
3 63 95 56 
3 64 88 53 
3 88 87 53 
3 62 61 74 
3 75 80 55 
3 80 57 55 
3 47 65 82 
3 64 66 71 
3 95 63 67 
3 54 87 74 
3 51 68 78 
3 56 95 70 
3 100 65 79 
3 69 85 66 
3 90 87 88 
3 68 70 81 
3 78 68 81 
3 82 85 47 
3 85 69 47 
3 66 85 71 
3 60 76 72 
3 86 62 74 
3 99 80 75 
3 59 57 80 
3 103 51 78 
3 82 65 100 
3 84 85 82 
3 64 71 88 
3 72 67 60 
3 72 77 67 
3 89 73 86 
3 74 91 86 
3 75 98 99 
3 103 75 51 
3 80 79 59 
3 93 72 76 
3 93 76 92 
3 122 67 77 
3 122 95 67 
3 86 73 62 
3 70 95 81 
3 96 103 78 
3 78 81 96 
3 100 79 115 
3 80 83 79 
3 97 96 81 
3 108 109 82 
3 84 82 109 
3 79 83 115 
3 84 104 85 
3 85 101 71 
3 110 89 86 
3 91 74 87 
3 98 75 103 
3 80 99 83 
3 121 90 88 
3 89 111 106 
3 90 91 87 
3 86 91 107 
3 108 82 100 
3 101 88 71 
3 126 93 92 
3 94 72 93 
3 94 113 72 
3 77 72 113 
3 86 107 110 
3 97 81 95 
3 102 103 96 
3 97 102 96 
3 105 99 98 
3 83 99 116 
3 108 100 120 
3 104 84 109 
3 101 121 88 
3 126 125 93 
3 122 97 95 
3 113 122 77 
3 103 102 131 
3 114 105 103 
3 115 120 100 
3 115 83 116 
3 85 104 101 
3 89 110 111 
3 112 90 121 
3 105 98 103 
3 99 105 116 
3 123 119 106 
3 112 91 90 
3 110 107 117 
3 131 114 103 
3 128 109 108 
3 128 152 109 
3 135 104 109 
3 111 150 127 
3 111 110 150 
3 111 123 106 
3 91 112 107 
3 112 140 107 
3 117 107 140 
3 120 128 108 
3 101 104 135 
3 93 125 144 
3 93 144 94 
3 148 122 113 
3 111 127 123 
3 132 114 131 
3 114 124 105 
3 124 116 105 
3 120 115 133 
3 152 135 109 
3 145 115 116 
3 121 101 135 
3 144 113 94 
3 97 122 130 
3 117 150 110 
3 119 118 163 
3 141 128 120 
3 157 112 136 
3 136 112 121 
3 139 130 122 
3 102 97 130 
3 123 118 119 
3 132 124 114 
3 158 116 124 
3 116 158 145 
3 145 133 115 
3 159 144 125 
3 126 138 125 
3 149 113 144 
3 148 113 149 
3 123 127 171 
3 134 152 128 
3 135 152 142 
3 148 139 122 
3 161 137 129 
3 140 155 117 
3 127 150 156 
3 130 131 102 
3 131 151 132 
3 124 132 164 
3 120 133 141 
3 152 134 146 
3 135 136 121 
3 140 112 157 
3 136 168 157 
3 137 138 126 
3 138 179 125 
3 130 139 185 
3 117 155 150 
3 123 171 118 
3 167 118 171 
3 118 167 163 
3 155 140 187 
3 128 141 165 
3 134 128 165 
3 135 142 136 
3 154 143 172 
3 179 160 125 
3 125 160 159 
3 149 144 166 
3 137 161 138 
3 170 127 156 
3 132 151 164 
3 175 133 145 
3 146 176 152 
3 203 136 147 
3 166 144 159 
3 169 139 148 
3 185 173 130 
3 148 149 177 
3 162 156 150 
3 151 191 164 
3 124 164 158 
3 175 141 133 
3 152 136 142 
3 152 176 136 
3 136 176 147 
3 143 153 172 
3 130 173 131 
3 181 129 154 
3 162 150 155 
3 156 194 170 
3 127 170 171 
3 140 157 178 
3 151 131 173 
3 145 158 175 
3 175 165 141 
3 178 157 168 
3 203 168 136 
3 154 172 181 
3 166 159 213 
3 160 213 159 
3 169 148 177 
3 129 181 161 
3 138 161 199 
3 156 162 188 
3 156 188 194 
3 182 163 189 
3 187 140 178 
3 191 151 173 
3 164 191 209 
3 164 174 158 
3 165 202 134 
3 202 176 134 
3 134 176 146 
3 199 179 138 
3 198 149 166 
3 185 139 169 
3 187 162 155 
3 163 167 189 
3 168 183 178 
3 169 205 185 
3 149 198 177 
3 161 181 199 
3 206 171 170 
3 167 171 200 
3 209 174 164 
3 158 174 175 
3 197 185 205 
3 186 181 172 
3 170 194 206 
3 191 173 190 
3 184 175 174 
3 214 165 175 
3 211 147 176 
3 172 153 192 
3 213 198 166 
3 205 169 177 
3 188 219 194 
3 171 206 200 
3 195 167 200 
3 224 187 178 
3 201 174 209 
3 243 176 202 
3 211 203 147 
3 223 168 203 
3 160 179 180 
3 275 160 180 
3 198 213 204 
3 193 199 181 
3 224 178 183 
3 174 201 184 
3 175 184 214 
3 210 165 214 
3 223 183 168 
3 172 192 186 
3 180 179 199 
3 275 216 160 
3 185 190 173 
3 181 186 193 
3 187 234 162 
3 188 235 219 
3 195 189 167 
3 189 207 182 
3 191 190 250 
3 225 209 191 
3 211 176 243 
3 186 192 218 
3 160 216 213 
3 185 197 190 
3 199 193 256 
3 234 235 162 
3 188 162 235 
3 200 206 221 
3 206 194 229 
3 195 207 189 
3 224 234 187 
3 210 202 165 
3 252 243 202 
3 272 190 197 
3 246 295 177 
3 177 198 246 
3 199 274 180 
3 230 195 200 
3 195 230 207 
3 207 196 182 
3 250 225 191 
3 184 201 214 
3 252 202 251 
3 203 242 223 
3 215 192 212 
3 192 215 218 
3 198 204 227 
3 205 217 197 
3 205 177 295 
3 198 227 246 
3 194 219 229 
3 206 220 221 
3 196 207 222 
3 223 224 183 
3 209 241 201 
3 251 202 210 
3 211 242 203 
3 244 215 212 
3 204 213 233 
3 186 218 193 
3 230 200 221 
3 206 229 220 
3 196 222 208 
3 210 214 241 
3 214 201 241 
3 243 242 211 
3 215 255 218 
3 216 233 213 
3 275 233 216 
3 197 217 286 
3 295 217 205 
3 193 218 256 
3 276 199 256 
3 229 219 237 
3 219 235 258 
3 228 221 220 
3 230 221 236 
3 229 247 220 
3 208 222 231 
3 231 239 208 
3 223 232 224 
3 224 296 234 
3 225 300 209 
3 300 241 209 
3 251 226 252 
3 244 255 215 
3 190 272 250 
3 246 227 254 
3 199 276 274 
3 258 237 219 
3 259 220 247 
3 221 228 236 
3 259 228 220 
3 247 229 269 
3 230 238 207 
3 222 207 238 
3 240 239 231 
3 296 224 232 
3 241 251 210 
3 223 242 261 
3 261 232 223 
3 273 313 212 
3 313 244 212 
3 233 265 204 
3 204 265 227 
3 197 286 272 
3 218 255 256 
3 234 288 235 
3 234 296 288 
3 235 266 258 
3 259 236 228 
3 230 236 249 
3 237 268 229 
3 269 229 268 
3 247 269 248 
3 238 282 222 
3 222 282 231 
3 0 239 240 
3 292 241 300 
3 253 251 241 
3 261 242 283 
3 242 243 283 
3 255 244 305 
3 180 274 301 
3 301 275 180 
3 295 246 314 
3 266 257 258 
3 247 5 259 
3 248 5 247 
3 259 249 236 
3 238 230 249 
3 270 248 269 
3 249 282 238 
3 282 260 231 
3 231 260 240 
3 225 250 300 
3 293 226 251 
3 304 243 252 
3 251 253 293 
3 254 314 246 
3 256 255 287 
3 329 276 256 
3 266 235 288 
3 258 257 277 
3 267 237 258 
3 249 259 282 
3 5 299 259 
3 268 281 269 
3 5 248 270 
3 260 1 240 
3 283 243 304 
3 309 232 261 
3 287 255 305 
3 245 263 308 
3 264 233 275 
3 265 233 264 
3 328 227 265 
3 315 295 314 
3 266 288 297 
3 257 266 289 
3 258 277 278 
3 279 258 278 
3 237 267 268 
3 258 279 267 
3 299 282 259 
3 5 4 299 
3 268 291 281 
3 280 270 269 
3 6 5 270 
3 1 271 240 
3 271 0 240 
3 272 303 250 
3 300 250 303 
3 292 253 241 
3 313 273 324 
3 301 274 321 
3 264 275 327 
3 328 254 227 
3 295 286 217 
3 274 276 321 
3 316 297 288 
3 289 277 257 
3 277 298 278 
3 278 290 279 
3 291 267 279 
3 6 270 280 
3 269 281 280 
3 2 260 282 
3 1 260 2 
3 318 261 283 
3 324 273 284 
3 307 306 285 
3 295 294 286 
3 272 286 369 
3 256 287 329 
3 297 289 266 
3 330 316 288 
3 332 277 289 
3 290 278 298 
3 332 298 277 
3 267 291 268 
3 279 290 291 
3 7 281 291 
3 281 6 280 
3 323 253 292 
3 226 293 311 
3 226 311 312 
3 226 312 252 
3 318 309 261 
3 326 262 342 
3 326 307 262 
3 307 285 262 
3 319 263 306 
3 341 245 308 
3 284 245 341 
3 301 321 356 
3 294 369 286 
3 295 320 294 
3 315 320 295 
3 314 254 328 
3 321 276 329 
3 330 288 296 
3 332 289 297 
3 298 310 290 
3 332 310 298 
3 282 299 2 
3 302 292 300 
3 323 293 253 
3 283 304 339 
3 313 324 340 
3 305 244 313 
3 305 329 287 
3 327 275 301 
3 335 264 327 
3 337 297 316 
3 337 332 297 
3 299 3 2 
3 232 309 296 
3 369 303 272 
3 292 302 354 
3 292 354 323 
3 303 302 300 
3 304 252 312 
3 339 304 349 
3 361 329 305 
3 334 319 306 
3 307 334 306 
3 319 308 263 
3 344 341 308 
3 324 284 341 
3 296 309 330 
3 310 291 290 
3 8 310 332 
3 311 348 312 
3 304 312 349 
3 313 355 305 
3 327 301 356 
3 264 335 265 
3 335 328 265 
3 315 314 336 
3 315 373 320 
3 314 328 336 
3 337 316 317 
3 9 8 332 
3 310 7 291 
3 323 311 293 
3 318 345 309 
3 345 331 309 
3 340 355 313 
3 305 355 361 
3 360 326 342 
3 343 308 319 
3 344 308 343 
3 356 351 327 
3 294 320 369 
3 356 321 322 
3 316 330 353 
3 317 316 353 
3 323 374 311 
3 333 312 348 
3 283 339 345 
3 348 311 374 
3 318 283 345 
3 325 340 324 
3 325 324 341 
3 307 326 346 
3 368 335 327 
3 327 351 368 
3 328 352 336 
3 322 321 329 
3 331 353 330 
3 9 332 363 
3 302 303 369 
3 323 354 374 
3 385 333 348 
3 333 349 312 
3 309 331 330 
3 322 329 361 
3 346 326 360 
3 319 334 343 
3 343 367 344 
3 335 352 328 
3 315 336 372 
3 369 320 373 
3 317 353 347 
3 337 363 332 
3 9 363 338 
3 338 10 9 
3 369 364 302 
3 365 345 339 
3 365 339 349 
3 355 340 359 
3 377 325 341 
3 350 361 355 
3 394 360 342 
3 346 334 307 
3 367 343 366 
3 344 377 341 
3 315 372 373 
3 302 364 354 
3 349 386 365 
3 331 345 362 
3 346 343 334 
3 368 351 379 
3 373 371 369 
3 322 361 356 
3 347 363 317 
3 337 317 363 
3 385 348 389 
3 386 349 385 
3 345 365 358 
3 353 331 362 
3 401 361 350 
3 351 388 379 
3 336 352 372 
3 353 357 347 
3 354 395 374 
3 333 385 349 
3 413 385 389 
3 345 358 362 
3 355 417 350 
3 425 344 367 
3 425 377 344 
3 335 368 352 
3 388 351 356 
3 357 353 362 
3 357 370 347 
3 389 348 374 
3 383 358 375 
3 340 325 377 
3 417 355 359 
3 360 378 346 
3 379 418 368 
3 371 373 382 
3 388 356 361 
3 357 362 383 
3 11 347 370 
3 363 347 11 
3 363 10 338 
3 395 354 364 
3 362 358 383 
3 358 365 376 
3 377 359 340 
3 401 388 361 
3 394 378 360 
3 378 366 346 
3 412 367 366 
3 367 411 425 
3 352 368 404 
3 364 369 396 
3 11 370 384 
3 11 10 363 
3 421 385 413 
3 375 391 383 
3 375 358 376 
3 401 350 417 
3 378 394 402 
3 343 346 366 
3 396 369 371 
3 373 372 381 
3 373 420 382 
3 357 383 370 
3 374 390 389 
3 398 391 375 
3 376 398 375 
3 377 416 359 
3 410 366 378 
3 367 412 411 
3 418 379 380 
3 418 392 368 
3 381 420 373 
3 371 382 439 
3 439 396 371 
3 352 404 372 
3 370 383 393 
3 384 370 393 
3 384 15 11 
3 374 395 390 
3 396 395 364 
3 385 407 386 
3 399 365 386 
3 383 391 393 
3 387 402 394 
3 366 410 412 
3 388 380 379 
3 404 368 392 
3 406 372 404 
3 393 15 384 
3 385 421 422 
3 422 407 385 
3 389 397 413 
3 389 390 397 
3 365 399 376 
3 407 399 386 
3 391 13 393 
3 398 13 391 
3 417 359 416 
3 416 377 425 
3 404 392 403 
3 381 372 406 
3 14 15 393 
3 13 14 393 
3 400 376 399 
3 376 400 398 
3 431 387 394 
3 426 425 411 
3 392 418 403 
3 395 397 390 
3 434 395 396 
3 414 413 397 
3 398 424 13 
3 399 409 400 
3 408 398 400 
3 388 401 438 
3 437 378 402 
3 428 387 431 
3 388 438 380 
3 403 440 404 
3 404 405 406 
3 405 441 406 
3 419 381 406 
3 435 421 413 
3 399 407 409 
3 408 424 398 
3 409 16 400 
3 410 378 437 
3 428 402 387 
3 450 412 410 
3 432 426 411 
3 432 411 412 
3 438 418 380 
3 441 419 406 
3 419 420 381 
3 405 404 440 
3 434 397 395 
3 435 413 446 
3 446 413 414 
3 16 415 400 
3 415 408 400 
3 415 423 408 
3 416 454 417 
3 416 425 454 
3 417 464 401 
3 428 429 402 
3 432 412 450 
3 433 403 418 
3 420 419 457 
3 420 462 382 
3 457 462 420 
3 462 439 382 
3 434 396 439 
3 422 421 443 
3 435 442 421 
3 409 407 422 
3 408 423 424 
3 424 12 13 
3 417 454 427 
3 425 478 454 
3 426 478 425 
3 417 427 464 
3 429 428 447 
3 429 437 402 
3 428 431 430 
3 426 432 479 
3 473 403 433 
3 473 440 403 
3 434 475 397 
3 442 443 421 
3 436 422 443 
3 409 422 436 
3 423 12 424 
3 479 478 426 
3 401 464 438 
3 437 445 410 
3 429 447 455 
3 437 429 455 
3 428 430 447 
3 445 450 410 
3 418 438 433 
3 442 435 452 
3 435 446 453 
3 409 436 16 
3 437 444 445 
3 455 444 437 
3 433 438 472 
3 439 458 434 
3 405 440 486 
3 441 456 419 
3 441 405 486 
3 468 397 475 
3 397 468 414 
3 475 434 458 
3 459 443 442 
3 436 443 451 
3 452 459 442 
3 414 468 446 
3 452 435 453 
3 449 445 444 
3 450 445 461 
3 450 467 432 
3 432 467 479 
3 458 439 462 
3 441 486 492 
3 451 443 459 
3 451 17 436 
3 453 446 477 
3 463 452 453 
3 17 16 436 
3 478 460 454 
3 444 455 449 
3 447 499 455 
3 447 448 499 
3 461 445 449 
3 450 466 467 
3 485 440 473 
3 492 456 441 
3 459 19 451 
3 451 18 17 
3 19 18 451 
3 21 459 452 
3 452 463 21 
3 463 453 469 
3 454 470 427 
3 465 449 455 
3 449 465 461 
3 450 461 480 
3 466 483 467 
3 456 457 419 
3 457 474 462 
3 520 475 458 
3 20 19 459 
3 469 453 477 
3 463 469 23 
3 470 454 460 
3 499 465 455 
3 480 461 481 
3 466 450 480 
3 462 520 458 
3 21 20 459 
3 463 22 21 
3 438 464 472 
3 427 470 464 
3 464 510 472 
3 465 481 461 
3 480 471 466 
3 483 466 482 
3 479 467 502 
3 485 486 440 
3 513 456 492 
3 513 457 456 
3 457 513 474 
3 477 446 468 
3 23 22 463 
3 469 24 23 
3 510 464 470 
3 465 499 493 
3 465 493 481 
3 482 466 471 
3 472 484 433 
3 473 503 485 
3 474 514 462 
3 475 476 468 
3 497 487 468 
3 468 476 497 
3 487 477 468 
3 506 469 477 
3 506 24 469 
3 460 478 488 
3 478 479 488 
3 480 489 471 
3 481 489 480 
3 482 471 489 
3 482 490 483 
3 467 483 491 
3 510 484 472 
3 525 433 484 
3 473 433 525 
3 486 485 494 
3 517 492 486 
3 520 462 514 
3 519 474 513 
3 520 476 475 
3 25 24 506 
3 477 487 506 
3 460 488 470 
3 489 481 493 
3 482 489 490 
3 483 490 532 
3 491 502 467 
3 509 479 502 
3 473 525 503 
3 513 492 511 
3 486 494 495 
3 519 514 474 
3 496 476 520 
3 487 497 498 
3 501 489 493 
3 490 489 501 
3 491 483 532 
3 509 488 479 
3 492 517 511 
3 495 494 512 
3 495 517 486 
3 531 476 496 
3 531 498 497 
3 505 487 498 
3 476 531 497 
3 499 501 493 
3 501 500 490 
3 502 523 509 
3 534 488 509 
3 503 545 485 
3 516 512 485 
3 516 485 545 
3 512 494 485 
3 504 511 517 
3 513 529 519 
3 514 521 520 
3 506 487 505 
3 26 25 506 
3 488 534 470 
3 507 500 499 
3 499 500 501 
3 490 500 532 
3 491 532 523 
3 491 523 502 
3 534 509 508 
3 533 508 509 
3 523 515 509 
3 510 558 484 
3 544 516 545 
3 518 511 528 
3 513 511 518 
3 527 495 512 
3 529 513 538 
3 514 540 521 
3 531 26 498 
3 505 498 26 
3 26 506 505 
3 534 510 470 
3 509 515 533 
3 522 515 523 
3 512 516 536 
3 526 504 517 
3 517 527 526 
3 517 495 527 
3 528 539 518 
3 512 536 527 
3 538 513 518 
3 514 519 540 
3 496 520 530 
3 521 530 520 
3 530 531 496 
3 543 508 533 
3 522 553 515 
3 522 523 524 
3 558 525 484 
3 503 525 545 
3 544 545 574 
3 548 504 526 
3 527 29 526 
3 539 528 535 
3 539 538 518 
3 529 550 519 
3 550 529 538 
3 531 530 28 
3 531 541 26 
3 531 28 541 
3 532 524 523 
3 551 508 543 
3 553 543 533 
3 533 515 553 
3 510 534 558 
3 536 516 544 
3 544 574 547 
3 526 29 548 
3 504 548 535 
3 527 536 537 
3 527 537 29 
3 550 538 549 
3 549 538 539 
3 550 540 519 
3 530 521 540 
3 541 27 26 
3 551 534 508 
3 551 552 534 
3 532 542 524 
3 551 543 563 
3 524 542 522 
3 558 565 525 
3 536 544 554 
3 574 545 546 
3 574 31 547 
3 554 544 547 
3 535 548 555 
3 539 535 549 
3 562 550 549 
3 550 557 540 
3 540 557 530 
3 28 27 541 
3 569 552 551 
3 564 534 552 
3 553 563 543 
3 551 563 569 
3 522 33 553 
3 545 525 565 
3 536 554 537 
3 565 546 545 
3 566 547 31 
3 566 554 547 
3 560 535 555 
3 535 562 549 
3 562 556 550 
3 556 557 550 
3 28 530 557 
3 552 569 572 
3 553 578 563 
3 571 558 564 
3 565 558 571 
3 564 558 534 
3 546 565 580 
3 554 566 537 
3 29 559 548 
3 548 559 555 
3 561 535 560 
3 561 562 535 
3 562 568 556 
3 572 564 552 
3 563 570 569 
3 571 564 576 
3 580 565 579 
3 574 546 580 
3 31 32 566 
3 537 566 573 
3 559 567 555 
3 555 567 560 
3 560 568 561 
3 561 568 562 
3 557 556 28 
3 577 572 569 
3 563 578 570 
3 569 570 577 
3 579 565 571 
3 572 576 564 
3 573 29 537 
3 31 574 30 
3 566 575 573 
3 577 576 572 
3 578 577 570 
3 579 571 576 
3 573 575 29 
3 579 584 580 
3 574 580 30 
3 577 579 576 
3 583 577 578 
3 585 584 579 
3 581 30 580 
3 577 583 579 
3 578 582 583 
3 579 583 585 
3 580 584 581 
3 582 584 585 
3 583 582 585 
3 584 30 581 
