ply
format ascii 1.0
comment Generated by Slim Ghodhbane
element vertex 447
property double x
property double y
property double z
property uchar red
property uchar green
property uchar blue
property uchar alpha
element face 873
property list uchar int vertex_index
end_header
0.001798 16.8369 7.25351 0 250 0 250
0.00256 16.7981 7.15257 0 250 0 250
0 17.0434 7.83077 0 250 0 250
-0.001271 16.7166 6.91561 0 250 0 250
0.008856 16.3002 5.78726 0 250 0 250
-0.001524 16.3173 5.80253 0 250 0 250
0.022817 11.6546 4.96281 0 250 0 250
-0.031142 16.14 9.65581 0 250 0 250
0.003196 16.1177 5.26604 0 250 0 250
-2e-06 17.2842 8.50402 0 250 0 250
0.002558 12.2357 5.27203 0 250 0 250
-0.001658 16.4759 6.23965 0 250 0 250
0.00275 16.1563 5.36526 0 250 0 250
-1e-06 16.8846 7.3898 0 250 0 250
0.009646 16.5409 6.46359 0 250 0 250
-0.0011 16.5962 6.57766 0 250 0 250
0.010503 17.2637 8.49026 0 250 0 250
0.001388 17.2367 8.36707 0 250 0 250
9e-06 12.474 5.47531 0 250 0 250
-0.00267 13.0025 6.01038 0 250 0 250
7e-06 12.311 5.33261 0 250 0 250
-0.002233 12.8433 5.81574 0 250 0 250
6e-06 12.591 5.57459 0 250 0 250
0 12.7074 5.67413 0 250 0 250
0 14.8765 8.32904 0 250 0 250
-0.002458 12.9229 5.91305 0 250 0 250
-0.002537 12.9628 5.962 0 250 0 250
-0.002345 12.8831 5.86439 0 250 0 250
0 13.3939 6.49312 0 250 0 250
0 13.2747 6.34687 0 250 0 250
-0.00308 13.2312 6.29069 0 250 0 250
0 13.3145 6.39561 0 250 0 250
0 13.4733 6.59067 0 250 0 250
0 13.513 6.63945 0 250 0 250
0 13.751 6.93234 0 250 0 250
0 13.4336 6.54189 0 250 0 250
0 13.3542 6.44436 0 250 0 250
0 13.5527 6.68824 0 250 0 250
0 13.6717 6.83467 0 250 0 250
0 13.5923 6.73704 0 250 0 250
0 13.8699 7.07893 0 250 0 250
0 13.7113 6.88351 0 250 0 250
0 13.632 6.78585 0 250 0 250
0 13.8302 7.03006 0 250 0 250
0 13.9887 7.22563 0 250 0 250
0 13.7906 6.9812 0 250 0 250
0 13.9095 7.12782 0 250 0 250
0 13.9491 7.17672 0 250 0 250
0 14.7572 8.18298 0 250 0 250
0.011012 16.3819 6.02603 0 250 0 250
0 14.7174 8.1343 0 250 0 250
0 14.8368 8.28035 0 250 0 250
0 14.797 8.23166 0 250 0 250
0 14.956 8.42645 0 250 0 250
0 14.9163 8.37774 0 250 0 250
0 14.9958 8.47516 0 250 0 250
0 15.0355 8.52387 0 250 0 250
0.013072 15.9028 4.71722 0 250 0 250
0.038624 15.8446 4.69611 0 250 0 250
0 15.4327 9.0114 0 250 0 250
0.002757 15.9542 9.63154 0 250 0 250
-3e-06 17.1638 8.16758 0 250 0 250
-0.056614 15.8232 4.67733 0 250 0 250
-0.080992 15.5881 4.69086 0 250 0 250
0.000524 16.5618 6.48148 0 250 0 250
-0.002838 16.4368 6.13927 0 250 0 250
-0.028075 11.1884 4.75509 0 250 0 250
0.002488 12.6337 5.61297 0 250 0 250
0.009254 17.1815 8.25323 0 250 0 250
6.2e-05 11.8744 5.08533 0 250 0 250
-2e-06 16.6437 6.71676 0 250 0 250
-2e-06 17.2023 8.27025 0 250 0 250
0.105199 11.9012 4.69606 0 250 0 250
-0.022459 11.9755 5.10788 0 250 0 250
4.7e-05 16.0312 9.68699 0 250 0 250
0.011538 13.6195 6.75228 0 250 0 250
-0.025638 17.5 9.317 0 250 0 250
0.012836 16.2578 9.75685 0 250 0 250
0.008294 16.7 6.90072 0 250 0 250
0.0034 16.6776 6.81499 0 250 0 250
0.023512 12.0935 5.15758 0 250 0 250
0.000886 16.1961 5.46559 0 250 0 250
0.011268 16.5023 6.36387 0 250 0 250
-0.036246 17.14 9.7636 0 250 0 250
-0.00123 16.1095 9.73509 0 250 0 250
0.011401 16.0975 9.70773 0 250 0 250
0.015328 17.242 9.78549 0 250 0 250
-0.072612 15.66 4.719 0 250 0 250
1e-06 17.6509 9.73896 0 250 0 250
-0.015211 17.2633 9.78554 0 250 0 250
0.017753 17.62 9.7042 0 250 0 250
0.000928 16.7643 7.05359 0 250 0 250
0.032364 11.5341 4.90012 0 250 0 250
-3e-06 17.3227 8.60765 0 250 0 250
0.00171 12.5164 5.51492 0 250 0 250
0.021258 12.1808 5.20156 0 250 0 250
-0.001509 12.1942 5.23404 0 250 0 250
2e-06 12.7539 5.71726 0 250 0 250
0.013307 12.7403 5.68791 0 250 0 250
-0.150066 12.5436 4.65703 0 250 0 250
-0.123206 15.034 4.68743 0 250 0 250
0.011972 16.2225 5.58898 0 250 0 250
0.012064 16.0625 5.15348 0 250 0 250
-0.121126 12.5089 4.70411 0 250 0 250
0.036866 16.7 9.76718 0 250 0 250
-1e-06 17.4431 8.94478 0 250 0 250
1e-06 12.4274 5.43214 0 250 0 250
-0.070887 11.2021 4.67995 0 250 0 250
-0.021657 11.0994 4.71856 0 250 0 250
0.008383 15.0614 8.54083 0 250 0 250
0.013498 16.024 5.05305 0 250 0 250
-0.037286 12.82 5.69943 0 250 0 250
3e-06 17.6057 9.78205 0 250 0 250
-0.045274 12.0852 5.12537 0 250 0 250
-0.080812 11.4721 4.69311 0 250 0 250
-0.038992 11.2756 4.77817 0 250 0 250
-0.011234 16.0975 9.70773 0 250 0 250
-0.035408 16.5946 9.75938 0 250 0 250
-0.012878 16.2578 9.75685 0 250 0 250
-0.017248 12.6965 5.64304 0 250 0 250
-0.013276 12.7403 5.68791 0 250 0 250
-0.009769 13.2611 6.3148 0 250 0 250
-0.009967 13.3009 6.36339 0 250 0 250
-0.010164 13.3408 6.41198 0 250 0 250
-0.010362 13.3806 6.46058 0 250 0 250
-0.010559 13.4204 6.50919 0 250 0 250
-0.010755 13.4603 6.5578 0 250 0 250
-0.010951 13.5001 6.60641 0 250 0 250
-0.011147 13.5399 6.65503 0 250 0 250
-0.011342 13.5797 6.70365 0 250 0 250
-0.011537 13.6195 6.75228 0 250 0 250
-0.011732 13.6593 6.80092 0 250 0 250
-0.011926 13.6991 6.84956 0 250 0 250
-0.01212 13.739 6.8982 0 250 0 250
-0.012296 13.7788 6.94686 0 250 0 250
-0.012471 13.8185 6.99551 0 250 0 250
-0.012647 13.8583 7.04418 0 250 0 250
-0.012823 13.8981 7.09285 0 250 0 250
-0.012999 13.9379 7.14153 0 250 0 250
-0.013175 13.9776 7.19022 0 250 0 250
-0.025619 12.1858 5.20109 0 250 0 250
-0.009703 12.2231 5.24957 0 250 0 250
-0.015708 12.2986 5.30237 0 250 0 250
-0.01152 12.3418 5.34765 0 250 0 250
-0.017572 12.4165 5.40103 0 250 0 250
-0.013493 12.4603 5.44591 0 250 0 250
-0.00928 12.5031 5.49155 0 250 0 250
-0.015431 12.5786 5.54435 0 250 0 250
-0.011299 12.6218 5.58965 0 250 0 250
-0.007372 12.8226 5.78054 0 250 0 250
-0.014047 16.54 9.78544 0 250 0 250
-1e-06 17.1206 8.03296 0 250 0 250
-0.002815 13.0822 6.10804 0 250 0 250
-0.002764 13.0422 6.05905 0 250 0 250
-0.002896 13.1219 6.15673 0 250 0 250
-0.002976 13.1617 6.20542 0 250 0 250
0.002317 14.6477 8.04468 0 250 0 250
0 14.1074 7.37244 0 250 0 250
0 14.0678 7.32349 0 250 0 250
0 14.147 7.42141 0 250 0 250
0.001791 14.604 7.99302 0 250 0 250
0.001387 14.4449 7.7987 0 250 0 250
0.001695 14.5642 7.94439 0 250 0 250
0.001485 14.4847 7.84733 0 250 0 250
0 15.115 8.62132 0 250 0 250
0.001598 14.5244 7.89576 0 250 0 250
0.002223 14.1863 7.4706 0 250 0 250
0.001288 14.4051 7.75008 0 250 0 250
0 14.0283 7.27455 0 250 0 250
0 15.0753 8.57259 0 250 0 250
-0.021239 15.9028 4.68308 0 250 0 250
0.02124 15.9028 4.68308 0 250 0 250
0 15.2739 8.8163 0 250 0 250
0 15.1547 8.67006 0 250 0 250
0 15.3533 8.91384 0 250 0 250
0 15.3136 8.86507 0 250 0 250
0 15.9235 4.73247 0 250 0 250
-0.000592 15.9623 4.83473 0 250 0 250
1e-06 16.0449 5.06629 0 250 0 250
3.9e-05 16.2441 5.60501 0 250 0 250
0 15.5518 9.15781 0 250 0 250
0 15.393 8.96262 0 250 0 250
0 15.5121 9.109 0 250 0 250
0 15.4724 9.0602 0 250 0 250
0 15.5914 9.20663 0 250 0 250
2e-06 15.83 9.49711 0 250 0 250
0 15.6311 9.25546 0 250 0 250
0 15.7896 9.45051 0 250 0 250
0 15.7104 9.35316 0 250 0 250
0 15.75 9.40202 0 250 0 250
-2e-06 16.5232 6.37978 0 250 0 250
-5e-06 15.914 9.58995 0 250 0 250
0 15.6707 9.30431 0 250 0 250
0.010545 17.0226 7.81527 0 250 0 250
-0.011142 17.6561 9.6041 0 250 0 250
0 14.2399 7.55056 0 250 0 250
0 17.4001 8.80848 0 250 0 250
0.00763 17.6619 9.60806 0 250 0 250
0 17.682 9.62488 0 250 0 250
0.00793 16.5797 6.56245 0 250 0 250
0.009196 17.5429 9.26664 0 250 0 250
0.00667 17.6199 9.46602 0 250 0 250
0.007991 17.5812 9.36683 0 250 0 250
0.00799 17.4609 9.02878 0 250 0 250
0.007967 17.3405 8.69062 0 250 0 250
0.009254 17.3019 8.59119 0 250 0 250
0.010533 17.1431 8.15287 0 250 0 250
0 17.0003 7.69497 0 250 0 250
0.008848 16.9407 7.57711 0 250 0 250
0.011738 16.7433 7.03912 0 250 0 250
0.021662 16.74 7.0906 0 250 0 250
0.011835 16.8639 7.37644 0 250 0 250
0.011509 16.6228 6.70157 0 250 0 250
0.010418 16.9021 7.47753 0 250 0 250
0.009247 17.4224 8.92897 0 250 0 250
0.009117 17.0611 7.91522 0 250 0 250
0.082602 11.5587 4.6948 0 250 0 250
-0.086323 12.5421 5.17293 0 250 0 250
-0.041902 15.1011 8.39631 0 250 0 250
-0.109273 12.0469 4.69894 0 250 0 250
-0.039899 15.9195 4.93833 0 250 0 250
-0.120613 15.016 4.719 0 250 0 250
-0.012463 17.6179 9.75326 0 250 0 250
-0.025045 11.6491 4.9609 0 250 0 250
-0.019823 11.7425 5.0077 0 250 0 250
1e-06 11.7573 5.03527 0 250 0 250
-0.025598 12.0889 5.15534 0 250 0 250
0.001099 16.2715 9.7824 0 250 0 250
0.07382 11.3731 4.69818 0 250 0 250
-0.01264 16.3436 5.92531 0 250 0 250
-0.080764 11.6508 4.78132 0 250 0 250
-0.062594 12.5 5.2998 0 250 0 250
0.015745 12.2986 5.30237 0 250 0 250
0.012295 13.7788 6.94686 0 250 0 250
0.013933 14.1764 7.43378 0 250 0 250
0.011732 13.6593 6.80092 0 250 0 250
0.011343 13.5797 6.70365 0 250 0 250
0.011147 13.5399 6.65503 0 250 0 250
0.010952 13.5001 6.60641 0 250 0 250
0.010756 13.4603 6.5578 0 250 0 250
0.010559 13.4204 6.50919 0 250 0 250
0.010362 13.3806 6.46058 0 250 0 250
0.010165 13.3408 6.41198 0 250 0 250
0.009967 13.3009 6.36339 0 250 0 250
0.009769 13.2611 6.3148 0 250 0 250
0.00957 13.2212 6.26621 0 250 0 250
0.001307 13.1952 6.24946 0 250 0 250
0.00937 13.1814 6.21763 0 250 0 250
0.00917 13.1415 6.16905 0 250 0 250
0.00897 13.1017 6.12047 0 250 0 250
0.008769 13.0618 6.0719 0 250 0 250
0.008561 13.022 6.02333 0 250 0 250
0.008339 12.9821 5.97477 0 250 0 250
0.008104 12.9422 5.92621 0 250 0 250
0.007856 12.9024 5.87765 0 250 0 250
0.007597 12.8625 5.82909 0 250 0 250
0.017287 12.6965 5.64304 0 250 0 250
0.001489 12.8041 5.76816 0 250 0 250
-0.00103 12.7826 5.73913 0 250 0 250
0.013804 14.1366 7.38505 0 250 0 250
0.003197 12.3537 5.37104 0 250 0 250
0.013535 12.4603 5.44591 0 250 0 250
0.017613 12.4165 5.40103 0 250 0 250
0.015471 12.5786 5.54435 0 250 0 250
0.013662 14.0969 7.33633 0 250 0 250
0.013509 14.0572 7.28762 0 250 0 250
0.036086 12.2768 5.23715 0 250 0 250
0.013346 14.0174 7.23892 0 250 0 250
0.013174 13.9776 7.19022 0 250 0 250
0.012999 13.9379 7.14153 0 250 0 250
0.012823 13.8981 7.09285 0 250 0 250
0.012647 13.8583 7.04418 0 250 0 250
0.012471 13.8185 6.99551 0 250 0 250
0.012119 13.739 6.8982 0 250 0 250
0.011926 13.6991 6.84956 0 250 0 250
-0.010553 16.2613 5.68837 0 250 0 250
-0.011971 16.2225 5.58898 0 250 0 250
-0.007375 16.1792 5.44983 0 250 0 250
-0.010502 16.1012 5.25284 0 250 0 250
-0.013496 16.024 5.05305 0 250 0 250
-0.008878 15.9801 4.91601 0 250 0 250
-0.01044 15.9412 4.81732 0 250 0 250
-0.01307 15.9028 4.71722 0 250 0 250
-0.03852 15.8451 4.69589 0 250 0 250
-0.038672 16.1814 5.6604 0 250 0 250
-0.012063 16.0625 5.15348 0 250 0 250
-0.001759 17.6365 9.48123 0 250 0 250
-0.002637 17.5973 9.37989 0 250 0 250
-0.000897 17.5636 9.28186 0 250 0 250
-0.009213 17.5429 9.26664 0 250 0 250
-0.000143 17.5205 9.14653 0 250 0 250
-0.000173 17.5036 9.12994 0 250 0 250
-1e-06 17.3832 8.79138 0 250 0 250
-0.007834 17.2202 8.3524 0 250 0 250
-1e-06 17.1044 8.01657 0 250 0 250
-0.01055 17.0226 7.81527 0 250 0 250
-1e-06 16.9839 7.67823 0 250 0 250
-0.011843 16.8639 7.37644 0 250 0 250
-0.008582 16.8203 7.23894 0 250 0 250
-0.011747 16.7433 7.03912 0 250 0 250
-0.011516 16.6228 6.70157 0 250 0 250
-0.011276 16.5023 6.36387 0 250 0 250
-0.011021 16.3819 6.02603 0 250 0 250
-0.008938 16.1402 5.35155 0 250 0 250
-0.002542 17.477 9.04225 0 250 0 250
-0.00925 17.4224 8.92897 0 250 0 250
-0.002681 17.3566 8.7044 0 250 0 250
-0.009266 17.3019 8.59119 0 250 0 250
-0.039256 16.2991 6.00694 0 250 0 250
-0.009654 16.5409 6.46359 0 250 0 250
-0.00992 16.6613 6.80166 0 250 0 250
-0.010175 16.7817 7.13965 0 250 0 250
-0.009263 17.1815 8.25323 0 250 0 250
-0.010518 17.2637 8.49026 0 250 0 250
-0.010545 17.1431 8.15287 0 250 0 250
-0.002149 17.0774 7.92858 0 250 0 250
-0.001935 16.957 7.5908 0 250 0 250
-0.002331 16.9185 7.48988 0 250 0 250
0.03693 17.1 9.76718 0 250 0 250
0.038827 13.247 6.18668 0 250 0 250
-0.002819 10.9939 4.69651 0 250 0 250
0.000985 11.4345 4.89189 0 250 0 250
0.020575 11.4219 4.86287 0 250 0 250
-0.02114 11.8591 5.05774 0 250 0 250
-0.001482 12.1075 5.18659 0 250 0 250
-0.000113 11.1113 4.74902 0 250 0 250
-0.006388 17.6619 9.70277 0 250 0 250
0.001061 17.6793 9.68556 0 250 0 250
0.038688 16.3025 6.00646 0 250 0 250
0.012629 16.3436 5.92531 0 250 0 250
0.010554 16.2613 5.68837 0 250 0 250
0.007469 16.4594 6.22413 0 250 0 250
-2e-06 16.4033 6.04318 0 250 0 250
0.009321 16.4205 6.12545 0 250 0 250
-3e-06 16.3651 5.93993 0 250 0 250
-3.6e-05 16.2827 5.70607 0 250 0 250
0.000955 16.0836 5.16924 0 250 0 250
0.037762 16.0771 5.36192 0 250 0 250
0.001681 15.9973 4.93104 0 250 0 250
0.010442 15.9412 4.81732 0 250 0 250
0.010452 17.6151 9.75741 0 250 0 250
0.120612 15.016 4.719 0 250 0 250
0.120876 12.498 4.69682 0 250 0 250
0.03898 16.2117 5.74589 0 250 0 250
0.073571 12.3 5.1062 0 250 0 250
0.038555 16.4722 6.5098 0 250 0 250
0.029027 16.0621 9.62569 0 250 0 250
0.0135 11.1839 4.76806 0 250 0 250
0.055506 11.1725 4.69019 0 250 0 250
0.018701 11.0984 4.72237 0 250 0 250
-2.2e-05 11.3174 4.84159 0 250 0 250
0.038153 11.6674 4.94871 0 250 0 250
0.000216 11.6675 4.99294 0 250 0 250
0.020837 11.8614 5.05677 0 250 0 250
0.019654 11.7447 5.00692 0 250 0 250
-0.000193 11.9909 5.13625 0 250 0 250
0.022058 11.9774 5.10702 0 250 0 250
0.043092 12.0815 5.12534 0 250 0 250
-6e-06 11.1999 4.79166 0 250 0 250
-0.019555 11.3034 4.81374 0 250 0 250
-0.022021 11.5363 4.91376 0 250 0 250
-0.000331 11.551 4.94232 0 250 0 250
-0.043786 11.6551 4.93785 0 250 0 250
-0.020787 11.42 4.86368 0 250 0 250
0.024164 11.3039 4.80923 0 250 0 250
0 15.2342 8.76755 0 250 0 250
0 15.1945 8.7188 0 250 0 250
0 15.8721 9.54346 0 250 0 250
0.010778 15.7781 9.41606 0 250 0 250
0.008558 15.1012 8.58942 0 250 0 250
0.008208 15.0215 8.49225 0 250 0 250
0.008032 14.9817 8.44368 0 250 0 250
0.007855 14.9418 8.39511 0 250 0 250
0.007678 14.9019 8.34654 0 250 0 250
0.007473 14.8621 8.29797 0 250 0 250
0.007266 14.8222 8.24941 0 250 0 250
0.007058 14.7823 8.20085 0 250 0 250
0.00685 14.7425 8.1523 0 250 0 250
0.002418 14.6875 8.09331 0 250 0 250
0.01128 16.0186 9.65866 0 250 0 250
0.009009 15.9005 9.55891 0 250 0 250
0.010118 15.8594 9.51173 0 250 0 250
0.000987 14.2856 7.60423 0 250 0 250
0.010717 15.8182 9.46448 0 250 0 250
0.010678 15.7383 9.36739 0 250 0 250
0.001189 14.3653 7.70146 0 250 0 250
0.010577 15.6985 9.31872 0 250 0 250
0.010474 15.6587 9.27006 0 250 0 250
0.010369 15.6189 9.22141 0 250 0 250
0.010262 15.5792 9.17276 0 250 0 250
0.010153 15.5394 9.12412 0 250 0 250
0.01004 15.4995 9.07549 0 250 0 250
0.009922 15.4597 9.02686 0 250 0 250
0.009795 15.4199 8.97823 0 250 0 250
0.009662 15.3801 8.92962 0 250 0 250
0.009522 15.3403 8.881 0 250 0 250
0.009375 15.3004 8.83239 0 250 0 250
0.009222 15.2606 8.78379 0 250 0 250
0.009063 15.2208 8.73519 0 250 0 250
0.008899 15.1809 8.68659 0 250 0 250
0.014867 14.217 7.48155 0 250 0 250
0.008731 15.1411 8.638 0 250 0 250
-0.010778 15.7781 9.41606 0 250 0 250
-0.008979 15.9005 9.55891 0 250 0 250
-0.007881 15.9414 9.60623 0 250 0 250
-0.014048 14.2161 7.48252 0 250 0 250
-0.013347 14.0174 7.23892 0 250 0 250
-0.01351 14.0572 7.28762 0 250 0 250
-0.010715 15.8182 9.46448 0 250 0 250
-0.015677 16.0194 9.65553 0 250 0 250
-0.010109 15.8594 9.51173 0 250 0 250
-0.013663 14.0969 7.33633 0 250 0 250
-0.013804 14.1366 7.38505 0 250 0 250
-0.013933 14.1764 7.43378 0 250 0 250
0 14.2624 7.57081 0 250 0 250
-0.001413 14.3131 7.63637 0 250 0 250
0 14.342 7.6685 0 250 0 250
-0.004951 14.3835 7.71542 0 250 0 250
-0.005165 14.4234 7.76396 0 250 0 250
-0.005378 14.4633 7.81249 0 250 0 250
-0.00559 14.5032 7.86102 0 250 0 250
-0.005895 14.5633 7.93426 0 250 0 250
-0.006223 14.6228 8.00665 0 250 0 250
-0.006538 14.683 8.07986 0 250 0 250
-0.006955 14.7627 8.17696 0 250 0 250
-0.007396 14.8425 8.27407 0 250 0 250
-0.007678 14.9019 8.34654 0 250 0 250
-0.007855 14.9418 8.39511 0 250 0 250
-0.008032 14.9817 8.44368 0 250 0 250
-0.008296 15.0418 8.51693 0 250 0 250
-0.008558 15.1012 8.58942 0 250 0 250
-0.008731 15.1411 8.638 0 250 0 250
-0.008899 15.1809 8.68659 0 250 0 250
-0.009063 15.2208 8.73519 0 250 0 250
-0.009222 15.2606 8.78379 0 250 0 250
-0.009375 15.3004 8.83239 0 250 0 250
-0.009522 15.3403 8.881 0 250 0 250
-0.009662 15.3801 8.92962 0 250 0 250
-0.009795 15.4199 8.97823 0 250 0 250
-0.009922 15.4597 9.02686 0 250 0 250
-0.01004 15.4995 9.07549 0 250 0 250
-0.010153 15.5394 9.12412 0 250 0 250
-0.010262 15.5792 9.17276 0 250 0 250
-0.010369 15.6189 9.22141 0 250 0 250
-0.010474 15.6587 9.27006 0 250 0 250
-0.010577 15.6985 9.31872 0 250 0 250
-0.010678 15.7383 9.36739 0 250 0 250
3 297 211 0 
3 1 91 311 
3 315 215 2 
3 85 116 74 
3 299 209 3 
3 5 4 335 
3 80 226 355 
3 6 223 361 
3 116 7 409 
3 8 336 278 
3 307 205 9 
3 232 142 10 
3 11 331 65 
3 12 8 303 
3 170 283 282 
3 111 122 123 
3 317 213 13 
3 354 224 352 
3 309 14 190 
3 118 84 77 
3 379 409 60 
3 300 212 15 
3 229 329 5 
3 0 1 298 
3 330 179 275 
3 313 16 17 
3 287 202 288 
3 94 146 18 
3 19 251 153 
3 10 141 96 
3 260 143 20 
3 21 255 27 
3 431 164 401 
3 67 148 22 
3 98 120 23 
3 426 24 373 
3 25 253 26 
3 26 252 19 
3 27 254 25 
3 240 125 28 
3 243 122 29 
3 244 121 30 
3 242 123 31 
3 238 127 32 
3 237 128 33 
3 134 34 233 
3 239 126 35 
3 241 124 36 
3 236 129 37 
3 132 38 274 
3 75 130 39 
3 137 40 270 
3 133 41 273 
3 235 131 42 
3 136 43 271 
3 406 44 267 
3 135 45 272 
3 138 46 269 
3 139 47 268 
3 407 168 265 
3 259 412 157 
3 424 48 376 
3 400 405 166 
3 234 413 159 
3 302 49 334 
3 411 158 264 
3 424 50 377 
3 425 51 374 
3 430 169 369 
3 425 52 375 
3 30 246 245 
3 371 428 53 
3 372 427 54 
3 434 365 397 
3 433 366 398 
3 429 55 370 
3 57 171 282 
3 432 173 399 
3 429 56 109 
3 435 172 396 
3 436 175 395 
3 171 57 58 
3 338 177 280 
3 391 440 183 
3 381 410 185 
3 392 439 59 
3 386 445 192 
3 438 393 59 
3 437 174 394 
3 390 441 182 
3 388 443 184 
3 380 403 367 
3 389 442 180 
3 387 444 186 
3 384 446 188 
3 368 402 189 
3 383 408 187 
3 60 404 191 
3 312 68 61 
3 87 62 63 
3 15 199 64 
3 65 333 332 
3 66 325 347 
3 256 119 67 
3 16 206 68 
3 356 73 69 
3 79 70 310 
3 324 80 95 
3 17 71 293 
3 76 83 222 
3 86 340 112 
3 113 323 73 
3 85 74 346 
3 75 319 235 
3 295 76 314 
3 104 77 346 
3 3 78 79 
3 111 218 231 
3 316 208 317 
3 104 227 77 
3 80 357 266 
3 286 201 287 
3 108 320 349 
3 81 12 277 
3 301 82 11 
3 222 83 89 
3 102 337 110 
3 85 77 84 
3 340 86 318 
3 62 87 283 
3 339 176 281 
3 88 90 327 
3 150 89 117 
3 318 345 90 
3 289 200 290 
3 209 91 210 
3 364 92 322 
3 306 204 93 
3 429 428 55 
3 428 427 53 
3 427 426 54 
3 426 425 24 
3 425 424 52 
3 424 423 50 
3 423 422 156 
3 422 421 160 
3 363 115 359 
3 263 147 94 
3 95 140 324 
3 95 10 96 
3 266 10 95 
3 98 258 97 
3 222 88 326 
3 221 100 99 
3 111 409 218 
3 262 144 260 
3 101 81 276 
3 92 360 321 
3 285 102 178 
3 221 99 103 
3 227 104 86 
3 304 203 105 
3 261 145 106 
3 115 107 66 
3 108 66 107 
3 109 379 369 
3 110 338 279 
3 405 111 413 
3 89 112 222 
3 113 140 217 
3 99 219 103 
3 362 230 114 
3 115 114 107 
3 114 115 362 
3 7 116 84 
3 7 84 118 
3 7 117 83 
3 7 118 117 
3 409 74 116 
3 197 286 194 
3 356 355 73 
3 120 119 23 
3 258 120 97 
3 111 258 257 
3 111 257 149 
3 30 155 246 
3 122 121 29 
3 123 122 31 
3 124 123 36 
3 125 124 28 
3 126 125 35 
3 127 126 32 
3 128 127 33 
3 129 128 37 
3 130 129 39 
3 131 130 42 
3 132 131 38 
3 133 132 41 
3 134 133 34 
3 135 134 45 
3 136 135 43 
3 137 136 40 
3 138 137 46 
3 139 138 47 
3 406 139 44 
3 141 140 96 
3 142 141 10 
3 143 142 20 
3 144 143 260 
3 145 144 106 
3 146 145 18 
3 147 146 94 
3 148 147 22 
3 119 148 67 
3 119 147 148 
3 147 145 146 
3 144 142 143 
3 147 144 145 
3 111 144 147 
3 111 147 119 
3 142 140 141 
3 144 140 142 
3 111 139 406 
3 111 138 139 
3 144 111 140 
3 111 137 138 
3 111 136 137 
3 120 111 119 
3 111 149 21 
3 258 111 120 
3 111 135 136 
3 111 134 135 
3 27 111 21 
3 111 133 134 
3 111 132 133 
3 25 111 27 
3 26 111 25 
3 111 131 132 
3 111 130 131 
3 19 111 26 
3 153 111 19 
3 111 129 130 
3 111 128 129 
3 152 111 153 
3 154 111 152 
3 111 127 128 
3 111 126 127 
3 155 111 154 
3 30 111 155 
3 111 125 126 
3 111 124 125 
3 121 111 30 
3 122 111 121 
3 111 123 124 
3 86 89 150 
3 150 227 86 
3 89 86 112 
3 206 151 314 
3 20 142 232 
3 18 145 261 
3 23 119 256 
3 106 144 262 
3 22 147 263 
3 21 149 257 
3 97 120 98 
3 249 154 152 
3 250 152 153 
3 29 121 244 
3 324 226 80 
3 374 24 425 
3 248 155 154 
3 247 246 155 
3 37 128 237 
3 39 129 236 
3 156 378 423 
3 33 127 238 
3 36 123 242 
3 35 125 240 
3 32 126 239 
3 28 124 241 
3 233 45 134 
3 273 34 133 
3 42 130 75 
3 31 122 243 
3 274 41 132 
3 272 43 135 
3 38 131 235 
3 270 46 137 
3 268 44 139 
3 271 40 136 
3 264 157 411 
3 265 158 407 
3 269 47 138 
3 159 412 259 
3 156 422 160 
3 161 418 167 
3 160 421 162 
3 376 52 424 
3 163 419 161 
3 369 164 430 
3 165 420 163 
3 162 421 165 
3 166 413 234 
3 167 417 385 
3 267 168 406 
3 378 50 423 
3 377 48 424 
3 373 54 426 
3 375 51 425 
3 372 53 427 
3 109 169 429 
3 370 56 429 
3 282 171 170 
3 371 55 428 
3 397 172 434 
3 401 173 431 
3 395 174 436 
3 396 175 435 
3 275 335 330 
3 282 176 57 
3 285 336 102 
3 281 177 339 
3 279 178 110 
3 276 179 101 
3 9 16 313 
3 332 49 302 
3 70 212 300 
3 180 441 390 
3 394 181 437 
3 182 440 391 
3 183 439 392 
3 184 442 389 
3 383 185 408 
3 186 443 388 
3 438 181 393 
3 187 402 368 
3 188 445 386 
3 64 14 309 
3 71 68 312 
3 189 446 384 
3 190 82 301 
3 77 227 118 
3 191 403 380 
3 84 116 85 
3 379 74 409 
3 192 444 387 
3 91 209 299 
3 93 205 307 
3 288 200 289 
3 2 193 295 
3 61 206 314 
3 13 211 297 
3 105 214 305 
3 326 88 327 
3 88 222 340 
3 222 112 340 
3 198 197 194 
3 195 405 400 
3 214 196 305 
3 197 201 286 
3 327 197 198 
3 197 327 90 
3 64 345 14 
3 212 199 15 
3 199 345 64 
3 206 90 345 
3 203 200 90 
3 90 201 197 
3 201 202 287 
3 202 200 288 
3 200 291 290 
3 291 203 304 
3 203 214 105 
3 214 292 196 
3 292 204 306 
3 204 205 93 
3 205 16 9 
3 17 68 71 
3 68 206 61 
3 206 294 151 
3 294 215 315 
3 215 193 2 
3 193 296 207 
3 296 208 316 
3 208 213 317 
3 213 211 13 
3 78 3 209 
3 78 209 210 
3 0 210 1 
3 211 210 0 
3 79 212 70 
3 212 345 199 
3 90 202 201 
3 200 203 291 
3 90 200 202 
3 79 345 212 
3 210 79 78 
3 213 210 211 
3 193 208 296 
3 193 210 213 
3 193 213 208 
3 210 345 79 
3 205 214 90 
3 90 214 203 
3 214 204 292 
3 214 205 204 
3 16 205 90 
3 193 345 210 
3 206 16 90 
3 16 68 17 
3 206 345 193 
3 206 193 215 
3 206 215 294 
3 95 80 266 
3 92 361 360 
3 221 217 231 
3 221 231 218 
3 100 221 284 
3 76 218 7 
3 83 76 7 
3 230 219 114 
3 217 219 230 
3 217 103 219 
3 284 63 100 
3 217 221 103 
3 63 284 220 
3 63 220 87 
3 221 308 284 
3 218 308 221 
3 218 76 308 
3 222 194 76 
3 323 113 362 
3 352 362 223 
3 352 224 362 
3 323 224 225 
3 73 323 69 
3 113 73 355 
3 113 355 226 
3 323 362 224 
3 117 118 227 
3 117 227 150 
3 266 344 319 
3 344 357 351 
3 357 344 266 
3 351 228 344 
3 348 92 364 
3 92 228 351 
3 228 92 348 
3 334 329 229 
3 113 217 230 
3 113 230 362 
3 231 140 111 
3 231 217 140 
3 346 74 379 
3 363 350 322 
3 261 94 18 
3 262 261 106 
3 232 260 20 
3 266 232 10 
3 233 319 400 
3 166 234 400 
3 259 234 159 
3 264 259 157 
3 265 264 158 
3 267 265 168 
3 268 267 44 
3 269 268 47 
3 270 269 46 
3 271 270 40 
3 272 271 43 
3 233 272 45 
3 273 233 34 
3 274 273 41 
3 235 274 38 
3 75 235 42 
3 236 75 39 
3 237 236 37 
3 238 237 33 
3 239 238 32 
3 240 239 35 
3 241 240 28 
3 242 241 36 
3 243 242 31 
3 244 243 29 
3 245 244 30 
3 319 245 246 
3 319 246 247 
3 248 247 155 
3 249 248 154 
3 250 249 152 
3 251 250 153 
3 252 251 19 
3 253 252 26 
3 254 253 25 
3 255 254 27 
3 257 255 21 
3 256 98 23 
3 319 255 257 
3 319 257 258 
3 319 254 255 
3 319 253 254 
3 319 252 253 
3 319 251 252 
3 319 250 251 
3 319 249 250 
3 319 248 249 
3 319 247 248 
3 319 244 245 
3 319 243 244 
3 319 242 243 
3 259 400 234 
3 266 262 260 
3 266 260 232 
3 261 263 94 
3 262 263 261 
3 263 67 22 
3 263 256 67 
3 266 263 262 
3 264 400 259 
3 265 400 264 
3 266 256 263 
3 319 256 266 
3 267 400 265 
3 268 400 267 
3 319 98 256 
3 319 258 98 
3 269 400 268 
3 270 400 269 
3 319 241 242 
3 271 400 270 
3 272 400 271 
3 319 240 241 
3 319 239 240 
3 233 400 272 
3 319 238 239 
3 319 237 238 
3 273 319 233 
3 274 319 273 
3 319 236 237 
3 319 75 236 
3 235 319 274 
3 308 229 5 
3 284 5 335 
3 284 335 275 
3 284 275 179 
3 284 179 276 
3 284 276 81 
3 284 81 277 
3 303 277 12 
3 278 303 8 
3 285 278 336 
3 279 285 178 
3 220 279 338 
3 220 338 280 
3 220 280 177 
3 220 177 281 
3 282 281 176 
3 281 282 283 
3 281 283 220 
3 278 220 284 
3 285 220 278 
3 5 284 308 
3 295 308 76 
3 295 297 308 
3 285 279 220 
3 299 308 297 
3 286 76 194 
3 287 76 286 
3 76 287 288 
3 76 288 289 
3 76 289 290 
3 76 290 291 
3 305 304 105 
3 292 305 196 
3 307 306 93 
3 313 307 9 
3 293 313 17 
3 312 293 71 
3 314 312 61 
3 294 314 151 
3 295 315 2 
3 296 295 207 
3 297 317 13 
3 298 297 0 
3 311 298 1 
3 299 311 91 
3 310 3 79 
3 300 310 70 
3 309 15 64 
3 301 309 190 
3 308 65 332 
3 308 332 302 
3 308 302 334 
3 308 334 229 
3 284 277 303 
3 284 303 278 
3 300 308 299 
3 76 291 304 
3 76 304 305 
3 306 305 292 
3 76 305 306 
3 76 306 307 
3 308 301 11 
3 308 11 65 
3 309 300 15 
3 308 300 309 
3 308 309 301 
3 310 299 3 
3 300 299 310 
3 311 297 298 
3 299 297 311 
3 312 313 293 
3 76 307 313 
3 314 313 312 
3 315 314 294 
3 316 295 296 
3 295 314 315 
3 76 313 314 
3 317 295 316 
3 297 295 317 
3 346 77 85 
3 104 346 318 
3 346 400 319 
3 346 379 400 
3 322 321 363 
3 353 69 323 
3 113 226 324 
3 113 324 140 
3 220 283 87 
3 354 225 224 
3 349 325 108 
3 194 222 326 
3 194 326 327 
3 194 327 198 
3 331 345 328 
3 14 345 82 
3 329 328 343 
3 179 330 343 
3 5 329 343 
3 331 82 345 
3 14 82 190 
3 82 331 11 
3 331 333 65 
3 328 49 332 
3 328 332 333 
3 328 329 334 
3 328 334 49 
3 343 4 5 
3 343 330 335 
3 343 335 4 
3 343 101 179 
3 343 81 101 
3 343 337 81 
3 337 12 81 
3 337 8 12 
3 337 102 336 
3 337 336 8 
3 102 110 178 
3 338 339 177 
3 339 57 176 
3 338 337 58 
3 339 58 57 
3 331 328 333 
3 338 58 339 
3 110 337 338 
3 347 358 66 
3 90 88 340 
3 117 89 83 
3 319 342 341 
3 328 319 341 
3 344 72 342 
3 337 343 341 
3 344 216 72 
3 344 342 319 
3 319 328 345 
3 341 343 328 
3 216 344 228 
3 345 318 346 
3 345 346 319 
3 318 90 340 
3 210 91 1 
3 364 358 347 
3 349 347 325 
3 348 349 320 
3 349 364 347 
3 364 322 350 
3 92 6 361 
3 351 354 352 
3 351 352 6 
3 354 353 225 
3 353 356 69 
3 357 80 355 
3 357 355 356 
3 353 351 357 
3 353 357 356 
3 6 92 351 
3 321 322 92 
3 354 351 353 
3 358 115 66 
3 115 358 359 
3 363 359 350 
3 360 363 321 
3 362 360 361 
3 362 361 223 
3 363 362 115 
3 363 360 362 
3 359 358 364 
3 95 96 140 
3 218 409 7 
3 193 207 295 
3 398 365 433 
3 86 104 318 
3 399 366 432 
3 352 223 6 
3 348 364 349 
3 367 410 381 
3 108 107 320 
3 66 108 325 
3 364 350 359 
3 380 60 191 
3 381 380 367 
3 383 381 185 
3 368 383 187 
3 384 368 189 
3 386 384 188 
3 387 386 192 
3 388 387 186 
3 389 388 184 
3 390 389 180 
3 391 390 182 
3 392 391 183 
3 393 392 59 
3 394 393 181 
3 395 394 174 
3 396 395 175 
3 397 396 172 
3 398 397 365 
3 399 398 366 
3 401 399 173 
3 369 401 164 
3 109 369 169 
3 370 109 56 
3 371 370 55 
3 372 371 53 
3 373 372 54 
3 374 373 24 
3 375 374 51 
3 376 375 52 
3 377 376 48 
3 378 377 50 
3 382 416 415 
3 400 414 195 
3 370 400 379 
3 380 379 60 
3 381 379 380 
3 400 382 414 
3 400 416 382 
3 383 379 381 
3 368 384 379 
3 379 383 368 
3 400 385 416 
3 400 167 385 
3 386 379 384 
3 387 379 386 
3 400 161 167 
3 400 163 161 
3 388 379 387 
3 389 379 388 
3 400 165 163 
3 400 162 165 
3 390 379 389 
3 391 379 390 
3 400 160 162 
3 400 156 160 
3 392 379 391 
3 393 379 392 
3 400 378 156 
3 400 377 378 
3 394 379 393 
3 395 379 394 
3 400 376 377 
3 400 375 376 
3 396 379 395 
3 397 379 396 
3 400 374 375 
3 400 373 374 
3 398 379 397 
3 399 379 398 
3 400 372 373 
3 400 371 372 
3 401 379 399 
3 369 379 401 
3 400 370 371 
3 379 109 370 
3 323 225 353 
3 430 429 169 
3 431 430 164 
3 432 431 173 
3 433 432 366 
3 434 433 365 
3 435 434 172 
3 436 435 175 
3 437 436 174 
3 438 437 181 
3 439 438 59 
3 440 439 183 
3 441 440 182 
3 442 441 180 
3 443 442 184 
3 444 443 186 
3 445 444 192 
3 446 445 188 
3 402 446 189 
3 408 402 187 
3 410 408 185 
3 403 410 367 
3 404 403 191 
3 409 404 60 
3 405 409 111 
3 406 407 111 
3 407 406 168 
3 411 111 407 
3 409 403 404 
3 409 402 408 
3 409 408 410 
3 409 410 403 
3 412 111 411 
3 411 407 158 
3 412 411 157 
3 413 412 159 
3 405 413 166 
3 414 405 195 
3 415 414 382 
3 417 416 385 
3 418 417 167 
3 419 418 161 
3 420 419 163 
3 421 420 165 
3 415 405 414 
3 416 405 415 
3 417 405 416 
3 418 405 417 
3 419 405 418 
3 420 405 419 
3 421 405 420 
3 422 405 421 
3 423 405 422 
3 424 405 423 
3 425 405 424 
3 409 405 425 
3 409 425 426 
3 409 426 427 
3 409 427 428 
3 409 428 429 
3 409 429 430 
3 409 430 431 
3 409 431 432 
3 409 432 433 
3 409 433 434 
3 409 434 435 
3 409 435 436 
3 437 409 436 
3 438 409 437 
3 439 409 438 
3 440 409 439 
3 441 409 440 
3 442 409 441 
3 443 409 442 
3 444 409 443 
3 445 409 444 
3 446 409 445 
3 409 446 402 
3 413 111 412 
