ply
format ascii 1.0
comment Generated by Slim Ghodhbane
element vertex 434
property double x
property double y
property double z
property uchar red
property uchar green
property uchar blue
property uchar alpha
element face 854
property list uchar int vertex_index
end_header
-5.18334 17.3008 4.59664 0 250 0 250
-5.20137 17.2257 4.59392 0 250 0 250
-3.19462 16.6407 4.30777 0 250 0 250
-3.23255 16.6467 4.32769 0 250 0 250
-3.46003 15.0596 4.37259 0 250 0 250
-1.04505 13.4035 4.06188 0 250 0 250
-5.07152 17.2307 4.55644 0 250 0 250
-4.0465 15.4429 4.44876 0 250 0 250
-2.09468 16.2742 4.18611 0 250 0 250
-2.23374 16.2893 4.16742 0 250 0 250
-3.04975 14.7615 4.31115 0 250 0 250
-3.95231 16.8804 4.40341 0 250 0 250
-5.14017 16.5032 4.60677 0 250 0 250
-5.15691 16.516 4.59611 0 250 0 250
-4.41544 17.0202 4.474 0 250 0 250
-0.902829 15.8946 4.03995 0 250 0 250
-2.92567 14.677 4.30664 0 250 0 250
-3.96047 15.3992 4.44996 0 250 0 250
-0.618118 15.7961 3.99054 0 250 0 250
-0.618118 15.7827 4.027 0 250 0 250
-3.8064 15.2744 4.40463 0 250 0 250
-3.5417 15.1208 4.38008 0 250 0 250
-3.68871 15.1953 4.4033 0 250 0 250
-3.8198 15.2997 4.41894 0 250 0 250
-2.57143 14.434 4.25813 0 250 0 250
-3.16606 14.8765 4.3575 0 250 0 250
-3.14068 14.8527 4.33316 0 250 0 250
-3.08688 14.7925 4.3098 0 250 0 250
-2.76806 14.5908 4.26125 0 250 0 250
-2.68605 14.5144 4.25951 0 250 0 250
-1.96677 14.0334 4.16283 0 250 0 250
-3.1275 14.8308 4.31088 0 250 0 250
-2.42077 14.3627 4.23495 0 250 0 250
-2.39771 14.3588 4.25962 0 250 0 250
-1.97982 14.06 4.15324 0 250 0 250
-2.00647 14.0712 4.16292 0 250 0 250
-1.97674 14.0633 4.18554 0 250 0 250
-2.07411 14.1453 4.15589 0 250 0 250
-2.04816 14.1168 4.21222 0 250 0 250
-2.28925 14.2416 4.21354 0 250 0 250
-1.7206 13.9068 4.11031 0 250 0 250
-1.64729 13.8317 4.11599 0 250 0 250
-1.29978 13.6035 4.08957 0 250 0 250
-1.20646 13.5134 4.06594 0 250 0 250
-4.88577 16.0335 4.54989 0 250 0 250
-4.80737 15.955 4.54775 0 250 0 250
-4.98037 16.1772 4.57655 0 250 0 250
-4.96858 16.1491 4.5544 0 250 0 250
-5.10159 17.2605 4.58418 0 250 0 250
-4.67514 15.8911 4.52492 0 250 0 250
-4.20784 15.552 4.45315 0 250 0 250
-4.74576 17.1375 4.52486 0 250 0 250
-4.31914 15.6496 4.47732 0 250 0 250
-4.16995 15.5211 4.45589 0 250 0 250
-4.35293 17.0092 4.47313 0 250 0 250
-3.99119 15.44 4.40365 0 250 0 250
-3.88962 15.3507 4.40453 0 250 0 250
-3.90162 15.3685 4.43213 0 250 0 250
-3.94772 16.88 4.42571 0 250 0 250
-3.68307 16.7615 4.3567 0 250 0 250
-3.6602 16.7826 4.3823 0 250 0 250
-2.77915 16.4976 4.28619 0 250 0 250
-2.54108 16.422 4.23801 0 250 0 250
-2.45422 16.3824 4.20419 0 250 0 250
-1.78351 16.1794 4.16798 0 250 0 250
-1.73634 16.1576 4.13877 0 250 0 250
-1.6579 16.1367 4.13902 0 250 0 250
-3.76438 15.2369 4.40392 0 250 0 250
-5.10098 16.4967 4.54478 0 250 0 250
-0.95228 13.38 4.07218 0 250 0 250
-2.32625 14.3173 4.24654 0 250 0 250
-2.38008 14.336 4.23463 0 250 0 250
-4.97968 17.2162 4.57684 0 250 0 250
-4.02971 16.8814 4.40383 0 250 0 250
-4.31731 17.0005 4.45248 0 250 0 250
-0.980903 15.901 4.07328 0 250 0 250
-5.03855 16.2753 4.54615 0 250 0 250
-2.84116 14.639 4.30508 0 250 0 250
-3.25242 14.9146 4.35028 0 250 0 250
-3.26536 14.9353 4.32714 0 250 0 250
-1.10053 13.541 4.01295 0 250 0 250
-2.04768 14.1125 4.15875 0 250 0 250
-2.19108 16.3271 4.209 0 250 0 250
-4.58047 15.8192 4.51809 0 250 0 250
-3.14109 16.6158 4.3337 0 250 0 250
-1.6602 13.8496 4.14041 0 250 0 250
-1.24664 13.5522 4.06796 0 250 0 250
-1.26006 13.5765 4.08921 0 250 0 250
-4.9426 16.1379 4.53565 0 250 0 250
-4.917 16.0747 4.55543 0 250 0 250
-5.18373 16.6193 4.61021 0 250 0 250
-2.10101 14.1449 4.18598 0 250 0 250
-4.83456 17.1994 4.54862 0 250 0 250
-4.82131 17.181 4.55897 0 250 0 250
-1.58 16.1342 4.10682 0 250 0 250
-4.28882 16.9844 4.47849 0 250 0 250
-3.97616 15.415 4.42458 0 250 0 250
-1.16972 13.4816 4.0682 0 250 0 250
-2.06582 14.1206 4.18672 0 250 0 250
-0.7 15.7977 3.97055 0 250 0 250
-4.72763 15.9172 4.54989 0 250 0 250
-4.89897 16.0629 4.53984 0 250 0 250
-4.52593 15.756 4.50373 0 250 0 250
-2.50779 14.4499 4.2083 0 250 0 250
-2.17704 14.1793 4.21737 0 250 0 250
-4.36977 15.6756 4.50187 0 250 0 250
-4.86051 16.0201 4.53509 0 250 0 250
-1.33541 16.0144 4.11915 0 250 0 250
-3.62259 15.1767 4.37627 0 250 0 250
-5.20284 17.06 4.58502 0 250 0 250
-4.53939 15.7802 4.49046 0 250 0 250
-3.50062 15.0964 4.38054 0 250 0 250
-3.44805 15.085 4.39522 0 250 0 250
-2.41561 16.3794 4.23696 0 250 0 250
-2.48172 16.3989 4.21024 0 250 0 250
-4.60893 15.8304 4.50497 0 250 0 250
-4.9 17.2114 4.54164 0 250 0 250
-1.36753 13.6377 4.1133 0 250 0 250
-1.38409 13.6591 4.08956 0 250 0 250
-1.1 15.9187 4.01783 0 250 0 250
-2.78067 14.6091 4.28632 0 250 0 250
-4.13727 15.5015 4.46117 0 250 0 250
-1.57968 13.7802 4.12727 0 250 0 250
-2.02168 16.2566 4.18458 0 250 0 250
-3.60679 15.1573 4.40311 0 250 0 250
-1.48052 13.6796 4.11393 0 250 0 250
-1.60651 13.7926 4.1162 0 250 0 250
-0.980699 13.3855 4.04113 0 250 0 250
-5.17956 17.2386 4.5796 0 250 0 250
-4.75713 17.1589 4.55026 0 250 0 250
-3.48765 15.0712 4.35914 0 250 0 250
-3.18203 16.6315 4.3279 0 250 0 250
-2.02008 14.0928 4.18717 0 250 0 250
-2.4883 14.3973 4.25621 0 250 0 250
-2.50248 14.4165 4.23333 0 250 0 250
-2.61811 16.4628 4.24642 0 250 0 250
-2.72672 14.5523 4.26174 0 250 0 250
-3.19019 14.9003 4.29969 0 250 0 250
-3.18754 14.8792 4.33184 0 250 0 250
-2.85606 14.6557 4.28142 0 250 0 250
-2.10719 14.1877 4.15279 0 250 0 250
-1.21738 13.5825 4.11613 0 250 0 250
-2.69958 14.5401 4.27306 0 250 0 250
-2.65894 14.5009 4.26875 0 250 0 250
-0.620646 15.7794 3.96229 0 250 0 250
-4.45189 15.7137 4.4994 0 250 0 250
-4.848 15.9904 4.54938 0 250 0 250
-3.73846 16.8228 4.39065 0 250 0 250
-5.00356 16.1972 4.57191 0 250 0 250
-5.00151 16.1949 4.54632 0 250 0 250
-4.99838 17.2024 4.6006 0 250 0 250
-5.01521 17.2324 4.5738 0 250 0 250
-4.62136 15.8567 4.52634 0 250 0 250
-4.67703 17.1203 4.50256 0 250 0 250
-2.82053 16.5144 4.28187 0 250 0 250
-3.59811 16.7656 4.37829 0 250 0 250
-3.55842 16.7597 4.35577 0 250 0 250
-3.30999 16.6873 4.35546 0 250 0 250
-2.83177 16.5195 4.26114 0 250 0 250
-2.81673 16.5048 4.25291 0 250 0 250
-2.46755 16.3976 4.2284 0 250 0 250
-0.974589 15.9118 4.0417 0 250 0 250
-0.964429 15.8969 4.01006 0 250 0 250
-0.631201 15.8082 4.01445 0 250 0 250
-4.46304 15.7364 4.51314 0 250 0 250
-1.751 13.9477 4.10574 0 250 0 250
-1.88593 13.9606 4.1605 0 250 0 250
-1.73605 13.897 4.13905 0 250 0 250
-3.88694 16.8571 4.43113 0 250 0 250
-4.638 17.0982 4.53067 0 250 0 250
-1.43453 16.084 4.11219 0 250 0 250
-3.67713 15.2349 4.36072 0 250 0 250
-3.29799 16.6628 4.36749 0 250 0 250
-4.18 16.9716 4.44493 0 250 0 250
-5.06234 16.3337 4.57258 0 250 0 250
-5.03792 16.2647 4.58889 0 250 0 250
-2.98089 16.5812 4.3161 0 250 0 250
-2.10821 16.2756 4.21213 0 250 0 250
-2.17385 16.2991 4.18642 0 250 0 250
-4.26163 15.613 4.47905 0 250 0 250
-2.93972 16.5228 4.26027 0 250 0 250
-4.2492 15.5898 4.45698 0 250 0 250
-4.11406 16.9596 4.45102 0 250 0 250
-4.06748 16.8978 4.41857 0 250 0 250
-3.55113 15.1399 4.34805 0 250 0 250
-2.86479 16.5236 4.31025 0 250 0 250
-5.11631 16.6623 4.63936 0 250 0 250
-5.06026 16.3416 4.60611 0 250 0 250
-1.38841 13.6954 4.0623 0 250 0 250
-1.49513 13.6989 4.11405 0 250 0 250
-4.91007 16.19 4.60571 0 250 0 250
-2.13416 16.2795 4.16326 0 250 0 250
-3.53039 16.7412 4.38086 0 250 0 250
-2.03171 16.2356 4.21108 0 250 0 250
-5.13735 17.2431 4.57019 0 250 0 250
-0.992276 13.4298 4.00834 0 250 0 250
-3.41921 15.0202 4.3672 0 250 0 250
-3.40865 15.0011 4.3542 0 250 0 250
-3.37576 14.9796 4.35584 0 250 0 250
-5.11663 17.2821 4.60004 0 250 0 250
-2.24063 16.3621 4.20968 0 250 0 250
-2.16475 14.163 4.20716 0 250 0 250
-2.93822 14.6938 4.31097 0 250 0 250
-3.18063 16.6236 4.3007 0 250 0 250
-2.97563 16.5752 4.29502 0 250 0 250
-5.01431 17.223 4.54573 0 250 0 250
-1.63762 16.115 4.15329 0 250 0 250
-2.87517 14.6975 4.25654 0 250 0 250
-3.00355 14.7173 4.30708 0 250 0 250
-2.63221 16.486 4.25467 0 250 0 250
-5.20059 16.6324 4.59801 0 250 0 250
-4.02226 16.9018 4.43206 0 250 0 250
-4.02226 16.9005 4.46049 0 250 0 250
-3.44683 15.0331 4.3564 0 250 0 250
-3.77859 15.261 4.41431 0 250 0 250
-2.6466 14.4804 4.25689 0 250 0 250
-1.92967 14.001 4.16505 0 250 0 250
-1.89864 13.9812 4.1709 0 250 0 250
-2.24397 14.2022 4.20798 0 250 0 250
-5.12178 16.4377 4.59754 0 250 0 250
-1.42072 16.0611 4.12172 0 250 0 250
-1.42072 16.0611 4.09401 0 250 0 250
-4.12363 15.4817 4.4506 0 250 0 250
-3.35869 16.7178 4.35617 0 250 0 250
-1.86106 16.2216 4.17076 0 250 0 250
-1.87612 16.2442 4.16176 0 250 0 250
-2.9966 16.6035 4.30405 0 250 0 250
-1.46 16.0394 4.06598 0 250 0 250
-1.34159 16.0194 4.05954 0 250 0 250
-0.676378 15.8381 4.01515 0 250 0 250
-4.37959 15.6908 4.46446 0 250 0 250
-0.552143 15.7781 3.9919 0 250 0 250
-0.78 15.7954 3.96958 0 250 0 250
-2.09053 16.26 4.15527 0 250 0 250
-0.755518 15.8846 4.015 0 250 0 250
-1.78203 16.1591 4.11514 0 250 0 250
-1.72217 16.1388 4.10673 0 250 0 250
-1.49775 16.1029 4.10193 0 250 0 250
-1.0291 15.9199 4.02355 0 250 0 250
-3.09623 14.8214 4.33369 0 250 0 250
-1.12461 13.4415 4.06303 0 250 0 250
-1.0568 13.4189 4.07181 0 250 0 250
-1.10148 13.5435 4.11095 0 250 0 250
-1.13781 13.4615 4.07286 0 250 0 250
-1.82035 13.9376 4.14891 0 250 0 250
-1.86054 16.2212 4.15198 0 250 0 250
-1.82774 16.1634 4.1159 0 250 0 250
-4.63566 17.0786 4.55105 0 250 0 250
-1.07041 15.9674 4.06391 0 250 0 250
-5.10224 16.4234 4.57273 0 250 0 250
-1.49775 16.1029 4.12403 0 250 0 250
-1.50988 16.1244 4.11452 0 250 0 250
-0.533456 15.7421 4.02417 0 250 0 250
-0.909565 15.8729 4.0656 0 250 0 250
-0.743115 15.8669 4.01594 0 250 0 250
-0.994482 15.9241 4.06355 0 250 0 250
-1.05794 15.9428 4.0755 0 250 0 250
-1.10542 15.984 4.065 0 250 0 250
-1.12074 16.0029 4.06408 0 250 0 250
-1.292 16.017 4.0919 0 250 0 250
-1.17747 15.9398 4.10837 0 250 0 250
-1.35294 16.038 4.10521 0 250 0 250
-0.663151 15.8196 4.0228 0 250 0 250
-3.01757 14.7374 4.30869 0 250 0 250
-3.145 14.86 4.2974 0 250 0 250
-3.26636 14.963 4.30692 0 250 0 250
-3.46003 15.0596 4.34574 0 250 0 250
-3.05946 14.78 4.29814 0 250 0 250
-3.10007 14.8196 4.29754 0 250 0 250
-2.83946 14.6662 4.25306 0 250 0 250
-2.78417 14.6202 4.24915 0 250 0 250
-2.58284 14.4566 4.24324 0 250 0 250
-2.69958 14.5401 4.24985 0 250 0 250
-2.74007 14.5796 4.24937 0 250 0 250
-2.29943 14.2604 4.20234 0 250 0 250
-2.3397 14.3001 4.20154 0 250 0 250
-2.38599 14.3404 4.20232 0 250 0 250
-2.2203 14.3021 4.15919 0 250 0 250
-3.50658 15.1 4.3465 0 250 0 250
-3.59709 15.1797 4.35145 0 250 0 250
-3.77859 15.261 4.39494 0 250 0 250
-3.8198 15.2997 4.39409 0 250 0 250
-3.86048 15.3392 4.39367 0 250 0 250
-4.17973 15.5397 4.44229 0 250 0 250
-4.22061 15.5791 4.44175 0 250 0 250
-4.26782 15.6197 4.44202 0 250 0 250
-4.38322 15.721 4.44989 0 250 0 250
-4.62828 15.8601 4.49091 0 250 0 250
-4.58047 15.8192 4.49005 0 250 0 250
-4.30269 15.6576 4.44287 0 250 0 250
-4.06008 15.4975 4.41149 0 250 0 250
-3.95305 15.431 4.39406 0 250 0 250
-2.58735 14.5329 4.21047 0 250 0 250
-3.66246 15.2586 4.35127 0 250 0 250
-1.66436 13.8608 4.10483 0 250 0 250
-1.61994 13.8199 4.10485 0 250 0 250
-1.26573 13.5805 4.05772 0 250 0 250
-1.17954 13.5003 4.05729 0 250 0 250
-1.2198 13.5401 4.05695 0 250 0 250
-4.73526 15.9314 4.51074 0 250 0 250
-3.54238 16.7446 4.34852 0 250 0 250
-3.86048 15.3392 4.42684 0 250 0 250
-4.56759 15.7927 4.50323 0 250 0 250
-4.53939 15.7802 4.5129 0 250 0 250
-5.16751 17.2691 4.61127 0 250 0 250
-5.03638 17.2429 4.59857 0 250 0 250
-5.08259 16.3558 4.59786 0 250 0 250
-3.78 16.78 4.36739 0 250 0 250
-1.62422 13.8315 4.15194 0 250 0 250
-1.054 15.9408 4.04464 0 250 0 250
-1.2198 13.5401 4.08082 0 250 0 250
-5.18581 17.0675 4.56027 0 250 0 250
-5.2021 16.7502 4.58904 0 250 0 250
-3.90612 15.3788 4.39385 0 250 0 250
-3.30158 16.6597 4.32875 0 250 0 250
-5.19998 17.32 4.59801 0 250 0 250
-2.55504 16.4433 4.25695 0 250 0 250
-4.47926 17.0799 4.49973 0 250 0 250
-2.25721 14.2218 4.21792 0 250 0 250
-4.8202 15.9786 4.53441 0 250 0 250
-5.13982 17.1807 4.55359 0 250 0 250
-5.08309 16.3871 4.5601 0 250 0 250
-3.7012 15.2173 4.38787 0 250 0 250
-3.67407 16.805 4.40278 0 250 0 250
-5.20284 16.98 4.61613 0 250 0 250
-4.42726 17.0483 4.50103 0 250 0 250
-2.42476 14.3806 4.20132 0 250 0 250
-1.30209 13.6192 4.0567 0 250 0 250
-1.53997 13.7381 4.11233 0 250 0 250
-1.52536 13.7161 4.11487 0 250 0 250
-1.56628 13.7538 4.11557 0 250 0 250
-2.74478 14.5921 4.29879 0 250 0 250
-4.05765 15.459 4.46081 0 250 0 250
-4.22061 15.5791 4.47208 0 250 0 250
-4.9426 16.1379 4.57378 0 250 0 250
-5.183 16.6177 4.58082 0 250 0 250
-4.41635 17.0018 4.45424 0 250 0 250
-4.30035 16.9838 4.44663 0 250 0 250
-4.66184 17.1031 4.49502 0 250 0 250
-4.77442 17.1224 4.50389 0 250 0 250
-3.7012 15.2173 4.415 0 250 0 250
-3.84755 15.3115 4.40728 0 250 0 250
-1.82035 13.9376 4.17105 0 250 0 250
-1.8072 13.9164 4.16231 0 250 0 250
-1.73688 13.8988 4.16862 0 250 0 250
-2.58284 14.4566 4.27028 0 250 0 250
-4.8202 15.9786 4.5599 0 250 0 250
-3.75119 16.844 4.40409 0 250 0 250
-4.46304 15.7364 4.48337 0 250 0 250
-2.02049 14.1013 4.15154 0 250 0 250
-1.93956 14.0203 4.15391 0 250 0 250
-4.03755 16.9221 4.44942 0 250 0 250
-2.17829 16.3027 4.22147 0 250 0 250
-2.22713 16.3449 4.2109 0 250 0 250
-1.551 16.0288 4.16487 0 250 0 250
-1.7406 16.1533 4.16686 0 250 0 250
-1.79608 16.1964 4.16107 0 250 0 250
-2.36666 14.3121 4.21338 0 250 0 250
-2.3397 14.3001 4.2265 0 250 0 250
-0.832133 13.6678 3.93624 0 250 0 250
-4.98037 16.181 4.54026 0 250 0 250
-4.66257 15.908 4.48536 0 250 0 250
-4.74299 15.9603 4.49862 0 250 0 250
-0.796425 13.8893 3.91703 0 250 0 250
-5.05343 16.3528 4.54197 0 250 0 250
-5.16077 16.7404 4.54604 0 250 0 250
-3.93144 16.863 4.39774 0 250 0 250
-4.1 16.8697 4.40684 0 250 0 250
-3.31237 16.6427 4.30769 0 250 0 250
-2.32627 14.2734 4.21247 0 250 0 250
-2.9037 16.5409 4.28801 0 250 0 250
-2.91888 16.5593 4.30702 0 250 0 250
-4.70084 17.1235 4.55031 0 250 0 250
-4.10104 16.9414 4.46258 0 250 0 250
-3.73846 16.8228 4.41619 0 250 0 250
-3.59571 16.7624 4.40579 0 250 0 250
-3.95339 16.8721 4.45449 0 250 0 250
-4.46 16.98 4.53564 0 250 0 250
-4.2884 16.9659 4.50452 0 250 0 250
-4.34175 17.0031 4.50136 0 250 0 250
-4.41619 17.0239 4.51306 0 250 0 250
-4.46307 17.0602 4.5092 0 250 0 250
-2.61811 16.4628 4.2697 0 250 0 250
-2.78728 16.4822 4.30753 0 250 0 250
-2.47216 16.3941 4.2597 0 250 0 250
-2.35166 16.327 4.25755 0 250 0 250
-3.34368 16.6998 4.36251 0 250 0 250
-3.87041 16.8323 4.44857 0 250 0 250
-3.54255 16.7276 4.40477 0 250 0 250
-3.23113 16.6418 4.35845 0 250 0 250
-3.15037 16.5997 4.35513 0 250 0 250
-2.7 14.5953 4.30895 0 250 0 250
-2.50108 14.4172 4.26756 0 250 0 250
-2.42948 14.3822 4.26398 0 250 0 250
-2.33355 14.35 4.26276 0 250 0 250
-2.01161 14.1074 4.21268 0 250 0 250
-2.07168 14.1393 4.217 0 250 0 250
-1.72063 13.8795 4.16078 0 250 0 250
-1.94888 14.0788 4.21091 0 250 0 250
-1.74 13.94 4.18398 0 250 0 250
-1.66 13.8676 4.1676 0 250 0 250
-1.38086 13.6572 4.1223 0 250 0 250
-1.58 13.8334 4.1647 0 250 0 250
-1.28035 13.6027 4.11522 0 250 0 250
-4.99847 16.2005 4.59762 0 250 0 250
-1.5 13.78 4.15326 0 250 0 250
-5.16461 16.8914 4.64523 0 250 0 250
-3.82 15.34 4.44353 0 250 0 250
-4.64571 15.8857 4.55194 0 250 0 250
-2.85721 14.6591 4.31388 0 250 0 250
-2.78 14.6273 4.3122 0 250 0 250
-4.56925 15.8507 4.54063 0 250 0 250
-4.38211 15.6969 4.51044 0 250 0 250
-4.29082 15.6453 4.50484 0 250 0 250
-4.22 15.6107 4.49631 0 250 0 250
-3.97672 15.4195 4.45854 0 250 0 250
-3.9 15.388 4.45647 0 250 0 250
-3.10577 14.8597 4.35727 0 250 0 250
-3.19289 14.8985 4.36162 0 250 0 250
-3.36066 14.9595 4.35595 0 250 0 250
-3.26378 14.9361 4.36608 0 250 0 250
-3.62012 15.1779 4.4124 0 250 0 250
-3.52001 15.1231 4.40644 0 250 0 250
-3.6602 16.7816 4.414 0 250 0 250
-2.58769 16.3993 4.21034 0 250 0 250
-5.10022 16.4224 4.60643 0 250 0 250
-5.01959 16.2611 4.60389 0 250 0 250
-5.03962 17.2402 4.5511 0 250 0 250
-1.57968 13.7802 4.10547 0 250 0 250
-4.74055 15.9376 4.55777 0 250 0 250
-4.94143 16.177 4.59879 0 250 0 250
-4.86051 16.0201 4.56241 0 250 0 250
-2.54108 16.4213 4.26782 0 250 0 250
-5.10159 17.2605 4.60415 0 250 0 250
3 315 0 1 
3 91 201 140 
3 3 131 2 
3 75 253 161 
3 4 196 112 
3 127 69 5 
3 194 6 320 
3 0 199 194 
3 7 332 222 
3 108 421 22 
3 172 3 314 
3 177 193 8 
3 200 9 63 
3 191 8 233 
3 10 263 239 
3 408 49 152 
3 301 56 282 
3 424 180 159 
3 73 11 366 
3 259 228 261 
3 331 273 136 
3 13 219 12 
3 380 54 14 
3 61 383 209 
3 234 15 253 
3 84 226 203 
3 92 339 116 
3 0 304 199 
3 206 65 355 
3 72 92 116 
3 16 202 207 
3 221 261 228 
3 79 420 419 
3 30 216 36 
3 192 388 223 
3 59 147 323 
3 398 395 36 
3 96 17 415 
3 19 231 18 
3 301 282 341 
3 23 281 20 
3 214 280 67 
3 184 278 21 
3 422 124 21 
3 322 22 340 
3 23 341 281 
3 271 24 345 
3 4 266 213 
3 137 264 138 
3 418 138 25 
3 25 26 417 
3 10 27 267 
3 244 343 342 
3 269 270 139 
3 270 28 120 
3 358 275 369 
3 142 272 29 
3 326 276 32 
3 216 30 350 
3 239 31 268 
3 393 32 33 
3 36 34 30 
3 36 35 34 
3 37 81 98 
3 396 98 38 
3 38 98 395 
3 39 369 274 
3 40 294 167 
3 294 41 85 
3 358 357 275 
3 327 296 42 
3 403 117 42 
3 122 126 428 
3 310 298 43 
3 310 86 298 
3 97 43 297 
3 89 101 44 
3 83 115 288 
3 319 45 346 
3 76 149 175 
3 148 149 46 
3 404 46 430 
3 334 47 88 
3 249 321 425 
3 187 306 174 
3 427 6 48 
3 72 205 151 
3 361 287 49 
3 408 100 49 
3 333 284 50 
3 83 288 302 
3 51 153 339 
3 129 372 51 
3 289 285 52 
3 413 105 52 
3 333 181 284 
3 286 145 348 
3 53 50 283 
3 14 54 336 
3 7 290 55 
3 313 56 57 
3 211 58 73 
3 168 366 58 
3 60 155 59 
3 314 3 368 
3 131 84 203 
3 370 158 180 
3 61 159 154 
3 160 114 62 
3 160 63 114 
3 113 63 160 
3 355 65 64 
3 356 65 235 
3 65 66 236 
3 309 255 238 
3 229 163 144 
3 322 340 67 
3 426 148 404 
3 249 68 321 
3 162 232 119 
3 242 241 69 
3 71 70 394 
3 246 356 235 
3 169 247 317 
3 257 119 258 
3 92 72 150 
3 73 367 183 
3 95 182 173 
3 54 379 74 
3 68 13 335 
3 260 253 75 
3 174 364 76 
3 120 77 270 
3 139 77 409 
3 71 276 357 
3 79 78 420 
3 129 51 339 
3 327 80 296 
3 301 416 57 
3 368 2 203 
3 132 98 81 
3 82 178 9 
3 115 83 411 
3 200 113 385 
3 226 84 390 
3 85 400 397 
3 184 21 124 
3 87 86 141 
3 258 228 259 
3 26 264 31 
3 334 88 89 
3 200 63 113 
3 12 186 90 
3 91 396 201 
3 93 129 92 
3 152 49 287 
3 94 66 251 
3 379 378 95 
3 182 378 373 
3 378 182 95 
3 413 52 179 
3 96 55 291 
3 96 291 313 
3 43 97 310 
3 223 368 300 
3 91 37 98 
3 254 229 99 
3 299 100 429 
3 99 229 144 
3 406 304 324 
3 101 106 44 
3 102 348 164 
3 134 24 103 
3 396 70 104 
3 349 35 132 
3 230 105 412 
3 362 319 106 
3 320 1 128 
3 261 107 259 
3 108 171 279 
3 324 1 109 
3 71 32 276 
3 303 110 102 
3 419 198 265 
3 422 111 112 
3 46 360 47 
3 311 109 1 
3 373 351 182 
3 308 41 295 
3 405 122 330 
3 384 385 113 
3 327 118 188 
3 114 424 62 
3 152 287 115 
3 72 116 205 
3 118 117 401 
3 119 309 238 
3 120 410 77 
3 414 53 121 
3 126 122 402 
3 402 308 126 
3 46 47 430 
3 391 136 142 
3 331 136 391 
3 123 225 233 
3 123 233 8 
3 108 124 421 
3 365 210 312 
3 188 118 125 
3 295 428 126 
3 240 80 195 
3 128 0 194 
3 316 62 424 
3 134 392 24 
3 129 150 372 
3 111 278 130 
3 111 21 278 
3 308 295 126 
3 339 336 320 
3 137 138 78 
3 389 390 131 
3 132 395 98 
3 134 133 392 
3 382 316 135 
3 214 407 23 
3 142 136 272 
3 79 265 137 
3 138 418 78 
3 25 138 26 
3 269 139 16 
3 133 326 32 
3 32 393 133 
3 33 32 71 
3 218 277 140 
3 140 37 91 
3 98 396 91 
3 122 428 330 
3 403 42 87 
3 87 141 403 
3 143 391 142 
3 231 144 18 
3 348 145 164 
3 239 268 27 
3 106 146 431 
3 374 323 147 
3 175 149 148 
3 46 149 360 
3 404 148 46 
3 427 151 205 
3 151 305 150 
3 411 408 152 
3 338 153 169 
3 414 181 333 
3 337 74 95 
3 55 290 291 
3 154 185 383 
3 154 383 61 
3 73 58 11 
3 11 58 366 
3 230 412 145 
3 59 155 156 
3 300 156 192 
3 157 172 314 
3 203 2 131 
3 159 158 154 
3 384 113 160 
3 238 255 161 
3 161 255 75 
3 15 234 162 
3 15 162 161 
3 144 163 18 
3 18 163 19 
3 351 211 183 
3 26 138 264 
3 102 164 411 
3 168 347 366 
3 350 165 166 
3 250 170 237 
3 61 209 159 
3 13 90 335 
3 385 193 177 
3 167 165 40 
3 168 387 347 
3 372 247 169 
3 191 178 8 
3 148 426 175 
3 223 300 192 
3 406 324 210 
3 406 210 90 
3 237 170 227 
3 299 429 45 
3 71 394 33 
3 292 103 271 
3 171 67 280 
3 88 362 101 
3 4 130 266 
3 389 3 172 
3 39 318 70 
3 95 173 337 
3 187 174 175 
3 176 371 204 
3 352 177 178 
3 413 179 414 
3 371 370 180 
3 179 285 181 
3 173 182 183 
3 331 28 273 
3 279 184 108 
3 87 42 296 
3 87 296 86 
3 390 383 185 
3 179 52 285 
3 192 375 388 
3 187 190 186 
3 167 397 344 
3 328 188 189 
3 346 190 431 
3 178 191 9 
3 375 192 155 
3 224 123 193 
3 9 353 82 
3 48 6 194 
3 5 240 195 
3 161 253 15 
3 112 196 197 
3 112 197 198 
3 4 112 130 
3 196 4 213 
3 320 6 427 
3 194 320 128 
3 194 199 48 
3 8 193 123 
3 9 200 353 
3 104 218 201 
3 239 27 10 
3 202 263 208 
3 263 202 239 
3 222 290 7 
3 180 424 368 
3 180 368 203 
3 204 180 203 
3 203 226 204 
3 424 159 209 
3 159 180 158 
3 205 320 427 
3 209 383 382 
3 339 92 129 
3 0 315 304 
3 118 401 125 
3 206 66 65 
3 16 207 269 
3 207 202 208 
3 397 167 294 
3 85 397 294 
3 424 135 316 
3 135 424 209 
3 36 216 398 
3 90 210 335 
3 58 211 212 
3 58 212 376 
3 201 218 140 
3 196 213 197 
3 214 20 280 
3 143 29 215 
3 217 216 166 
3 318 39 218 
3 243 97 240 
3 425 219 249 
3 170 220 221 
3 286 230 145 
3 251 250 237 
3 121 53 222 
3 381 325 317 
3 386 157 223 
3 225 224 245 
3 209 382 135 
3 64 65 356 
3 226 176 204 
3 431 44 106 
3 228 227 221 
3 262 163 229 
3 52 105 230 
3 52 230 289 
3 99 144 232 
3 246 233 225 
3 233 9 191 
3 232 254 99 
3 232 162 234 
3 254 232 234 
3 246 9 233 
3 246 232 9 
3 236 246 235 
3 227 236 94 
3 227 232 246 
3 227 246 236 
3 237 94 251 
3 227 94 237 
3 119 228 258 
3 119 227 228 
3 162 119 238 
3 119 232 227 
3 417 26 31 
3 417 31 239 
3 344 343 167 
3 241 243 240 
3 69 241 5 
3 97 242 141 
3 242 97 243 
3 242 243 241 
3 165 167 343 
3 165 343 244 
3 246 245 356 
3 317 247 381 
3 119 257 248 
3 119 248 309 
3 54 380 379 
3 74 379 95 
3 13 68 249 
3 354 220 170 
3 354 170 250 
3 206 250 251 
3 260 354 252 
3 19 253 252 
3 262 19 163 
3 254 262 229 
3 253 254 234 
3 256 75 255 
3 257 256 248 
3 260 257 258 
3 260 258 259 
3 260 256 257 
3 354 260 107 
3 220 107 261 
3 354 250 206 
3 253 19 262 
3 253 262 254 
3 354 107 220 
3 260 75 256 
3 260 252 253 
3 415 7 96 
3 77 139 270 
3 265 79 419 
3 263 207 208 
3 267 263 10 
3 268 267 27 
3 264 268 31 
3 266 265 197 
3 266 197 213 
3 207 264 137 
3 207 137 265 
3 207 263 267 
3 207 267 268 
3 207 268 264 
3 292 207 265 
3 292 270 269 
3 292 269 207 
3 270 273 28 
3 273 272 136 
3 272 215 29 
3 292 271 215 
3 292 215 272 
3 292 272 273 
3 292 273 270 
3 277 326 103 
3 277 103 292 
3 276 275 357 
3 275 274 369 
3 274 218 39 
3 349 140 277 
3 277 218 274 
3 277 274 275 
3 277 275 276 
3 277 276 326 
3 349 37 140 
3 37 349 81 
3 277 165 349 
3 278 266 130 
3 293 279 171 
3 280 293 171 
3 265 278 184 
3 265 184 279 
3 278 265 266 
3 281 293 280 
3 281 280 20 
3 293 265 279 
3 293 292 265 
3 282 281 341 
3 313 282 56 
3 283 290 222 
3 283 222 53 
3 284 290 283 
3 284 283 50 
3 285 284 181 
3 285 290 284 
3 286 289 230 
3 361 286 110 
3 288 110 302 
3 287 288 115 
3 361 110 288 
3 289 290 285 
3 286 291 290 
3 286 290 289 
3 361 288 287 
3 293 282 313 
3 293 313 291 
3 282 293 281 
3 359 277 292 
3 359 292 293 
3 286 293 291 
3 361 293 286 
3 361 359 293 
3 165 277 359 
3 188 165 359 
3 359 195 80 
3 40 165 188 
3 294 295 41 
3 295 188 428 
3 296 298 86 
3 298 297 43 
3 297 240 97 
3 294 40 188 
3 294 188 295 
3 327 188 359 
3 297 80 240 
3 327 359 80 
3 298 80 297 
3 296 80 298 
3 241 240 5 
3 49 100 299 
3 49 299 361 
3 300 59 156 
3 300 368 59 
3 416 301 407 
3 57 416 17 
3 301 57 56 
3 342 166 244 
3 132 81 349 
3 411 83 302 
3 411 302 303 
3 115 411 152 
3 433 304 150 
3 433 150 305 
3 304 433 199 
3 321 306 425 
3 307 366 347 
3 307 347 147 
3 307 147 59 
3 308 85 41 
3 85 308 400 
3 3 2 368 
3 184 124 108 
3 309 256 255 
3 141 86 310 
3 365 312 311 
3 12 219 425 
3 12 425 186 
3 90 186 406 
3 12 90 13 
3 180 204 371 
3 311 312 109 
3 17 96 313 
3 57 17 313 
3 310 97 141 
3 314 223 157 
3 223 314 368 
3 261 221 220 
3 324 304 315 
3 316 432 62 
3 55 96 7 
3 169 317 338 
3 103 24 271 
3 104 70 318 
3 104 318 218 
3 396 104 201 
3 409 16 139 
3 106 319 146 
3 319 362 45 
3 128 1 0 
3 320 311 1 
3 320 365 311 
3 174 321 364 
3 321 174 306 
3 171 108 22 
3 171 22 322 
3 323 423 60 
3 312 210 324 
3 1 324 315 
3 324 109 312 
3 265 198 197 
3 111 422 21 
3 112 111 130 
3 14 317 325 
3 317 14 336 
3 326 134 103 
3 117 118 327 
3 42 117 327 
3 362 299 45 
3 405 328 329 
3 405 329 189 
3 122 405 402 
3 330 328 405 
3 345 215 271 
3 331 120 28 
3 120 331 410 
3 332 121 222 
3 121 332 414 
3 53 414 333 
3 53 333 50 
3 430 47 334 
3 242 354 385 
3 242 385 377 
3 406 377 247 
3 406 247 150 
3 406 150 304 
3 377 406 242 
3 335 365 68 
3 365 335 210 
3 372 150 247 
3 150 93 92 
3 150 129 93 
3 337 336 74 
3 367 337 183 
3 336 338 317 
3 367 336 337 
3 338 339 153 
3 320 336 367 
3 339 338 336 
3 339 205 116 
3 339 320 205 
3 137 78 79 
3 131 390 84 
3 252 231 19 
3 395 132 35 
3 395 35 36 
3 214 67 340 
3 214 340 407 
3 341 407 301 
3 214 23 20 
3 23 407 341 
3 133 134 326 
3 342 217 166 
3 399 342 343 
3 399 343 344 
3 342 399 398 
3 217 342 398 
3 217 398 216 
3 143 142 29 
3 345 143 215 
3 143 345 391 
3 346 146 319 
3 303 302 110 
3 199 433 48 
3 347 374 147 
3 245 246 225 
3 249 219 13 
3 248 256 309 
3 259 107 260 
3 183 211 73 
3 412 164 145 
3 164 412 411 
3 102 411 303 
3 110 286 348 
3 110 348 102 
3 151 150 72 
3 349 34 35 
3 350 349 165 
3 350 34 349 
3 166 165 244 
3 350 166 216 
3 34 350 30 
3 195 127 5 
3 351 212 211 
3 353 352 82 
3 193 385 354 
3 355 354 206 
3 193 354 355 
3 385 353 200 
3 385 352 353 
3 224 64 356 
3 224 225 123 
3 385 177 352 
3 355 64 224 
3 355 224 193 
3 347 387 374 
3 227 170 221 
3 70 71 357 
3 70 357 358 
3 376 168 58 
3 168 376 387 
3 171 322 67 
3 360 88 47 
3 360 149 76 
3 88 76 362 
3 88 360 76 
3 88 101 89 
3 101 362 106 
3 424 359 361 
3 424 363 359 
3 362 361 299 
3 424 9 363 
3 367 362 76 
3 364 367 76 
3 367 364 68 
3 367 68 365 
3 367 361 362 
3 367 365 320 
3 366 367 73 
3 307 361 367 
3 59 368 361 
3 361 307 59 
3 307 367 366 
3 368 424 361 
3 389 131 3 
3 70 358 369 
3 70 369 39 
3 65 236 235 
3 185 158 370 
3 185 370 371 
3 158 185 154 
3 68 364 321 
3 175 174 76 
3 177 8 178 
3 60 59 323 
3 414 179 181 
3 183 182 351 
3 173 183 337 
3 153 51 372 
3 153 372 169 
3 54 74 336 
3 206 251 66 
3 373 212 351 
3 378 212 373 
3 423 323 374 
3 423 374 387 
3 423 388 375 
3 378 376 212 
3 387 388 423 
3 377 387 376 
3 377 376 378 
3 377 378 379 
3 381 380 325 
3 377 381 247 
3 382 432 316 
3 383 432 382 
3 383 385 384 
3 383 384 432 
3 377 380 381 
3 377 379 380 
3 390 377 385 
3 390 385 383 
3 388 386 223 
3 390 176 226 
3 386 172 157 
3 390 388 387 
3 390 387 377 
3 388 172 386 
3 388 390 389 
3 388 389 172 
3 390 371 176 
3 390 185 371 
3 410 331 391 
3 392 345 24 
3 392 391 345 
3 393 392 133 
3 393 391 392 
3 394 393 33 
3 396 394 70 
3 394 391 393 
3 395 396 38 
3 398 394 396 
3 398 396 395 
3 397 399 344 
3 242 394 398 
3 242 398 399 
3 402 400 308 
3 400 399 397 
3 402 399 400 
3 401 405 189 
3 401 189 125 
3 242 399 402 
3 242 402 405 
3 403 401 117 
3 403 405 401 
3 394 242 406 
3 391 394 406 
3 404 190 426 
3 406 186 190 
3 405 141 242 
3 141 405 403 
3 430 190 404 
3 417 391 406 
3 112 417 406 
3 417 410 391 
3 407 112 406 
3 409 77 410 
3 409 202 16 
3 408 190 429 
3 408 429 100 
3 239 202 409 
3 239 409 410 
3 408 411 190 
3 413 411 412 
3 413 412 105 
3 406 413 414 
3 415 332 7 
3 406 411 413 
3 415 414 332 
3 416 415 17 
3 406 190 411 
3 416 414 415 
3 406 414 416 
3 406 416 407 
3 410 417 239 
3 417 418 25 
3 418 420 78 
3 112 418 417 
3 112 198 419 
3 112 419 420 
3 421 340 22 
3 421 407 340 
3 422 421 124 
3 422 407 421 
3 418 112 420 
3 407 422 112 
3 325 380 14 
3 155 60 423 
3 155 423 375 
3 82 352 178 
3 63 9 424 
3 63 424 114 
3 224 356 245 
3 187 186 425 
3 187 425 306 
3 426 187 175 
3 187 426 190 
3 305 151 427 
3 328 330 428 
3 188 328 428 
3 189 188 125 
3 328 189 329 
3 346 45 429 
3 346 429 190 
3 89 190 430 
3 431 89 44 
3 346 431 146 
3 431 190 89 
3 160 62 432 
3 160 432 384 
3 155 192 156 
3 334 89 430 
3 66 94 236 
3 433 427 48 
3 427 433 305 
3 161 162 238 
