ply
format ascii 1.0
comment Generated by Slim Ghodhbane
element vertex 657
property double x
property double y
property double z
property uchar red
property uchar green
property uchar blue
property uchar alpha
element face 1253
property list uchar int vertex_index
end_header
0.476249 -0.0549454 2.8141 0 250 0 250
0.5418 -0.0549454 2.69116 0 250 0 250
0.217008 -0.0403204 3.19406 0 250 0 250
0.142402 -0.0510754 3.25489 0 250 0 250
0.161955 -0.0310054 3.28622 0 250 0 250
0.091053 -0.0549454 3.28899 0 250 0 250
-0.016312 -0.0437405 3.37741 0 250 0 250
-0.055021 -0.0549454 3.38653 0 250 0 250
-0.133614 -0.0479704 3.43531 0 250 0 250
-0.15854 -0.0549455 3.4527 0 250 0 250
-0.204552 -0.0473855 3.48242 0 250 0 250
-0.216356 -0.0376655 3.50568 0 250 0 250
-0.317939 -0.0549455 3.52451 0 250 0 250
-0.437922 -0.0549455 3.5703 0 250 0 250
-0.45247 -0.0460355 3.57957 0 250 0 250
-0.536247 -0.0491855 3.60338 0 250 0 250
-0.60012 -0.0356855 3.63596 0 250 0 250
-0.682736 -0.0362255 3.64455 0 250 0 250
-0.606848 -0.0549455 3.61436 0 250 0 250
-0.860404 -0.0389255 3.65424 0 250 0 250
-0.922126 -0.0464405 3.6442 0 250 0 250
-0.924215 -0.0549455 3.63924 0 250 0 250
-1.21089 -0.0481055 3.65413 0 250 0 250
-1.24958 -0.0549005 3.64945 0 250 0 250
-1.30979 -0.0404555 3.65804 0 250 0 250
-1.57545 -0.0372155 3.64693 0 250 0 250
-1.81537 -0.0392405 3.60189 0 250 0 250
-1.78112 -0.0306455 3.62832 0 250 0 250
-1.76994 -0.0549455 3.59245 0 250 0 250
-1.9764 -0.0549005 3.48523 0 250 0 250
-2.11584 -0.0550804 3.1146 0 250 0 250
-1.1774 0.998279 3.6769 0 250 0 250
-0.060795 0.566864 3.52672 0 250 0 250
-0.077197 0.63279 3.52985 0 250 0 250
-0.754178 0.868995 3.67249 0 250 0 250
0.038606 0.566729 3.48967 0 250 0 250
-1.07953 0.941805 3.67471 0 250 0 250
-1.08953 0.884475 3.67503 0 250 0 250
-0.972743 0.907109 3.67524 0 250 0 250
-0.794858 0.866924 3.67923 0 250 0 250
-1.23764 0.947474 3.67462 0 250 0 250
-0.875529 0.905489 3.67208 0 250 0 250
-0.70186 0.800864 3.6712 0 250 0 250
-0.130914 0.570734 3.56854 0 250 0 250
-1.13455 0.939644 3.68293 0 250 0 250
0.100921 0.584099 3.43656 0 250 0 250
-0.365125 0.72432 3.63151 0 250 0 250
-0.957888 0.861255 3.67009 0 250 0 250
-0.851206 0.857249 3.67622 0 250 0 250
-0.660618 0.709784 3.68678 0 250 0 250
-0.483129 0.724904 3.66688 0 250 0 250
-0.164002 0.622035 3.57672 0 250 0 250
-0.079844 0.512775 3.54466 0 250 0 250
0.010998 0.49572 3.50706 0 250 0 250
-0.590886 0.7704 3.66895 0 250 0 250
-0.136066 0.488204 3.58216 0 250 0 250
0.097934 0.49968 3.45411 0 250 0 250
-1.21602 0.90621 3.69078 0 250 0 250
-1.05221 0.78516 3.70176 0 250 0 250
-1.04194 0.854909 3.68812 0 250 0 250
0.153841 0.376065 3.41917 0 250 0 250
0.170663 0.478215 3.40537 0 250 0 250
-0.416353 0.689894 3.65259 0 250 0 250
-0.358052 0.65052 3.63551 0 250 0 250
-0.997898 0.859994 3.68137 0 250 0 250
-1.28506 0.869174 3.69054 0 250 0 250
-0.915498 0.80082 3.68409 0 250 0 250
-0.758515 0.796679 3.68083 0 250 0 250
-0.827892 0.792045 3.68057 0 250 0 250
-1.42355 0.880469 3.67772 0 250 0 250
-0.26338 0.61803 3.61995 0 250 0 250
-0.277704 0.562905 3.62947 0 250 0 250
0.108229 0.441405 3.4451 0 250 0 250
-1.33812 0.912599 3.69645 0 250 0 250
-0.49694 0.66645 3.66884 0 250 0 250
-0.732195 0.72414 3.69112 0 250 0 250
-0.542763 0.705689 3.67077 0 250 0 250
-1.36969 0.84627 3.69764 0 250 0 250
0.014333 0.43389 3.51963 0 250 0 250
-1.12711 0.857159 3.68952 0 250 0 250
-0.602406 0.71748 3.6866 0 250 0 250
-1.2304 0.871469 3.69212 0 250 0 250
-0.146907 0.4302 3.58569 0 250 0 250
-0.065543 0.459315 3.54072 0 250 0 250
-0.539806 0.627165 3.68054 0 250 0 250
-1.44988 0.82404 3.69521 0 250 0 250
-0.213336 0.53811 3.61041 0 250 0 250
-0.112383 0.390419 3.56479 0 250 0 250
-0.339079 0.589859 3.65132 0 250 0 250
-1.01218 0.778139 3.69641 0 250 0 250
-1.5017 0.878174 3.68703 0 250 0 250
-1.39186 0.78489 3.70387 0 250 0 250
-1.1346 0.783899 3.70179 0 250 0 250
-0.831177 0.727604 3.69993 0 250 0 250
-0.91507 0.759464 3.69597 0 250 0 250
-1.22937 0.82377 3.70328 0 250 0 250
-0.748958 0.678689 3.70022 0 250 0 250
-0.892044 0.69606 3.69742 0 250 0 250
-0.699003 0.653174 3.69162 0 250 0 250
-0.603873 0.659115 3.68763 0 250 0 250
0.223709 0.39366 3.36706 0 250 0 250
-0.305393 0.477315 3.65397 0 250 0 250
-0.053303 0.38556 3.55465 0 250 0 250
0.04171 0.4023 3.4971 0 250 0 250
-0.383697 0.588554 3.66138 0 250 0 250
-0.467761 0.635579 3.66502 0 250 0 250
-0.23319 0.42372 3.61733 0 250 0 250
-0.085239 0.342315 3.56389 0 250 0 250
0.016812 0.3339 3.51949 0 250 0 250
0.11516 0.3438 3.45392 0 250 0 250
-0.426551 0.559125 3.66826 0 250 0 250
-0.36103 0.51984 3.6645 0 250 0 250
-1.58648 0.836009 3.67879 0 250 0 250
-1.54033 0.792539 3.69924 0 250 0 250
-1.49558 0.76266 3.70257 0 250 0 250
0.207536 0.31887 3.39258 0 250 0 250
-1.2877 0.82755 3.70777 0 250 0 250
-1.17556 0.771524 3.70848 0 250 0 250
-1.24912 0.74241 3.71262 0 250 0 250
-1.03109 0.709694 3.70307 0 250 0 250
-0.95567 0.712754 3.70356 0 250 0 250
-0.807039 0.662984 3.69901 0 250 0 250
-0.542592 0.57933 3.69804 0 250 0 250
0.057685 0.339975 3.48267 0 250 0 250
-1.21654 0.697049 3.70626 0 250 0 250
-1.10908 0.716489 3.71213 0 250 0 250
-0.653157 0.612044 3.70546 0 250 0 250
0.148945 0.31716 3.43115 0 250 0 250
-1.04872 0.668519 3.71954 0 250 0 250
0.272763 0.343124 3.32613 0 250 0 250
0.272561 0.26982 3.31002 0 250 0 250
-0.141948 0.331965 3.59426 0 250 0 250
0.104229 0.267659 3.46813 0 250 0 250
-0.378945 0.453195 3.66894 0 250 0 250
-0.773905 0.602549 3.72081 0 250 0 250
-0.715945 0.583289 3.71352 0 250 0 250
0.225756 0.27396 3.37393 0 250 0 250
-0.293292 0.40158 3.64473 0 250 0 250
-0.197721 0.344475 3.61605 0 250 0 250
-0.475177 0.480465 3.68811 0 250 0 250
-1.43598 0.749745 3.71129 0 250 0 250
-1.10999 0.668519 3.71689 0 250 0 250
-0.857462 0.670995 3.71055 0 250 0 250
-0.965556 0.664245 3.7137 0 250 0 250
-0.322601 0.360585 3.65389 0 250 0 250
-0.102888 0.241649 3.58158 0 250 0 250
-0.060048 0.291105 3.55067 0 250 0 250
0.027711 0.27468 3.51459 0 250 0 250
-0.817691 0.621945 3.70913 0 250 0 250
-0.53703 0.522854 3.7011 0 250 0 250
0.32315 0.23382 3.26974 0 250 0 250
-1.34119 0.734309 3.71969 0 250 0 250
-0.155516 0.275579 3.59535 0 250 0 250
-1.02884 0.6273 3.71693 0 250 0 250
-1.64925 0.71775 3.68615 0 250 0 250
-1.6574 0.763649 3.67532 0 250 0 250
-0.241312 0.25524 3.63875 0 250 0 250
0.048082 0.21825 3.50576 0 250 0 250
-0.782622 0.537884 3.73185 0 250 0 250
-1.82498 0.754919 3.64855 0 250 0 250
0.184108 0.21132 3.40443 0 250 0 250
-1.27721 0.665189 3.72661 0 250 0 250
-1.18552 0.645074 3.71696 0 250 0 250
-1.12111 0.622845 3.72767 0 250 0 250
-0.888048 0.603449 3.72242 0 250 0 250
-0.828932 0.427949 3.75267 0 250 0 250
-0.67167 0.550169 3.70716 0 250 0 250
-0.586805 0.445545 3.7246 0 250 0 250
-1.74748 0.753344 3.65755 0 250 0 250
-1.73389 0.720404 3.67768 0 250 0 250
-1.33276 0.659654 3.72512 0 250 0 250
0.108842 0.19728 3.46166 0 250 0 250
-0.44105 0.400319 3.69003 0 250 0 250
-0.820926 0.546659 3.72499 0 250 0 250
-0.646083 0.500444 3.72035 0 250 0 250
0.297603 0.180585 3.2974 0 250 0 250
-1.98877 0.807119 3.59894 0 250 0 250
-1.51102 0.702765 3.69693 0 250 0 250
0.23859 0.213839 3.36242 0 250 0 250
-0.929025 0.609164 3.73066 0 250 0 250
-0.740538 0.462689 3.73519 0 250 0 250
-0.679613 0.390105 3.73955 0 250 0 250
-1.42739 0.660195 3.71515 0 250 0 250
-1.47401 0.653039 3.70761 0 250 0 250
-0.308565 0.280575 3.6662 0 250 0 250
-1.16777 0.585179 3.72294 0 250 0 250
-0.713453 0.507464 3.72871 0 250 0 250
-2.02044 0.743624 3.59487 0 250 0 250
-1.92048 0.756405 3.62233 0 250 0 250
-0.375075 0.30807 3.68234 0 250 0 250
-0.282456 0.206865 3.65442 0 250 0 250
-0.485523 0.42813 3.692 0 250 0 250
-0.987458 0.603449 3.72652 0 250 0 250
-1.58267 0.67977 3.6885 0 250 0 250
-1.69935 0.617309 3.67648 0 250 0 250
-1.80563 0.717704 3.6589 0 250 0 250
-0.350424 0.216314 3.69527 0 250 0 250
-0.015714 0.218205 3.54086 0 250 0 250
0.236813 0.160109 3.36776 0 250 0 250
0.157572 0.0751495 3.42194 0 250 0 250
-1.07292 0.583064 3.73631 0 250 0 250
-0.887067 0.438929 3.75118 0 250 0 250
0.353507 0.146204 3.24338 0 250 0 250
0.284895 0.117945 3.31437 0 250 0 250
-1.55106 0.642644 3.70765 0 250 0 250
-0.058028 0.142335 3.56743 0 250 0 250
-0.556479 0.373679 3.7271 0 250 0 250
-1.36359 0.587835 3.71422 0 250 0 250
-0.231898 0.179009 3.63808 0 250 0 250
-0.155628 0.186569 3.60473 0 250 0 250
0.115434 0.135945 3.45838 0 250 0 250
0.208724 0.10647 3.38236 0 250 0 250
-1.97557 0.740699 3.61657 0 250 0 250
-1.23802 0.601695 3.73066 0 250 0 250
-0.968049 0.537659 3.74195 0 250 0 250
-0.907663 0.531629 3.73691 0 250 0 250
-0.748881 0.407025 3.74952 0 250 0 250
-1.45915 0.585539 3.72564 0 250 0 250
0.190638 0.0304196 3.39992 0 250 0 250
-0.484227 0.30996 3.71222 0 250 0 250
0.25065 0.0613346 3.34954 0 250 0 250
0.268812 0.0112946 3.29748 0 250 0 250
0.289778 0.0730796 3.30166 0 250 0 250
-1.71776 0.66465 3.67545 0 250 0 250
-1.7723 0.574964 3.68062 0 250 0 250
-1.91964 0.718199 3.63391 0 250 0 250
0.046355 0.108494 3.49322 0 250 0 250
0.132493 0.0436495 3.45328 0 250 0 250
0.163611 0.0351445 3.42736 0 250 0 250
-0.545238 0.29439 3.73261 0 250 0 250
-0.956129 0.48744 3.73903 0 250 0 250
0.291375 0.0241646 3.2954 0 250 0 250
-1.29825 0.579779 3.72786 0 250 0 250
-1.96291 0.68562 3.62479 0 250 0 250
-0.419387 0.27801 3.70756 0 250 0 250
-0.352948 0.14697 3.68918 0 250 0 250
-0.020016 0.13815 3.54315 0 250 0 250
0.108549 0.00877455 3.44648 0 250 0 250
0.139001 0.00391455 3.40991 0 250 0 250
-1.23934 0.524519 3.75367 0 250 0 250
-1.14412 0.541755 3.74381 0 250 0 250
0.245533 0.0304646 3.35042 0 250 0 250
0.233928 -0.0132304 3.26094 0 250 0 250
-2.06846 0.658124 3.59207 0 250 0 250
-1.91658 0.654749 3.63092 0 250 0 250
-0.273033 0.139409 3.65262 0 250 0 250
-0.084487 0.113534 3.5779 0 250 0 250
0.095693 0.0205195 3.47485 0 250 0 250
0.076005 0.0313645 3.48927 0 250 0 250
0.156303 -0.0100804 3.36445 0 250 0 250
0.177525 0.00602956 3.38219 0 250 0 250
0.21515 0.0174146 3.37152 0 250 0 250
0.236745 -0.0312754 3.19332 0 250 0 250
0.303516 -0.0461254 3.0856 0 250 0 250
0.233595 0.00562456 3.32505 0 250 0 250
-1.31587 0.513719 3.73562 0 250 0 250
-1.51583 0.581354 3.71646 0 250 0 250
-1.80065 0.652904 3.666 0 250 0 250
-0.146754 0.12546 3.59917 0 250 0 250
-1.01781 0.499904 3.75285 0 250 0 250
-0.854145 0.36954 3.76582 0 250 0 250
-0.655542 0.356805 3.73529 0 250 0 250
0.238613 -0.0549454 3.15171 0 250 0 250
0.205722 -0.0171454 3.2816 0 250 0 250
-1.581 0.561014 3.70966 0 250 0 250
-1.39627 0.53442 3.73026 0 250 0 250
-0.212674 0.120105 3.64108 0 250 0 250
-0.020965 0.0326245 3.54551 0 250 0 250
0.042282 0.0128245 3.49184 0 250 0 250
0.039114 -0.00454545 3.45098 0 250 0 250
0.190435 -0.00747044 3.33032 0 250 0 250
-1.07858 0.504359 3.75406 0 250 0 250
-0.944662 0.3969 3.75456 0 250 0 250
-0.759839 0.342315 3.7519 0 250 0 250
0.188491 -0.0428404 3.22891 0 250 0 250
-2.15867 0.622845 3.55994 0 250 0 250
-1.62262 0.59868 3.70161 0 250 0 250
0.145782 -0.0264604 3.30901 0 250 0 250
0.176481 -0.0544054 3.22756 0 250 0 250
-0.957807 0.445499 3.7528 0 250 0 250
-2.08071 0.620369 3.59167 0 250 0 250
-1.66426 0.568889 3.70341 0 250 0 250
-1.36954 0.473444 3.75223 0 250 0 250
-2.01815 0.653625 3.61165 0 250 0 250
-0.326934 0.0874345 3.68929 0 250 0 250
-0.191007 0.0447745 3.63916 0 250 0 250
-0.17991 0.0817645 3.63126 0 250 0 250
-0.027121 0.0177745 3.54175 0 250 0 250
0.036905 -0.0358204 3.35939 0 250 0 250
0.089401 -0.0295654 3.33544 0 250 0 250
-0.602302 0.259065 3.74479 0 250 0 250
-0.480406 0.245699 3.72153 0 250 0 250
-1.14073 0.474345 3.74384 0 250 0 250
-0.891401 0.26685 3.76653 0 250 0 250
-1.54218 0.512279 3.71049 0 250 0 250
-0.155164 0.0272245 3.62332 0 250 0 250
-0.252468 0.0345145 3.67447 0 250 0 250
-0.106821 0.0562495 3.59255 0 250 0 250
-0.002358 -0.0538654 3.3577 0 250 0 250
-0.053401 -0.0173254 3.46981 0 250 0 250
-0.550903 0.18378 3.73207 0 250 0 250
-1.66889 0.517454 3.70423 0 250 0 250
-0.427815 0.164474 3.71386 0 250 0 250
-0.403303 0.12438 3.70085 0 250 0 250
-0.141687 0.0412645 3.61381 0 250 0 250
-0.284427 0.0232195 3.68783 0 250 0 250
-0.084213 0.0202495 3.57646 0 250 0 250
0.004657 -0.0234454 3.41508 0 250 0 250
-0.044663 -0.0346055 3.40983 0 250 0 250
-1.01116 0.395865 3.7676 0 250 0 250
-0.685116 0.275444 3.76483 0 250 0 250
-0.798088 0.290969 3.7626 0 250 0 250
-2.09259 0.581985 3.59803 0 250 0 250
-2.25604 0.49212 3.39053 0 250 0 250
-1.48308 0.490229 3.72706 0 250 0 250
-0.207185 0.00980952 3.62969 0 250 0 250
-0.222466 -0.0160655 3.57725 0 250 0 250
-0.093821 0.0104395 3.56773 0 250 0 250
-1.20268 0.495854 3.75296 0 250 0 250
-0.933903 0.32202 3.76927 0 250 0 250
-0.828189 0.263294 3.75991 0 250 0 250
-1.01929 0.330794 3.76837 0 250 0 250
-1.53687 0.458819 3.73342 0 250 0 250
-2.01123 0.605249 3.62207 0 250 0 250
-1.92906 0.616229 3.64018 0 250 0 250
-0.382243 0.0296995 3.71833 0 250 0 250
-0.338265 0.0345595 3.71014 0 250 0 250
-0.160628 0.00863953 3.60311 0 250 0 250
-0.084712 -0.0189005 3.48391 0 250 0 250
-0.639922 0.222029 3.76152 0 250 0 250
-2.31124 0.345465 3.0957 0 250 0 250
-2.27137 0.44721 3.30993 0 250 0 250
-1.69355 0.443205 3.71294 0 250 0 250
-1.64382 0.44946 3.7295 0 250 0 250
-0.418064 0.0514795 3.71908 0 250 0 250
-0.325696 0.0132295 3.69115 0 250 0 250
-0.292869 0.000899521 3.64925 0 250 0 250
-0.254601 0.000584524 3.62961 0 250 0 250
-0.234725 -0.0147155 3.58358 0 250 0 250
-1.24214 0.454095 3.75892 0 250 0 250
-2.16776 0.567134 3.53869 0 250 0 250
-1.81397 0.582794 3.66396 0 250 0 250
-1.73509 0.525465 3.69212 0 250 0 250
-1.86459 0.588554 3.65807 0 250 0 250
-0.37512 0.00836951 3.69804 0 250 0 250
-0.348066 0.0258295 3.71332 0 250 0 250
-0.346774 -0.000720481 3.6694 0 250 0 250
-0.249831 -0.0354605 3.52466 0 250 0 250
-0.284292 -0.0394205 3.53124 0 250 0 250
-0.095823 -0.00945046 3.51621 0 250 0 250
-0.714546 0.20412 3.77164 0 250 0 250
-2.20132 0.529154 3.46784 0 250 0 250
-2.29444 0.41391 3.14922 0 250 0 250
-1.32783 0.442034 3.74942 0 250 0 250
-1.98233 0.566099 3.62332 0 250 0 250
-0.472261 0.110744 3.73 0 250 0 250
-0.411021 0.00989951 3.70845 0 250 0 250
-0.362394 -0.0312755 3.58943 0 250 0 250
-0.336735 -0.0368555 3.56154 0 250 0 250
-1.0931 0.351179 3.76353 0 250 0 250
-0.989199 0.288359 3.7633 0 250 0 250
-1.34948 0.40851 3.74741 0 250 0 250
-1.4201 0.44307 3.74899 0 250 0 250
-0.505849 0.169739 3.71614 0 250 0 250
-0.447309 0.0194395 3.73088 0 250 0 250
-0.388553 -0.0274955 3.60324 0 250 0 250
-0.168431 -0.0285305 3.50514 0 250 0 250
-1.13363 0.405764 3.75911 0 250 0 250
-1.76867 0.51066 3.68106 0 250 0 250
-1.20062 0.347174 3.75691 0 250 0 250
-1.23241 0.384885 3.76479 0 250 0 250
-0.79762 0.207179 3.76403 0 250 0 250
-2.0355 0.53415 3.62263 0 250 0 250
-2.28335 0.42516 3.22619 0 250 0 250
-2.29946 0.349155 3.18347 0 250 0 250
-2.24385 0.40356 3.37971 0 250 0 250
-0.60228 0.15102 3.7586 0 250 0 250
-0.378117 -0.0540905 3.55768 0 250 0 250
-0.952236 0.236294 3.77599 0 250 0 250
-0.894064 0.209789 3.78324 0 250 0 250
-2.08855 0.518444 3.58669 0 250 0 250
-1.47983 0.39672 3.75118 0 250 0 250
-1.44234 0.36477 3.76234 0 250 0 250
-0.495986 0.0471595 3.74397 0 250 0 250
-0.499999 0.0130495 3.73506 0 250 0 250
-0.6601 0.187965 3.75648 0 250 0 250
-2.2626 0.387854 3.31729 0 250 0 250
-1.38128 0.368685 3.75937 0 250 0 250
-1.87328 0.524025 3.66987 0 250 0 250
-1.93456 0.491084 3.67122 0 250 0 250
-1.07196 0.289755 3.77195 0 250 0 250
-2.17006 0.494459 3.50134 0 250 0 250
-2.18365 0.42966 3.48191 0 250 0 250
-2.30654 0.28413 3.13604 0 250 0 250
-1.76365 0.463725 3.6982 0 250 0 250
-1.5772 0.42543 3.74058 0 250 0 250
-1.93188 0.548189 3.64914 0 250 0 250
-0.509899 0.0981445 3.75102 0 250 0 250
-0.578956 0.0841945 3.77157 0 250 0 250
-0.435852 -0.0308255 3.60783 0 250 0 250
-0.917469 0.15705 3.78251 0 250 0 250
-2.27634 0.330929 3.27881 0 250 0 250
-1.6812 0.39069 3.7369 0 250 0 250
-1.49844 0.353834 3.75646 0 250 0 250
-0.479254 0.00287951 3.70901 0 250 0 250
-0.507199 -0.0460805 3.60489 0 250 0 250
-0.771178 0.14175 3.77806 0 250 0 250
-2.12642 0.44829 3.54271 0 250 0 250
-2.21545 0.423585 3.42923 0 250 0 250
-2.3082 0.24174 3.09479 0 250 0 250
-2.26193 0.30483 3.31361 0 250 0 250
-2.22399 0.340739 3.41344 0 250 0 250
-0.690084 0.111015 3.77875 0 250 0 250
-2.28328 0.246375 3.21552 0 250 0 250
-0.549261 0.00935951 3.74558 0 250 0 250
-0.997317 0.199214 3.78438 0 250 0 250
-0.829598 0.16029 3.78262 0 250 0 250
-1.99946 0.40356 3.65052 0 250 0 250
-1.80819 0.431324 3.6949 0 250 0 250
-1.62123 0.336599 3.75635 0 250 0 250
-0.539559 0.0330745 3.75937 0 250 0 250
-1.1467 0.276209 3.76817 0 250 0 250
-2.0426 0.453375 3.61792 0 250 0 250
-1.88484 0.461834 3.68254 0 250 0 250
-0.590189 0.0200245 3.77117 0 250 0 250
-0.704318 0.0577345 3.78206 0 250 0 250
-2.10312 0.402615 3.57799 0 250 0 250
-2.29869 0.21537 3.16617 0 250 0 250
-1.97579 0.48366 3.6561 0 250 0 250
-0.629033 0.0598495 3.77558 0 250 0 250
-0.52884 -0.0232655 3.65617 0 250 0 250
-1.24191 0.28494 3.77147 0 250 0 250
-0.795177 0.0508945 3.78206 0 250 0 250
-2.25722 0.24975 3.32358 0 250 0 250
-2.22824 0.226485 3.39984 0 250 0 250
-1.72975 0.317295 3.73967 0 250 0 250
-1.28044 0.34362 3.76706 0 250 0 250
-0.610277 0.00458951 3.74705 0 250 0 250
-1.35485 0.28116 3.76303 0 250 0 250
-1.5417 0.270495 3.74935 0 250 0 250
-1.43109 0.28323 3.75527 0 250 0 250
-1.10256 0.234225 3.78506 0 250 0 250
-0.692415 0.0268645 3.78529 0 250 0 250
-0.757526 0.0198445 3.78524 0 250 0 250
-2.17569 0.371879 3.50573 0 250 0 250
-2.25353 0.15759 3.27969 0 250 0 250
-1.8068 0.383895 3.69798 0 250 0 250
-1.86417 0.309374 3.70796 0 250 0 250
-1.49591 0.2349 3.76267 0 250 0 250
-1.40022 0.231749 3.76652 0 250 0 250
-0.635139 0.0246595 3.78331 0 250 0 250
-0.615195 -0.0190355 3.68446 0 250 0 250
-0.948497 0.0989545 3.80322 0 250 0 250
-0.852601 0.0765445 3.79182 0 250 0 250
-2.23782 0.0490046 3.21197 0 250 0 250
-1.91098 0.385155 3.69045 0 250 0 250
-0.640809 -0.00585049 3.72484 0 250 0 250
-1.05919 0.152144 3.78843 0 250 0 250
-1.1006 0.16263 3.78458 0 250 0 250
-0.663516 0.0125995 3.77062 0 250 0 250
-1.7294 0.257355 3.74174 0 250 0 250
-2.28341 0.145305 3.14928 0 250 0 250
-1.20687 0.217665 3.78762 0 250 0 250
-1.29415 0.24345 3.76974 0 250 0 250
-1.13827 0.117224 3.79643 0 250 0 250
-0.734747 -0.0432455 3.6286 0 250 0 250
-0.726741 0.00301451 3.75514 0 250 0 250
-0.833773 0.0307345 3.79837 0 250 0 250
-0.795911 0.00467951 3.75789 0 250 0 250
-1.98161 0.32607 3.67398 0 250 0 250
-2.227 0.0535496 3.2643 0 250 0 250
-1.75568 0.209835 3.7378 0 250 0 250
-1.6657 0.24633 3.74923 0 250 0 250
-1.61911 0.171404 3.76333 0 250 0 250
-1.56941 0.201959 3.75674 0 250 0 250
-0.882378 0.0258745 3.80886 0 250 0 250
-0.77116 -0.0196655 3.6884 0 250 0 250
-0.847075 -0.00184549 3.75346 0 250 0 250
-2.22551 0.130815 3.37542 0 250 0 250
-2.20832 0.215595 3.43991 0 250 0 250
-2.2178 0.15588 3.40864 0 250 0 250
-1.03202 0.0811795 3.80102 0 250 0 250
-1.1136 0.0737095 3.79763 0 250 0 250
-0.8073 -0.0392405 3.64562 0 250 0 250
-2.11126 0.308205 3.58644 0 250 0 250
-2.06902 0.34416 3.62917 0 250 0 250
-1.79829 0.284985 3.72103 0 250 0 250
-1.50361 0.167669 3.76739 0 250 0 250
-1.42938 0.20736 3.77561 0 250 0 250
-0.99576 0.0274495 3.81184 0 250 0 250
-0.914161 0.0208795 3.81005 0 250 0 250
-0.767979 -0.0549455 3.62321 0 250 0 250
-2.17448 0.274904 3.50826 0 250 0 250
-2.16358 0.195885 3.50399 0 250 0 250
-2.05826 0.27693 3.62833 0 250 0 250
-2.21034 0.00598458 3.20189 0 250 0 250
-2.21016 0.0125096 3.24005 0 250 0 250
-2.14335 -0.0355954 3.06288 0 250 0 250
-2.22544 0.0134546 3.18841 0 250 0 250
-2.17393 0.134415 3.47935 0 250 0 250
-1.8522 0.20412 3.72261 0 250 0 250
-1.26363 0.170414 3.78199 0 250 0 250
-1.05972 0.0169195 3.79517 0 250 0 250
-0.916052 -0.0167405 3.71769 0 250 0 250
-2.2123 0.0339746 3.3017 0 250 0 250
-1.88955 0.282555 3.70502 0 250 0 250
-1.34821 0.212355 3.77503 0 250 0 250
-1.69868 0.165285 3.75994 0 250 0 250
-1.53382 0.135675 3.77167 0 250 0 250
-1.00298 0.00170951 3.76912 0 250 0 250
-0.946953 0.0053095 3.78068 0 250 0 250
-1.09802 0.0056245 3.78565 0 250 0 250
-2.20386 0.0245696 3.31801 0 250 0 250
-2.19717 0.0562946 3.35893 0 250 0 250
-0.952214 -0.0205655 3.70715 0 250 0 250
-1.12071 0.0224545 3.80624 0 250 0 250
-2.14334 -0.0285304 3.13671 0 250 0 250
-2.12417 -0.0416254 3.11989 0 250 0 250
-2.18897 0.0153896 3.33087 0 250 0 250
-2.18035 0.0805045 3.44036 0 250 0 250
-0.997407 -0.0341105 3.67042 0 250 0 250
-1.06125 -0.0173705 3.72153 0 250 0 250
-2.11068 0.242459 3.59565 0 250 0 250
-2.1743 -0.00175543 3.2537 0 250 0 250
-1.49397 0.128249 3.78025 0 250 0 250
-1.43323 0.15327 3.78257 0 250 0 250
-1.29014 0.128609 3.7937 0 250 0 250
-2.07582 0.165375 3.61322 0 250 0 250
-2.17996 0.0311846 3.38469 0 250 0 250
-1.34951 0.14553 3.78703 0 250 0 250
-1.04508 -0.0348755 3.67065 0 250 0 250
-1.99158 0.265635 3.66082 0 250 0 250
-2.1424 -0.0122404 3.27192 0 250 0 250
-2.16581 0.0366295 3.45862 0 250 0 250
-2.13989 0.0518845 3.5344 0 250 0 250
-1.18552 0.0227695 3.81346 0 250 0 250
-1.16032 -0.0549455 3.64703 0 250 0 250
-1.11712 -0.0464405 3.6545 0 250 0 250
-2.03177 0.18675 3.6477 0 250 0 250
-2.14337 0.00269955 3.42059 0 250 0 250
-1.90167 0.200969 3.70748 0 250 0 250
-1.80759 0.167265 3.74245 0 250 0 250
-1.38857 0.0960745 3.79478 0 250 0 250
-1.23217 0.0719995 3.79883 0 250 0 250
-1.24907 0.0394195 3.80795 0 250 0 250
-1.13018 0.0033295 3.78141 0 250 0 250
-2.11888 0.181485 3.57232 0 250 0 250
-2.1347 0.115739 3.54858 0 250 0 250
-2.16971 0.0221396 3.42032 0 250 0 250
-2.15691 0.00359956 3.35045 0 250 0 250
-2.12464 -0.0117004 3.37141 0 250 0 250
-2.15274 0.0213295 3.48692 0 250 0 250
-1.90706 0.122624 3.71625 0 250 0 250
-1.73839 0.1071 3.75097 0 250 0 250
-1.61577 0.0692545 3.7642 0 250 0 250
-1.20244 0.00364451 3.77541 0 250 0 250
-2.06344 0.109439 3.62511 0 250 0 250
-2.08917 -0.0549454 3.20079 0 250 0 250
-2.08682 -0.0343804 3.33764 0 250 0 250
-2.12847 0.00931454 3.5149 0 250 0 250
-1.55632 0.0773545 3.77506 0 250 0 250
-2.11657 -0.0248404 3.26096 0 250 0 250
-1.67639 0.0568795 3.76695 0 250 0 250
-1.64034 0.0247495 3.77781 0 250 0 250
-1.29947 0.0207445 3.80539 0 250 0 250
-1.22932 0.0205645 3.80885 0 250 0 250
-1.23872 -0.00796549 3.75128 0 250 0 250
-2.10233 -0.0371704 3.20537 0 250 0 250
-2.08304 -0.0549904 3.28268 0 250 0 250
-2.09185 -0.0395104 3.2942 0 250 0 250
-2.1182 0.0183145 3.56784 0 250 0 250
-1.81916 0.0932395 3.72914 0 250 0 250
-1.21556 -0.0254705 3.69944 0 250 0 250
-1.15004 -0.0392405 3.66441 0 250 0 250
-2.06966 0.0367645 3.6288 0 250 0 250
-2.09509 0.0365845 3.60383 0 250 0 250
-1.94588 0.154754 3.69019 0 250 0 250
-1.53095 0.0315445 3.78665 0 250 0 250
-1.66492 0.0186745 3.77325 0 250 0 250
-1.42693 0.0689845 3.8047 0 250 0 250
-1.35766 0.0655645 3.80509 0 250 0 250
-2.0491 -0.00940546 3.5465 0 250 0 250
-1.74077 0.0233545 3.76538 0 250 0 250
-1.58665 0.0228145 3.78356 0 250 0 250
-1.55052 0.00913451 3.77614 0 250 0 250
-1.47033 0.0228145 3.79182 0 250 0 250
-1.46197 0.0468445 3.79533 0 250 0 250
-1.39244 0.0189895 3.80601 0 250 0 250
-1.31092 0.0442795 3.8019 0 250 0 250
-1.34999 0.0237145 3.8061 0 250 0 250
-2.01235 -0.0419855 3.45366 0 250 0 250
-2.074 -0.00544546 3.53222 0 250 0 250
-2.05069 -0.0222755 3.48057 0 250 0 250
-1.87952 0.0939145 3.72539 0 250 0 250
-1.59723 0.0090895 3.76987 0 250 0 250
-1.64064 -0.00090049 3.73544 0 250 0 250
-1.41259 0.0350095 3.80366 0 250 0 250
-1.32721 0.0073795 3.784 0 250 0 250
-1.25995 0.0027445 3.77805 0 250 0 250
-2.05914 -0.0396905 3.38025 0 250 0 250
-2.06683 0.0115645 3.60594 0 250 0 250
-2.03914 0.111915 3.65127 0 250 0 250
-1.70499 0.00175451 3.73808 0 250 0 250
-1.67523 -0.0270905 3.65618 0 250 0 250
-1.41931 0.0244345 3.79996 0 250 0 250
-1.45901 0.00103451 3.75573 0 250 0 250
-1.36686 0.0077845 3.78446 0 250 0 250
-1.27052 -0.0280355 3.69473 0 250 0 250
-2.01583 -0.0549454 3.42675 0 250 0 250
-2.01799 -0.00805547 3.58448 0 250 0 250
-1.76583 0.00926951 3.74378 0 250 0 250
-1.79767 0.0239845 3.75813 0 250 0 250
-1.84908 0.00868451 3.72457 0 250 0 250
-1.74829 -0.0106205 3.69501 0 250 0 250
-1.53644 -0.0322655 3.66313 0 250 0 250
-1.41214 -0.00702049 3.73582 0 250 0 250
-1.3811 -0.0244805 3.69088 0 250 0 250
-2.03664 0.0487795 3.65594 0 250 0 250
-2.02333 0.0499495 3.66512 0 250 0 250
-1.99136 -0.0303305 3.52169 0 250 0 250
-1.72687 -0.0234455 3.65797 0 250 0 250
-1.49355 -0.0418055 3.64433 0 250 0 250
-1.5023 0.00292451 3.76136 0 250 0 250
-1.35938 -0.0487805 3.64631 0 250 0 250
-1.34762 -0.0370355 3.66158 0 250 0 250
-1.92714 0.0844645 3.71638 0 250 0 250
-1.50506 -0.0549455 3.63455 0 250 0 250
-1.45267 -0.0337955 3.66085 0 250 0 250
-1.40762 -0.0505355 3.62991 0 250 0 250
-1.40034 -0.0353255 3.65656 0 250 0 250
-1.97592 -0.0314105 3.52922 0 250 0 250
-1.96717 0.0412195 3.69537 0 250 0 250
-1.88332 0.0269545 3.73575 0 250 0 250
-1.73401 -0.0499055 3.60251 0 250 0 250
-1.45689 -0.0429755 3.64452 0 250 0 250
-1.39333 -0.0549455 3.62986 0 250 0 250
-2.00524 0.00251952 3.63318 0 250 0 250
-1.94683 -0.0450455 3.51967 0 250 0 250
-1.90974 0.0224095 3.72524 0 250 0 250
-2.01399 0.0338395 3.67207 0 250 0 250
-1.6666 -0.0482855 3.61477 0 250 0 250
-1.77975 -0.0138155 3.68395 0 250 0 250
-1.60786 -0.0549455 3.61722 0 250 0 250
-1.94883 0.0174145 3.69985 0 250 0 250
-1.9652 -0.00279048 3.64836 0 250 0 250
-1.93367 -0.0557105 3.50978 0 250 0 250
-1.90177 -0.00274548 3.67446 0 250 0 250
-1.86738 -0.000810484 3.69164 0 250 0 250
-1.83934 -0.0292055 3.61607 0 250 0 250
-1.88561 -0.0549455 3.54534 0 250 0 250
-1.90404 -0.0247505 3.59851 0 250 0 250
-1.84275 -0.0549455 3.56306 0 250 0 250
-1.87322 -0.0514805 3.55128 0 250 0 250
0.354361 -0.0549454 3.01117 0 250 0 250
0.285552 -0.0124204 3.21076 0 250 0 250
-1.11371 -0.0313655 3.68854 0 250 0 250
-1.07828 -0.0470255 3.65379 0 250 0 250
3 491 1 0 
3 5 0 653 
3 5 653 262 
3 278 262 2 
3 5 262 278 
3 5 278 4 
3 0 7 491 
3 4 3 5 
3 7 0 5 
3 7 5 298 
3 7 298 6 
3 9 7 8 
3 12 7 9 
3 10 9 366 
3 12 10 11 
3 9 10 12 
3 491 7 12 
3 12 377 13 
3 15 13 14 
3 12 13 491 
3 18 15 16 
3 13 15 18 
3 18 17 491 
3 18 491 13 
3 557 1 491 
3 21 491 483 
3 21 19 20 
3 21 483 19 
3 557 491 21 
3 557 21 536 
3 23 536 22 
3 557 536 635 
3 623 23 24 
3 623 635 23 
3 536 23 635 
3 634 635 627 
3 642 626 25 
3 626 635 634 
3 635 626 642 
3 635 642 557 
3 642 633 28 
3 651 642 28 
3 651 28 26 
3 28 27 26 
3 642 651 557 
3 608 651 649 
3 608 649 645 
3 29 645 619 
3 608 29 590 
3 557 651 568 
3 645 29 608 
3 568 608 599 
3 651 608 568 
3 517 30 567 
3 36 31 44 
3 36 59 38 
3 44 31 40 
3 43 32 33 
3 38 59 64 
3 41 39 34 
3 35 56 45 
3 37 59 36 
3 38 47 41 
3 68 34 39 
3 33 51 43 
3 43 52 32 
3 52 53 35 
3 32 52 35 
3 36 44 37 
3 40 57 44 
3 41 48 39 
3 49 54 42 
3 52 43 55 
3 44 79 37 
3 47 38 64 
3 57 40 73 
3 67 34 68 
3 42 34 67 
3 53 56 35 
3 61 45 56 
3 47 48 41 
3 68 39 48 
3 54 49 80 
3 51 70 86 
3 51 55 43 
3 52 83 53 
3 53 78 56 
3 54 76 50 
3 82 52 55 
3 79 59 37 
3 57 79 44 
3 42 67 75 
3 49 42 75 
3 76 74 50 
3 83 52 82 
3 61 56 72 
3 81 79 57 
3 59 58 89 
3 73 65 57 
3 50 74 62 
3 100 61 60 
3 104 46 62 
3 70 63 88 
3 59 89 64 
3 64 66 47 
3 47 66 48 
3 65 81 57 
3 48 66 68 
3 67 93 75 
3 67 68 93 
3 80 76 54 
3 77 73 69 
3 86 70 71 
3 86 55 51 
3 83 78 53 
3 60 61 72 
3 72 56 78 
3 104 63 46 
3 79 58 59 
3 73 116 65 
3 74 105 62 
3 82 87 83 
3 105 104 62 
3 71 70 88 
3 89 94 64 
3 94 66 64 
3 49 75 96 
3 74 76 84 
3 116 73 77 
3 103 72 78 
3 63 104 88 
3 58 79 92 
3 65 116 81 
3 121 75 93 
3 80 99 76 
3 55 86 106 
3 110 104 105 
3 79 81 95 
3 92 79 95 
3 96 99 49 
3 99 80 49 
3 76 99 84 
3 69 90 85 
3 55 106 82 
3 82 131 87 
3 83 102 78 
3 72 103 109 
3 109 60 72 
3 101 71 88 
3 120 94 89 
3 68 66 94 
3 125 58 92 
3 96 75 121 
3 98 99 96 
3 74 84 105 
3 85 77 69 
3 85 91 77 
3 106 86 101 
3 83 87 102 
3 78 102 108 
3 60 109 127 
3 60 127 100 
3 88 111 101 
3 89 119 120 
3 125 89 58 
3 94 93 68 
3 113 85 90 
3 113 90 112 
3 151 77 91 
3 151 116 77 
3 101 86 71 
3 81 116 95 
3 117 125 92 
3 92 95 117 
3 121 93 142 
3 94 97 93 
3 131 82 106 
3 87 131 107 
3 107 102 87 
3 118 117 95 
3 134 135 96 
3 98 96 135 
3 93 97 142 
3 98 126 99 
3 99 122 84 
3 137 106 101 
3 102 146 108 
3 78 108 103 
3 127 115 100 
3 123 109 103 
3 111 88 104 
3 119 89 125 
3 94 120 97 
3 149 110 105 
3 106 138 131 
3 107 146 102 
3 123 103 108 
3 109 132 127 
3 110 111 104 
3 101 111 133 
3 134 96 121 
3 122 105 84 
3 155 113 112 
3 114 85 113 
3 114 140 85 
3 91 85 140 
3 115 136 100 
3 101 133 137 
3 118 95 116 
3 124 125 117 
3 118 124 117 
3 128 120 119 
3 97 120 143 
3 134 121 148 
3 126 98 135 
3 122 149 105 
3 129 100 136 
3 155 154 113 
3 151 118 116 
3 140 151 91 
3 131 146 107 
3 132 109 123 
3 125 124 162 
3 141 128 125 
3 142 148 121 
3 142 97 143 
3 99 126 122 
3 106 137 138 
3 115 127 160 
3 139 110 149 
3 128 119 125 
3 120 128 143 
3 152 146 131 
3 108 146 147 
3 123 108 147 
3 115 160 136 
3 127 132 160 
3 139 111 110 
3 137 133 144 
3 162 141 125 
3 158 135 134 
3 158 186 135 
3 166 126 135 
3 130 129 136 
3 138 184 156 
3 138 137 184 
3 138 152 131 
3 147 146 197 
3 123 147 132 
3 111 139 133 
3 139 172 133 
3 144 133 172 
3 148 158 134 
3 122 126 166 
3 113 154 177 
3 113 177 114 
3 182 151 140 
3 138 156 152 
3 160 178 136 
3 163 141 162 
3 141 153 128 
3 153 143 128 
3 148 142 164 
3 186 166 135 
3 179 142 143 
3 149 122 166 
3 177 140 114 
3 118 151 161 
3 144 184 137 
3 146 145 197 
3 132 147 171 
3 171 160 132 
3 173 158 148 
3 191 139 167 
3 167 139 149 
3 202 150 175 
3 170 161 151 
3 124 118 161 
3 152 145 146 
3 163 153 141 
3 192 143 153 
3 143 192 179 
3 179 164 142 
3 193 177 154 
3 155 169 154 
3 183 140 177 
3 182 140 183 
3 152 156 209 
3 157 147 197 
3 171 147 157 
3 160 198 178 
3 165 186 158 
3 166 186 174 
3 182 170 151 
3 195 168 159 
3 172 189 144 
3 156 184 190 
3 160 210 198 
3 178 130 136 
3 161 162 124 
3 162 185 163 
3 153 163 200 
3 148 164 173 
3 186 165 180 
3 166 167 149 
3 172 139 191 
3 167 206 191 
3 168 169 155 
3 169 223 154 
3 161 170 232 
3 144 189 184 
3 152 209 145 
3 205 145 209 
3 145 205 197 
3 171 210 160 
3 211 198 210 
3 189 172 234 
3 158 173 201 
3 165 158 201 
3 166 174 167 
3 203 202 175 
3 188 176 212 
3 223 194 154 
3 154 194 193 
3 183 177 204 
3 168 195 169 
3 208 156 190 
3 130 178 150 
3 150 178 198 
3 163 185 200 
3 215 164 179 
3 180 216 186 
3 261 167 181 
3 204 177 193 
3 207 170 182 
3 232 213 161 
3 182 183 217 
3 196 190 184 
3 211 210 199 
3 185 240 200 
3 153 200 192 
3 215 173 164 
3 186 167 174 
3 186 216 167 
3 167 216 181 
3 176 187 212 
3 161 213 162 
3 225 159 188 
3 196 184 189 
3 190 245 208 
3 156 208 209 
3 197 226 157 
3 171 157 226 
3 150 198 175 
3 172 191 219 
3 185 162 213 
3 179 192 215 
3 215 201 173 
3 219 191 206 
3 261 206 167 
3 188 212 225 
3 204 193 276 
3 194 276 193 
3 207 182 217 
3 159 225 195 
3 169 195 257 
3 190 196 235 
3 190 235 245 
3 226 197 236 
3 203 175 198 
3 199 218 211 
3 234 172 219 
3 240 185 213 
3 200 240 271 
3 200 214 192 
3 201 260 165 
3 260 216 165 
3 165 216 180 
3 203 222 202 
3 257 223 169 
3 256 183 204 
3 232 170 207 
3 234 196 189 
3 197 205 236 
3 198 211 203 
3 206 229 219 
3 207 265 232 
3 183 256 217 
3 195 225 257 
3 266 209 208 
3 205 209 258 
3 226 210 171 
3 248 227 210 
3 227 199 210 
3 203 211 220 
3 218 241 211 
3 271 214 200 
3 192 214 215 
3 203 220 222 
3 255 232 265 
3 233 225 212 
3 208 245 266 
3 227 228 199 
3 199 228 218 
3 240 213 239 
3 230 215 214 
3 279 201 215 
3 273 181 216 
3 222 220 221 
3 212 187 243 
3 276 256 204 
3 265 207 217 
3 235 284 245 
3 209 266 258 
3 246 205 258 
3 247 227 248 
3 218 251 241 
3 220 211 241 
3 291 234 219 
3 259 214 271 
3 311 216 260 
3 273 261 181 
3 290 206 261 
3 220 242 221 
3 222 221 231 
3 194 223 224 
3 342 194 224 
3 256 276 264 
3 244 257 225 
3 226 248 210 
3 247 237 227 
3 227 249 228 
3 250 218 228 
3 251 218 250 
3 291 219 229 
3 214 259 230 
3 215 230 279 
3 272 201 279 
3 290 229 206 
3 242 220 241 
3 242 252 221 
3 252 231 221 
3 212 243 233 
3 224 223 257 
3 342 281 194 
3 232 239 213 
3 225 233 244 
3 234 302 196 
3 235 303 284 
3 246 236 205 
3 236 267 226 
3 237 238 227 
3 249 227 238 
3 250 228 249 
3 250 270 251 
3 240 239 318 
3 292 271 240 
3 273 216 311 
3 242 241 254 
3 252 242 2 
3 233 243 283 
3 194 281 276 
3 232 255 239 
3 257 244 324 
3 302 303 196 
3 235 196 303 
3 258 266 286 
3 266 245 296 
3 246 267 236 
3 247 269 237 
3 247 248 268 
3 249 277 250 
3 250 4 270 
3 4 250 277 
3 254 241 251 
3 291 302 234 
3 272 260 201 
3 320 311 260 
3 2 242 254 
3 2 262 252 
3 339 239 255 
3 314 362 217 
3 217 256 314 
3 257 341 224 
3 297 246 258 
3 246 297 267 
3 267 248 226 
3 269 247 268 
3 237 269 238 
3 270 263 251 
3 251 263 254 
3 318 292 240 
3 230 259 279 
3 320 260 319 
3 261 310 290 
3 252 262 654 
3 254 263 2 
3 280 243 275 
3 243 280 283 
3 256 264 294 
3 265 282 255 
3 265 217 362 
3 256 294 314 
3 245 284 296 
3 266 285 286 
3 248 267 287 
3 307 269 268 
3 238 269 289 
3 238 289 249 
3 289 277 249 
3 4 278 270 
3 270 274 263 
3 290 291 229 
3 271 309 259 
3 319 260 272 
3 273 310 261 
3 2 263 274 
3 312 280 275 
3 264 276 301 
3 233 283 244 
3 297 258 286 
3 266 296 285 
3 248 287 268 
3 269 307 288 
3 288 289 269 
3 4 277 3 
3 270 278 274 
3 272 279 309 
3 279 259 309 
3 311 310 273 
3 278 2 274 
3 280 323 283 
3 281 301 276 
3 342 301 281 
3 255 282 353 
3 362 282 265 
3 244 283 324 
3 343 257 324 
3 296 284 305 
3 284 303 326 
3 295 286 285 
3 297 286 304 
3 296 315 285 
3 268 287 299 
3 299 307 268 
3 5 289 288 
3 3 277 289 
3 290 300 291 
3 291 363 302 
3 292 367 271 
3 367 309 271 
3 319 293 320 
3 312 323 280 
3 239 339 318 
3 314 294 322 
3 257 343 341 
3 326 305 284 
3 327 285 315 
3 286 295 304 
3 327 295 285 
3 315 296 337 
3 297 306 267 
3 287 267 306 
3 307 298 288 
3 308 307 299 
3 289 5 3 
3 363 291 300 
3 309 319 272 
3 290 310 329 
3 329 300 290 
3 340 380 275 
3 380 312 275 
3 301 333 264 
3 264 333 294 
3 255 353 339 
3 283 323 324 
3 302 355 303 
3 302 363 355 
3 303 334 326 
3 327 304 295 
3 297 304 317 
3 305 336 296 
3 337 296 336 
3 315 337 316 
3 306 349 287 
3 287 349 299 
3 298 307 6 
3 6 307 308 
3 298 5 288 
3 359 309 367 
3 321 319 309 
3 329 310 350 
3 310 311 350 
3 323 312 372 
3 224 341 368 
3 368 342 224 
3 362 314 381 
3 334 325 326 
3 315 11 327 
3 316 11 315 
3 327 317 304 
3 306 297 317 
3 338 316 337 
3 317 349 306 
3 349 328 299 
3 299 328 308 
3 292 318 367 
3 360 293 319 
3 371 311 320 
3 319 321 360 
3 322 381 314 
3 324 323 354 
3 396 343 324 
3 334 303 355 
3 326 325 344 
3 335 305 326 
3 317 327 349 
3 11 366 327 
3 336 348 337 
3 11 316 338 
3 328 7 308 
3 350 311 371 
3 376 300 329 
3 354 323 372 
3 313 331 375 
3 332 301 342 
3 333 301 332 
3 395 294 333 
3 382 362 381 
3 334 355 364 
3 325 334 356 
3 326 344 345 
3 346 326 345 
3 305 335 336 
3 326 346 335 
3 366 349 327 
3 11 10 366 
3 336 358 348 
3 347 338 337 
3 12 11 338 
3 7 6 308 
3 339 370 318 
3 367 318 370 
3 359 321 309 
3 380 340 391 
3 368 341 388 
3 332 342 394 
3 395 322 294 
3 362 353 282 
3 341 343 388 
3 383 364 355 
3 356 344 325 
3 344 365 345 
3 345 357 346 
3 358 335 346 
3 12 338 347 
3 337 348 347 
3 8 328 349 
3 7 328 8 
3 385 329 350 
3 391 340 351 
3 374 373 352 
3 362 361 353 
3 339 353 436 
3 324 354 396 
3 364 356 334 
3 397 383 355 
3 399 344 356 
3 357 345 365 
3 399 365 344 
3 335 358 336 
3 346 357 358 
3 12 348 358 
3 348 12 347 
3 390 321 359 
3 293 360 378 
3 293 378 379 
3 293 379 320 
3 385 376 329 
3 393 330 409 
3 393 374 330 
3 374 352 330 
3 386 331 373 
3 408 313 375 
3 351 313 408 
3 368 388 423 
3 361 436 353 
3 362 387 361 
3 382 387 362 
3 381 322 395 
3 388 343 396 
3 397 355 363 
3 399 356 364 
3 365 377 357 
3 399 377 365 
3 349 366 8 
3 369 359 367 
3 390 360 321 
3 350 371 406 
3 380 391 407 
3 372 312 380 
3 372 396 354 
3 394 342 368 
3 402 332 394 
3 404 364 383 
3 404 399 364 
3 366 9 8 
3 300 376 363 
3 436 370 339 
3 359 369 421 
3 359 421 390 
3 370 369 367 
3 371 320 379 
3 406 371 416 
3 428 396 372 
3 401 386 373 
3 374 401 373 
3 386 375 331 
3 411 408 375 
3 391 351 408 
3 363 376 397 
3 377 358 357 
3 13 377 399 
3 378 415 379 
3 371 379 416 
3 380 422 372 
3 394 368 423 
3 332 402 333 
3 402 395 333 
3 382 381 403 
3 382 440 387 
3 381 395 403 
3 404 383 384 
3 14 13 399 
3 377 12 358 
3 390 378 360 
3 385 412 376 
3 412 398 376 
3 407 422 380 
3 372 422 428 
3 427 393 409 
3 410 375 386 
3 411 375 410 
3 423 418 394 
3 361 387 436 
3 423 388 389 
3 383 397 420 
3 384 383 420 
3 390 441 378 
3 400 379 415 
3 350 406 412 
3 415 378 441 
3 385 350 412 
3 392 407 391 
3 392 391 408 
3 374 393 413 
3 435 402 394 
3 394 418 435 
3 395 419 403 
3 389 388 396 
3 398 420 397 
3 14 399 430 
3 369 370 436 
3 390 421 441 
3 452 400 415 
3 400 416 379 
3 376 398 397 
3 389 396 428 
3 413 393 427 
3 386 401 410 
3 410 434 411 
3 402 419 395 
3 382 403 439 
3 436 387 440 
3 384 420 414 
3 404 430 399 
3 14 430 405 
3 405 15 14 
3 436 431 369 
3 432 412 406 
3 432 406 416 
3 422 407 426 
3 444 392 408 
3 417 428 422 
3 461 427 409 
3 413 401 374 
3 434 410 433 
3 411 444 408 
3 382 439 440 
3 369 431 421 
3 416 453 432 
3 398 412 429 
3 413 410 401 
3 435 418 446 
3 440 438 436 
3 389 428 423 
3 414 430 384 
3 404 384 430 
3 452 415 457 
3 453 416 452 
3 412 432 425 
3 420 398 429 
3 469 428 417 
3 418 455 446 
3 403 419 439 
3 420 424 414 
3 421 462 441 
3 400 452 416 
3 481 452 457 
3 412 425 429 
3 422 485 417 
3 492 411 434 
3 492 444 411 
3 402 435 419 
3 455 418 423 
3 424 420 429 
3 424 437 414 
3 457 415 441 
3 450 425 442 
3 407 392 444 
3 485 422 426 
3 427 445 413 
3 446 486 435 
3 438 440 449 
3 455 423 428 
3 424 429 450 
3 16 414 437 
3 430 414 16 
3 430 15 405 
3 462 421 431 
3 429 425 450 
3 425 432 443 
3 444 426 407 
3 469 455 428 
3 461 445 427 
3 445 433 413 
3 480 434 433 
3 434 479 492 
3 419 435 472 
3 431 436 463 
3 16 437 451 
3 16 15 430 
3 489 452 481 
3 442 459 450 
3 442 425 443 
3 469 417 485 
3 445 461 470 
3 410 413 433 
3 463 436 438 
3 440 439 448 
3 440 488 449 
3 424 450 437 
3 441 458 457 
3 466 459 442 
3 443 466 442 
3 444 484 426 
3 478 433 445 
3 434 480 479 
3 486 446 447 
3 486 460 435 
3 448 488 440 
3 438 449 506 
3 506 463 438 
3 419 472 439 
3 437 450 456 
3 451 437 456 
3 451 18 16 
3 441 462 458 
3 463 462 431 
3 452 475 453 
3 467 432 453 
3 450 459 456 
3 454 470 461 
3 433 478 480 
3 455 447 446 
3 472 435 460 
3 474 439 472 
3 456 18 451 
3 452 489 490 
3 490 475 452 
3 457 464 481 
3 457 458 464 
3 432 467 443 
3 475 467 453 
3 459 17 456 
3 466 17 459 
3 485 426 484 
3 484 444 492 
3 472 460 471 
3 448 439 474 
3 17 18 456 
3 468 443 467 
3 443 468 466 
3 498 454 461 
3 493 492 479 
3 460 486 471 
3 462 464 458 
3 501 462 463 
3 482 481 464 
3 466 465 17 
3 467 477 468 
3 476 466 468 
3 455 469 505 
3 504 445 470 
3 495 454 498 
3 455 505 447 
3 471 507 472 
3 472 473 474 
3 473 508 474 
3 487 448 474 
3 502 489 481 
3 467 475 477 
3 476 465 466 
3 477 19 468 
3 478 445 504 
3 495 470 454 
3 519 480 478 
3 499 493 479 
3 499 479 480 
3 505 486 447 
3 508 487 474 
3 487 488 448 
3 473 472 507 
3 501 464 462 
3 502 481 515 
3 515 481 482 
3 19 483 468 
3 483 476 468 
3 483 491 476 
3 484 522 485 
3 484 492 522 
3 485 531 469 
3 495 496 470 
3 499 480 519 
3 500 471 486 
3 488 487 525 
3 488 529 449 
3 525 529 488 
3 529 506 449 
3 501 463 506 
3 490 489 510 
3 502 509 489 
3 477 475 490 
3 476 491 465 
3 465 491 17 
3 485 522 494 
3 492 546 522 
3 493 546 492 
3 485 494 531 
3 496 495 516 
3 496 504 470 
3 495 498 497 
3 493 499 547 
3 541 471 500 
3 541 507 471 
3 501 543 464 
3 509 510 489 
3 503 490 510 
3 477 490 503 
3 547 546 493 
3 469 531 505 
3 504 513 478 
3 496 516 523 
3 504 496 523 
3 495 497 516 
3 513 519 478 
3 486 505 500 
3 509 502 521 
3 502 515 511 
3 477 503 19 
3 504 512 513 
3 523 512 504 
3 500 505 540 
3 506 526 501 
3 473 507 554 
3 508 524 487 
3 508 473 554 
3 535 464 543 
3 464 535 482 
3 543 501 526 
3 520 510 509 
3 503 510 514 
3 521 520 509 
3 482 535 515 
3 521 502 511 
3 518 513 512 
3 519 513 528 
3 519 534 499 
3 499 534 547 
3 526 506 529 
3 508 554 560 
3 514 510 520 
3 514 20 503 
3 511 515 545 
3 20 19 503 
3 546 527 522 
3 512 523 518 
3 516 567 523 
3 516 517 567 
3 528 513 518 
3 519 533 534 
3 553 507 541 
3 560 524 508 
3 520 21 514 
3 514 21 20 
3 530 520 521 
3 522 538 494 
3 532 518 523 
3 518 532 528 
3 519 528 548 
3 533 551 534 
3 524 525 487 
3 525 542 529 
3 588 543 526 
3 655 511 545 
3 538 522 527 
3 567 532 523 
3 548 528 549 
3 533 519 548 
3 529 588 526 
3 530 21 520 
3 505 531 540 
3 494 538 531 
3 531 576 540 
3 532 549 528 
3 548 539 533 
3 551 533 558 
3 547 534 570 
3 553 554 507 
3 579 524 560 
3 579 525 524 
3 525 579 542 
3 545 515 535 
3 537 536 656 
3 655 536 537 
3 576 531 538 
3 532 567 561 
3 532 561 549 
3 558 533 539 
3 540 552 500 
3 541 571 553 
3 542 580 529 
3 543 544 535 
3 565 555 535 
3 535 544 565 
3 555 545 535 
3 573 655 545 
3 573 536 655 
3 527 546 556 
3 546 547 556 
3 548 550 539 
3 549 550 548 
3 558 539 550 
3 534 551 559 
3 576 552 540 
3 593 500 552 
3 541 500 593 
3 554 553 562 
3 583 560 554 
3 588 529 580 
3 587 542 579 
3 588 544 543 
3 545 555 573 
3 527 556 538 
3 30 557 567 
3 550 549 561 
3 551 558 599 
3 559 570 534 
3 575 547 570 
3 541 593 571 
3 579 560 577 
3 554 562 563 
3 587 580 542 
3 564 544 588 
3 555 565 566 
3 569 550 561 
3 558 550 569 
3 559 551 599 
3 575 556 547 
3 560 583 577 
3 563 562 578 
3 563 583 554 
3 598 544 564 
3 598 566 565 
3 572 555 566 
3 544 598 565 
3 567 569 561 
3 569 568 558 
3 570 591 575 
3 601 556 575 
3 571 611 553 
3 582 578 553 
3 582 553 611 
3 578 562 553 
3 584 577 583 
3 579 596 587 
3 580 589 588 
3 573 555 572 
3 22 536 573 
3 556 601 538 
3 557 568 567 
3 567 568 569 
3 558 568 599 
3 559 599 591 
3 559 591 570 
3 601 575 574 
3 600 574 575 
3 591 581 575 
3 576 625 552 
3 610 582 611 
3 586 577 585 
3 579 577 586 
3 595 563 578 
3 596 579 604 
3 580 606 589 
3 598 22 566 
3 572 566 22 
3 22 573 572 
3 601 576 538 
3 575 581 600 
3 590 581 591 
3 578 582 602 
3 594 584 583 
3 583 595 594 
3 583 563 595 
3 584 622 577 
3 585 605 586 
3 578 602 595 
3 604 579 586 
3 580 587 606 
3 564 588 597 
3 589 597 588 
3 597 598 564 
3 609 574 600 
3 590 619 581 
3 590 591 592 
3 625 593 552 
3 571 593 611 
3 610 611 641 
3 614 584 594 
3 595 25 594 
3 622 585 577 
3 605 585 622 
3 605 604 586 
3 596 616 587 
3 616 596 604 
3 598 597 24 
3 598 607 22 
3 598 24 607 
3 599 592 591 
3 617 574 609 
3 619 609 600 
3 600 581 619 
3 576 601 625 
3 602 582 610 
3 610 641 613 
3 594 25 614 
3 584 614 622 
3 595 602 603 
3 595 603 25 
3 616 604 615 
3 615 604 605 
3 616 606 587 
3 597 589 606 
3 607 23 22 
3 617 601 574 
3 617 618 601 
3 599 608 592 
3 617 609 630 
3 592 608 590 
3 625 632 593 
3 602 610 620 
3 641 611 612 
3 641 27 613 
3 620 610 613 
3 622 614 621 
3 605 622 615 
3 629 616 615 
3 616 624 606 
3 606 624 597 
3 24 23 607 
3 636 618 617 
3 631 601 618 
3 619 630 609 
3 617 630 636 
3 590 29 619 
3 611 593 632 
3 602 620 603 
3 632 612 611 
3 633 613 27 
3 633 620 613 
3 627 622 621 
3 622 629 615 
3 629 623 616 
3 623 624 616 
3 24 597 624 
3 618 636 639 
3 619 645 630 
3 638 625 631 
3 632 625 638 
3 631 625 601 
3 612 632 647 
3 620 633 603 
3 25 626 614 
3 614 626 621 
3 628 622 627 
3 628 629 622 
3 629 635 623 
3 639 631 618 
3 630 637 636 
3 638 631 643 
3 647 632 646 
3 641 612 647 
3 27 28 633 
3 603 633 640 
3 626 634 621 
3 621 634 627 
3 627 635 628 
3 628 635 629 
3 624 623 24 
3 644 639 636 
3 630 645 637 
3 636 637 644 
3 646 632 638 
3 639 643 631 
3 640 25 603 
3 27 641 26 
3 633 642 640 
3 644 643 639 
3 645 644 637 
3 646 638 643 
3 640 642 25 
3 646 651 647 
3 641 647 26 
3 644 646 643 
3 650 644 645 
3 652 651 646 
3 648 26 647 
3 644 650 646 
3 645 649 650 
3 646 650 652 
3 647 651 648 
3 649 651 652 
3 650 649 652 
3 651 26 648 
3 653 654 262 
3 653 253 654 
3 656 655 537 
3 655 521 511 
3 655 530 521 
3 656 530 655 
3 656 21 530 
3 536 21 656 
