ply
format ascii 1.0
comment Generated by Slim Ghodhbane
element vertex 178
property double x
property double y
property double z
property uchar red
property uchar green
property uchar blue
property uchar alpha
element face 330
property list uchar int vertex_index
end_header
0.0346396 0.450753 0.267091 0 250 0 250
0.0308598 0.474291 0.271008 0 250 0 250
0.0581898 0.462176 0.271314 0 250 0 250
0.0552623 0.462751 0.267696 0 250 0 250
0.0660136 0.469531 0.255208 0 250 0 250
0.0637609 0.469266 0.252438 0 250 0 250
0.0681261 0.476391 0.24116 0 250 0 250
0.0593873 0.467861 0.246738 0 250 0 250
0.049282 0.461533 0.260261 0 250 0 250
0.0374403 0.460542 0.272284 0 250 0 250
0.0667441 0.470016 0.256126 0 250 0 250
0.0626761 0.46546 0.26309 0 250 0 250
0.0593345 0.462403 0.272692 0 250 0 250
0.0522905 0.460258 0.279118 0 250 0 250
0.0413849 0.471784 0.283648 0 250 0 250
0.0459459 0.464698 0.287379 0 250 0 250
0.0470462 0.459117 0.289228 0 250 0 250
0.0673196 0.477086 0.24943 0 250 0 250
0.0553222 0.469569 0.242482 0 250 0 250
0.060277 0.470266 0.239361 0 250 0 250
0.043508 0.464198 0.253542 0 250 0 250
0.0497849 0.460746 0.248285 0 250 0 250
0.0343078 0.462312 0.262515 0 250 0 250
0.0398205 0.45626 0.259308 0 250 0 250
0.0320206 0.461414 0.264025 0 250 0 250
0.0425937 0.460936 0.267669 0 250 0 250
0.0488171 0.457784 0.258438 0 250 0 250
0.0547918 0.46403 0.253041 0 250 0 250
0.058859 0.465007 0.245385 0 250 0 250
0.065922 0.474924 0.239141 0 250 0 250
0.0633305 0.471985 0.241922 0 250 0 250
0.0661298 0.474814 0.238353 0 250 0 250
0.0298821 0.4744 0.280326 0 250 0 250
0.030597 0.476012 0.27376 0 250 0 250
0.0509852 0.476067 0.271964 0 250 0 250
0.058828 0.467457 0.272796 0 250 0 250
0.0653493 0.474265 0.257497 0 250 0 250
0.0594577 0.475087 0.265025 0 250 0 250
0.0559378 0.478946 0.262976 0 250 0 250
0.0331082 0.470996 0.267066 0 250 0 250
0.0389287 0.46269 0.258377 0 250 0 250
0.0415603 0.471708 0.258038 0 250 0 250
0.0493785 0.466597 0.247589 0 250 0 250
0.0535373 0.474396 0.246103 0 250 0 250
0.0642322 0.475837 0.23761 0 250 0 250
0.060918 0.473345 0.239018 0 250 0 250
0.0640885 0.477246 0.23824 0 250 0 250
0.0352271 0.475842 0.268509 0 250 0 250
0.0483691 0.479476 0.256138 0 250 0 250
0.063656 0.479346 0.239909 0 250 0 250
0.0656882 0.480153 0.241064 0 250 0 250
0.064888 0.480561 0.240577 0 250 0 250
0.0446956 0.47345 0.279477 0 250 0 250
0.035742 0.473086 0.283293 0 250 0 250
0.0511817 0.456114 0.250418 0 250 0 250
0.0480338 0.452652 0.255852 0 250 0 250
0.0387012 0.452367 0.262693 0 250 0 250
0.0669617 0.476348 0.236668 0 250 0 250
0.0584279 0.461818 0.243991 0 250 0 250
0.060527 0.466288 0.240046 0 250 0 250
0.0378031 0.462254 0.279806 0 250 0 250
0.0376368 0.46275 0.274727 0 250 0 250
0.0317748 0.451761 0.267642 0 250 0 250
0.045581 0.45835 0.287882 0 250 0 250
0.0485543 0.45889 0.286498 0 250 0 250
0.0487579 0.459589 0.286555 0 250 0 250
0.0322587 0.450308 0.268967 0 250 0 250
0.0314599 0.468425 0.267034 0 250 0 250
0.0454796 0.462755 0.27148 0 250 0 250
0.0490911 0.461395 0.275437 0 250 0 250
0.0570571 0.465928 0.25611 0 250 0 250
0.0599445 0.465538 0.25972 0 250 0 250
0.0647781 0.472945 0.243912 0 250 0 250
0.0666983 0.473203 0.246295 0 250 0 250
0.0679141 0.47351 0.247792 0 250 0 250
0.0683952 0.474639 0.248885 0 250 0 250
0.0682966 0.473954 0.248323 0 250 0 250
0.0689742 0.478397 0.239487 0 250 0 250
0.0688819 0.476973 0.242221 0 250 0 250
0.0685177 0.476279 0.242549 0 250 0 250
0.0686311 0.477981 0.238842 0 250 0 250
0.0675724 0.477015 0.237344 0 250 0 250
0.0680155 0.477604 0.238025 0 250 0 250
0.0670963 0.475745 0.240764 0 250 0 250
0.0665637 0.475821 0.239169 0 250 0 250
0.0636489 0.472537 0.242447 0 250 0 250
0.0610772 0.46918 0.249105 0 250 0 250
0.0598642 0.468915 0.247534 0 250 0 250
0.0555934 0.465696 0.254271 0 250 0 250
0.0520503 0.463594 0.263821 0 250 0 250
0.0502146 0.46337 0.261725 0 250 0 250
0.043465 0.462743 0.269248 0 250 0 250
0.0391626 0.463006 0.276618 0 250 0 250
0.063813 0.466763 0.264984 0 250 0 250
0.0637539 0.465892 0.264415 0 250 0 250
0.053681 0.461258 0.28051 0 250 0 250
0.0534971 0.460279 0.280513 0 250 0 250
0.042507 0.461583 0.280177 0 250 0 250
0.046632 0.45948 0.284503 0 250 0 250
0.0417104 0.460297 0.283939 0 250 0 250
0.0438722 0.468407 0.286262 0 250 0 250
0.0468398 0.461421 0.288492 0 250 0 250
0.0486994 0.461402 0.286057 0 250 0 250
0.0470363 0.458023 0.28935 0 250 0 250
0.0536725 0.466315 0.278877 0 250 0 250
0.053476 0.463124 0.280398 0 250 0 250
0.0594577 0.463328 0.272992 0 250 0 250
0.0590661 0.464912 0.273631 0 250 0 250
0.0620485 0.470814 0.265981 0 250 0 250
0.0634017 0.468175 0.265793 0 250 0 250
0.0668222 0.470841 0.256682 0 250 0 250
0.0664764 0.472088 0.257381 0 250 0 250
0.0681677 0.475547 0.249429 0 250 0 250
0.0689129 0.477129 0.243538 0 250 0 250
0.0686903 0.478913 0.239603 0 250 0 250
0.0688692 0.47789 0.242962 0 250 0 250
0.0640864 0.479665 0.249926 0 250 0 250
0.0664947 0.477594 0.236937 0 250 0 250
0.0681282 0.478481 0.237292 0 250 0 250
0.0644618 0.474785 0.237326 0 250 0 250
0.0644752 0.472561 0.237689 0 250 0 250
0.055187 0.464907 0.242887 0 250 0 250
0.0559914 0.460406 0.244182 0 250 0 250
0.0448914 0.457826 0.254172 0 250 0 250
0.0457642 0.453333 0.256748 0 250 0 250
0.0346734 0.455852 0.263364 0 250 0 250
0.0334703 0.452007 0.266638 0 250 0 250
0.0320411 0.455752 0.26506 0 250 0 250
0.0359385 0.456631 0.270749 0 250 0 250
0.0419456 0.456882 0.265504 0 250 0 250
0.0541994 0.460508 0.251354 0 250 0 250
0.0627036 0.468224 0.240183 0 250 0 250
0.0630607 0.470477 0.241179 0 250 0 250
0.0303301 0.475202 0.277104 0 250 0 250
0.0315818 0.47381 0.281799 0 250 0 250
0.0453937 0.468997 0.284057 0 250 0 250
0.0480669 0.464848 0.284854 0 250 0 250
0.0495102 0.470488 0.279385 0 250 0 250
0.0556751 0.471021 0.273307 0 250 0 250
0.063208 0.477678 0.256711 0 250 0 250
0.0321319 0.475195 0.271228 0 250 0 250
0.0368599 0.470443 0.262697 0 250 0 250
0.0418315 0.478483 0.263494 0 250 0 250
0.0473188 0.473079 0.252161 0 250 0 250
0.0548862 0.480593 0.249147 0 250 0 250
0.059395 0.475616 0.241246 0 250 0 250
0.0666363 0.479478 0.238001 0 250 0 250
0.0322813 0.476057 0.274318 0 250 0 250
0.0373846 0.477387 0.271971 0 250 0 250
0.0463291 0.478903 0.267789 0 250 0 250
0.0516671 0.480989 0.259825 0 250 0 250
0.0594324 0.48032 0.256134 0 250 0 250
0.0570473 0.481636 0.252622 0 250 0 250
0.0621422 0.48105 0.243888 0 250 0 250
0.0622014 0.480843 0.246292 0 250 0 250
0.0674139 0.478945 0.243681 0 250 0 250
0.0663954 0.479762 0.241594 0 250 0 250
0.0676485 0.479544 0.238974 0 250 0 250
0.0597008 0.479918 0.243599 0 250 0 250
0.0413004 0.475998 0.27567 0 250 0 250
0.0327758 0.474693 0.27887 0 250 0 250
0.0373755 0.473766 0.2811 0 250 0 250
0.040403 0.471486 0.285213 0 250 0 250
0.032761 0.451696 0.270297 0 250 0 250
0.0336718 0.456152 0.272833 0 250 0 250
0.0580919 0.460685 0.243301 0 250 0 250
0.053888 0.45706 0.249839 0 250 0 250
0.0535823 0.455835 0.249108 0 250 0 250
0.048467 0.454023 0.256713 0 250 0 250
0.0412448 0.452732 0.263363 0 250 0 250
0.0350298 0.452218 0.268281 0 250 0 250
0.0407615 0.451251 0.262293 0 250 0 250
0.0673484 0.476357 0.236905 0 250 0 250
0.065567 0.473246 0.238244 0 250 0 250
0.0657093 0.473207 0.237515 0 250 0 250
0.0623324 0.467155 0.239564 0 250 0 250
0.0348678 0.460857 0.27541 0 250 0 250
0.0358688 0.462625 0.277482 0 250 0 250
3 33 140 1 
3 0 170 163 
3 69 98 97 
3 3 2 13 
3 71 2 3 
3 5 4 11 
3 73 4 5 
3 6 79 74 
3 76 110 10 
3 78 113 75 
3 80 118 77 
3 6 83 82 
3 84 29 81 
3 72 86 85 
3 87 7 30 
3 70 89 88 
3 90 8 27 
3 68 92 91 
3 61 9 25 
3 94 4 10 
3 12 2 11 
3 96 2 12 
3 64 98 13 
3 100 14 162 
3 15 136 135 
3 101 136 15 
3 16 65 102 
3 95 106 105 
3 107 35 104 
3 93 110 109 
3 111 36 108 
3 75 113 112 
3 115 155 17 
3 77 118 114 
3 139 36 17 
3 119 44 117 
3 19 18 45 
3 121 18 19 
3 21 20 42 
3 123 20 21 
3 23 22 40 
3 125 22 23 
3 129 9 128 
3 26 8 25 
3 130 8 26 
3 28 7 27 
3 132 7 28 
3 31 29 30 
3 81 29 31 
3 32 160 133 
3 147 140 33 
3 137 34 52 
3 104 35 138 
3 108 36 37 
3 38 34 37 
3 141 22 39 
3 41 20 40 
3 143 20 41 
3 43 18 42 
3 145 18 43 
3 46 44 45 
3 117 44 46 
3 148 142 47 
3 159 34 149 
3 38 151 150 
3 152 144 48 
3 116 155 154 
3 156 50 153 
3 114 118 157 
3 146 49 51 
3 153 50 51 
3 161 14 52 
3 128 9 176 
3 167 122 165 
3 55 124 54 
3 171 124 55 
3 0 126 56 
3 174 120 57 
3 131 58 175 
3 165 122 59 
3 177 92 60 
3 176 9 61 
3 126 66 62 
3 64 63 98 
3 103 63 64 
3 65 103 64 
3 0 163 66 
3 126 0 66 
3 39 1 140 
3 67 1 39 
3 22 67 39 
3 22 24 67 
3 68 97 92 
3 69 97 68 
3 89 69 68 
3 69 13 98 
3 3 13 69 
3 89 3 69 
3 70 3 89 
3 71 3 70 
3 86 71 70 
3 71 11 2 
3 5 11 71 
3 86 5 71 
3 72 5 86 
3 73 5 72 
3 83 73 72 
3 73 74 4 
3 6 74 73 
3 83 6 73 
3 74 10 4 
3 76 10 74 
3 79 76 74 
3 76 75 110 
3 78 75 76 
3 79 78 76 
3 78 77 113 
3 80 77 78 
3 79 80 78 
3 80 82 118 
3 6 82 80 
3 79 6 80 
3 82 81 118 
3 84 81 82 
3 83 84 82 
3 84 85 29 
3 72 85 84 
3 83 72 84 
3 85 30 29 
3 87 30 85 
3 86 87 85 
3 87 88 7 
3 70 88 87 
3 86 70 87 
3 88 27 7 
3 90 27 88 
3 89 90 88 
3 90 91 8 
3 68 91 90 
3 89 68 90 
3 91 25 8 
3 61 25 91 
3 92 61 91 
3 93 10 110 
3 94 10 93 
3 106 94 93 
3 94 11 4 
3 12 11 94 
3 106 12 94 
3 95 12 106 
3 96 12 95 
3 65 96 95 
3 96 13 2 
3 64 13 96 
3 65 64 96 
3 97 60 92 
3 99 60 97 
3 98 99 97 
3 98 63 99 
3 100 135 14 
3 15 135 100 
3 101 102 136 
3 16 102 101 
3 102 105 136 
3 95 105 102 
3 65 95 102 
3 65 16 103 
3 105 104 136 
3 107 104 105 
3 106 107 105 
3 107 109 35 
3 93 109 107 
3 106 93 107 
3 109 108 35 
3 111 108 109 
3 110 111 109 
3 111 112 36 
3 75 112 111 
3 110 75 111 
3 112 17 36 
3 115 17 112 
3 113 115 112 
3 115 114 155 
3 77 114 115 
3 113 77 115 
3 116 17 155 
3 139 17 116 
3 151 139 116 
3 57 117 118 
3 119 117 57 
3 120 119 57 
3 119 45 44 
3 19 45 119 
3 120 19 119 
3 59 19 120 
3 121 19 59 
3 122 121 59 
3 121 42 18 
3 21 42 121 
3 122 21 121 
3 54 21 122 
3 123 21 54 
3 124 123 54 
3 123 40 20 
3 23 40 123 
3 124 23 123 
3 56 23 124 
3 125 23 56 
3 126 125 56 
3 125 24 22 
3 127 24 125 
3 126 127 125 
3 62 127 126 
3 169 128 170 
3 129 128 169 
3 168 129 169 
3 129 25 9 
3 26 25 129 
3 168 26 129 
3 166 26 168 
3 130 26 166 
3 58 130 166 
3 130 27 8 
3 28 27 130 
3 58 28 130 
3 131 28 58 
3 132 28 131 
3 173 132 131 
3 132 30 7 
3 31 30 132 
3 173 31 132 
3 172 31 173 
3 81 31 172 
3 118 81 172 
3 147 33 133 
3 160 147 133 
3 32 134 160 
3 135 52 14 
3 137 52 135 
3 136 137 135 
3 137 138 34 
3 104 138 137 
3 136 104 137 
3 138 37 34 
3 108 37 138 
3 35 108 138 
3 139 37 36 
3 38 37 139 
3 151 38 139 
3 47 39 140 
3 141 39 47 
3 142 141 47 
3 141 40 22 
3 41 40 141 
3 142 41 141 
3 48 41 142 
3 143 41 48 
3 144 143 48 
3 143 42 20 
3 43 42 143 
3 144 43 143 
3 158 43 144 
3 145 43 158 
3 49 145 158 
3 145 45 18 
3 46 45 145 
3 49 46 145 
3 146 46 49 
3 117 46 146 
3 118 117 146 
3 147 47 140 
3 148 47 147 
3 160 148 147 
3 148 149 142 
3 159 149 148 
3 160 159 148 
3 149 150 142 
3 38 150 149 
3 34 38 149 
3 150 48 142 
3 152 48 150 
3 151 152 150 
3 152 154 144 
3 116 154 152 
3 151 116 152 
3 154 153 144 
3 156 153 154 
3 155 156 154 
3 156 157 50 
3 114 157 156 
3 155 114 156 
3 157 51 50 
3 146 51 157 
3 118 146 157 
3 158 51 49 
3 153 51 158 
3 144 153 158 
3 159 52 34 
3 161 52 159 
3 160 161 159 
3 161 53 14 
3 134 53 161 
3 160 134 161 
3 53 162 14 
3 170 164 163 
3 128 176 164 
3 170 128 164 
3 166 165 58 
3 167 165 166 
3 168 167 166 
3 167 54 122 
3 55 54 167 
3 168 55 167 
3 169 55 168 
3 171 55 169 
3 170 171 169 
3 171 56 124 
3 0 56 171 
3 170 0 171 
3 172 57 118 
3 174 57 172 
3 173 174 172 
3 174 175 120 
3 131 175 174 
3 173 131 174 
3 175 59 120 
3 165 59 175 
3 58 165 175 
3 177 61 92 
3 176 61 177 
