ply
format ascii 1.0
comment Generated by Slim Ghodhbane
element vertex 716
property double x
property double y
property double z
property uchar red
property uchar green
property uchar blue
property uchar alpha
element face 1392
property list uchar int vertex_index
end_header
-11.0026 89.9228 -10.5351 0 250 0 250
-10.9868 89.8219 -10.8873 0 250 0 250
-10.9935 90.0742 -10.2258 0 250 0 250
-10.883 90.7249 -9.93405 0 250 0 250
-9.61947 89.979 -11.9505 0 250 0 250
-9.77952 89.6996 -11.9796 0 250 0 250
-9.39385 89.704 -11.9811 0 250 0 250
-10.2551 90.3686 -11.83 0 250 0 250
-10.6902 90.6912 -11.4714 0 250 0 250
-10.5197 90.5233 -11.6894 0 250 0 250
-10.8566 90.7803 -10.7412 0 250 0 250
-10.8974 90.6472 -8.83054 0 250 0 250
-9.56833 91.1765 -11.8243 0 250 0 250
-9.24019 91.027 -11.8349 0 250 0 250
-9.799 91.8701 -11.749 0 250 0 250
-10.5779 92.2172 -11.1474 0 250 0 250
-10.7257 91.6305 -8.64774 0 250 0 250
-10.7558 91.4342 -8.3978 0 250 0 250
-6.71225 90.2855 -11.3473 0 250 0 250
-6.78102 90.6472 -11.307 0 250 0 250
-7.48906 91.3779 -11.7163 0 250 0 250
-8.33775 91.7782 -11.7194 0 250 0 250
-8.01546 91.6666 -11.7196 0 250 0 250
-9.06346 91.8925 -11.7256 0 250 0 250
-9.07566 92.5657 -11.6485 0 250 0 250
-10.6719 91.1269 -8.0038 0 250 0 250
-10.3515 92.1002 -8.16727 0 250 0 250
-9.63365 91.8941 -7.97232 0 250 0 250
-7.25393 92.6891 -10.7962 0 250 0 250
-8.13896 93.0815 -11.5205 0 250 0 250
-10.2653 93.427 -11.2 0 250 0 250
-10.3016 93.2883 -8.8188 0 250 0 250
-9.32138 91.8394 -7.95888 0 250 0 250
-8.36079 92.2578 -8.04978 0 250 0 250
-7.43684 92.2064 -8.07691 0 250 0 250
-6.96029 92.0602 -8.66457 0 250 0 250
-7.14611 92.359 -8.30077 0 250 0 250
-7.12465 92.5367 -10.5273 0 250 0 250
-7.03386 92.3927 -10.2275 0 250 0 250
-7.0568 92.7827 -9.90766 0 250 0 250
-7.13631 93.3535 -9.88348 0 250 0 250
-8.62724 93.5815 -11.5209 0 250 0 250
-7.66176 93.7793 -11.3189 0 250 0 250
-8.21506 93.8325 -11.4716 0 250 0 250
-7.86648 94.2541 -11.3851 0 250 0 250
-10.1097 94.7381 -9.52782 0 250 0 250
-10.093 94.6616 -9.15659 0 250 0 250
-9.73529 93.7633 -8.44162 0 250 0 250
-9.87241 94.0442 -8.54583 0 250 0 250
-9.52234 94.4845 -8.57472 0 250 0 250
-8.90471 93.1062 -8.23611 0 250 0 250
-7.51992 94.8061 -9.05306 0 250 0 250
-7.19467 93.752 -10.2826 0 250 0 250
-7.52013 94.5743 -11.1538 0 250 0 250
-9.74407 96.2214 -10.2835 0 250 0 250
-9.81198 95.6303 -9.29145 0 250 0 250
-8.64418 95.4992 -8.75971 0 250 0 250
-8.94755 94.4894 -8.53785 0 250 0 250
-7.95997 94.694 -8.66599 0 250 0 250
-7.36333 95.0475 -10.0982 0 250 0 250
-7.52417 96.0034 -10.6396 0 250 0 250
-8.08482 96.6182 -11.0272 0 250 0 250
-9.4023 97.282 -10.3553 0 250 0 250
-9.69898 96.478 -10.1309 0 250 0 250
-8.81308 97.2247 -9.17297 0 250 0 250
-7.54663 96.0026 -9.58224 0 250 0 250
-7.74098 97.0926 -10.3112 0 250 0 250
-8.92526 97.702 -10.7144 0 250 0 250
-9.0999 97.8268 -9.38358 0 250 0 250
-8.41912 98.5764 -9.58381 0 250 0 250
-7.96995 98.6662 -10.4583 0 250 0 250
-8.51736 99.2377 -10.7843 0 250 0 250
-8.02031 98.9425 -10.3069 0 250 0 250
-8.58828 99.7714 -10.7008 0 250 0 250
-8.61322 100.485 -10.3199 0 250 0 250
-8.8628 100.209 -10.2527 0 250 0 250
-8.45596 100.371 -10.3165 0 250 0 250
-10.9548 89.7077 -11.2235 0 250 0 250
-10.938 90.0659 -10.9008 0 250 0 250
-10.9024 90.3063 -10.9112 0 250 0 250
-10.8053 89.8433 -11.5094 0 250 0 250
-10.7453 90.1034 -11.5016 0 250 0 250
-10.8949 90.6552 -9.52455 0 250 0 250
-10.9232 90.5057 -10.1122 0 250 0 250
-9.25262 90.0259 -11.9452 0 250 0 250
-10.2678 90.0589 -11.8611 0 250 0 250
-9.5211 90.242 -11.9236 0 250 0 250
-9.52995 90.5493 -11.893 0 250 0 250
-10.5206 90.8772 -11.6582 0 250 0 250
-10.8788 90.5222 -10.8962 0 250 0 250
-10.8242 91.0173 -10.5847 0 250 0 250
-10.7811 91.2604 -10.4144 0 250 0 250
-10.6913 90.9888 -11.414 0 250 0 250
-10.7057 91.2721 -11.2478 0 250 0 250
-10.7246 91.5521 -10.6137 0 250 0 250
-10.6688 91.8431 -10.7894 0 250 0 250
-10.7016 91.5645 -11.0212 0 250 0 250
-10.83 90.9926 -9.72677 0 250 0 250
-10.7722 91.2852 -9.63348 0 250 0 250
-7.95323 90.8083 -11.8465 0 250 0 250
-7.39836 90.7903 -11.8186 0 250 0 250
-8.44281 90.4387 -11.8939 0 250 0 250
-8.18124 90.622 -11.8707 0 250 0 250
-8.8963 90.8915 -11.8442 0 250 0 250
-9.5321 90.8682 -11.8598 0 250 0 250
-9.18351 90.698 -11.8722 0 250 0 250
-9.67354 91.6618 -11.7694 0 250 0 250
-10.6221 92.0805 -10.9248 0 250 0 250
-10.5263 91.3131 -11.6154 0 250 0 250
-10.6332 91.594 -11.3697 0 250 0 250
-10.6575 91.8831 -9.99331 0 250 0 250
-10.7248 91.5531 -9.13836 0 250 0 250
-10.5744 92.2827 -9.40446 0 250 0 250
-10.7167 91.573 -9.44704 0 250 0 250
-10.7148 91.5842 -9.80462 0 250 0 250
-10.7534 91.4487 -8.84348 0 250 0 250
-10.682 91.7839 -8.4626 0 250 0 250
-10.5968 91.9106 -8.29721 0 250 0 250
-10.5876 92.2197 -9.03635 0 250 0 250
-10.8059 91.1097 -8.32769 0 250 0 250
-6.89176 90.0937 -8.10956 0 250 0 250
-6.85794 90.2786 -8.29962 0 250 0 250
-7.31869 90.5806 -7.88947 0 250 0 250
-6.68915 90.2421 -9.75602 0 250 0 250
-6.69446 90.2797 -9.44604 0 250 0 250
-6.76046 90.6998 -9.02235 0 250 0 250
-6.7264 90.5027 -10.8137 0 250 0 250
-6.71124 90.3909 -11.0924 0 250 0 250
-6.87392 91.2269 -11.178 0 250 0 250
-7.10008 90.6516 -11.7765 0 250 0 250
-8.06969 91.1248 -11.8066 0 250 0 250
-7.69906 91.805 -11.6373 0 250 0 250
-7.64195 92.0268 -11.5288 0 250 0 250
-8.94854 91.6605 -11.7517 0 250 0 250
-9.16125 92.1151 -11.7007 0 250 0 250
-8.29999 92.0154 -11.6705 0 250 0 250
-9.25964 92.3422 -11.6772 0 250 0 250
-8.90997 92.8007 -11.6186 0 250 0 250
-8.74404 93.0716 -11.5833 0 250 0 250
-8.42083 92.3013 -11.6381 0 250 0 250
-8.20637 92.5505 -11.5845 0 250 0 250
-10.3442 92.5989 -11.5148 0 250 0 250
-9.86231 92.9304 -11.6164 0 250 0 250
-9.79042 93.2486 -11.5602 0 250 0 250
-9.66451 92.7405 -11.6498 0 250 0 250
-10.2516 92.9565 -11.4608 0 250 0 250
-9.63959 93.5416 -11.5217 0 250 0 250
-10.582 92.291 -10.6845 0 250 0 250
-10.5016 92.6982 -10.8571 0 250 0 250
-10.4413 92.8855 -11.0847 0 250 0 250
-10.479 92.7855 -9.87618 0 250 0 250
-10.4181 93.0992 -9.891 0 250 0 250
-10.4878 92.7695 -10.5105 0 250 0 250
-10.3754 93.3016 -9.59148 0 250 0 250
-10.5999 91.6761 -8.13459 0 250 0 250
-10.5174 92.4392 -8.80484 0 250 0 250
-10.4304 92.7301 -8.79993 0 250 0 250
-10.3433 91.8102 -8.03039 0 250 0 250
-9.77395 91.6598 -7.92059 0 250 0 250
-8.11603 90.5474 -7.69885 0 250 0 250
-9.04248 90.9006 -7.75518 0 250 0 250
-8.20978 91.1905 -7.82751 0 250 0 250
-8.32435 91.4525 -7.87644 0 250 0 250
-9.12116 91.2068 -7.82138 0 250 0 250
-7.16849 90.775 -8.02364 0 250 0 250
-6.81012 91.0563 -8.91006 0 250 0 250
-6.95969 91.243 -8.29872 0 250 0 250
-6.80346 90.7737 -8.69243 0 250 0 250
-6.82436 90.4924 -8.48275 0 250 0 250
-6.83768 91.3429 -9.148 0 250 0 250
-6.92144 91.9503 -9.00696 0 250 0 250
-6.90153 91.7272 -8.72713 0 250 0 250
-6.67787 90.1606 -10.0308 0 250 0 250
-6.72306 90.4853 -9.98314 0 250 0 250
-6.74615 90.6505 -10.5215 0 250 0 250
-6.77223 90.8403 -9.91717 0 250 0 250
-6.77738 90.8537 -10.7957 0 250 0 250
-6.87883 91.4644 -10.6582 0 250 0 250
-6.82145 91.1961 -9.83605 0 250 0 250
-6.86076 91.4805 -9.76272 0 250 0 250
-7.11517 91.4718 -11.4858 0 250 0 250
-6.82094 91.154 -10.7413 0 250 0 250
-7.00613 91.8529 -10.8225 0 250 0 250
-7.10645 92.0877 -10.8554 0 250 0 250
-7.9106 93.3938 -11.4341 0 250 0 250
-8.14289 92.8144 -11.5449 0 250 0 250
-9.22819 93.8715 -11.4909 0 250 0 250
-10.3291 93.5582 -10.5868 0 250 0 250
-10.3113 93.5019 -10.9203 0 250 0 250
-10.1379 94.1171 -10.9654 0 250 0 250
-10.0165 93.9948 -11.2439 0 250 0 250
-10.1777 93.3083 -11.3907 0 250 0 250
-10.3366 93.5287 -10.2637 0 250 0 250
-10.2813 93.8006 -10.4176 0 250 0 250
-10.2438 93.9962 -9.81382 0 250 0 250
-10.2038 94.0996 -10.6093 0 250 0 250
-10.129 94.5876 -10.112 0 250 0 250
-10.0856 94.8342 -9.8991 0 250 0 250
-10.1037 94.4064 -10.7975 0 250 0 250
-10.4823 92.6902 -9.16871 0 250 0 250
-10.259 93.9081 -9.44683 0 250 0 250
-10.219 94.1162 -9.25426 0 250 0 250
-10.3287 92.9685 -8.68111 0 250 0 250
-10.3923 93.0029 -8.94563 0 250 0 250
-9.80153 93.1821 -8.32613 0 250 0 250
-9.25864 93.593 -8.35279 0 250 0 250
-9.8789 93.4296 -8.40549 0 250 0 250
-9.11305 92.4021 -8.08201 0 250 0 250
-8.56206 92.6942 -8.14471 0 250 0 250
-9.13766 92.7996 -8.17224 0 250 0 250
-9.04274 91.7089 -7.93039 0 250 0 250
-8.95948 91.9047 -7.97296 0 250 0 250
-8.32257 92.0178 -7.99756 0 250 0 250
-8.42722 92.5233 -8.10753 0 250 0 250
-9.05522 92.1532 -8.02722 0 250 0 250
-7.98197 91.9695 -7.98955 0 250 0 250
-7.54856 92.5574 -8.1466 0 250 0 250
-7.4515 90.9082 -7.88389 0 250 0 250
-7.54828 91.2602 -7.89614 0 250 0 250
-7.6201 91.5953 -7.93102 0 250 0 250
-7.07917 91.9806 -8.24221 0 250 0 250
-7.24576 92.104 -8.11757 0 250 0 250
-7.23121 92.7247 -8.34616 0 250 0 250
-7.40776 92.8476 -8.26336 0 250 0 250
-7.71758 92.2304 -8.04965 0 250 0 250
-6.95733 91.8158 -8.44151 0 250 0 250
-6.96516 92.2462 -8.9661 0 250 0 250
-7.0739 92.7268 -8.72222 0 250 0 250
-7.00932 92.5352 -8.9871 0 250 0 250
-7.12566 93.0401 -8.82306 0 250 0 250
-6.89943 91.7585 -9.69171 0 250 0 250
-6.97809 92.0941 -10.213 0 250 0 250
-7.17287 92.865 -10.5345 0 250 0 250
-6.97598 92.3005 -9.61174 0 250 0 250
-7.0135 92.5587 -9.61328 0 250 0 250
-7.07341 92.9494 -9.37246 0 250 0 250
-7.92572 92.2447 -11.5586 0 250 0 250
-7.92178 92.6205 -11.4946 0 250 0 250
-7.30569 92.9919 -10.8427 0 250 0 250
-7.31835 93.3032 -10.8856 0 250 0 250
-7.25114 93.5118 -10.7522 0 250 0 250
-8.69907 93.3127 -11.5544 0 250 0 250
-8.54455 93.8514 -11.4882 0 250 0 250
-8.46285 94.0987 -11.4604 0 250 0 250
-9.86003 94.7154 -11.1582 0 250 0 250
-9.69342 95.3454 -11.0783 0 250 0 250
-9.57512 95.6849 -11.0434 0 250 0 250
-9.04871 94.4647 -11.4152 0 250 0 250
-9.84953 95.2132 -10.9237 0 250 0 250
-9.99299 94.6818 -10.9531 0 250 0 250
-9.99747 95.1957 -10.1901 0 250 0 250
-9.90597 95.5388 -10.3185 0 250 0 250
-9.90513 95.616 -9.97726 0 250 0 250
-9.78658 95.9363 -10.4293 0 250 0 250
-10.1438 94.5381 -9.77719 0 250 0 250
-10.0602 94.9406 -9.33474 0 250 0 250
-9.9863 95.1013 -9.17991 0 250 0 250
-10.1197 93.6483 -8.60944 0 250 0 250
-9.98765 94.2933 -8.7105 0 250 0 250
-10.0437 93.9574 -8.63042 0 250 0 250
-9.41379 93.8712 -8.41966 0 250 0 250
-9.90585 94.6559 -8.77597 0 250 0 250
-9.70598 94.7707 -8.69472 0 250 0 250
-9.3693 94.9983 -8.67965 0 250 0 250
-9.95793 92.5683 -8.20219 0 250 0 250
-9.06712 93.3175 -8.28563 0 250 0 250
-8.15266 93.29 -8.27653 0 250 0 250
-8.31958 93.5692 -8.33724 0 250 0 250
-8.53873 93.7454 -8.37492 0 250 0 250
-7.5927 93.3856 -8.379 0 250 0 250
-7.49533 93.6503 -8.55597 0 250 0 250
-7.87088 93.9277 -8.48438 0 250 0 250
-8.01381 93.0531 -8.22492 0 250 0 250
-7.17435 93.4424 -9.35371 0 250 0 250
-7.33089 93.8318 -9.02759 0 250 0 250
-7.26993 93.8317 -9.32787 0 250 0 250
-7.31101 94.0717 -9.38511 0 250 0 250
-7.48678 94.0456 -8.82545 0 250 0 250
-7.54208 94.3261 -8.88392 0 250 0 250
-7.32725 94.3508 -9.54276 0 250 0 250
-7.4104 94.8236 -9.35362 0 250 0 250
-7.5156 94.573 -9.00602 0 250 0 250
-7.46998 94.1259 -11.1728 0 250 0 250
-7.22825 94.0356 -10.4791 0 250 0 250
-7.25823 94.2826 -10.3755 0 250 0 250
-7.29872 94.568 -10.3672 0 250 0 250
-7.38115 95.1903 -10.4226 0 250 0 250
-7.33822 94.8751 -10.3705 0 250 0 250
-8.30101 94.9786 -11.3604 0 250 0 250
-8.01241 95.1232 -11.3153 0 250 0 250
-9.11811 95.4081 -11.2816 0 250 0 250
-8.9006 95.1177 -11.3389 0 250 0 250
-8.62674 94.8488 -11.3755 0 250 0 250
-9.09261 96.2692 -11.0735 0 250 0 250
-8.87867 96.5875 -11.0344 0 250 0 250
-8.76725 96.0012 -11.205 0 250 0 250
-9.79385 96.0527 -10.0984 0 250 0 250
-9.70666 95.852 -10.7677 0 250 0 250
-9.96156 95.414 -9.73265 0 250 0 250
-9.54567 95.4932 -8.90625 0 250 0 250
-9.85206 95.0331 -8.88515 0 250 0 250
-8.59892 95.2708 -8.70661 0 250 0 250
-7.94777 95.1886 -8.78092 0 250 0 250
-7.69663 95.2668 -8.94074 0 250 0 250
-8.31867 95.5801 -8.79747 0 250 0 250
-7.71766 94.1939 -8.64065 0 250 0 250
-8.25926 94.6076 -8.58261 0 250 0 250
-7.9481 94.9429 -8.7258 0 250 0 250
-8.79857 94.9316 -8.63171 0 250 0 250
-8.5111 94.802 -8.60596 0 250 0 250
-7.95913 94.4567 -8.61003 0 250 0 250
-7.32656 94.7303 -10.0343 0 250 0 250
-7.36679 94.9494 -9.73095 0 250 0 250
-7.40219 95.3472 -10.1244 0 250 0 250
-7.51979 95.0703 -9.12336 0 250 0 250
-7.53439 95.3451 -9.19292 0 250 0 250
-7.60792 95.0991 -11.1552 0 250 0 250
-7.47889 95.6812 -10.694 0 250 0 250
-7.99957 95.7445 -11.2112 0 250 0 250
-8.02578 96.0591 -11.1491 0 250 0 250
-7.64384 95.7334 -11.048 0 250 0 250
-7.61404 95.4093 -11.0978 0 250 0 250
-8.54125 96.2701 -11.156 0 250 0 250
-9.56555 95.9966 -10.9103 0 250 0 250
-9.32496 97.0505 -10.5742 0 250 0 250
-8.92331 96.8417 -10.9306 0 250 0 250
-9.67239 96.568 -9.81835 0 250 0 250
-9.57007 96.702 -9.54682 0 250 0 250
-9.63484 96.7777 -9.98937 0 250 0 250
-9.19307 96.3726 -9.05993 0 250 0 250
-9.4175 96.4405 -9.20994 0 250 0 250
-9.31875 97.101 -9.30016 0 250 0 250
-9.46192 97.0319 -9.46707 0 250 0 250
-9.66578 96.4239 -9.62641 0 250 0 250
-7.96853 95.443 -8.83907 0 250 0 250
-8.30622 95.9064 -8.87609 0 250 0 250
-8.18262 96.5494 -9.06918 0 250 0 250
-8.51675 97.2093 -9.19879 0 250 0 250
-8.49962 96.4999 -8.99886 0 250 0 250
-8.86775 96.4291 -8.99448 0 250 0 250
-7.7068 96.5795 -9.57972 0 250 0 250
-7.66493 96.7381 -10.0142 0 250 0 250
-8.21222 97.1663 -9.30481 0 250 0 250
-7.53824 96.2226 -10.1101 0 250 0 250
-7.44797 95.6602 -10.2303 0 250 0 250
-7.71371 96.3228 -10.9115 0 250 0 250
-7.61232 96.5577 -10.4916 0 250 0 250
-7.78754 96.8826 -10.7542 0 250 0 250
-7.83164 97.2127 -10.6545 0 250 0 250
-7.87043 97.6349 -10.2325 0 250 0 250
-7.83726 97.375 -10.1089 0 250 0 250
-8.12939 97.6683 -9.61522 0 250 0 250
-8.08571 97.3839 -9.53764 0 250 0 250
-7.78376 97.1168 -9.99881 0 250 0 250
-8.05052 98.5921 -9.93365 0 250 0 250
-8.57428 97.2436 -10.9169 0 250 0 250
-8.12502 97.5754 -10.838 0 250 0 250
-9.16432 97.6301 -10.5458 0 250 0 250
-8.72119 97.8172 -10.8055 0 250 0 250
-8.84587 97.0916 -10.8777 0 250 0 250
-9.23161 98.2261 -10.3937 0 250 0 250
-9.05978 98.3321 -10.5954 0 250 0 250
-8.74723 98.7731 -10.7751 0 250 0 250
-9.5462 96.7915 -10.4019 0 250 0 250
-9.46028 97.4787 -10.1074 0 250 0 250
-9.36643 97.3742 -9.45637 0 250 0 250
-9.21511 98.0569 -9.56177 0 250 0 250
-8.86522 97.8918 -9.35176 0 250 0 250
-9.13256 98.3981 -9.62601 0 250 0 250
-9.27534 97.7223 -9.47702 0 250 0 250
-8.28435 97.9164 -9.51876 0 250 0 250
-8.20638 98.5833 -9.70627 0 250 0 250
-8.76467 98.2709 -9.45931 0 250 0 250
-8.83156 99.0958 -9.69947 0 250 0 250
-7.87353 97.5802 -10.5558 0 250 0 250
-7.98138 98.3729 -10.5968 0 250 0 250
-7.96247 98.5984 -10.2366 0 250 0 250
-8.19701 98.2882 -10.8224 0 250 0 250
-8.04694 98.7248 -10.6348 0 250 0 250
-7.92835 97.9826 -10.5868 0 250 0 250
-8.60472 98.4865 -10.8267 0 250 0 250
-8.86245 99.0871 -10.7196 0 250 0 250
-8.40104 98.932 -10.8166 0 250 0 250
-9.31343 97.8425 -10.3137 0 250 0 250
-9.34606 98.1189 -10.1597 0 250 0 250
-9.09202 98.7544 -9.73496 0 250 0 250
-9.06915 99.0157 -10.5565 0 250 0 250
-8.97471 99.3247 -9.85891 0 250 0 250
-9.18105 99.0747 -10.1686 0 250 0 250
-9.12696 99.3693 -10.1783 0 250 0 250
-8.87468 100.006 -10.5505 0 250 0 250
-8.19872 98.8758 -9.81272 0 250 0 250
-8.22297 99.4703 -10.1849 0 250 0 250
-8.52043 99.6875 -9.98188 0 250 0 250
-8.35728 99.9544 -10.4997 0 250 0 250
-8.27044 99.7259 -10.365 0 250 0 250
-8.20544 99.1875 -9.97461 0 250 0 250
-8.10505 99.2281 -10.4659 0 250 0 250
-8.95345 99.4151 -10.6247 0 250 0 250
-8.9203 99.7242 -10.584 0 250 0 250
-8.58928 100.251 -10.5572 0 250 0 250
-8.76458 100.319 -10.4603 0 250 0 250
-8.52957 100.494 -10.2339 0 250 0 250
-8.82432 99.8404 -9.97862 0 250 0 250
-8.61393 100.362 -10.1446 0 250 0 250
-8.7291 100.133 -10.068 0 250 0 250
-10.9745 90.2351 -9.93483 0 250 0 250
-9.03822 89.7738 -11.9727 0 250 0 250
-10.1601 89.6369 -11.9558 0 250 0 250
-10.2701 90.6964 -11.7979 0 250 0 250
-10.8495 90.2168 -11.2164 0 250 0 250
-10.9051 90.5981 -9.16091 0 250 0 250
-10.8505 90.8824 -9.09919 0 250 0 250
-7.82645 90.475 -11.887 0 250 0 250
-8.25753 90.105 -11.9329 0 250 0 250
-8.97871 91.1783 -11.8111 0 250 0 250
-9.8766 91.4038 -11.7947 0 250 0 250
-10.5886 92.2236 -9.7934 0 250 0 250
-10.6538 91.904 -9.25896 0 250 0 250
-10.6479 91.9223 -9.60989 0 250 0 250
-10.8559 90.7588 -8.28889 0 250 0 250
-9.83542 90.8171 -7.7378 0 250 0 250
-6.74353 90.6386 -9.35263 0 250 0 250
-6.67381 90.1461 -10.8564 0 250 0 250
-8.69299 91.3415 -11.787 0 250 0 250
-10.1183 91.94 -11.7271 0 250 0 250
-9.55963 93.0122 -11.6148 0 250 0 250
-9.29968 92.7953 -11.6303 0 250 0 250
-10.0146 92.6076 -11.6502 0 250 0 250
-10.4458 92.9777 -10.7917 0 250 0 250
-10.4987 92.5607 -11.1766 0 250 0 250
-10.5385 92.4901 -10.0335 0 250 0 250
-10.4583 92.9071 -10.1737 0 250 0 250
-10.3083 93.6568 -9.68347 0 250 0 250
-10.3423 92.3835 -8.33374 0 250 0 250
-10.3106 91.4803 -7.91878 0 250 0 250
-8.56586 90.7456 -7.72789 0 250 0 250
-6.85798 91.1368 -8.57761 0 250 0 250
-6.91761 90.8643 -8.35425 0 250 0 250
-6.87795 91.6395 -9.03532 0 250 0 250
-6.70833 90.3799 -10.323 0 250 0 250
-6.75809 90.7366 -10.2267 0 250 0 250
-6.8864 91.5683 -10.3429 0 250 0 250
-7.29946 92.2112 -11.1176 0 250 0 250
-9.56879 93.881 -11.4633 0 250 0 250
-10.2928 93.7457 -10.039 0 250 0 250
-10.2297 94.0631 -10.207 0 250 0 250
-10.0776 94.8157 -10.2798 0 250 0 250
-10.266 93.6192 -8.89988 0 250 0 250
-10.3458 92.6567 -8.51797 0 250 0 250
-8.7248 91.5888 -7.9044 0 250 0 250
-8.63895 92.0491 -8.0044 0 250 0 250
-7.34025 91.4886 -7.9787 0 250 0 250
-7.92348 91.4157 -7.88016 0 250 0 250
-7.0067 92.391 -8.7224 0 250 0 250
-7.05866 92.8355 -9.05063 0 250 0 250
-7.11707 93.1359 -9.0896 0 250 0 250
-7.20882 93.3465 -8.86876 0 250 0 250
-6.89544 91.6782 -10.0349 0 250 0 250
-7.08631 92.7017 -10.2519 0 250 0 250
-7.10149 93.134 -9.62522 0 250 0 250
-9.26428 95.0506 -11.3166 0 250 0 250
-10.215 93.96 -8.96893 0 250 0 250
-9.63002 94.1128 -8.49969 0 250 0 250
-9.16019 94.7429 -8.59634 0 250 0 250
-7.9555 93.5996 -8.3691 0 250 0 250
-7.40626 94.3133 -9.17256 0 250 0 250
-8.2646 95.2954 -11.3168 0 250 0 250
-7.9927 94.779 -11.3533 0 250 0 250
-8.80634 95.4382 -11.2985 0 250 0 250
-8.57141 95.2043 -11.3317 0 250 0 250
-8.97626 95.7458 -11.236 0 250 0 250
-9.67049 96.3819 -10.4326 0 250 0 250
-9.56405 95.7829 -9.05741 0 250 0 250
-8.34688 94.0438 -8.44955 0 250 0 250
-8.26285 95.1047 -8.69218 0 250 0 250
-7.39505 95.245 -9.82822 0 250 0 250
-7.45151 95.3979 -9.50031 0 250 0 250
-7.43797 95.3475 -10.7568 0 250 0 250
-9.55629 97.116 -9.90833 0 250 0 250
-9.23927 96.7665 -9.17922 0 250 0 250
-8.01449 95.7307 -8.89693 0 250 0 250
-7.99915 95.9997 -8.9733 0 250 0 250
-8.35858 96.8572 -9.11988 0 250 0 250
-8.71741 96.846 -9.08422 0 250 0 250
-7.59361 96.4026 -9.82699 0 250 0 250
-7.88733 97.1232 -9.68859 0 250 0 250
-8.09744 97.9578 -9.73875 0 250 0 250
-7.95616 97.9601 -10.0137 0 250 0 250
-8.51007 97.5943 -10.8755 0 250 0 250
-8.6413 98.8507 -9.6059 0 250 0 250
-8.7001 98.5523 -9.51638 0 250 0 250
-8.28896 98.6223 -10.8237 0 250 0 250
-9.24553 98.7162 -10.0798 0 250 0 250
-8.563 99.3907 -9.81791 0 250 0 250
-8.2375 99.4773 -10.5933 0 250 0 250
-10.95 90.3156 -10.2981 0 250 0 250
-8.89554 90.0223 -11.9443 0 250 0 250
-10.5742 89.9767 -11.7327 0 250 0 250
-10.2407 91.0344 -11.7765 0 250 0 250
-9.9264 90.1751 -11.9127 0 250 0 250
-9.90952 90.7823 -11.8555 0 250 0 250
-10.7146 90.3779 -11.4825 0 250 0 250
-10.9209 90.3818 -10.6387 0 250 0 250
-10.8721 90.7686 -10.333 0 250 0 250
-10.8046 90.7574 -11.1464 0 250 0 250
-10.7712 91.2396 -10.8326 0 250 0 250
-10.7214 91.5645 -10.1989 0 250 0 250
-10.6667 91.8517 -10.3964 0 250 0 250
-10.7873 91.2107 -9.27737 0 250 0 250
-7.72695 90.981 -11.8185 0 250 0 250
-7.24572 90.4681 -11.8538 0 250 0 250
-8.68089 89.7588 -11.974 0 250 0 250
-8.66211 90.2198 -11.9207 0 250 0 250
-8.79553 90.5503 -11.8832 0 250 0 250
-8.52076 90.7977 -11.8511 0 250 0 250
-9.10147 90.3354 -11.9111 0 250 0 250
-8.381 91.2203 -11.7985 0 250 0 250
-10.2224 91.3427 -11.7541 0 250 0 250
-9.53564 91.4806 -11.787 0 250 0 250
-10.299 91.6178 -11.7205 0 250 0 250
-9.83667 92.1354 -11.7204 0 250 0 250
-10.6325 91.8865 -11.1714 0 250 0 250
-10.4243 92.2224 -11.5526 0 250 0 250
-10.7843 91.234 -9.99566 0 250 0 250
-10.5162 92.5765 -9.61967 0 250 0 250
-10.6056 92.1557 -10.1888 0 250 0 250
-10.5607 92.3919 -10.359 0 250 0 250
-10.6794 91.8086 -8.9072 0 250 0 250
-10.8141 91.1189 -8.7349 0 250 0 250
-10.5689 92.1443 -8.53165 0 250 0 250
-10.6662 90.7777 -7.89792 0 250 0 250
-9.51194 91.0261 -7.78186 0 250 0 250
-9.94062 91.1402 -7.80917 0 250 0 250
-6.73642 90.1183 -8.58913 0 250 0 250
-7.03848 90.4179 -8.0663 0 250 0 250
-6.65627 89.967 -9.19171 0 250 0 250
-6.6386 89.8782 -9.79781 0 250 0 250
-6.73473 90.5723 -9.67399 0 250 0 250
-6.78303 90.9258 -9.59519 0 250 0 250
-6.79111 90.9924 -9.25731 0 250 0 250
-6.71252 90.3461 -9.09448 0 250 0 250
-6.74972 90.4403 -8.79111 0 250 0 250
-6.65863 90.0243 -10.3268 0 250 0 250
-6.88982 90.407 -11.704 0 250 0 250
-6.94175 90.7087 -11.6506 0 250 0 250
-7.7882 91.285 -11.7764 0 250 0 250
-7.0343 91.0213 -11.6164 0 250 0 250
-8.35654 91.516 -11.7604 0 250 0 250
-9.21104 91.4889 -11.7778 0 250 0 250
-9.4538 91.9102 -11.733 0 250 0 250
-8.6608 91.8548 -11.719 0 250 0 250
-8.87576 92.33 -11.6665 0 250 0 250
-9.61671 92.3624 -11.6866 0 250 0 250
-8.4968 92.7905 -11.5986 0 250 0 250
-10.4952 91.7831 -11.5883 0 250 0 250
-10.0526 92.2758 -11.6965 0 250 0 250
-9.41617 93.2815 -11.576 0 250 0 250
-10.0762 93.63 -11.334 0 250 0 250
-9.3041 93.6002 -11.5293 0 250 0 250
-10.4448 92.9364 -9.54936 0 250 0 250
-10.3928 93.1453 -9.24781 0 250 0 250
-10.3204 93.5448 -9.30656 0 250 0 250
-10.3547 93.4264 -9.9393 0 250 0 250
-9.99208 91.458 -7.87879 0 250 0 250
-10.2572 90.8873 -7.77987 0 250 0 250
-9.95701 91.9063 -7.99114 0 250 0 250
-9.95115 92.2268 -8.08678 0 250 0 250
-9.59173 91.3625 -7.85504 0 250 0 250
-9.46942 92.2765 -8.06052 0 250 0 250
-8.16858 90.8854 -7.77251 0 250 0 250
-8.62564 91.0843 -7.79832 0 250 0 250
-7.69631 90.6626 -7.77498 0 250 0 250
-7.81969 91.053 -7.82865 0 250 0 250
-7.22916 91.142 -8.0125 0 250 0 250
-6.85593 91.3985 -8.80211 0 250 0 250
-6.90795 91.4926 -8.48315 0 250 0 250
-6.90372 91.8133 -9.34062 0 250 0 250
-6.79236 90.9781 -10.4836 0 250 0 250
-6.81331 91.1272 -10.1777 0 250 0 250
-7.40578 91.8315 -11.4939 0 250 0 250
-7.55348 92.213 -11.373 0 250 0 250
-7.04719 91.7425 -11.1184 0 250 0 250
-7.64279 92.5091 -11.3367 0 250 0 250
-7.43826 92.7335 -11.0885 0 250 0 250
-7.19792 92.3856 -10.8201 0 250 0 250
-8.3836 93.313 -11.5363 0 250 0 250
-9.77009 94.1513 -11.3515 0 250 0 250
-9.14109 94.1655 -11.4521 0 250 0 250
-10.3858 93.2778 -10.4441 0 250 0 250
-10.2436 93.8143 -10.8254 0 250 0 250
-10.3692 93.2007 -11.035 0 250 0 250
-10.1833 94.3113 -9.97887 0 250 0 250
-10.1535 94.4009 -10.3912 0 250 0 250
-10.0158 94.9018 -10.6661 0 250 0 250
-9.73623 92.9354 -8.24996 0 250 0 250
-10.0701 93.1345 -8.42829 0 250 0 250
-9.4871 93.231 -8.28778 0 250 0 250
-8.76529 92.4546 -8.09274 0 250 0 250
-9.14589 91.4932 -7.88347 0 250 0 250
-8.31408 91.759 -7.94202 0 250 0 250
-8.07816 92.4981 -8.10295 0 250 0 250
-7.29714 93.0874 -8.44447 0 250 0 250
-7.91091 92.8225 -8.17562 0 250 0 250
-7.04126 91.5968 -8.20608 0 250 0 250
-7.40267 91.8619 -8.01558 0 250 0 250
-6.98602 92.3859 -9.29344 0 250 0 250
-6.83376 91.2992 -9.5108 0 250 0 250
-6.94126 92.0589 -9.60785 0 250 0 250
-7.00171 92.0057 -10.5364 0 250 0 250
-7.11829 93.0098 -10.2264 0 250 0 250
-6.97295 92.2099 -9.90774 0 250 0 250
-7.14922 93.3141 -10.2162 0 250 0 250
-7.23288 94.0733 -10.1783 0 250 0 250
-7.21024 93.8549 -9.96596 0 250 0 250
-7.85194 92.9273 -11.4278 0 250 0 250
-7.50754 93.286 -11.165 0 250 0 250
-7.31908 93.7445 -10.9409 0 250 0 250
-9.0253 93.3019 -11.5626 0 250 0 250
-8.88237 93.8673 -11.4896 0 250 0 250
-8.7727 94.1593 -11.4546 0 250 0 250
-8.2383 94.3486 -11.4309 0 250 0 250
-8.33139 94.6641 -11.3984 0 250 0 250
-9.94987 94.3894 -11.163 0 250 0 250
-9.63529 94.7461 -11.2799 0 250 0 250
-9.43831 95.381 -11.2169 0 250 0 250
-9.31436 94.7716 -11.3562 0 250 0 250
-9.87161 95.4324 -10.6707 0 250 0 250
-9.75567 95.0222 -11.1378 0 250 0 250
-10.1933 94.2669 -9.5564 0 250 0 250
-10.1642 94.2957 -9.08663 0 250 0 250
-9.30676 94.1753 -8.47982 0 250 0 250
-9.54798 92.7232 -8.174 0 250 0 250
-8.72975 92.8963 -8.18905 0 250 0 250
-8.33268 92.9469 -8.1997 0 250 0 250
-8.65617 93.3885 -8.29677 0 250 0 250
-8.87308 93.6612 -8.3586 0 250 0 250
-8.70801 93.9667 -8.42419 0 250 0 250
-7.71924 93.1072 -8.26094 0 250 0 250
-7.23911 93.8637 -9.62893 0 250 0 250
-7.26261 94.1076 -9.7886 0 250 0 250
-7.33882 94.6347 -9.68106 0 250 0 250
-7.20227 93.2527 -10.5543 0 250 0 250
-7.22414 93.7708 -10.6283 0 250 0 250
-7.4372 94.9416 -10.959 0 250 0 250
-7.28376 94.2364 -10.7451 0 250 0 250
-7.35059 94.7835 -10.6968 0 250 0 250
-8.43087 95.7271 -11.2541 0 250 0 250
-7.96683 95.4406 -11.2576 0 250 0 250
-9.28658 95.6764 -11.1941 0 250 0 250
-8.97766 94.7623 -11.3804 0 250 0 250
-9.35326 95.9832 -11.0733 0 250 0 250
-8.59326 96.8646 -11.0071 0 250 0 250
-8.54707 96.5719 -11.0843 0 250 0 250
-10.0068 95.2234 -9.85539 0 250 0 250
-10.0054 95.2 -9.50744 0 250 0 250
-9.86586 95.3366 -9.11096 0 250 0 250
-9.89128 95.635 -9.62377 0 250 0 250
-9.78741 95.8676 -9.49788 0 250 0 250
-9.32847 95.7538 -8.92321 0 250 0 250
-9.54565 96.0878 -9.21184 0 250 0 250
-8.97643 95.3988 -8.74918 0 250 0 250
-8.6649 95.7728 -8.82908 0 250 0 250
-9.0529 93.9439 -8.42285 0 250 0 250
-8.64429 94.287 -8.49347 0 250 0 250
-8.03781 94.1943 -8.52424 0 250 0 250
-8.60471 94.5912 -8.558 0 250 0 250
-7.69477 94.7388 -8.8156 0 250 0 250
-7.4368 95.5572 -9.85408 0 250 0 250
-7.47942 95.8506 -9.90498 0 250 0 250
-7.56765 95.6035 -9.25058 0 250 0 250
-9.54599 96.3019 -10.7396 0 250 0 250
-9.21238 96.8035 -10.7909 0 250 0 250
-9.75806 96.1109 -9.73326 0 250 0 250
-9.58698 96.3872 -9.40769 0 250 0 250
-8.34491 97.5626 -9.37698 0 250 0 250
-8.67574 97.5703 -9.27171 0 250 0 250
-9.09552 97.1519 -9.20219 0 250 0 250
-7.75246 95.7969 -9.06848 0 250 0 250
-7.8302 96.3087 -9.19154 0 250 0 250
-8.24971 96.2281 -8.96428 0 250 0 250
-8.62012 96.1306 -8.91082 0 250 0 250
-9.03456 95.9986 -8.9237 0 250 0 250
-8.04847 96.8098 -9.24997 0 250 0 250
-7.89128 97.934 -10.3293 0 250 0 250
-7.95599 97.6587 -9.91532 0 250 0 250
-8.11583 97.2203 -10.8943 0 250 0 250
-8.5179 97.922 -10.8538 0 250 0 250
-8.49082 98.2237 -10.8486 0 250 0 250
-8.14659 97.9294 -10.8221 0 250 0 250
-8.91809 98.0464 -10.6954 0 250 0 250
-9.01558 97.3527 -10.7127 0 250 0 250
-9.1559 98.6154 -10.4612 0 250 0 250
-8.84529 98.4169 -10.7381 0 250 0 250
-9.4344 97.6855 -9.84629 0 250 0 250
-9.37713 98.0218 -9.93773 0 250 0 250
-8.54975 97.929 -9.39283 0 250 0 250
-8.99225 97.5431 -9.27415 0 250 0 250
-8.25716 98.2694 -9.62312 0 250 0 250
-8.9386 98.5368 -9.55975 0 250 0 250
-8.36965 99.1288 -9.78027 0 250 0 250
-7.96528 98.2476 -10.0829 0 250 0 250
-8.15549 99.0038 -10.6879 0 250 0 250
-9.31273 98.3671 -9.98649 0 250 0 250
-9.11983 99.2724 -10.4076 0 250 0 250
-9.05446 99.6704 -10.2459 0 250 0 250
-8.47794 99.9636 -10.1362 0 250 0 250
-9.69724 94.4278 -11.2958 0 250 0 250
-10.0155 92.8474 -8.31629 0 250 0 250
-7.19196 93.5189 -10.4211 0 250 0 250
-8.98701 94.2184 -8.48022 0 250 0 250
-9.00124 95.7043 -8.83346 0 250 0 250
-8.34231 97.0231 -10.9727 0 250 0 250
-9.40921 94.4605 -11.3855 0 250 0 250
-8.66701 94.4441 -11.4217 0 250 0 250
-7.28317 94.3528 -9.97241 0 250 0 250
3 1 0 78 
3 83 3 504 
3 5 4 6 
3 7 9 409 
3 502 8 9 
3 10 504 90 
3 94 95 96 
3 411 11 412 
3 101 515 102 
3 103 13 415 
3 104 12 13 
3 106 14 550 
3 15 430 523 
3 110 417 526 
3 111 418 113 
3 16 17 116 
3 119 25 17 
3 124 422 541 
3 18 19 127 
3 19 547 128 
3 100 20 547 
3 20 22 131 
3 548 21 22 
3 23 550 134 
3 24 427 137 
3 556 523 428 
3 142 426 144 
3 146 558 444 
3 148 429 149 
3 150 151 432 
3 153 433 563 
3 530 26 434 
3 565 435 25 
3 157 566 26 
3 27 32 569 
3 161 453 162 
3 164 438 574 
3 165 437 167 
3 439 170 171 
3 173 441 175 
3 579 177 442 
3 128 582 177 
3 582 580 443 
3 585 28 37 
3 185 29 615 
3 186 588 619 
3 30 591 188 
3 193 446 195 
3 196 197 447 
3 562 31 448 
3 202 596 31 
3 206 596 204 
3 207 598 209 
3 211 32 210 
3 33 601 213 
3 603 216 638 
3 218 452 219 
3 34 605 221 
3 36 35 454 
3 455 456 229 
3 608 577 230 
3 38 37 459 
3 39 40 460 
3 40 52 614 
3 584 615 616 
3 616 42 617 
3 41 619 242 
3 43 44 42 
3 44 468 53 
3 624 628 461 
3 594 627 248 
3 251 252 253 
3 45 46 255 
3 630 258 46 
3 48 47 463 
3 49 57 464 
3 265 50 635 
3 268 635 267 
3 269 270 465 
3 270 457 274 
3 275 639 276 
3 281 51 667 
3 283 52 643 
3 645 53 646 
3 287 286 59 
3 288 467 289 
3 290 469 291 
3 295 293 322 
3 54 63 472 
3 657 252 298 
3 55 299 473 
3 263 661 299 
3 56 661 301 
3 666 57 664 
3 58 667 307 
3 312 59 476 
3 670 65 678 
3 317 320 60 
3 318 319 320 
3 319 322 61 
3 61 686 347 
3 293 671 672 
3 324 62 691 
3 328 63 326 
3 674 660 330 
3 677 64 697 
3 481 482 335 
3 336 483 338 
3 683 340 486 
3 65 343 485 
3 343 60 346 
3 346 347 66 
3 353 66 350 
3 487 701 698 
3 356 489 689 
3 67 690 358 
3 693 690 361 
3 364 479 694 
3 695 366 703 
3 68 697 367 
3 372 698 69 
3 373 494 387 
3 376 70 72 
3 377 492 375 
3 382 362 71 
3 71 73 495 
3 692 703 493 
3 389 387 705 
3 705 75 390 
3 393 392 706 
3 397 392 72 
3 73 390 400 
3 400 74 76 
3 75 404 74 
3 706 76 404 
3 79 410 78 
3 81 498 80 
3 2 406 496 
3 3 82 97 
3 496 406 83 
3 407 84 497 
3 408 498 85 
3 4 86 84 
3 7 500 85 
3 409 88 499 
3 87 516 86 
3 79 503 89 
3 8 92 88 
3 81 410 502 
3 10 505 89 
3 91 506 90 
3 93 108 92 
3 91 507 94 
3 107 522 95 
3 93 96 109 
3 412 11 529 
3 98 524 97 
3 510 99 130 
3 129 511 100 
3 513 497 516 
3 513 514 101 
3 99 413 102 
3 514 105 103 
3 415 13 549 
3 517 515 424 
3 499 108 518 
3 12 416 519 
3 87 104 105 
3 518 108 520 
3 14 425 521 
3 519 416 106 
3 15 522 107 
3 141 430 145 
3 555 108 109 
3 507 114 110 
3 417 112 525 
3 527 526 431 
3 111 115 528 
3 418 118 112 
3 98 113 114 
3 16 528 115 
3 117 530 116 
3 155 199 118 
3 529 11 420 
3 17 25 154 
3 529 420 119 
3 421 532 533 
3 121 535 120 
3 124 123 538 
3 422 539 540 
3 542 541 125 
3 174 126 176 
3 172 543 440 
3 126 423 127 
3 19 544 545 
3 128 547 180 
3 176 19 128 
3 510 130 546 
3 547 20 180 
3 545 544 129 
3 546 130 22 
3 132 580 131 
3 180 20 580 
3 424 549 133 
3 21 551 135 
3 517 424 548 
3 23 551 133 
3 136 552 134 
3 139 236 135 
3 24 552 136 
3 138 554 137 
3 140 236 139 
3 520 108 555 
3 428 523 141 
3 521 425 556 
3 142 145 143 
3 426 143 557 
3 553 428 144 
3 143 145 191 
3 587 190 623 
3 557 146 559 
3 148 147 152 
3 429 152 589 
3 145 430 149 
3 525 560 150 
3 432 151 589 
3 527 431 152 
3 560 561 153 
3 433 200 194 
3 192 563 445 
3 117 154 26 
3 434 26 264 
3 156 199 155 
3 533 568 564 
3 25 435 154 
3 564 568 158 
3 26 566 567 
3 154 435 157 
3 27 566 158 
3 569 32 214 
3 567 566 569 
3 436 159 570 
3 532 160 163 
3 570 573 161 
3 600 450 162 
3 599 568 163 
3 121 534 168 
3 574 438 166 
3 122 164 217 
3 540 169 165 
3 437 576 166 
3 542 167 168 
3 439 575 169 
3 226 35 170 
3 576 171 225 
3 123 172 173 
3 441 174 578 
3 539 175 178 
3 578 176 181 
3 442 177 609 
3 179 607 178 
3 128 180 582 
3 177 582 182 
3 181 128 177 
3 582 180 580 
3 581 132 236 
3 183 609 182 
3 581 236 583 
3 28 238 232 
3 183 443 585 
3 138 618 241 
3 29 586 184 
3 140 185 237 
3 587 623 707 
3 588 713 247 
3 559 444 186 
3 188 187 590 
3 190 189 623 
3 191 30 558 
3 187 192 193 
3 446 194 592 
3 189 195 198 
3 592 254 196 
3 447 197 250 
3 249 623 198 
3 561 199 203 
3 448 31 257 
3 201 629 200 
3 449 264 708 
3 31 596 257 
3 156 202 203 
3 204 595 597 
3 260 205 663 
3 257 596 206 
3 207 214 598 
3 633 208 634 
3 632 569 209 
3 210 599 450 
3 212 600 215 
3 214 32 211 
3 33 451 212 
3 208 598 213 
3 214 451 598 
3 601 215 224 
3 638 216 223 
3 272 603 638 
3 573 217 218 
3 452 574 604 
3 215 453 219 
3 221 220 36 
3 223 222 602 
3 224 34 216 
3 220 604 225 
3 454 226 228 
3 222 36 227 
3 455 227 228 
3 456 235 273 
3 602 227 229 
3 230 179 458 
3 231 458 609 
3 233 608 611 
3 38 611 231 
3 459 232 610 
3 234 606 233 
3 610 642 612 
3 460 40 273 
3 234 39 235 
3 612 642 709 
3 614 52 613 
3 273 40 639 
3 583 236 237 
3 616 615 184 
3 239 642 238 
3 616 184 42 
3 617 42 282 
3 240 642 239 
3 41 586 241 
3 243 43 242 
3 184 586 43 
3 243 714 621 
3 42 44 282 
3 184 43 42 
3 621 714 622 
3 53 468 316 
3 282 44 53 
3 624 244 628 
3 625 245 246 
3 650 714 247 
3 594 250 627 
3 245 628 248 
3 244 623 249 
3 251 250 252 
3 296 252 673 
3 297 627 253 
3 45 197 254 
3 256 655 255 
3 654 197 655 
3 462 257 259 
3 46 258 261 
3 201 462 630 
3 48 258 259 
3 463 260 631 
3 262 300 261 
3 631 663 710 
3 464 57 308 
3 262 49 263 
3 595 264 632 
3 50 209 633 
3 205 265 636 
3 267 266 465 
3 665 271 305 
3 636 268 637 
3 269 602 270 
3 271 270 305 
3 266 634 272 
3 270 602 457 
3 274 457 273 
3 277 270 274 
3 275 273 639 
3 279 466 276 
3 278 305 277 
3 279 715 641 
3 51 280 314 
3 278 466 281 
3 643 240 617 
3 645 617 282 
3 613 283 284 
3 645 282 53 
3 644 53 316 
3 285 715 284 
3 644 316 478 
3 313 59 286 
3 285 287 311 
3 622 292 288 
3 467 470 647 
3 316 468 289 
3 625 649 290 
3 469 471 647 
3 650 291 292 
3 649 246 651 
3 322 293 294 
3 647 471 295 
3 54 253 296 
3 472 63 363 
3 323 246 297 
3 298 654 655 
3 656 256 300 
3 658 657 55 
3 656 300 299 
3 473 299 659 
3 658 55 660 
3 263 308 661 
3 659 661 711 
3 300 263 299 
3 301 308 475 
3 334 302 303 
3 662 56 304 
3 664 637 474 
3 310 665 305 
3 309 666 306 
3 307 302 475 
3 309 475 308 
3 310 58 306 
3 641 311 312 
3 476 313 668 
3 315 303 314 
3 668 344 669 
3 678 65 679 
3 315 477 670 
3 478 316 321 
3 60 320 345 
3 344 478 317 
3 318 647 319 
3 320 319 345 
3 321 648 320 
3 319 647 322 
3 61 322 653 
3 345 319 61 
3 61 652 712 
3 348 686 374 
3 345 61 347 
3 651 246 323 
3 672 671 363 
3 325 652 294 
3 324 363 62 
3 357 62 383 
3 359 652 325 
3 326 333 327 
3 479 327 332 
3 363 63 328 
3 330 329 480 
3 332 331 365 
3 333 674 327 
3 329 682 339 
3 64 337 676 
3 331 480 677 
3 481 304 334 
3 482 678 679 
3 662 335 681 
3 336 679 683 
3 483 342 337 
3 681 338 339 
3 683 679 340 
3 486 340 341 
3 352 675 342 
3 669 344 343 
3 485 343 341 
3 679 65 340 
3 343 344 60 
3 346 60 345 
3 341 343 346 
3 346 345 347 
3 66 347 348 
3 341 346 66 
3 350 349 685 
3 352 351 675 
3 341 66 353 
3 349 374 684 
3 371 354 391 
3 351 487 370 
3 712 652 355 
3 689 489 687 
3 374 686 356 
3 67 691 357 
3 687 489 358 
3 355 652 359 
3 361 360 692 
3 381 386 398 
3 380 693 362 
3 62 363 479 
3 694 479 365 
3 383 62 364 
3 694 365 369 
3 703 366 368 
3 384 695 703 
3 676 696 367 
3 368 699 385 
3 369 68 366 
3 696 675 370 
3 69 698 371 
3 699 372 491 
3 490 391 700 
3 387 494 403 
3 385 490 373 
3 684 374 379 
3 70 375 378 
3 354 701 376 
3 377 688 492 
3 378 492 702 
3 379 689 375 
3 492 688 380 
3 71 362 381 
3 702 492 382 
3 71 398 73 
3 495 73 394 
3 702 71 495 
3 360 383 384 
3 493 703 385 
3 704 398 386 
3 388 385 387 
3 705 387 403 
3 704 388 389 
3 705 403 75 
3 390 75 401 
3 399 705 390 
3 700 391 396 
3 706 392 395 
3 403 494 393 
3 495 394 395 
3 72 392 396 
3 702 495 397 
3 73 398 399 
3 400 390 401 
3 394 73 400 
3 400 401 74 
3 76 74 402 
3 394 400 76 
3 75 403 405 
3 74 404 402 
3 401 75 74 
3 706 394 76 
3 404 76 402 
3 405 706 404 
3 1 78 77 
3 410 77 78 
3 406 82 3 
3 3 83 406 
3 408 500 5 
3 4 5 500 
3 7 409 501 
3 501 500 7 
3 410 505 502 
3 8 502 505 
3 10 90 506 
3 506 505 10 
3 94 508 95 
3 96 95 522 
3 506 94 96 
3 411 412 82 
3 509 82 412 
3 101 102 414 
3 413 414 102 
3 103 415 424 
3 424 515 103 
3 501 416 12 
3 12 104 501 
3 416 425 14 
3 14 106 416 
3 522 15 523 
3 110 419 417 
3 526 417 431 
3 508 110 526 
3 111 528 418 
3 113 418 419 
3 509 111 113 
3 16 116 528 
3 530 528 116 
3 420 25 119 
3 124 538 422 
3 541 422 125 
3 536 124 541 
3 440 543 423 
3 18 127 423 
3 20 131 580 
3 424 551 548 
3 21 548 551 
3 23 134 552 
3 552 551 23 
3 24 137 552 
3 554 552 137 
3 425 523 556 
3 142 143 426 
3 144 426 427 
3 428 142 144 
3 143 558 146 
3 148 152 429 
3 149 429 591 
3 430 148 149 
3 150 432 431 
3 152 431 432 
3 153 562 433 
3 563 433 445 
3 151 153 563 
3 530 434 449 
3 435 566 157 
3 566 27 569 
3 160 436 571 
3 161 162 571 
3 450 571 162 
3 535 438 164 
3 165 575 437 
3 167 437 438 
3 125 165 167 
3 439 577 170 
3 171 170 35 
3 575 439 171 
3 173 440 441 
3 175 441 579 
3 538 173 175 
3 579 442 458 
3 443 584 585 
3 28 585 584 
3 554 586 29 
3 29 185 554 
3 444 713 588 
3 588 186 444 
3 188 590 558 
3 558 30 188 
3 193 445 446 
3 195 446 593 
3 590 193 195 
3 196 447 593 
3 594 593 447 
3 562 448 462 
3 449 596 202 
3 204 597 206 
3 47 206 597 
3 569 207 209 
3 210 450 211 
3 451 211 450 
3 33 213 598 
3 598 451 33 
3 601 216 603 
3 218 574 452 
3 219 452 605 
3 453 218 219 
3 221 36 34 
3 216 34 36 
3 36 454 227 
3 455 235 456 
3 229 456 457 
3 227 455 229 
3 230 458 611 
3 611 608 230 
3 38 459 39 
3 39 611 38 
3 39 460 235 
3 40 614 639 
3 41 242 43 
3 43 586 41 
3 626 624 461 
3 594 248 628 
3 627 251 253 
3 45 255 655 
3 655 197 45 
3 462 258 630 
3 48 463 258 
3 49 258 463 
3 49 464 263 
3 597 209 265 
3 50 265 209 
3 267 465 474 
3 474 268 267 
3 638 269 465 
3 275 276 274 
3 466 274 276 
3 466 280 281 
3 51 281 280 
3 643 617 645 
3 645 283 643 
3 646 478 286 
3 286 287 646 
3 288 470 467 
3 289 467 648 
3 468 288 289 
3 290 471 469 
3 291 469 470 
3 461 290 291 
3 471 293 295 
3 54 472 253 
3 671 253 472 
3 298 655 657 
3 55 657 655 
3 55 473 660 
3 301 475 304 
3 304 56 301 
3 664 474 306 
3 306 666 664 
3 307 475 306 
3 306 58 307 
3 312 476 477 
3 477 280 312 
3 477 65 670 
3 478 320 317 
3 648 318 320 
3 672 324 691 
3 326 327 328 
3 479 328 327 
3 330 480 327 
3 327 674 330 
3 480 484 677 
3 64 677 484 
3 481 678 482 
3 335 482 680 
3 304 481 335 
3 336 683 483 
3 338 483 484 
3 680 336 338 
3 65 485 340 
3 350 685 486 
3 486 353 350 
3 488 701 487 
3 686 489 356 
3 67 358 489 
3 489 691 67 
3 361 692 693 
3 362 693 692 
3 62 479 364 
3 694 366 695 
3 367 372 366 
3 366 68 367 
3 491 69 490 
3 490 494 373 
3 701 375 376 
3 70 376 375 
3 689 377 375 
3 492 362 382 
3 692 493 388 
3 494 392 393 
3 495 392 397 
3 78 0 503 
3 503 79 78 
3 80 77 410 
3 410 81 80 
3 2 496 0 
3 503 0 496 
3 3 97 524 
3 524 504 3 
3 496 83 504 
3 504 503 496 
3 407 6 84 
3 497 84 516 
3 512 407 497 
3 408 85 500 
3 4 500 86 
3 84 86 516 
3 6 4 84 
3 85 498 7 
3 9 7 498 
3 409 9 88 
3 499 88 108 
3 501 409 499 
3 86 500 87 
3 501 87 500 
3 79 89 410 
3 505 410 89 
3 8 505 92 
3 88 92 108 
3 9 8 88 
3 81 502 498 
3 9 498 502 
3 89 503 10 
3 504 10 503 
3 90 504 91 
3 524 91 504 
3 92 505 93 
3 506 93 505 
3 91 524 507 
3 94 507 508 
3 506 91 94 
3 95 508 147 
3 147 107 95 
3 93 506 96 
3 109 96 522 
3 108 93 109 
3 509 412 529 
3 97 82 509 
3 509 98 97 
3 100 413 510 
3 99 510 413 
3 511 129 544 
3 414 512 513 
3 497 513 512 
3 513 516 514 
3 101 514 515 
3 414 513 101 
3 102 515 130 
3 130 99 102 
3 514 516 105 
3 103 105 13 
3 515 514 103 
3 424 415 549 
3 130 515 517 
3 499 518 416 
3 416 501 499 
3 12 519 549 
3 549 13 12 
3 87 501 104 
3 105 104 13 
3 516 87 105 
3 518 520 416 
3 425 416 520 
3 14 521 550 
3 553 550 521 
3 519 106 550 
3 550 549 519 
3 107 147 15 
3 430 15 147 
3 523 430 141 
3 109 522 555 
3 523 555 522 
3 507 524 114 
3 110 114 419 
3 508 507 110 
3 417 419 112 
3 525 112 199 
3 431 417 525 
3 147 508 526 
3 526 527 147 
3 509 529 115 
3 115 111 509 
3 418 528 118 
3 112 118 199 
3 419 418 112 
3 98 509 113 
3 114 113 419 
3 524 98 114 
3 115 529 17 
3 17 16 115 
3 116 17 154 
3 154 117 116 
3 118 528 530 
3 530 155 118 
3 420 531 25 
3 529 119 17 
3 533 532 568 
3 565 421 533 
3 534 121 120 
3 536 537 124 
3 123 124 537 
3 422 538 539 
3 540 539 607 
3 125 422 540 
3 534 536 541 
3 541 542 534 
3 440 423 126 
3 126 174 440 
3 543 172 537 
3 19 18 544 
3 127 19 126 
3 176 126 19 
3 19 545 547 
3 510 546 20 
3 20 100 510 
3 129 100 547 
3 547 545 129 
3 20 546 22 
3 131 22 236 
3 236 132 131 
3 424 133 551 
3 21 135 22 
3 236 22 135 
3 517 548 130 
3 22 130 548 
3 133 549 23 
3 550 23 549 
3 134 550 136 
3 553 136 550 
3 135 551 139 
3 552 139 551 
3 136 553 427 
3 427 24 136 
3 137 427 618 
3 618 138 137 
3 139 552 554 
3 554 140 139 
3 520 555 425 
3 523 425 555 
3 428 141 145 
3 521 556 553 
3 428 553 556 
3 428 145 142 
3 426 557 427 
3 618 427 557 
3 553 144 427 
3 143 191 558 
3 444 558 190 
3 190 587 444 
3 557 143 146 
3 559 146 444 
3 618 557 559 
3 430 147 148 
3 591 429 589 
3 145 149 591 
3 525 199 560 
3 150 560 151 
3 431 525 150 
3 152 432 589 
3 147 527 152 
3 560 199 561 
3 153 561 562 
3 151 560 153 
3 433 562 200 
3 194 200 629 
3 445 433 194 
3 589 151 563 
3 563 192 589 
3 530 117 26 
3 449 434 264 
3 155 530 449 
3 449 156 155 
3 533 564 435 
3 435 565 533 
3 25 531 565 
3 564 158 566 
3 566 435 564 
3 26 567 264 
3 154 157 26 
3 158 568 32 
3 32 27 158 
3 264 567 569 
3 570 159 572 
3 571 436 570 
3 163 160 571 
3 568 532 163 
3 570 572 573 
3 161 573 453 
3 571 570 161 
3 162 453 600 
3 215 600 453 
3 163 571 450 
3 450 599 163 
3 121 168 535 
3 438 535 168 
3 574 166 604 
3 122 535 164 
3 217 164 574 
3 572 122 217 
3 540 607 169 
3 165 169 575 
3 125 540 165 
3 437 575 576 
3 166 576 604 
3 438 437 166 
3 542 125 167 
3 168 167 438 
3 534 542 168 
3 169 607 577 
3 577 439 169 
3 170 577 606 
3 606 226 170 
3 576 575 171 
3 225 171 35 
3 604 576 225 
3 123 537 172 
3 173 172 440 
3 538 123 173 
3 441 440 174 
3 578 174 176 
3 579 441 578 
3 539 538 175 
3 178 175 579 
3 607 539 178 
3 578 181 177 
3 177 579 578 
3 458 442 609 
3 178 579 458 
3 458 179 178 
3 177 182 609 
3 176 128 181 
3 443 580 581 
3 132 581 580 
3 182 582 183 
3 443 183 582 
3 581 583 443 
3 584 443 583 
3 28 584 238 
3 232 238 642 
3 37 28 232 
3 183 585 609 
3 37 609 585 
3 138 241 586 
3 586 554 138 
3 615 29 184 
3 140 554 185 
3 237 185 615 
3 236 140 237 
3 444 587 713 
3 588 247 714 
3 620 619 588 
3 559 186 619 
3 619 618 559 
3 591 589 188 
3 187 188 589 
3 558 590 190 
3 189 190 590 
3 145 591 191 
3 30 191 591 
3 187 589 192 
3 193 192 445 
3 590 187 193 
3 446 445 194 
3 592 194 629 
3 593 446 592 
3 189 590 195 
3 198 195 593 
3 623 189 198 
3 592 629 254 
3 196 254 197 
3 593 592 196 
3 594 447 250 
3 198 593 594 
3 594 249 198 
3 561 203 31 
3 31 562 561 
3 462 448 257 
3 200 562 462 
3 462 201 200 
3 156 449 202 
3 203 202 31 
3 199 156 203 
3 708 264 595 
3 595 204 596 
3 47 597 205 
3 205 260 47 
3 257 206 47 
3 569 214 207 
3 209 598 633 
3 208 633 598 
3 264 569 632 
3 32 568 599 
3 599 210 32 
3 451 450 600 
3 600 212 451 
3 214 211 451 
3 212 215 33 
3 601 33 215 
3 213 601 634 
3 634 208 213 
3 601 224 216 
3 638 223 602 
3 634 601 603 
3 603 272 634 
3 573 572 217 
3 218 217 574 
3 453 573 218 
3 605 452 604 
3 215 219 605 
3 605 604 220 
3 220 221 605 
3 216 36 222 
3 222 223 216 
3 215 605 224 
3 34 224 605 
3 220 225 35 
3 35 36 220 
3 454 35 226 
3 228 226 606 
3 227 454 228 
3 602 222 227 
3 228 606 455 
3 235 455 606 
3 457 456 273 
3 602 229 457 
3 577 607 230 
3 179 230 607 
3 611 458 231 
3 606 577 608 
3 608 233 606 
3 231 609 38 
3 37 38 609 
3 459 37 232 
3 610 232 642 
3 39 459 610 
3 233 611 234 
3 39 234 611 
3 610 612 40 
3 40 39 610 
3 235 460 273 
3 606 234 235 
3 40 612 52 
3 614 613 715 
3 640 639 614 
3 583 237 615 
3 615 584 583 
3 238 584 616 
3 616 239 238 
3 239 616 617 
3 617 240 239 
3 241 618 41 
3 619 41 618 
3 242 619 243 
3 620 243 619 
3 243 621 43 
3 44 43 621 
3 621 622 468 
3 468 44 621 
3 707 623 624 
3 244 624 623 
3 461 628 625 
3 245 625 628 
3 247 713 650 
3 626 650 713 
3 248 627 245 
3 246 245 627 
3 249 594 628 
3 628 244 249 
3 627 250 251 
3 253 252 296 
3 246 627 297 
3 254 629 45 
3 46 45 629 
3 255 46 256 
3 300 256 46 
3 250 197 654 
3 462 259 258 
3 46 261 300 
3 201 630 629 
3 46 629 630 
3 259 257 47 
3 47 48 259 
3 463 47 260 
3 631 260 663 
3 49 463 631 
3 261 258 49 
3 49 262 261 
3 49 631 57 
3 263 464 308 
3 300 262 263 
3 595 632 597 
3 209 597 632 
3 50 633 635 
3 634 635 633 
3 205 597 265 
3 636 265 635 
3 663 205 636 
3 635 634 266 
3 266 267 635 
3 474 465 271 
3 271 665 474 
3 636 635 268 
3 637 268 474 
3 663 636 637 
3 638 602 269 
3 465 270 271 
3 272 638 266 
3 465 266 638 
3 305 270 277 
3 274 273 275 
3 276 639 279 
3 640 279 639 
3 277 274 466 
3 466 278 277 
3 279 641 280 
3 280 466 279 
3 51 314 667 
3 303 667 314 
3 278 281 667 
3 667 305 278 
3 709 642 643 
3 240 643 642 
3 613 52 283 
3 284 283 645 
3 715 613 284 
3 646 53 644 
3 284 645 285 
3 646 285 645 
3 646 644 478 
3 286 478 344 
3 344 313 286 
3 285 646 287 
3 311 287 59 
3 715 285 311 
3 622 714 292 
3 288 292 470 
3 468 622 288 
3 648 467 647 
3 316 289 648 
3 625 246 649 
3 290 649 471 
3 461 625 290 
3 470 469 647 
3 650 461 291 
3 292 291 470 
3 714 650 292 
3 649 651 471 
3 293 471 651 
3 653 294 652 
3 647 295 322 
3 296 673 63 
3 63 54 296 
3 671 472 363 
3 297 253 671 
3 671 323 297 
3 252 250 654 
3 654 298 252 
3 55 655 656 
3 256 656 655 
3 673 252 657 
3 657 658 673 
3 55 656 299 
3 473 659 660 
3 682 660 659 
3 673 658 660 
3 299 661 659 
3 661 308 301 
3 304 475 334 
3 302 334 475 
3 711 661 662 
3 56 662 661 
3 710 663 664 
3 637 664 663 
3 306 474 665 
3 665 310 306 
3 308 57 666 
3 666 309 308 
3 667 303 307 
3 302 307 303 
3 306 475 309 
3 305 667 310 
3 58 310 667 
3 641 715 311 
3 312 311 59 
3 280 641 312 
3 476 59 313 
3 668 313 344 
3 477 476 668 
3 314 280 477 
3 477 315 314 
3 668 669 65 
3 65 477 668 
3 315 670 303 
3 678 303 670 
3 478 321 320 
3 344 317 60 
3 648 647 318 
3 316 648 321 
3 347 686 348 
3 651 323 671 
3 671 293 651 
3 294 293 672 
3 672 325 294 
3 672 363 324 
3 691 62 357 
3 325 672 359 
3 691 359 672 
3 63 673 326 
3 333 326 673 
3 479 332 365 
3 363 328 479 
3 660 682 329 
3 329 330 660 
3 327 480 332 
3 331 332 480 
3 673 660 674 
3 674 333 673 
3 329 339 480 
3 484 480 339 
3 64 484 337 
3 676 337 675 
3 697 64 676 
3 331 677 365 
3 697 365 677 
3 334 303 678 
3 678 481 334 
3 680 482 679 
3 662 304 335 
3 681 335 680 
3 682 662 681 
3 680 679 336 
3 483 683 342 
3 337 342 675 
3 484 483 337 
3 681 680 338 
3 339 338 484 
3 682 681 339 
3 342 683 486 
3 486 352 342 
3 65 669 343 
3 340 485 341 
3 66 348 374 
3 66 374 350 
3 349 350 374 
3 486 685 352 
3 351 352 685 
3 341 353 486 
3 349 684 685 
3 488 685 684 
3 698 701 354 
3 354 371 698 
3 351 685 487 
3 370 487 698 
3 675 351 370 
3 686 355 489 
3 689 687 688 
3 374 356 689 
3 357 383 690 
3 690 67 357 
3 358 690 687 
3 688 687 690 
3 359 691 355 
3 489 355 691 
3 690 383 360 
3 360 361 690 
3 362 692 386 
3 386 381 362 
3 688 690 693 
3 693 380 688 
3 383 364 694 
3 694 369 366 
3 703 368 385 
3 383 694 695 
3 695 384 383 
3 676 675 696 
3 367 696 372 
3 697 676 367 
3 366 372 368 
3 699 368 372 
3 365 697 369 
3 68 369 697 
3 696 370 698 
3 698 372 696 
3 69 371 391 
3 391 490 69 
3 385 699 490 
3 490 700 494 
3 385 373 387 
3 684 379 375 
3 375 701 684 
3 70 378 72 
3 702 72 378 
3 354 376 72 
3 72 391 354 
3 689 688 377 
3 375 492 378 
3 374 689 379 
3 492 380 362 
3 71 381 398 
3 702 382 71 
3 360 384 703 
3 703 692 360 
3 388 493 385 
3 386 692 388 
3 388 704 386 
3 398 704 705 
3 700 396 494 
3 392 494 396 
3 706 395 394 
3 403 393 706 
3 495 395 392 
3 72 396 391 
3 702 397 72 
3 75 405 404 
3 403 706 405 
3 388 387 389 
3 587 707 713 
3 449 708 596 
3 612 709 52 
3 631 710 57 
3 659 711 682 
3 61 653 652 
3 61 712 686 
3 686 712 355 
3 699 491 490 
3 704 389 705 
3 398 705 399 
3 73 399 390 
3 713 624 626 
3 685 488 487 
3 372 69 491 
3 714 620 588 
3 596 708 595 
3 715 640 614 
3 714 243 620 
3 713 707 624 
3 461 650 626 
3 715 279 640 
3 52 709 643 
3 322 294 653 
3 682 711 662 
3 57 710 664 
3 701 488 684 
