ply
format ascii 1.0
comment Generated by Slim Ghodhbane
element vertex 178
property double x
property double y
property double z
property uchar red
property uchar green
property uchar blue
property uchar alpha
element face 330
property list uchar int vertex_index
end_header
-0.0346276 0.452165 0.268261 0 250 0 250
-0.0605636 0.473345 0.239021 0 250 0 250
-0.0556378 0.460406 0.244185 0 250 0 250
-0.0316853 0.455752 0.265062 0 250 0 250
-0.0337802 0.461508 0.262618 0 250 0 250
-0.0654099 0.474144 0.238754 0 250 0 250
-0.0586153 0.467234 0.247173 0 250 0 250
-0.0489854 0.461483 0.260204 0 250 0 250
-0.0415906 0.456882 0.265506 0 250 0 250
-0.0567479 0.466493 0.275491 0 250 0 250
-0.0327236 0.468658 0.265917 0 250 0 250
-0.0409834 0.471758 0.258353 0 250 0 250
-0.0638786 0.475837 0.237614 0 250 0 250
-0.045536 0.464853 0.287327 0 250 0 250
-0.045312 0.458564 0.287723 0 250 0 250
-0.03242 0.474693 0.278871 0 250 0 250
-0.0555828 0.478946 0.262978 0 250 0 250
-0.0542043 0.480456 0.249872 0 250 0 250
-0.04408 0.460895 0.265742 0 250 0 250
-0.0532794 0.463022 0.254755 0 250 0 250
-0.0567021 0.465928 0.256113 0 250 0 250
-0.0635109 0.47197 0.244955 0 250 0 250
-0.0628515 0.471117 0.241565 0 250 0 250
-0.0672188 0.477015 0.237347 0 250 0 250
-0.0676619 0.477604 0.238029 0 250 0 250
-0.0585596 0.462442 0.270794 0 250 0 250
-0.0548383 0.461436 0.27913 0 250 0 250
-0.0635003 0.466704 0.264916 0 250 0 250
-0.0662263 0.470519 0.253214 0 250 0 250
-0.0681367 0.474312 0.248793 0 250 0 250
-0.0681564 0.476616 0.241616 0 250 0 250
-0.0677676 0.474427 0.245923 0 250 0 250
-0.0632474 0.466517 0.26097 0 250 0 250
-0.0519347 0.460258 0.27912 0 250 0 250
-0.043458 0.460898 0.281524 0 250 0 250
-0.0322059 0.474613 0.270284 0 250 0 250
-0.0319255 0.476057 0.274319 0 250 0 250
-0.0305041 0.474291 0.271009 0 250 0 250
-0.0302413 0.476012 0.273761 0 250 0 250
-0.0644273 0.473277 0.259499 0 250 0 250
-0.0607665 0.469756 0.268109 0 250 0 250
-0.0528716 0.462729 0.281393 0 250 0 250
-0.0667574 0.476169 0.251305 0 250 0 250
-0.0352785 0.45513 0.269946 0 250 0 250
-0.0547721 0.45789 0.248058 0 250 0 250
-0.0457663 0.453974 0.255994 0 250 0 250
-0.0337549 0.451801 0.26634 0 250 0 250
-0.0481542 0.453846 0.256607 0 250 0 250
-0.0405467 0.451298 0.262149 0 250 0 250
-0.0669948 0.476357 0.236909 0 250 0 250
-0.0632622 0.4692 0.239146 0 250 0 250
-0.0619788 0.467155 0.239567 0 250 0 250
-0.0367775 0.460763 0.272689 0 250 0 250
-0.0344269 0.460718 0.275559 0 250 0 250
-0.0677746 0.478481 0.237297 0 250 0 250
-0.0679317 0.478178 0.244099 0 250 0 250
-0.0662735 0.479964 0.241777 0 250 0 250
-0.067011 0.479567 0.24233 0 250 0 250
-0.0466792 0.458023 0.289352 0 250 0 250
-0.031903 0.450308 0.268969 0 250 0 250
-0.0661411 0.477594 0.236941 0 250 0 250
-0.0641082 0.474785 0.237329 0 250 0 250
-0.0599233 0.470266 0.239364 0 250 0 250
-0.0548326 0.464907 0.24289 0 250 0 250
-0.0508274 0.456114 0.250421 0 250 0 250
-0.0494306 0.460746 0.248287 0 250 0 250
-0.0445371 0.457826 0.254174 0 250 0 250
-0.0404051 0.452502 0.261097 0 250 0 250
-0.0394654 0.45626 0.259311 0 250 0 250
-0.0343184 0.455852 0.263365 0 250 0 250
-0.0314191 0.451761 0.267644 0 250 0 250
-0.0311049 0.468425 0.267035 0 250 0 250
-0.0316656 0.461414 0.264027 0 250 0 250
-0.0656459 0.473784 0.237927 0 250 0 250
-0.0655586 0.473453 0.237689 0 250 0 250
-0.0624817 0.468764 0.240484 0 250 0 250
-0.0584737 0.463973 0.244965 0 250 0 250
-0.0591499 0.46272 0.242582 0 250 0 250
-0.0540064 0.460152 0.25121 0 250 0 250
-0.0485931 0.458814 0.258871 0 250 0 250
-0.0389005 0.452621 0.264891 0 250 0 250
-0.051679 0.465939 0.280757 0 250 0 250
-0.0553194 0.471021 0.273311 0 250 0 250
-0.0591027 0.475087 0.265029 0 250 0 250
-0.0506295 0.476067 0.271967 0 250 0 250
-0.0443392 0.47345 0.27948 0 250 0 250
-0.0491545 0.470488 0.279388 0 250 0 250
-0.040129 0.471449 0.284997 0 250 0 250
-0.0443674 0.469939 0.283797 0 250 0 250
-0.0468222 0.465989 0.284951 0 250 0 250
-0.0434869 0.468352 0.286292 0 250 0 250
-0.0373882 0.462104 0.259432 0 250 0 250
-0.0360505 0.469705 0.262914 0 250 0 250
-0.0417618 0.463783 0.254928 0 250 0 250
-0.0474259 0.466353 0.249304 0 250 0 250
-0.049618 0.480139 0.254635 0 250 0 250
-0.0469744 0.473916 0.252575 0 250 0 250
-0.0586519 0.480111 0.245499 0 250 0 250
-0.0532111 0.476733 0.247256 0 250 0 250
-0.0539867 0.469809 0.243455 0 250 0 250
-0.0590414 0.475616 0.241249 0 250 0 250
-0.0662827 0.479478 0.238005 0 250 0 250
-0.0637349 0.477246 0.238243 0 250 0 250
-0.0480725 0.462683 0.286019 0 250 0 250
-0.0464059 0.461786 0.288359 0 250 0 250
-0.0466074 0.459155 0.289449 0 250 0 250
-0.0471223 0.459512 0.284003 0 250 0 250
-0.041611 0.460258 0.28421 0 250 0 250
-0.03583 0.47606 0.267565 0 250 0 250
-0.0370289 0.477387 0.271972 0 250 0 250
-0.0409447 0.475998 0.275671 0 250 0 250
-0.0312261 0.47381 0.281801 0 250 0 250
-0.0370198 0.473766 0.281101 0 250 0 250
-0.0405714 0.47228 0.283102 0 250 0 250
-0.0353856 0.473086 0.283295 0 250 0 250
-0.0459741 0.478903 0.267792 0 250 0 250
-0.042481 0.478829 0.262535 0 250 0 250
-0.0513121 0.480989 0.259828 0 250 0 250
-0.05619 0.481903 0.252286 0 250 0 250
-0.037565 0.463003 0.275053 0 250 0 250
-0.043296 0.462876 0.273361 0 250 0 250
-0.0431375 0.462903 0.269146 0 250 0 250
-0.0495898 0.463197 0.261352 0 250 0 250
-0.0552384 0.465696 0.254273 0 250 0 250
-0.0596021 0.469034 0.247677 0 250 0 250
-0.0632707 0.472515 0.242428 0 250 0 250
-0.0661052 0.475691 0.239021 0 250 0 250
-0.0481979 0.45889 0.2865 0 250 0 250
-0.0482902 0.459944 0.286679 0 250 0 250
-0.0531414 0.460279 0.280516 0 250 0 250
-0.0590569 0.462553 0.272801 0 250 0 250
-0.0633953 0.465951 0.264445 0 250 0 250
-0.0663862 0.469982 0.256176 0 250 0 250
-0.0679394 0.473826 0.248392 0 250 0 250
-0.0684494 0.476823 0.242118 0 250 0 250
-0.0682768 0.477981 0.238846 0 250 0 250
-0.0677718 0.476391 0.241162 0 250 0 250
-0.0663771 0.47549 0.240717 0 250 0 250
-0.066344 0.473203 0.246298 0 250 0 250
-0.0634059 0.469266 0.252442 0 250 0 250
-0.060403 0.468615 0.250561 0 250 0 250
-0.0595895 0.465538 0.259723 0 250 0 250
-0.0549066 0.462751 0.2677 0 250 0 250
-0.0508457 0.463525 0.264229 0 250 0 250
-0.0487354 0.461395 0.27544 0 250 0 250
-0.0295264 0.4744 0.280328 0 250 0 250
-0.0299744 0.475202 0.277105 0 250 0 250
-0.068336 0.478913 0.239607 0 250 0 250
-0.0686206 0.478397 0.239491 0 250 0 250
-0.0685966 0.476784 0.243351 0 250 0 250
-0.0686495 0.477529 0.242789 0 250 0 250
-0.0680078 0.475022 0.249174 0 250 0 250
-0.066537 0.470649 0.256601 0 250 0 250
-0.066263 0.471737 0.25717 0 250 0 250
-0.063134 0.467998 0.265627 0 250 0 250
-0.0598895 0.463868 0.271966 0 250 0 250
-0.0586301 0.464626 0.274046 0 250 0 250
-0.0628529 0.477678 0.256715 0 250 0 250
-0.0604185 0.480683 0.254346 0 250 0 250
-0.0332674 0.456079 0.272791 0 250 0 250
-0.0324665 0.451798 0.270129 0 250 0 250
-0.0577383 0.460685 0.243304 0 250 0 250
-0.053228 0.455835 0.24911 0 250 0 250
-0.0476583 0.452662 0.25571 0 250 0 250
-0.0343754 0.450767 0.267164 0 250 0 250
-0.0666081 0.476348 0.236672 0 250 0 250
-0.0653557 0.473207 0.237518 0 250 0 250
-0.0641216 0.472561 0.237692 0 250 0 250
-0.0601734 0.466288 0.240049 0 250 0 250
-0.0374882 0.462021 0.280104 0 250 0 250
-0.0386378 0.462703 0.278501 0 250 0 250
-0.0355131 0.462625 0.277483 0 250 0 250
-0.0646964 0.480466 0.246087 0 250 0 250
-0.0622782 0.481252 0.246743 0 250 0 250
-0.0634573 0.479789 0.240723 0 250 0 250
-0.0655036 0.480366 0.241313 0 250 0 250
-0.0672949 0.479544 0.238978 0 250 0 250
-0.0653958 0.479278 0.248766 0 250 0 250
3 58 128 127 
3 160 0 164 
3 61 167 165 
3 1 99 62 
3 63 2 168 
3 94 93 65 
3 66 45 64 
3 91 4 68 
3 69 46 67 
3 71 4 10 
3 73 5 23 
3 50 77 75 
3 76 6 22 
3 44 47 78 
3 79 7 19 
3 8 52 18 
3 43 52 8 
3 81 9 41 
3 86 84 82 
3 83 39 40 
3 16 158 157 
3 88 113 85 
3 92 35 10 
3 11 116 108 
3 96 116 11 
3 98 17 95 
3 100 174 97 
3 1 12 102 
3 60 54 101 
3 109 15 36 
3 115 84 110 
3 85 113 112 
3 117 158 16 
3 95 17 118 
3 97 174 173 
3 121 52 119 
3 122 7 18 
3 123 6 19 
3 20 140 124 
3 21 137 125 
3 126 5 22 
3 24 54 23 
3 129 25 33 
3 26 155 130 
3 27 152 131 
3 132 28 32 
3 29 149 133 
3 134 30 31 
3 148 54 135 
3 24 137 136 
3 138 28 31 
3 21 140 139 
3 141 25 32 
3 20 143 142 
3 144 106 33 
3 120 170 34 
3 146 15 145 
3 38 35 36 
3 37 35 38 
3 150 55 147 
3 29 152 151 
3 153 39 42 
3 27 155 154 
3 156 9 40 
3 26 128 41 
3 177 55 42 
3 159 52 43 
3 162 47 44 
3 64 45 163 
3 67 46 48 
3 80 47 48 
3 166 74 49 
3 51 77 50 
3 161 77 51 
3 119 52 53 
3 175 56 172 
3 101 54 176 
3 147 55 57 
3 172 56 57 
3 70 59 46 
3 14 127 106 
3 58 127 14 
3 59 164 46 
3 160 164 59 
3 60 165 54 
3 61 165 60 
3 12 61 60 
3 61 62 167 
3 1 62 61 
3 12 1 61 
3 62 168 167 
3 63 168 62 
3 99 63 62 
3 63 65 2 
3 94 65 63 
3 99 94 63 
3 65 64 2 
3 66 64 65 
3 93 66 65 
3 66 68 45 
3 91 68 66 
3 93 91 66 
3 68 67 45 
3 69 67 68 
3 4 69 68 
3 69 3 46 
3 72 3 69 
3 4 72 69 
3 3 70 46 
3 37 10 35 
3 71 10 37 
3 71 72 4 
3 49 23 54 
3 73 23 49 
3 74 73 49 
3 73 75 5 
3 50 75 73 
3 74 50 73 
3 75 22 5 
3 76 22 75 
3 77 76 75 
3 76 78 6 
3 44 78 76 
3 77 44 76 
3 78 19 6 
3 79 19 78 
3 47 79 78 
3 79 18 7 
3 8 18 79 
3 47 8 79 
3 80 8 47 
3 43 8 80 
3 0 43 80 
3 103 41 128 
3 81 41 103 
3 89 81 103 
3 81 82 9 
3 86 82 81 
3 89 86 81 
3 82 40 9 
3 83 40 82 
3 84 83 82 
3 83 157 39 
3 16 157 83 
3 84 16 83 
3 86 85 84 
3 88 85 86 
3 89 88 86 
3 88 87 113 
3 90 87 88 
3 89 90 88 
3 13 90 89 
3 91 10 4 
3 92 10 91 
3 93 92 91 
3 92 108 35 
3 11 108 92 
3 93 11 92 
3 94 11 93 
3 96 11 94 
3 99 96 94 
3 96 95 116 
3 98 95 96 
3 99 98 96 
3 98 97 17 
3 100 97 98 
3 99 100 98 
3 100 102 174 
3 1 102 100 
3 99 1 100 
3 102 101 174 
3 60 101 102 
3 12 60 102 
3 103 13 89 
3 104 13 103 
3 128 104 103 
3 128 105 104 
3 58 105 128 
3 34 14 106 
3 107 14 34 
3 170 107 34 
3 170 169 107 
3 108 36 35 
3 109 36 108 
3 116 109 108 
3 109 110 15 
3 115 110 109 
3 116 115 109 
3 110 112 15 
3 85 112 110 
3 84 85 110 
3 112 111 15 
3 114 111 112 
3 113 114 112 
3 113 87 114 
3 115 16 84 
3 117 16 115 
3 116 117 115 
3 117 118 158 
3 95 118 117 
3 116 95 117 
3 118 173 158 
3 97 173 118 
3 17 97 118 
3 120 119 170 
3 121 119 120 
3 143 121 120 
3 121 18 52 
3 122 18 121 
3 143 122 121 
3 122 19 7 
3 123 19 122 
3 143 123 122 
3 123 124 6 
3 20 124 123 
3 143 20 123 
3 124 125 6 
3 21 125 124 
3 140 21 124 
3 125 22 6 
3 126 22 125 
3 137 126 125 
3 126 23 5 
3 24 23 126 
3 137 24 126 
3 127 33 106 
3 129 33 127 
3 128 129 127 
3 129 130 25 
3 26 130 129 
3 128 26 129 
3 130 131 25 
3 27 131 130 
3 155 27 130 
3 131 32 25 
3 132 32 131 
3 152 132 131 
3 132 133 28 
3 29 133 132 
3 152 29 132 
3 133 31 28 
3 134 31 133 
3 149 134 133 
3 134 135 30 
3 148 135 134 
3 149 148 134 
3 135 136 30 
3 24 136 135 
3 54 24 135 
3 136 31 30 
3 138 31 136 
3 137 138 136 
3 138 139 28 
3 21 139 138 
3 137 21 138 
3 139 32 28 
3 141 32 139 
3 140 141 139 
3 141 142 25 
3 20 142 141 
3 140 20 141 
3 142 33 25 
3 144 33 142 
3 143 144 142 
3 144 34 106 
3 120 34 144 
3 143 120 144 
3 15 111 145 
3 146 36 15 
3 38 36 146 
3 148 147 54 
3 150 147 148 
3 149 150 148 
3 150 151 55 
3 29 151 150 
3 149 29 150 
3 151 42 55 
3 153 42 151 
3 152 153 151 
3 153 154 39 
3 27 154 153 
3 152 27 153 
3 154 40 39 
3 156 40 154 
3 155 156 154 
3 156 41 9 
3 26 41 156 
3 155 26 156 
3 157 42 39 
3 177 42 157 
3 158 177 157 
3 160 43 0 
3 159 43 160 
3 159 53 52 
3 161 44 77 
3 162 44 161 
3 2 162 161 
3 162 163 47 
3 64 163 162 
3 2 64 162 
3 163 48 47 
3 67 48 163 
3 45 67 163 
3 164 48 46 
3 80 48 164 
3 0 80 164 
3 165 49 54 
3 166 49 165 
3 167 166 165 
3 166 50 74 
3 51 50 166 
3 167 51 166 
3 168 51 167 
3 161 51 168 
3 2 161 168 
3 170 171 169 
3 119 53 171 
3 170 119 171 
3 173 172 158 
3 175 172 173 
3 174 175 173 
3 175 176 56 
3 101 176 175 
3 174 101 175 
3 176 57 56 
3 147 57 176 
3 54 147 176 
3 177 57 55 
3 172 57 177 
3 158 172 177 
