ply
format ascii 1.0
comment Generated by Slim Ghodhbane
element vertex 431
property double x
property double y
property double z
property uchar red
property uchar green
property uchar blue
property uchar alpha
element face 846
property list uchar int vertex_index
end_header
3.96071 15.399 4.4498 0 250 0 250
4.41569 17.0202 4.47403 0 250 0 250
4.24948 15.5895 4.45705 0 250 0 250
4.11431 16.9595 4.45107 0 250 0 250
4.03782 16.9219 4.44955 0 250 0 250
2.24419 14.2022 4.20787 0 250 0 250
2.17715 14.1793 4.21745 0 250 0 250
1.66035 13.8493 4.14055 0 250 0 250
4.18 16.9715 4.44495 0 250 0 250
1.60676 13.7923 4.11627 0 250 0 250
2.41582 16.3793 4.23683 0 250 0 250
4.92192 16.0777 4.55039 0 250 0 250
0.676687 15.8381 4.01581 0 250 0 250
3.61708 15.1737 4.36801 0 250 0 250
4.1012 16.9413 4.46245 0 250 0 250
3.62025 15.1778 4.41245 0 250 0 250
0.531833 15.7407 4.02495 0 250 0 250
0.552283 15.778 3.99189 0 250 0 250
4.73845 15.9323 4.51489 0 250 0 250
2.92592 14.6768 4.3066 0 250 0 250
1.8862 13.9605 4.16041 0 250 0 250
2.02178 16.2566 4.18448 0 250 0 250
2.16493 14.1629 4.20706 0 250 0 250
2.10115 14.1447 4.18581 0 250 0 250
5.1403 16.5029 4.60703 0 250 0 250
2.55528 16.4431 4.25703 0 250 0 250
2.13468 16.2795 4.16331 0 250 0 250
4.94274 16.1377 4.57392 0 250 0 250
4.67555 15.8912 4.52557 0 250 0 250
3.44802 15.0932 4.40049 0 250 0 250
1.97997 14.0599 4.15304 0 250 0 250
1.30022 13.6033 4.08961 0 250 0 250
1.26585 13.5803 4.05751 0 250 0 250
1.64758 13.8315 4.11605 0 250 0 250
1.73629 13.8968 4.13873 0 250 0 250
0.664579 14.3907 4.1338 0 250 0 250
2.28948 14.2414 4.21362 0 250 0 250
1.96701 14.0331 4.16284 0 250 0 250
2.00677 14.071 4.16293 0 250 0 250
2.04841 14.1167 4.21226 0 250 0 250
2.04792 14.1123 4.15862 0 250 0 250
2.42117 14.3625 4.23498 0 250 0 250
2.38612 14.3402 4.20211 0 250 0 250
3.08713 14.7922 4.30987 0 250 0 250
3.10021 14.8195 4.32683 0 250 0 250
2.57169 14.4339 4.2581 0 250 0 250
2.32653 14.2731 4.21252 0 250 0 250
2.33985 14.2999 4.22676 0 250 0 250
2.79012 14.6221 4.25092 0 250 0 250
1.1662 13.4751 4.06485 0 250 0 250
3.48792 15.071 4.35921 0 250 0 250
3.04996 14.7612 4.31125 0 250 0 250
3.16631 14.8764 4.35754 0 250 0 250
3.18793 14.8789 4.33186 0 250 0 250
3.14518 14.8598 4.29722 0 250 0 250
3.19323 14.8984 4.3616 0 250 0 250
3.50674 15.0998 4.34638 0 250 0 250
3.54989 15.1417 4.40867 0 250 0 250
2.02024 14.0926 4.1873 0 250 0 250
3.86063 15.3391 4.42704 0 250 0 250
0.926582 15.8965 4.04502 0 250 0 250
1.02934 15.9199 4.02366 0 250 0 250
0.988633 15.9197 4.05246 0 250 0 250
1.72238 16.1388 4.10672 0 250 0 250
2.45408 16.3824 4.20422 0 250 0 250
2.48222 16.3991 4.21055 0 250 0 250
2.8208 16.5143 4.28159 0 250 0 250
2.81691 16.5048 4.25291 0 250 0 250
2.90386 16.5408 4.28813 0 250 0 250
3.23502 16.6468 4.32861 0 250 0 250
3.66035 16.7826 4.38238 0 250 0 250
3.88989 15.3505 4.40456 0 250 0 250
3.89715 16.8575 4.43284 0 250 0 250
3.94807 16.8799 4.42576 0 250 0 250
4.22076 15.5789 4.47229 0 250 0 250
4.89826 16.0625 4.56167 0 250 0 250
4.20809 15.5518 4.45316 0 250 0 250
4.2679 15.6195 4.44186 0 250 0 250
4.36997 15.6755 4.50193 0 250 0 250
4.56786 15.7926 4.50139 0 250 0 250
4.6215 15.8566 4.52645 0 250 0 250
4.62839 15.8599 4.49069 0 250 0 250
4.72786 15.9172 4.54993 0 250 0 250
4.746 17.1375 4.52494 0 250 0 250
4.75739 17.1588 4.55028 0 250 0 250
4.46345 15.7368 4.51442 0 250 0 250
4.98052 16.1769 4.57663 0 250 0 250
4.99852 16.2003 4.59744 0 250 0 250
5.00174 16.1946 4.54614 0 250 0 250
5.06303 16.3338 4.5724 0 250 0 250
5.10261 16.423 4.57236 0 250 0 250
4.97983 17.2161 4.57679 0 250 0 250
2.99687 16.6034 4.3041 0 250 0 250
3.14124 16.6156 4.33364 0 250 0 250
4.82041 15.9784 4.53415 0 250 0 250
1.33399 16.0145 4.11764 0 250 0 250
1.35617 16.0391 4.10897 0 250 0 250
2.09468 16.274 4.18611 0 250 0 250
1.86069 16.2211 4.15208 0 250 0 250
4.12384 15.4816 4.45051 0 250 0 250
0.7529 15.8796 4.01681 0 250 0 250
5.08292 16.3553 4.59787 0 250 0 250
2.01199 14.1074 4.21272 0 250 0 250
4.82146 17.1809 4.55885 0 250 0 250
3.78 16.78 4.36737 0 250 0 250
1.4979 16.1028 4.12391 0 250 0 250
2.39799 14.3588 4.25965 0 250 0 250
4.35258 17.0089 4.47303 0 250 0 250
4.38532 15.695 4.46626 0 250 0 250
4.46319 15.7364 4.48314 0 250 0 250
4.31754 17.0004 4.45213 0 250 0 250
4.39163 17.0018 4.45211 0 250 0 250
1.4979 16.1028 4.10201 0 250 0 250
4.96884 16.1487 4.55444 0 250 0 250
1.80746 13.9163 4.1623 0 250 0 250
1.24689 13.5519 4.06803 0 250 0 250
1.26021 13.5763 4.08932 0 250 0 250
4.28655 15.6401 4.5045 0 250 0 250
3.86485 16.8279 4.44803 0 250 0 250
3.7522 16.845 4.40203 0 250 0 250
1.97699 14.0631 4.18573 0 250 0 250
1.78365 16.1793 4.16786 0 250 0 250
1.73639 16.1574 4.13878 0 250 0 250
5.18323 17.3009 4.59335 0 250 0 250
0.78 15.7955 3.96957 0 250 0 250
3.97665 15.415 4.42371 0 250 0 250
4.7017 17.1234 4.55034 0 250 0 250
5.12212 16.4372 4.59746 0 250 0 250
2.72708 14.5521 4.26163 0 250 0 250
2.46775 16.3975 4.22867 0 250 0 250
2.36693 14.3118 4.21346 0 250 0 250
1.6405 16.1151 4.1541 0 250 0 250
4.63772 17.0977 4.5308 0 250 0 250
2.50274 14.4163 4.23306 0 250 0 250
1.05405 15.9406 4.04467 0 250 0 250
5.20322 16.98 4.61667 0 250 0 250
4.77487 17.1224 4.50387 0 250 0 250
1.21995 13.5399 4.08107 0 250 0 250
3.76628 15.2404 4.40164 0 250 0 250
3.70135 15.2172 4.38766 0 250 0 250
3.35887 16.718 4.35406 0 250 0 250
4.31933 15.6493 4.47735 0 250 0 250
3.09819 14.8551 4.35491 0 250 0 250
3.12777 14.8306 4.31096 0 250 0 250
5.10036 16.4221 4.60668 0 250 0 250
4.99844 17.2018 4.60076 0 250 0 250
4.80773 15.9549 4.54768 0 250 0 250
2.07179 14.1392 4.21704 0 250 0 250
5.01515 17.2322 4.5738 0 250 0 250
5.03659 17.2427 4.59851 0 250 0 250
3.19241 16.6395 4.31775 0 250 0 250
5.18613 17.0674 4.55938 0 250 0 250
3.53058 16.741 4.38086 0 250 0 250
5.16172 16.7371 4.54622 0 250 0 250
5.18318 16.6153 4.5805 0 250 0 250
5.0039 16.1971 4.57193 0 250 0 250
4.60921 15.8301 4.50506 0 250 0 250
1.48065 13.6796 4.11391 0 250 0 250
4.06759 16.8978 4.41866 0 250 0 250
2.50825 14.4494 4.20841 0 250 0 250
2.78081 14.6088 4.28644 0 250 0 250
2.77195 14.6209 4.31247 0 250 0 250
2.54122 16.4219 4.23808 0 250 0 250
1.3843 13.6589 4.08933 0 250 0 250
1.30226 13.6191 4.05649 0 250 0 250
1.20671 13.5131 4.06595 0 250 0 250
1.2765 13.5989 4.1143 0 250 0 250
1.3682 13.6374 4.11132 0 250 0 250
5.03811 16.264 4.58852 0 250 0 250
1.57983 13.78 4.1275 0 250 0 250
1.74 13.94 4.18405 0 250 0 250
2.38023 14.3358 4.23475 0 250 0 250
2.4886 14.3972 4.25602 0 250 0 250
2.6591 14.5008 4.26895 0 250 0 250
3.14083 14.8525 4.33328 0 250 0 250
3.25266 14.9144 4.35005 0 250 0 250
3.26568 14.9351 4.32686 0 250 0 250
3.60716 15.1569 4.39968 0 250 0 250
3.81996 15.2995 4.41916 0 250 0 250
3.82 15.34 4.44368 0 250 0 250
0.974086 15.8955 4.07403 0 250 0 250
2.22727 16.3447 4.2109 0 250 0 250
2.83201 16.5195 4.26107 0 250 0 250
3.55864 16.7597 4.35576 0 250 0 250
3.95252 16.8804 4.40343 0 250 0 250
1.62451 13.8313 4.15207 0 250 0 250
4.67724 17.1203 4.50248 0 250 0 250
4.26179 15.6128 4.47915 0 250 0 250
3.68909 15.1952 4.40285 0 250 0 250
3.73861 16.8227 4.39074 0 250 0 250
4.86068 16.0199 4.53479 0 250 0 250
3.9327 16.8638 4.39813 0 250 0 250
0.618264 15.796 3.9906 0 250 0 250
4.82041 15.9784 4.56002 0 250 0 250
1.57983 13.78 4.10528 0 250 0 250
3.41938 15.0201 4.36741 0 250 0 250
3.46018 15.0595 4.37281 0 250 0 250
1.72091 13.8794 4.16074 0 250 0 250
3.95367 16.872 4.45444 0 250 0 250
4.28743 16.9654 4.50423 0 250 0 250
1.10559 15.9841 4.06585 0 250 0 250
1.1 15.9187 4.01785 0 250 0 250
2.17382 16.2988 4.18632 0 250 0 250
5.03876 16.2749 4.54573 0 250 0 250
4.94274 16.1377 4.53545 0 250 0 250
5.08319 16.3854 4.55988 0 250 0 250
4.04672 15.4428 4.44867 0 250 0 250
4.41291 15.7296 4.4576 0 250 0 250
4.1 16.8699 4.40682 0 250 0 250
4.63577 17.0786 4.55093 0 250 0 250
1.78204 16.1591 4.11517 0 250 0 250
5.20245 16.7507 4.5878 0 250 0 250
1.34075 16.018 4.05778 0 250 0 250
2.06621 14.1204 4.18674 0 250 0 250
3.64477 15.2063 4.35955 0 250 0 250
3.59596 16.7622 4.40571 0 250 0 250
3.59834 16.7655 4.37842 0 250 0 250
1.65809 16.1366 4.13892 0 250 0 250
4.02974 16.8815 4.40381 0 250 0 250
5.05328 16.3509 4.54178 0 250 0 250
0.620848 15.7794 3.96231 0 250 0 250
2.77931 16.4975 4.28611 0 250 0 250
4.58062 15.819 4.5183 0 250 0 250
4.53956 15.78 4.51309 0 250 0 250
4.66067 17.102 4.49446 0 250 0 250
4.48101 17.0823 4.49737 0 250 0 250
2.74042 14.5817 4.28519 0 250 0 250
1.51095 16.0035 4.16197 0 250 0 250
2.19133 16.327 4.20904 0 250 0 250
1.86122 16.2215 4.17065 0 250 0 250
1.79628 16.1962 4.16117 0 250 0 250
1.74081 16.1532 4.16677 0 250 0 250
2.03188 16.2355 4.21102 0 250 0 250
5.15712 16.5154 4.59588 0 250 0 250
2.61826 16.4627 4.24651 0 250 0 250
2.58496 16.398 4.20993 0 250 0 250
3.50077 15.0962 4.38065 0 250 0 250
3.51937 15.1195 4.40457 0 250 0 250
4.45202 15.7134 4.49951 0 250 0 250
1.82051 13.9375 4.14871 0 250 0 250
1.93971 14.0201 4.15371 0 250 0 250
2.68631 14.5141 4.25952 0 250 0 250
1.92989 14.0008 4.16514 0 250 0 250
3.44709 15.0328 4.35641 0 250 0 250
3.77874 15.2608 4.41452 0 250 0 250
3.80668 15.2741 4.40465 0 250 0 250
0.631457 15.808 4.0145 0 250 0 250
5.20102 16.6279 4.59801 0 250 0 250
5.20322 17.06 4.5841 0 250 0 250
1.07066 15.9673 4.06394 0 250 0 250
1.43477 16.0836 4.11128 0 250 0 250
1.41484 16.0547 4.09025 0 250 0 250
1.87638 16.2441 4.16176 0 250 0 250
3.67431 16.8048 4.40283 0 250 0 250
4.46322 17.0602 4.49037 0 250 0 250
4.13736 15.5014 4.46133 0 250 0 250
4.88605 16.0331 4.5499 0 250 0 250
4.84829 15.9901 4.54936 0 250 0 250
5.11634 17.2819 4.59711 0 250 0 250
2.58299 14.4565 4.24301 0 250 0 250
2.94021 16.5229 4.26032 0 250 0 250
2.97563 16.5749 4.2951 0 250 0 250
5.18395 16.6166 4.61058 0 250 0 250
3.00374 14.7172 4.30704 0 250 0 250
0.791769 15.7857 4.06735 0 250 0 250
1.17652 15.9283 4.1123 0 250 0 250
0.618264 15.7826 4.02688 0 250 0 250
0.663297 15.8195 4.02268 0 250 0 250
0.74033 15.8613 4.02509 0 250 0 250
0.883768 15.8721 4.05474 0 250 0 250
1.42087 16.061 4.12159 0 250 0 250
1.1208 16.0026 4.06421 0 250 0 250
1.05808 15.9427 4.07538 0 250 0 250
2.24087 16.362 4.20967 0 250 0 250
4.4275 17.0481 4.50103 0 250 0 250
2.85958 14.6578 4.28376 0 250 0 250
3.28093 16.6422 4.30739 0 250 0 250
2.63249 16.4859 4.25469 0 250 0 250
3.18073 16.6235 4.30069 0 250 0 250
1.29221 16.0169 4.0918 0 250 0 250
4.02241 16.9017 4.43217 0 250 0 250
3.5421 15.1206 4.38011 0 250 0 250
0.7 15.7977 3.97058 0 250 0 250
0.811857 15.8934 4.01404 0 250 0 250
0.954658 15.8973 4.0109 0 250 0 250
1.8281 16.1634 4.11593 0 250 0 250
2.09062 16.26 4.15526 0 250 0 250
2.23378 16.2893 4.16746 0 250 0 250
1.51139 16.1259 4.11214 0 250 0 250
1.46 16.0394 4.06599 0 250 0 250
4.83709 17.2032 4.54754 0 250 0 250
5.09917 16.4935 4.54339 0 250 0 250
4.30055 16.9838 4.44665 0 250 0 250
3.36078 14.9595 4.35605 0 250 0 250
3.37615 14.9794 4.35511 0 250 0 250
2.10847 16.2755 4.21205 0 250 0 250
2.17844 16.3026 4.22135 0 250 0 250
0.604446 14.9081 4.11518 0 250 0 250
0.566243 15.1888 4.10657 0 250 0 250
0.66 14.78 4.12245 0 250 0 250
0.58 15.46 4.07479 0 250 0 250
3.54425 16.7448 4.34806 0 250 0 250
1.52563 13.7159 4.1149 0 250 0 250
1.54016 13.7379 4.11229 0 250 0 250
1.56654 13.7535 4.11562 0 250 0 250
2.32642 14.3174 4.24686 0 250 0 250
3.90177 15.3682 4.43223 0 250 0 250
4.29296 16.9863 4.478 0 250 0 250
4.82146 17.1809 4.53754 0 250 0 250
1.21743 13.5823 4.11613 0 250 0 250
5.01428 17.223 4.54569 0 250 0 250
4.43403 16.9918 4.45265 0 250 0 250
2.33162 14.3502 4.26318 0 250 0 250
5.06 16.5 4.63157 0 250 0 250
5.06041 16.3412 4.60634 0 250 0 250
1.30999 13.6228 4.11883 0 250 0 250
1.38101 13.6572 4.12238 0 250 0 250
5.01974 16.2609 4.60397 0 250 0 250
4.86 16.1287 4.59623 0 250 0 250
4.94113 16.1771 4.59905 0 250 0 250
1.49522 13.6988 4.11405 0 250 0 250
1.5 13.78 4.15335 0 250 0 250
1.66 13.8675 4.16764 0 250 0 250
1.58 13.8333 4.16473 0 250 0 250
4.64898 15.8873 4.55147 0 250 0 250
1.73703 13.8987 4.1687 0 250 0 250
4.59161 15.8674 4.54535 0 250 0 250
4.22 15.6106 4.49644 0 250 0 250
4.30026 15.6579 4.50652 0 250 0 250
3.97687 15.4194 4.4586 0 250 0 250
3.9 15.3878 4.45647 0 250 0 250
5.1663 16.9121 4.64528 0 250 0 250
2.50127 14.4171 4.26761 0 250 0 250
2.58299 14.4565 4.27035 0 250 0 250
2.4297 14.3821 4.26403 0 250 0 250
2.85734 14.659 4.31394 0 250 0 250
2.93838 14.6937 4.31101 0 250 0 250
3.26396 14.936 4.36613 0 250 0 250
2.33985 14.2999 4.20134 0 250 0 250
2.10727 14.1875 4.15267 0 250 0 250
2.02062 14.1011 4.15136 0 250 0 250
2.29959 14.2603 4.20215 0 250 0 250
2.4249 14.3804 4.20118 0 250 0 250
2.07436 14.1451 4.15581 0 250 0 250
2.22044 14.3019 4.15909 0 250 0 250
1.75099 13.9476 4.10555 0 250 0 250
1.62009 13.8198 4.10466 0 250 0 250
1.21995 13.5399 4.05676 0 250 0 250
1.17969 13.5002 4.0571 0 250 0 250
4.22076 15.5789 4.44157 0 250 0 250
4.17988 15.5395 4.44208 0 250 0 250
4.34387 15.6962 4.44451 0 250 0 250
4.06022 15.4973 4.4113 0 250 0 250
4.30283 15.6574 4.44276 0 250 0 250
3.97838 15.4331 4.4013 0 250 0 250
3.86063 15.3391 4.39349 0 250 0 250
3.81996 15.2995 4.39388 0 250 0 250
1.72092 13.9066 4.11026 0 250 0 250
1.38985 13.6939 4.06343 0 250 0 250
3.67655 15.2468 4.35762 0 250 0 250
3.54614 15.1431 4.34527 0 250 0 250
3.24376 14.9459 4.30306 0 250 0 250
3.46018 15.0595 4.34554 0 250 0 250
3.10021 14.8195 4.29734 0 250 0 250
3.05961 14.7799 4.29793 0 250 0 250
3.0177 14.7372 4.30871 0 250 0 250
2.74022 14.5794 4.24917 0 250 0 250
2.64689 14.4802 4.2568 0 250 0 250
2.69973 14.5399 4.24964 0 250 0 250
3.19008 14.8999 4.29955 0 250 0 250
2.85826 14.6806 4.25582 0 250 0 250
1.113 13.5506 4.01251 0 250 0 250
2.58822 14.5315 4.21105 0 250 0 250
5.13469 17.1953 4.55389 0 250 0 250
5.19962 17.3201 4.59836 0 250 0 250
5.18239 17.2992 4.60502 0 250 0 250
2.25731 14.2217 4.21805 0 250 0 250
1.17969 13.5002 4.07618 0 250 0 250
1.10163 13.5435 4.11097 0 250 0 250
5.04109 17.2402 4.55219 0 250 0 250
3.29814 16.6636 4.33303 0 250 0 250
3.90582 15.3785 4.39365 0 250 0 250
4.38225 15.6968 4.51047 0 250 0 250
2.76834 14.5906 4.26129 0 250 0 250
3.68295 16.7616 4.35684 0 250 0 250
3.34524 16.648 4.31254 0 250 0 250
1.89879 13.9811 4.17107 0 250 0 250
1.94842 14.0788 4.21114 0 250 0 250
1.82051 13.9375 4.17112 0 250 0 250
2.69973 14.5399 4.2733 0 250 0 250
2.70338 14.5922 4.30697 0 250 0 250
3.84781 15.3113 4.40735 0 250 0 250
3.70135 15.2172 4.41509 0 250 0 250
5.10174 17.2604 4.60406 0 250 0 250
3.31092 16.6878 4.35386 0 250 0 250
4.17016 15.5208 4.45599 0 250 0 250
4.0578 15.4589 4.46089 0 250 0 250
4.74069 15.9375 4.55781 0 250 0 250
4.86068 16.0199 4.56262 0 250 0 250
3.40894 15.0009 4.35441 0 250 0 250
5.10182 17.2597 4.58284 0 250 0 250
1.66444 13.8606 4.10464 0 250 0 250
3.73861 16.8227 4.41606 0 250 0 250
3.66035 16.7815 4.41388 0 250 0 250
3.54244 16.7274 4.40465 0 250 0 250
3.34383 16.6997 4.36238 0 250 0 250
3.29814 16.6628 4.36737 0 250 0 250
3.23042 16.6415 4.35834 0 250 0 250
2.98104 16.5812 4.31598 0 250 0 250
2.61826 16.4627 4.26957 0 250 0 250
2.54122 16.4212 4.2677 0 250 0 250
2.91912 16.5591 4.30706 0 250 0 250
2.86504 16.5235 4.3102 0 250 0 250
2.47242 16.394 4.25962 0 250 0 250
2.78752 16.4821 4.30745 0 250 0 250
3.15059 16.5995 4.35506 0 250 0 250
2.35198 16.327 4.25748 0 250 0 250
4.46322 17.0602 4.50907 0 250 0 250
4.41634 17.0238 4.51296 0 250 0 250
4.46 16.98 4.5355 0 250 0 250
4.34621 17.0041 4.50309 0 250 0 250
4.02241 16.9005 4.46037 0 250 0 250
4.89912 16.0627 4.53953 0 250 0 250
4.66243 15.8979 4.49122 0 250 0 250
4.53956 15.78 4.49024 0 250 0 250
4.52641 15.7556 4.50258 0 250 0 250
4.58062 15.819 4.48986 0 250 0 250
4.45838 15.8169 4.44965 0 250 0 250
4.74646 15.958 4.50075 0 250 0 250
4.98052 16.1808 4.54002 0 250 0 250
2.84138 14.6389 4.305 0 250 0 250
3 125 329 0 
3 254 1 274 
3 40 58 340 
3 305 130 171 
3 206 125 354 
3 187 2 77 
3 4 14 3 
3 250 105 112 
3 22 5 6 
3 322 7 197 
3 158 3 8 
3 185 9 346 
3 77 141 187 
3 100 269 283 
3 186 126 83 
3 414 66 221 
3 273 416 10 
3 27 11 204 
3 81 28 80 
3 12 282 220 
3 13 360 214 
3 199 3 14 
3 140 385 394 
3 409 414 277 
3 13 15 177 
3 266 17 16 
3 259 367 333 
3 142 143 174 
3 146 18 428 
3 275 19 335 
3 326 156 80 
3 239 20 388 
3 21 232 97 
3 233 24 127 
3 226 390 128 
3 227 232 231 
3 18 397 82 
3 23 22 147 
3 24 331 144 
3 182 66 412 
3 25 409 234 
3 202 26 97 
3 75 27 319 
3 340 58 38 
3 28 18 82 
3 34 357 345 
3 236 29 50 
3 109 238 207 
3 340 30 240 
3 196 243 362 
3 164 31 32 
3 315 166 31 
3 389 241 368 
3 137 347 115 
3 401 7 33 
3 357 34 401 
3 169 194 9 
3 36 341 46 
3 120 37 30 
3 120 30 38 
3 39 102 213 
3 343 213 40 
3 147 39 213 
3 339 23 343 
3 242 240 37 
3 389 368 128 
3 342 41 42 
3 334 106 41 
3 47 338 130 
3 44 43 363 
3 259 333 45 
3 47 46 338 
3 48 160 383 
3 377 49 348 
3 196 362 50 
3 51 364 43 
3 52 142 174 
3 369 53 54 
3 55 52 53 
3 44 363 143 
3 178 356 391 
3 360 281 56 
3 57 237 281 
3 58 102 38 
3 59 391 355 
3 59 355 71 
3 139 392 188 
3 178 245 356 
3 12 220 246 
3 60 283 269 
3 60 62 284 
3 62 61 284 
3 134 61 62 
3 122 63 217 
3 230 210 122 
3 27 204 113 
3 10 129 64 
3 129 65 64 
3 129 162 65 
3 221 66 67 
3 68 260 182 
3 150 278 93 
3 380 276 69 
3 70 384 216 
3 381 306 71 
3 354 352 206 
3 72 73 191 
3 280 218 73 
3 74 76 349 
3 75 256 422 
3 395 350 76 
3 353 141 77 
3 328 117 141 
3 328 141 78 
3 1 311 111 
3 1 111 107 
3 222 79 426 
3 190 398 257 
3 222 426 156 
3 326 80 324 
3 423 28 81 
3 324 28 82 
3 83 136 186 
3 84 83 126 
3 94 193 146 
3 75 422 11 
3 109 85 238 
3 87 319 86 
3 155 86 88 
3 203 168 88 
3 314 89 101 
3 90 144 205 
3 91 148 310 
3 74 349 2 
3 93 92 415 
3 94 190 257 
3 93 415 150 
3 96 279 95 
3 286 21 97 
3 411 408 261 
3 285 230 98 
3 290 145 91 
3 283 60 284 
3 206 99 396 
3 12 268 100 
3 144 101 205 
3 387 120 102 
3 84 103 308 
3 104 189 119 
3 270 227 105 
3 171 106 312 
3 171 312 305 
3 128 390 389 
3 336 370 263 
3 135 374 375 
3 307 199 420 
3 385 384 104 
3 260 385 235 
3 236 50 56 
3 107 418 1 
3 108 382 78 
3 176 293 337 
3 109 425 85 
3 133 332 172 
3 290 91 310 
3 111 110 107 
3 112 289 250 
3 86 113 429 
3 34 114 325 
3 116 115 32 
3 187 141 117 
3 198 72 118 
3 86 319 113 
3 358 303 320 
3 72 119 118 
3 218 280 158 
3 37 120 242 
3 231 121 122 
3 375 123 258 
3 89 203 219 
3 124 285 287 
3 125 381 354 
3 293 176 361 
3 84 126 145 
3 233 127 90 
3 226 128 366 
3 129 410 162 
3 171 130 42 
3 66 414 412 
3 122 217 131 
3 209 126 132 
3 188 13 214 
3 159 133 342 
3 188 214 139 
3 134 201 61 
3 199 307 3 
3 152 404 215 
3 321 169 323 
3 59 306 330 
3 223 425 424 
3 247 331 262 
3 247 135 331 
3 5 22 339 
3 308 136 84 
3 165 137 377 
3 139 138 392 
3 140 404 152 
3 141 108 78 
3 373 311 136 
3 226 366 383 
3 137 115 309 
3 55 29 142 
3 93 278 92 
3 174 143 54 
3 427 344 371 
3 101 144 314 
3 185 346 33 
3 373 151 153 
3 145 393 149 
3 18 146 397 
3 6 305 147 
3 317 87 155 
3 379 148 149 
3 276 150 69 
3 176 337 175 
3 374 248 151 
3 183 152 216 
3 154 153 247 
3 155 168 317 
3 163 316 167 
3 80 156 81 
3 316 163 157 
3 158 208 218 
3 133 159 45 
3 161 160 430 
3 162 235 65 
3 239 388 114 
3 358 163 164 
3 377 348 165 
3 137 165 347 
3 116 166 309 
3 31 166 116 
3 315 31 167 
3 314 168 89 
3 169 304 194 
3 388 170 114 
3 147 213 23 
3 41 106 171 
3 334 41 172 
3 344 5 339 
3 173 333 367 
3 370 19 275 
3 53 52 174 
3 55 53 175 
3 361 176 369 
3 57 281 177 
3 179 244 178 
3 246 192 266 
3 246 220 192 
3 180 60 269 
3 181 287 228 
3 275 335 430 
3 26 202 287 
3 10 413 129 
3 182 67 66 
3 380 385 276 
3 183 301 152 
3 216 384 183 
3 350 395 99 
3 73 184 191 
3 73 218 184 
3 133 45 332 
3 9 323 169 
3 9 185 323 
3 395 327 255 
3 2 327 74 
3 110 292 307 
3 23 213 343 
3 186 224 132 
3 88 86 429 
3 155 87 86 
3 88 168 155 
3 90 205 291 
3 145 148 91 
3 148 379 310 
3 149 148 145 
3 2 187 327 
3 13 188 15 
3 384 253 189 
3 190 422 256 
3 72 191 119 
3 17 266 192 
3 193 398 318 
3 358 157 163 
3 194 346 9 
3 196 29 195 
3 21 286 252 
3 34 325 197 
3 421 198 199 
3 249 200 201 
3 228 287 202 
3 428 203 204 
3 89 219 205 
3 125 206 329 
3 351 207 108 
3 109 207 427 
3 311 373 208 
3 324 80 28 
3 417 209 225 
3 210 63 122 
3 8 3 307 
3 8 307 292 
3 151 211 153 
3 251 212 96 
3 254 225 311 
3 254 311 1 
3 40 213 58 
3 305 47 130 
3 164 167 31 
3 167 164 163 
3 211 151 248 
3 369 175 53 
3 175 369 176 
3 7 322 185 
3 33 7 185 
3 359 139 214 
3 219 291 205 
3 403 253 70 
3 158 8 292 
3 3 158 4 
3 126 186 132 
3 216 215 403 
3 216 403 70 
3 95 279 265 
3 131 217 288 
3 427 235 385 
3 427 385 104 
3 208 104 191 
3 218 191 184 
3 218 208 191 
3 153 208 373 
3 291 208 153 
3 219 208 291 
3 427 104 208 
3 219 203 208 
3 235 64 65 
3 427 208 203 
3 64 235 287 
3 371 287 235 
3 235 427 371 
3 277 414 221 
3 230 229 98 
3 142 44 143 
3 223 326 85 
3 222 326 223 
3 85 425 223 
3 222 223 79 
3 326 222 156 
3 97 232 295 
3 132 224 225 
3 226 161 390 
3 232 227 416 
3 295 232 416 
3 296 181 228 
3 416 273 181 
3 416 181 296 
3 252 229 21 
3 121 229 230 
3 227 231 131 
3 416 296 295 
3 231 232 229 
3 231 229 121 
3 24 144 127 
3 262 24 233 
3 24 262 331 
3 412 411 68 
3 412 68 182 
3 75 11 27 
3 192 220 17 
3 234 277 235 
3 234 235 25 
3 28 423 18 
3 237 236 281 
3 236 237 29 
3 207 238 108 
3 340 38 30 
3 240 30 37 
3 20 240 242 
3 20 239 345 
3 240 345 340 
3 240 20 345 
3 241 173 367 
3 242 386 20 
3 36 376 5 
3 243 195 399 
3 58 213 102 
3 38 102 120 
3 245 244 138 
3 105 288 112 
3 246 267 12 
3 211 135 247 
3 135 211 248 
3 135 248 374 
3 402 119 189 
3 272 249 134 
3 270 250 251 
3 229 252 98 
3 409 277 234 
3 189 253 402 
3 417 225 254 
3 395 255 99 
3 408 92 261 
3 256 398 190 
3 79 223 424 
3 257 193 94 
3 393 258 400 
3 259 159 372 
3 428 94 146 
3 94 428 190 
3 251 289 212 
3 150 415 407 
3 261 260 411 
3 285 210 230 
3 375 374 123 
3 342 172 41 
3 172 342 133 
3 247 262 154 
3 142 51 43 
3 142 43 44 
3 365 142 336 
3 365 51 142 
3 365 336 263 
3 104 119 191 
3 189 104 384 
3 266 16 264 
3 180 264 265 
3 95 265 227 
3 105 227 131 
3 266 267 246 
3 264 268 12 
3 264 12 267 
3 268 269 100 
3 264 180 269 
3 264 269 268 
3 264 267 266 
3 105 131 288 
3 270 105 250 
3 227 270 96 
3 227 96 95 
3 271 265 279 
3 272 200 249 
3 200 265 271 
3 265 200 272 
3 180 272 62 
3 265 272 180 
3 287 181 273 
3 287 273 64 
3 56 281 236 
3 274 417 254 
3 370 275 48 
3 370 336 19 
3 42 41 171 
3 135 375 331 
3 111 311 110 
3 276 278 150 
3 278 276 385 
3 67 235 277 
3 278 261 92 
3 67 182 260 
3 278 260 261 
3 260 235 67 
3 385 260 278 
3 10 416 413 
3 385 380 394 
3 279 212 271 
3 250 289 251 
3 410 25 162 
3 345 239 114 
3 345 114 34 
3 198 73 72 
3 113 319 27 
3 303 194 304 
3 320 303 302 
3 358 320 157 
3 358 194 303 
3 310 379 373 
3 418 274 1 
3 118 119 402 
3 158 280 4 
3 13 177 281 
3 13 281 360 
3 221 67 277 
3 242 120 387 
3 122 121 230 
3 96 270 251 
3 124 282 100 
3 283 124 100 
3 124 283 284 
3 201 284 61 
3 212 201 271 
3 124 284 201 
3 282 124 220 
3 285 252 286 
3 287 286 26 
3 289 201 212 
3 288 289 112 
3 289 288 63 
3 289 124 201 
3 287 285 286 
3 285 63 210 
3 285 124 289 
3 285 289 63 
3 235 162 25 
3 32 31 116 
3 103 145 290 
3 84 145 103 
3 145 126 209 
3 291 154 233 
3 291 233 90 
3 208 158 292 
3 292 110 311 
3 292 311 208 
3 29 337 293 
3 29 293 294 
3 129 413 410 
3 339 22 23 
3 122 131 231 
3 69 150 407 
3 202 97 295 
3 202 295 296 
3 265 298 297 
3 265 297 299 
3 264 16 300 
3 265 300 298 
3 265 264 300 
3 227 299 35 
3 299 227 265 
3 378 227 35 
3 378 419 416 
3 378 416 227 
3 331 145 209 
3 331 209 419 
3 145 331 375 
3 419 378 331 
3 352 99 206 
3 54 53 174 
3 152 301 140 
3 321 320 302 
3 321 302 303 
3 321 303 304 
3 321 304 169 
3 305 36 46 
3 305 46 47 
3 36 305 376 
3 73 198 421 
3 73 421 280 
3 330 306 0 
3 59 330 179 
3 306 59 71 
3 307 107 110 
3 107 307 420 
3 107 420 418 
3 308 290 136 
3 377 137 309 
3 217 63 288 
3 260 68 411 
3 296 228 202 
3 141 353 108 
3 224 186 136 
3 310 136 290 
3 136 311 224 
3 373 136 310 
3 309 115 116 
3 315 309 166 
3 312 331 378 
3 321 378 309 
3 313 144 331 
3 317 168 314 
3 317 314 313 
3 323 378 321 
3 321 309 315 
3 316 315 167 
3 317 319 87 
3 313 319 317 
3 319 318 75 
3 318 319 313 
3 320 316 157 
3 321 316 320 
3 326 313 331 
3 326 318 313 
3 321 315 316 
3 322 323 185 
3 170 378 323 
3 324 397 318 
3 326 324 318 
3 397 324 82 
3 170 322 197 
3 325 170 197 
3 170 323 322 
3 328 382 85 
3 328 85 326 
3 382 328 78 
3 331 327 117 
3 331 117 328 
3 396 329 206 
3 331 328 326 
3 327 329 396 
3 329 330 0 
3 327 330 329 
3 331 179 330 
3 331 330 327 
3 312 378 170 
3 387 312 170 
3 392 15 188 
3 15 392 179 
3 29 179 331 
3 57 15 179 
3 147 102 39 
3 147 387 102 
3 29 57 179 
3 15 57 177 
3 312 387 147 
3 312 147 305 
3 334 312 106 
3 332 334 172 
3 333 332 45 
3 335 161 430 
3 390 332 333 
3 390 312 334 
3 390 334 332 
3 29 237 57 
3 390 331 312 
3 142 390 161 
3 142 161 335 
3 336 335 19 
3 142 335 336 
3 142 331 390 
3 337 55 175 
3 55 337 29 
3 142 29 331 
3 55 142 52 
3 311 225 224 
3 338 42 130 
3 341 338 46 
3 5 341 36 
3 340 344 339 
3 344 338 341 
3 344 341 5 
3 344 42 338 
3 344 159 342 
3 344 342 42 
3 340 339 343 
3 340 343 40 
3 344 372 159 
3 345 344 340 
3 346 401 33 
3 358 346 194 
3 347 32 115 
3 348 347 165 
3 371 348 49 
3 351 427 207 
3 353 351 108 
3 349 77 2 
3 350 349 76 
3 352 350 99 
3 352 349 350 
3 352 77 349 
3 352 427 351 
3 352 351 353 
3 352 353 77 
3 427 352 354 
3 371 347 348 
3 371 32 347 
3 371 164 32 
3 355 381 71 
3 356 355 391 
3 138 356 245 
3 359 138 139 
3 359 355 356 
3 359 356 138 
3 359 354 381 
3 359 381 355 
3 360 359 214 
3 371 358 164 
3 358 401 346 
3 358 345 357 
3 358 357 401 
3 359 427 354 
3 361 359 360 
3 362 56 50 
3 399 362 243 
3 361 294 293 
3 363 54 143 
3 364 363 43 
3 365 364 51 
3 370 365 263 
3 366 48 383 
3 368 366 128 
3 367 368 241 
3 372 367 259 
3 372 366 368 
3 372 368 367 
3 372 48 366 
3 372 370 48 
3 370 364 365 
3 370 363 364 
3 370 54 363 
3 370 361 369 
3 370 369 54 
3 361 399 294 
3 361 362 399 
3 372 361 370 
3 56 362 361 
3 360 56 361 
3 345 358 371 
3 372 359 361 
3 371 344 345 
3 427 359 372 
3 427 372 344 
3 127 144 90 
3 314 144 313 
3 374 373 123 
3 373 374 151 
3 384 70 253 
3 393 145 375 
3 393 375 258 
3 376 6 5 
3 305 6 376 
3 6 147 22 
3 232 21 229 
3 60 180 62 
3 378 377 309 
3 154 262 233 
3 134 62 272 
3 400 373 379 
3 216 152 215 
3 406 394 380 
3 154 291 153 
3 247 153 211 
3 381 0 306 
3 0 381 125 
3 10 64 273 
3 45 159 259 
3 85 382 238 
3 383 161 226 
3 383 160 161 
3 301 183 384 
3 301 384 385 
3 301 385 140 
3 286 97 26 
3 421 4 280 
3 89 168 203 
3 386 388 20 
3 386 242 387 
3 388 387 170 
3 114 170 325 
3 387 388 386 
3 136 83 84 
3 173 241 389 
3 173 389 390 
3 173 390 333 
3 178 244 245 
3 179 178 391 
3 179 391 59 
3 244 179 392 
3 244 392 138 
3 379 149 393 
3 379 393 400 
3 394 405 140 
3 98 252 285 
3 395 74 327 
3 255 327 396 
3 255 396 99 
3 74 395 76 
3 103 290 308 
3 327 187 117 
3 69 407 406 
3 69 406 380 
3 193 318 397 
3 398 75 318 
3 193 397 146 
3 398 193 257 
3 75 398 256 
3 29 294 399 
3 29 399 195 
3 196 195 243 
3 29 196 50 
3 373 400 123 
3 401 197 7 
3 197 401 34 
3 403 118 402 
3 403 402 253 
3 404 403 215 
3 404 118 403 
3 405 404 140 
3 406 404 405 
3 406 405 394 
3 407 404 406 
3 408 415 92 
3 410 414 409 
3 410 409 25 
3 415 408 411 
3 415 411 412 
3 413 414 410 
3 416 414 413 
3 414 415 412 
3 415 404 407 
3 415 118 404 
3 416 415 414 
3 415 416 419 
3 417 419 209 
3 118 415 419 
3 418 417 274 
3 419 417 418 
3 198 118 419 
3 199 198 419 
3 419 418 420 
3 419 420 199 
3 421 14 4 
3 421 199 14 
3 282 12 100 
3 200 271 201 
3 249 201 134 
3 204 429 113 
3 422 204 11 
3 428 422 190 
3 423 428 18 
3 426 81 156 
3 424 426 79 
3 427 424 425 
3 427 425 109 
3 427 81 426 
3 427 426 424 
3 427 423 81 
3 428 427 203 
3 429 203 88 
3 429 204 203 
3 428 204 422 
3 427 428 423 
3 205 101 89 
3 108 238 382 
3 225 209 132 
3 400 258 123 
3 48 275 430 
3 48 430 160 
3 96 212 279 
